<svg width="1440" height="920" viewBox="0 0 1440 920" fill="none" xmlns="http://www.w3.org/2000/svg">
<mask id="mask0_34_5" style="mask-type:alpha" maskUnits="userSpaceOnUse" x="0" y="0" width="1440" height="920">
<rect width="1440" height="920" fill="#67F6C0"/>
</mask>
<g mask="url(#mask0_34_5)">
<rect width="1440" height="920" fill="#B6FBFF"/>
<g style="mix-blend-mode:screen" opacity="0.5">
<path d="M-397 1098V550.846C-359.291 537.387 -319.151 530.412 -279.131 530.412C-249.729 530.412 -220.393 534.176 -192.13 541.902C-170.091 547.923 -148.703 556.375 -128.461 567.309C-53.3768 607.882 15.1382 680.104 97.6201 680.104C103.621 680.104 109.681 679.722 115.836 678.919C178.254 670.767 229.185 619.126 291.92 614.108C295.442 613.826 298.93 613.689 302.385 613.689C331.52 613.689 358.337 623.389 384.301 637.317C371.992 642.927 360.012 649.23 348.489 655.977C293.84 687.952 245.375 729.856 189.811 760.21C150.53 781.663 105.647 797.055 61.5278 797.055C43.22 797.055 25.0426 794.403 7.45538 788.434C-70.6768 761.936 -122.348 675.715 -204.198 665.327C-208.567 664.763 -212.918 664.464 -217.269 664.358C-218.312 664.334 -219.347 664.321 -220.388 664.321C-252.475 664.321 -283.722 675.979 -312.612 692.112C-309.851 664.937 -303.932 638.555 -289.923 614.513C-266.545 574.422 -229.214 560.477 -192.13 541.902C-220.393 534.176 -249.729 530.412 -279.131 530.412C-319.151 530.412 -359.291 537.387 -397 550.846V952.919V1098ZM889.405 793.81C830.848 793.81 772.247 778.041 722.572 746.072C712.766 739.762 703.273 732.862 693.969 725.632C727.373 717.026 760.958 704.923 794.704 692.818C857.474 670.302 920.776 647.785 984.353 647.785C995.374 647.785 1006.39 648.461 1017.43 649.929V649.931C1018.58 650.083 1019.72 650.244 1020.87 650.413C1058.49 655.981 1095.04 670.823 1131.24 685.682C1113.45 702.738 1095 719.028 1075.23 733.8C1021.99 773.595 955.723 793.81 889.405 793.81ZM1858 694.854C1788.96 688.321 1722.12 658.882 1671.19 611.766C1626.77 570.707 1592.98 516.196 1539.09 488.746C1535.31 486.815 1531.47 485.049 1527.61 483.443C1541.37 469.097 1556.39 456.358 1573.31 446.102C1604.15 427.381 1638.98 419 1674.45 419C1739.56 419 1806.87 447.213 1856.15 491.493C1856.77 492.057 1857.38 492.62 1858 493.183V694.854Z" fill="url(#paint0_radial_34_5)"/>
</g>
<g style="mix-blend-mode:screen" opacity="0.68">
<path d="M-350.205 1278C-362.058 1278 -373.915 1277.91 -385.778 1277.71C-389.513 1277.66 -393.247 1277.57 -397 1277.48V1097.96V952.785V752.053C-380.687 738.187 -363.686 725.114 -346.086 712.886C-335.37 705.448 -324.179 698.266 -312.613 691.802H-312.612C-283.722 675.658 -252.475 663.992 -220.388 663.992C-219.347 663.992 -218.312 664.005 -217.269 664.029C-212.918 664.135 -208.567 664.434 -204.198 664.998C-122.348 675.393 -70.6768 761.673 7.45538 788.189C25.0426 794.162 43.22 796.815 61.5278 796.815C105.647 796.815 150.53 781.413 189.811 759.946C245.375 729.571 293.84 687.638 348.489 655.643C360.012 648.891 371.992 642.584 384.301 636.97C386.789 635.837 389.29 634.731 391.802 633.656C422.869 620.364 455.825 611.737 488.669 611.737C502.373 611.737 516.055 613.238 529.576 616.529C594.087 632.234 641.003 684.166 693.969 725.345C703.273 732.579 712.766 739.484 722.572 745.798C772.247 777.789 830.848 793.568 889.405 793.568C955.723 793.568 1021.99 773.34 1075.23 733.518C1095 718.736 1113.45 702.435 1131.24 685.367C1180.87 637.763 1225.4 584.223 1279.2 541.296C1328.44 502.024 1391.46 472.336 1452.8 470.134C1455.25 470.046 1457.7 470 1460.13 470C1483.23 470 1505.99 474.008 1527.61 482.992C1531.47 484.599 1535.31 486.366 1539.09 488.299C1592.98 515.767 1626.77 570.315 1671.19 611.402C1722.12 658.55 1788.96 688.009 1858 694.545C1788.96 688.009 1722.12 658.55 1671.19 611.402C1626.77 570.315 1592.98 515.767 1539.09 488.299C1514.13 475.573 1487.35 470 1460.13 470C1457.7 470 1455.25 470.046 1452.8 470.134C1474.7 481.375 1494.84 496.544 1511.28 514.181C1563.86 570.526 1589.69 645.864 1621.4 716.128C1653.13 786.375 1696.56 857.713 1767.04 888.863C1789.87 898.964 1814.1 904.186 1838.81 907.691C1845.17 908.593 1851.59 909.382 1858 910.112V1163.66C1811.17 1176.05 1761.65 1181.51 1713.35 1185.27C1610.5 1193.25 1507.44 1195.84 1404.32 1195.84C1309.99 1195.84 1215.62 1193.68 1121.21 1191.52C1026.81 1189.36 932.398 1187.2 838.06 1187.2C750.45 1187.2 662.908 1189.06 575.469 1194.52C266.113 1213.81 -40.5303 1278 -350.205 1278ZM-397 752.053V863.475C-385.038 848.745 -374.327 832.73 -364.408 816.697C-339.304 776.12 -316.701 732.919 -281.713 700.465C-265.558 685.471 -246.285 673.209 -225.391 666.003C-222.96 665.157 -220.194 664.54 -217.269 664.029C-217.273 664.029 -217.269 664.029 -217.273 664.029C-218.312 664.005 -219.35 663.992 -220.388 663.992C-265.322 663.992 -308.602 686.867 -346.086 712.886C-363.686 725.114 -380.687 738.187 -397 752.053Z" fill="url(#paint1_radial_34_5)"/>
</g>
</g>
<defs>
<radialGradient id="paint0_radial_34_5" cx="0" cy="0" r="1" gradientUnits="userSpaceOnUse" gradientTransform="translate(968.617 609.064) rotate(91.5703) scale(513.094 513.392)">
<stop stop-color="#A6DD82"/>
<stop offset="1" stop-color="#3DA873"/>
</radialGradient>
<radialGradient id="paint1_radial_34_5" cx="0" cy="0" r="1" gradientUnits="userSpaceOnUse" gradientTransform="translate(922.922 605.184) rotate(72.0249) scale(694.805 694.752)">
<stop stop-color="#A6DD82"/>
<stop offset="0.99928" stop-color="#46BE7E"/>
<stop offset="1" stop-color="#46BE7E"/>
</radialGradient>
</defs>
</svg>
