<svg width="583" height="92" viewBox="0 0 583 92" fill="none" xmlns="http://www.w3.org/2000/svg">
<g style="mix-blend-mode:screen" opacity="0.7">
<path d="M762.431 91.5321L0.937133 81.3855L158.325 71.7654C158.325 71.7654 164.263 48.5442 190.244 45.3327C191.249 45.2083 192.224 45.1343 193.181 45.1103C217.082 44.5105 227.456 73.8727 227.456 73.8727C227.456 73.8727 282.501 34.0501 317.577 29.3214C319.066 29.1229 320.556 29.0111 322.061 28.9733C356.189 28.1168 395.43 67.0916 395.43 67.0916C395.43 67.0916 362.78 12.8118 412.053 2.60167C416.992 1.57912 422.578 1.02986 428.653 0.877413C483.219 -0.491969 576.984 30.2479 588.936 39.1756C602.212 49.0926 583.255 72.6281 583.255 72.6281L762.431 91.5321Z" fill="url(#paint0_radial_35_84924)"/>
</g>
<defs>
<radialGradient id="paint0_radial_35_84924" cx="0" cy="0" r="1" gradientUnits="userSpaceOnUse" gradientTransform="translate(444.9 17.0383) rotate(46.7782) scale(108.596 183.798)">
<stop stop-color="#A6DD82"/>
<stop offset="0.99928" stop-color="#46BE7E"/>
<stop offset="1" stop-color="#46BE7E"/>
</radialGradient>
</defs>
</svg>
