<svg width="363" height="57" viewBox="0 0 363 57" fill="none" xmlns="http://www.w3.org/2000/svg">
<g style="mix-blend-mode:screen" opacity="0.7">
<path d="M353.969 55.2064L353.951 54.7522L342.142 55.2325L342.124 54.7784L330.77 55.2402L330.751 54.7861L318.943 55.2664L318.924 54.8122L307.116 55.2926L307.097 54.8384L295.289 55.3188L295.271 54.8646L283.462 55.3449L283.444 54.8908L271.635 55.3711L271.617 54.9169L259.809 55.3973L259.79 54.9431L247.982 55.4235L247.963 54.9693L236.155 55.4496L236.136 54.9955L224.328 55.4758L224.31 55.0216L212.501 55.502L212.483 55.0478L200.674 55.5282L200.656 55.074L189.302 55.5359L189.283 55.0817L177.475 55.562L177.456 55.1079L165.648 55.5882L165.629 55.1341L153.821 55.6144L153.803 55.1602L141.994 55.6406L141.976 55.1864L130.167 55.6667L130.149 55.2126L118.341 55.6929L118.322 55.2388L106.514 55.7191L106.495 55.2649L94.6869 55.7453L94.6684 55.2911L82.86 55.7715L82.8415 55.3173L71.0332 55.7976L71.0147 55.3435L59.2063 55.8238L59.1878 55.3696L47.8336 55.8315L47.8152 55.3773L36.0068 55.8577L35.9883 55.4035L24.1799 55.8839L24.1615 55.4297L12.3531 55.91L12.3346 55.4559L0.52624 55.9362L0.507766 55.482L-11.3006 55.9624L-11.3191 55.5082L-23.1275 55.9886L-23.1459 55.5344L-34.9543 56.0147L-34.9728 55.5606L-37.2436 55.6529L-37.2621 55.1988L-29.9954 54.9032L-30.0139 54.449L-20.9305 54.0795L-20.949 53.6254L-11.4115 53.2374L-11.4299 52.7832L-2.34657 52.4137L-2.36504 51.9595L6.71832 51.5901L6.69985 51.1359L15.7832 50.7664L15.7647 50.3122L25.3023 49.9242L25.2838 49.4701L34.3672 49.1006L34.3487 48.6464L43.432 48.2769L43.4136 47.8228L52.4969 47.4533L52.4785 46.9991L57.9285 46.7774L57.91 46.3232L58.3642 46.3047L58.3457 45.8506L58.7999 45.8321L58.7629 44.9238L59.2171 44.9053L59.1986 44.4511L59.6528 44.4327L59.6343 43.9785L60.0885 43.96L60.07 43.5058L60.5242 43.4874L60.5057 43.0332L60.9599 43.0147L60.9414 42.5606L61.3956 42.5421L61.3771 42.0879L61.8312 42.0694L61.8128 41.6153L62.2669 41.5968L62.2485 41.1426L62.7026 41.1241L62.6842 40.67L63.1383 40.6515L63.1199 40.1973L63.574 40.1789L63.5555 39.7247L64.0097 39.7062L63.9912 39.2521L64.4454 39.2336L64.4269 38.7794L64.8811 38.7609L64.8626 38.3068L65.3168 38.2883L65.2983 37.8341L65.7525 37.8156L65.734 37.3615L66.1882 37.343L66.1697 36.8888L66.6239 36.8704L66.6054 36.4162L67.0596 36.3977L67.0411 35.9436L67.4953 35.9251L67.4768 35.4709L68.3851 35.434L68.3667 34.9798L68.8208 34.9613L68.8023 34.5071L69.2565 34.4887L69.238 34.0345L69.6922 34.016L69.6737 33.5619L70.1279 33.5434L70.1094 33.0892L70.5636 33.0707L70.5451 32.6166L70.9993 32.5981L70.9808 32.1439L71.435 32.1255L71.4165 31.6713L72.3248 31.6343L72.3064 31.1802L72.7605 31.1617L72.7421 30.7075L73.1962 30.6891L73.1777 30.2349L73.6319 30.2164L73.6134 29.7622L74.0676 29.7438L74.0491 29.2896L74.9575 29.2527L74.939 28.7985L75.3932 28.78L75.3747 28.3258L75.8289 28.3074L75.8104 27.8532L76.7187 27.8162L76.7002 27.3621L77.1544 27.3436L77.1359 26.8894L77.5901 26.871L77.5716 26.4168L78.48 26.3798L78.4615 25.9257L78.9157 25.9072L78.8972 25.453L79.3514 25.4346L79.3329 24.9804L80.2412 24.9434L80.2227 24.4893L80.6769 24.4708L80.6584 24.0166L81.5668 23.9797L81.5483 23.5255L82.0025 23.507L81.984 23.0529L82.8923 23.0159L82.8739 22.5617L83.7822 22.5248L83.7637 22.0706L84.2179 22.0522L84.1994 21.598L85.1078 21.561L85.0893 21.1069L85.9976 21.0699L85.9791 20.6158L86.8875 20.5788L86.869 20.1246L87.7773 20.0877L87.7589 19.6335L88.6672 19.5966L88.6487 19.1424L90.0112 19.087L89.9928 18.6328L91.3553 18.5774L91.3368 18.1232L92.6993 18.0678L92.6808 17.6136L94.4975 17.5397L94.479 17.0856L100.383 16.8454L100.402 17.2996L102.218 17.2257L102.237 17.6798L103.599 17.6244L103.618 18.0786L104.526 18.0416L104.545 18.4958L105.453 18.4588L105.471 18.913L106.38 18.8761L106.398 19.3302L107.307 19.2933L107.325 19.7474L108.233 19.7105L108.252 20.1647L108.706 20.1462L108.724 20.6003L109.633 20.5634L109.651 21.0176L110.105 20.9991L110.124 21.4533L111.032 21.4163L111.051 21.8705L111.505 21.852L111.523 22.3062L112.432 22.2692L112.45 22.7234L112.904 22.7049L112.923 23.1591L113.377 23.1406L113.396 23.5948L113.85 23.5763L113.868 24.0305L114.322 24.012L114.341 24.4662L115.249 24.4292L115.268 24.8834L115.722 24.8649L115.74 25.3191L116.194 25.3006L116.213 25.7548L116.667 25.7363L116.686 26.1905L117.14 26.172L117.158 26.6262L117.612 26.6077L117.631 27.0619L118.085 27.0434L118.103 27.4975L118.558 27.4791L118.576 27.9332L119.03 27.9148L119.049 28.3689L119.503 28.3505L119.521 28.8046L119.976 28.7862L119.994 29.2403L120.448 29.2218L120.467 29.676L120.921 29.6575L120.939 30.1117L121.393 30.0932L121.412 30.5474L121.866 30.5289L121.903 31.4373L122.357 31.4188L122.376 31.873L122.83 31.8545L122.848 32.3086L123.303 32.2902L123.321 32.7443L123.775 32.7259L123.794 33.18L124.248 33.1616L124.266 33.6157L124.72 33.5973L124.757 34.5056L125.212 34.4871L125.23 34.9413L125.684 34.9228L125.703 35.377L126.157 35.3585L126.175 35.8127L126.629 35.7942L126.666 36.7025L127.121 36.6841L127.139 37.1382L127.593 37.1198L127.612 37.5739L128.066 37.5554L128.084 38.0096L128.539 37.9911L128.575 38.8995L129.03 38.881L129.048 39.3352L129.502 39.3167L129.521 39.7709L129.975 39.7524L130.012 40.6607L130.466 40.6422L130.485 41.0964L130.939 41.0779L130.976 41.9863L131.43 41.9678L131.448 42.422L131.902 42.4035L131.939 43.3118L132.394 43.2934L132.412 43.7475L132.866 43.7291L132.903 44.6374L133.357 44.6189L133.339 44.1647L133.793 44.1463L133.775 43.6921L134.683 43.6552L134.664 43.201L135.119 43.1825L135.1 42.7283L136.008 42.6914L135.99 42.2372L136.444 42.2187L136.426 41.7646L137.334 41.7276L137.316 41.2735L137.77 41.255L137.751 40.8008L138.66 40.7639L138.641 40.3097L139.549 40.2728L139.531 39.8186L139.985 39.8001L139.967 39.3459L140.875 39.309L140.857 38.8548L141.311 38.8363L141.292 38.3822L142.201 38.3452L142.182 37.8911L143.09 37.8541L143.072 37.3999L143.526 37.3815L143.508 36.9273L144.416 36.8904L144.397 36.4362L144.852 36.4177L144.833 35.9635L145.742 35.9266L145.723 35.4724L146.631 35.4355L146.613 34.9813L147.067 34.9628L147.049 34.5087L147.957 34.4717L147.938 34.0175L148.393 33.9991L148.374 33.5449L149.282 33.508L149.264 33.0538L150.172 33.0168L150.154 32.5627L150.608 32.5442L150.59 32.09L151.498 32.0531L151.479 31.5989L152.388 31.562L152.369 31.1078L152.823 31.0893L152.805 30.6351L153.713 30.5982L153.695 30.144L154.603 30.1071L154.585 29.6529L155.039 29.6344L155.02 29.1803L155.929 29.1433L155.91 28.6891L156.819 28.6522L156.8 28.198L157.254 28.1796L157.236 27.7254L158.144 27.6884L158.126 27.2343L159.034 27.1973L159.016 26.7432L159.47 26.7247L159.451 26.2705L160.36 26.2336L160.341 25.7794L161.249 25.7424L161.231 25.2883L162.139 25.2513L162.121 24.7972L162.575 24.7787L162.557 24.3245L163.465 24.2876L163.446 23.8334L164.355 23.7964L164.336 23.3423L165.245 23.3053L165.226 22.8512L165.68 22.8327L165.662 22.3785L166.57 22.3416L166.552 21.8874L167.46 21.8505L167.442 21.3963L168.35 21.3593L168.331 20.9052L168.786 20.8867L168.767 20.4325L169.675 20.3956L169.657 19.9414L170.565 19.9045L170.547 19.4503L171.455 19.4133L171.437 18.9592L172.345 18.9222L172.327 18.468L173.235 18.4311L173.216 17.9769L173.671 17.9585L173.652 17.5043L174.56 17.4673L174.542 17.0132L175.45 16.9762L175.432 16.5221L176.34 16.4851L176.322 16.0309L177.23 15.994L177.212 15.5398L178.12 15.5029L178.101 15.0487L179.01 15.0117L178.991 14.5576L179.9 14.5206L179.881 14.0665L180.789 14.0295L180.771 13.5753L181.679 13.5384L181.661 13.0842L182.569 13.0473L182.551 12.5931L183.459 12.5562L183.441 12.102L184.349 12.065L184.33 11.6109L185.239 11.5739L185.22 11.1198L186.129 11.0828L186.11 10.6286L187.018 10.5917L187 10.1375L187.908 10.1006L187.89 9.6464L188.798 9.60945L188.78 9.15528L189.688 9.11834L189.67 8.66417L190.578 8.62722L190.559 8.17305L191.922 8.11762L191.903 7.66346L192.812 7.62651L192.793 7.17234L194.156 7.11692L194.137 6.66275L195.046 6.6258L195.027 6.17163L195.936 6.13468L195.917 5.68051L197.28 5.62509L197.261 5.17092L198.169 5.13397L198.151 4.6798L199.513 4.62438L199.495 4.17021L200.858 4.11478L200.839 3.66062L202.202 3.60519L202.183 3.15102L203.546 3.0956L203.527 2.64143L205.344 2.56753L205.325 2.11336L207.142 2.03946L207.124 1.5853L209.848 1.47445L209.83 1.02028L214.372 0.835531L214.39 1.2897L216.661 1.19733L216.68 1.65149L218.042 1.59607L218.06 2.05024L219.423 1.99481L219.441 2.44898L220.804 2.39356L220.822 2.84773L221.731 2.81078L221.749 3.26494L222.658 3.22799L222.676 3.68216L223.584 3.64521L223.603 4.09938L224.511 4.06243L224.53 4.5166L224.984 4.49813L225.002 4.9523L225.911 4.91535L225.929 5.36951L226.383 5.35104L226.402 5.80521L227.31 5.76826L227.329 6.22242L227.783 6.20395L227.801 6.65812L228.255 6.63964L228.274 7.09381L229.182 7.05686L229.201 7.51103L229.655 7.49255L229.673 7.94672L230.127 7.92825L230.146 8.38242L230.6 8.36394L230.619 8.81811L231.527 8.78116L231.545 9.23533L232 9.21685L232.018 9.67102L232.472 9.65255L232.491 10.1067L232.945 10.0882L232.963 10.5424L233.418 10.5239L233.436 10.9781L233.89 10.9596L233.909 11.4138L234.363 11.3953L234.381 11.8495L234.835 11.831L234.854 12.2852L235.762 12.2482L235.781 12.7024L236.235 12.6839L236.253 13.1381L236.708 13.1196L236.726 13.5738L237.18 13.5553L237.199 14.0095L237.653 13.991L237.671 14.4452L238.125 14.4267L238.144 14.8809L238.598 14.8624L238.635 15.7707L239.089 15.7523L239.108 16.2064L239.562 16.1879L239.58 16.6421L240.035 16.6236L240.053 17.0778L240.507 17.0593L240.526 17.5135L240.98 17.495L240.998 17.9492L241.452 17.9307L241.471 18.3849L241.925 18.3664L241.944 18.8206L242.398 18.8021L242.416 19.2563L242.87 19.2378L242.889 19.692L243.343 19.6735L243.38 20.5818L243.834 20.5634L243.853 21.0175L244.307 20.9991L244.325 21.4532L244.779 21.4347L244.798 21.8889L245.252 21.8704L245.271 22.3246L245.725 22.3061L245.762 23.2145L246.216 23.196L246.234 23.6502L246.688 23.6317L246.707 24.0859L247.161 24.0674L247.18 24.5215L247.634 24.5031L247.671 25.4114L248.125 25.3929L248.143 25.8471L248.598 25.8286L248.616 26.2828L249.07 26.2643L249.089 26.7185L249.543 26.7L249.58 27.6084L250.034 27.5899L250.052 28.044L250.507 28.0256L250.525 28.4797L250.979 28.4613L251.016 29.3696L251.47 29.3511L251.489 29.8053L251.943 29.7868L251.98 30.6952L252.434 30.6767L252.453 31.1308L252.907 31.1124L252.925 31.5665L253.379 31.5481L253.416 32.4564L253.871 32.4379L253.889 32.8921L254.343 32.8736L254.38 33.782L254.834 33.7635L254.853 34.2177L255.307 34.1992L255.344 35.1075L255.798 35.089L255.816 35.5432L256.271 35.5247L256.289 35.9789L256.743 35.9604L256.78 36.8688L257.234 36.8503L257.271 37.7586L257.726 37.7401L257.744 38.1943L258.198 38.1758L258.235 39.0842L258.689 39.0657L258.708 39.5199L260.07 39.4644L260.089 39.9186L262.36 39.8262L262.378 40.2804L265.103 40.1696L265.122 40.6237L267.392 40.5314L267.411 40.9855L269.682 40.8932L269.7 41.3473L272.425 41.2365L272.444 41.6906L274.715 41.5983L274.733 42.0524L277.458 41.9416L277.476 42.3958L279.747 42.3034L279.766 42.7575L282.037 42.6652L282.055 43.1193L284.78 43.0085L284.799 43.4627L287.069 43.3703L287.088 43.8245L289.359 43.7321L289.377 44.1862L292.102 44.0754L292.121 44.5296L294.392 44.4372L294.41 44.8914L296.681 44.799L296.699 45.2532L299.424 45.1423L299.443 45.5965L301.714 45.5041L301.732 45.9583L304.457 45.8474L304.476 46.3016L306.746 46.2092L306.765 46.6634L309.036 46.571L309.054 47.0252L311.779 46.9143L311.798 47.3685L314.069 47.2761L314.087 47.7303L316.358 47.6379L316.376 48.0921L319.101 47.9812L319.12 48.4354L321.391 48.343L321.409 48.7972L324.134 48.6864L324.153 49.1405L326.424 49.0481L326.442 49.5023L328.713 49.4099L328.731 49.8641L331.456 49.7533L331.475 50.2074L333.746 50.1151L333.764 50.5692L336.035 50.4768L336.053 50.931L338.778 50.8202L338.797 51.2743L341.068 51.182L341.086 51.6361L343.811 51.5253L343.83 51.9795L346.101 51.8871L346.119 52.3412L348.39 52.2489L348.408 52.703L351.133 52.5922L351.152 53.0464L353.423 52.954L353.441 53.4082L355.712 53.3158L355.73 53.7699L358.455 53.6591L358.474 54.1133L360.745 54.0209L360.763 54.4751L362.58 54.4012L362.598 54.8553" fill="url(#paint0_radial_35_84928)"/>
</g>
<defs>
<radialGradient id="paint0_radial_35_84928" cx="0" cy="0" r="1" gradientUnits="userSpaceOnUse" gradientTransform="translate(195.026 11.6692) rotate(49.9262) scale(62.0626 102.334)">
<stop stop-color="#A6DD82"/>
<stop offset="0.99928" stop-color="#46BE7E"/>
<stop offset="1" stop-color="#46BE7E"/>
</radialGradient>
</defs>
</svg>
