<svg width="400" height="459" viewBox="0 0 400 459" fill="none" xmlns="http://www.w3.org/2000/svg">
<path d="M308.443 404.061C304.154 400.117 298.25 398.692 292.003 399.555C262.767 372.038 234.86 358.204 209.008 365.422L196.349 401.034C219.749 411.444 261.287 445.111 266.575 449.426C276.316 457.37 292.688 454.699 304.25 442.166C315.813 429.634 317.676 412.581 308.443 404.061Z" fill="#FFD167"/>
<path d="M228.448 399.007C230.014 399.204 231.519 399.737 232.859 400.569C235.051 401.938 235.599 404.486 237.49 405.91C239.641 407.568 243.532 406.814 245.833 406.006C248.984 404.897 251.793 403.02 254.917 401.897C258.04 400.774 261.767 400.391 264.507 402.267C265.611 403.143 266.517 404.243 267.167 405.494C267.816 406.745 268.193 408.119 268.274 409.526C268.308 410.393 268.479 411.248 268.781 412.06C269.452 413.512 271.055 414.307 271.918 415.649C273.124 417.484 272.672 419.95 271.781 421.95C270.691 423.854 269.774 425.853 269.041 427.922C268.069 431.839 269.918 435.838 271.398 439.605C272.877 443.372 273.946 447.823 271.672 451.248C266.726 446.495 260.712 443.248 255.437 438.92C240.956 427.223 225.996 414.403 209.336 405.924C208.09 405.294 213.227 400.897 213.953 400.623C217.172 399.569 220.527 398.992 223.913 398.911C225.424 398.793 226.943 398.825 228.448 399.007Z" fill="#C1831D"/>
<path d="M306.963 413.006C305.401 423.963 300.771 436.208 291.345 442.81C280.083 450.686 270.507 442.125 261.999 434.77C254.464 428.278 247.094 421.744 238.805 416.197C229.419 410.145 219.73 404.576 209.775 399.514C205.103 397.035 200.938 404.116 205.665 406.609C217.625 412.951 229.667 419.32 240.559 427.401C250.998 435.14 259.862 446.097 271.589 451.96C294.88 463.589 312.21 434.25 314.936 415.197C315.621 410.02 307.703 407.787 306.963 413.006Z" fill="#8B5612"/>
<path d="M310.991 410.513C309.526 409.545 307.846 408.95 306.099 408.778C304.351 408.606 302.588 408.863 300.962 409.526C297.909 410.849 295.192 412.844 293.016 415.361C292.016 416.471 291.071 417.635 290.153 418.813C288.876 420.996 287.794 423.288 286.92 425.662C320.101 394.61 298.373 466.753 263.328 435.893C262.602 438.263 261.287 444.577 262.493 445.782C265.558 448.439 268.968 450.668 272.631 452.412C291.331 460.329 308.881 441.304 314.32 423.059C315.923 422.593 312.361 410.376 310.991 410.513Z" fill="#8B5612"/>
<path d="M310.909 432.469C323.321 405.472 297.017 400.733 286.249 424.662M304.237 442.18C292.674 454.713 276.302 457.384 266.562 449.439C261.273 445.125 219.735 411.458 196.335 401.048L208.994 365.436C234.846 358.217 262.753 372.051 291.989 399.569C298.25 398.706 304.155 400.13 308.429 404.075C317.676 412.581 315.8 429.647 304.237 442.18Z" stroke="black" stroke-width="5" stroke-miterlimit="10" stroke-linecap="round"/>
<path d="M352.283 271.981C345.323 259.928 328.198 259.654 311.58 266.393C308.361 267.68 265.342 225.398 244.053 249.956C229.75 266.393 247.368 283.596 269.795 299.992C285.755 311.648 313.334 320.263 336.774 310.073C352.297 301.074 359.242 284.035 352.283 271.981Z" fill="#FFD167"/>
<path d="M291.55 278.912C291.263 281.487 290.18 284.076 290.893 286.555C291.605 289.034 293.633 290.431 295.633 291.828L302.483 296.704C304.665 297.998 306.495 299.809 307.812 301.978C307.958 302.269 308.082 302.572 308.182 302.882C308.689 304.484 308.662 307.361 307.004 308.36C305.346 309.36 271.754 296.622 268.397 289.294C268.397 276.652 263.945 259.627 275.878 252.121C278.015 250.751 282.043 248.847 283.235 251.956C284.437 255.367 284.799 259.018 284.289 262.599C283.705 263.991 283.672 265.554 284.196 266.97C284.72 268.386 285.762 269.551 287.112 270.228C289.364 271.774 290.942 274.12 291.523 276.789C291.618 277.493 291.627 278.206 291.55 278.912Z" fill="#C1831D"/>
<path d="M350.721 268.667C350.653 269.297 350.57 269.886 350.488 270.488C350.488 270.831 350.406 271.187 350.351 271.529C350.296 271.872 350.228 272.214 350.173 272.57C350.063 273.255 349.94 273.94 349.803 274.597C349.803 274.693 349.803 274.789 349.803 274.885C347.063 287.979 340.693 296.006 333.034 300.142C310.265 312.018 274.124 291.157 273.33 273.31C272.795 266.324 261.835 266.256 262.369 273.31C262.369 312.922 307.497 318.921 331.281 312.168L331.842 311.99C332.24 311.867 332.637 311.757 333.007 311.62C333.377 311.483 333.829 311.36 334.212 311.209L335.295 310.812L336.103 310.497L337.473 309.881L338.186 309.525C338.583 309.319 338.98 309.114 339.35 308.895L340.008 308.511L340.871 307.95L341.405 307.58C341.748 307.32 342.063 307.073 342.364 306.813L342.775 306.443C343.076 306.155 343.364 305.868 343.611 305.58L343.898 305.224C344.111 304.967 344.308 304.697 344.488 304.416L344.625 304.224C351.105 298.033 359.996 282.35 350.721 268.667Z" fill="#8B5612"/>
<path d="M315.553 274.091C314.361 270.064 309.059 264.777 304.155 261.969M336.774 310.031C313.334 320.222 285.755 311.607 269.795 299.95C247.368 283.514 229.75 266.407 244.053 249.915C265.342 225.398 308.361 267.721 311.58 266.352C328.198 259.627 345.323 259.887 352.283 271.94C359.242 283.993 352.297 301.074 336.774 310.031Z" stroke="black" stroke-width="5" stroke-miterlimit="10" stroke-linecap="round"/>
<path d="M365.791 229.329C352.296 257.682 320.649 264.229 296.387 280.008C291.783 283.802 288.879 286.158 288.879 286.158L291.304 289.116C301.853 299.841 308.799 313.469 319.663 324.427C322.34 317.609 326.234 311.334 331.157 305.909C333.525 303.31 336.08 300.889 338.802 298.663C355.242 284.843 376.408 279.693 394.068 267.721C384.122 257.271 377.71 242.724 368.038 232.109C366.613 230.411 365.791 229.329 365.791 229.329Z" fill="#61DDAE"/>
<path d="M393.794 267.612C390.095 270.351 384.985 272.776 381.053 275.433C376.669 268.105 380.957 262.845 386.41 257.956L393.794 267.612Z" fill="#389686"/>
<path d="M325.17 313.661C323.085 317.135 321.227 320.74 319.608 324.454L311.511 315.031C312.522 313.342 314.07 312.04 315.908 311.335C317.746 310.63 319.768 310.561 321.649 311.141C323.071 311.566 324.31 312.453 325.17 313.661Z" fill="#389686"/>
<path d="M296.688 295.855L288.824 286.267L298.592 278.296C299.433 279.177 300.09 280.217 300.522 281.356C300.955 282.494 301.156 283.708 301.113 284.925C301.044 287.526 300.472 290.089 299.428 292.472C298.709 293.744 297.783 294.887 296.688 295.855Z" fill="#389686"/>
<path d="M372.819 238.561C369.107 242.82 360.955 244.327 360.777 238.15L365.736 229.329L372.819 238.561Z" fill="#389686"/>
<path d="M376.025 277.885C376.448 277.51 376.949 277.234 377.491 277.077C376.573 275.892 376.025 274.462 375.915 272.967C379.012 271.2 385.259 267.215 385.259 267.215C385.259 267.215 382.519 262.051 380.614 258.996L384.272 254.887L383.779 253.518L379.875 258.079L372.148 246.08L375.326 241.752L374.422 241.286C374.422 241.286 372.641 244.3 371.203 244.711C369.353 243.67 367.778 240.889 366.956 237.999C364.339 240.382 359.653 244.847 359.653 244.847L356.913 242.574L356.187 243.122L358.927 245.628C343.542 260.531 305.21 280.309 305.21 280.309L303.182 275.803L302.264 276.282C302.264 276.282 303.798 279.432 304.305 280.939C301.825 283.074 299.182 285.011 296.4 286.733L302.291 294.951L299.044 298.595L299.538 299.197L302.949 295.718L312.69 309.415L308.772 311.305L309.128 312.004L313.238 309.963C314.708 312.114 316.566 313.972 318.718 315.442L323.389 307.128L327.39 310.662L328.034 309.799L323.924 305.69C328.486 297.129 358.489 280.323 374.751 273.543C374.773 275.079 375.213 276.58 376.025 277.885ZM317.663 310.922C311.018 305.101 301.004 287.637 301.004 287.637C301.004 287.637 308.539 281.172 312.457 278.515C330.13 266.544 351.735 260.024 365.887 242.177C371.216 250.025 380.203 266.05 380.203 266.05C375.491 273.68 340.597 285.651 324.787 301.005C321.859 303.876 319.449 307.231 317.663 310.922Z" fill="#389686"/>
<path d="M325.211 273.543C327.773 273.118 330.691 272.31 332.061 274.269C333.678 280.035 324.841 276.296 325.54 281.542C326.348 284.432 329.116 285.993 330.568 285.582C342.227 279.98 340.761 260.928 355.502 260.681C357.27 261.047 358.876 261.965 360.09 263.301C361.303 264.637 362.062 266.324 362.256 268.119C362.955 273.378 359.845 278.926 354.694 277.255C350.488 276.104 354.406 273.433 355.968 270.666C357.119 266.448 351.981 264.777 349.488 267.037C343.487 273.392 344.487 282.459 337.555 288.294C330.623 294.129 317.978 290.678 320.348 279.542C320.698 278.26 321.312 277.064 322.149 276.031C322.986 274.998 324.029 274.151 325.211 273.543Z" fill="#389686"/>
<path d="M364.503 260.996C350.118 272.283 330.952 276.063 317.019 289.157" stroke="#389686" stroke-width="1.05" stroke-miterlimit="10"/>
<path d="M365.791 263.421C351.447 274.255 332.281 278.076 318.608 291.582" stroke="#389686" stroke-width="1.05" stroke-miterlimit="10"/>
<path d="M365.791 229.329C352.296 257.682 320.649 264.229 296.387 280.008C291.783 283.802 288.879 286.158 288.879 286.158L291.304 289.116C301.853 299.841 308.799 313.469 319.663 324.427C322.34 317.609 326.234 311.334 331.157 305.909C333.525 303.31 336.08 300.889 338.802 298.663C355.242 284.843 376.408 279.693 394.068 267.721C384.122 257.271 377.71 242.724 368.038 232.109C366.613 230.411 365.791 229.329 365.791 229.329Z" stroke="black" stroke-width="3" stroke-miterlimit="10"/>
<path d="M341.46 217.029C337.884 248.217 310.073 264.681 292.249 287.5C289.126 292.581 287.153 295.718 287.153 295.718L290.4 297.718C303.867 304.443 314.854 315.086 328.691 321.92C329.008 314.602 330.656 307.403 333.555 300.676C334.942 297.448 336.573 294.33 338.432 291.349C349.515 272.94 367.846 261.215 380.669 244.149C367.873 237.492 357.078 225.822 344.515 218.946L341.46 217.029Z" fill="#61DDAE"/>
<path d="M380.409 244.135C377.82 247.984 373.751 251.874 370.901 255.654C364.366 250.176 366.723 243.793 370.285 237.396L380.409 244.135Z" fill="#389686"/>
<path d="M330.445 309.949C329.599 313.911 329.013 317.924 328.691 321.962L317.978 315.702C318.385 313.775 319.427 312.041 320.937 310.777C322.448 309.513 324.339 308.792 326.307 308.73C327.783 308.671 329.237 309.099 330.445 309.949Z" fill="#389686"/>
<path d="M297.702 302.279L287.153 295.759L293.797 285.048C294.883 285.609 295.845 286.383 296.624 287.325C297.404 288.266 297.984 289.355 298.332 290.527C299.116 293.013 299.404 295.628 299.181 298.225C298.921 299.65 298.421 301.021 297.702 302.279Z" fill="#389686"/>
<path d="M351.146 223.453C349.009 228.699 341.802 232.767 339.624 226.973C339.624 226.973 340.761 220.713 341.46 217.029L351.146 223.453Z" fill="#389686"/>
<path d="M366.942 259.613C367.217 259.125 367.595 258.705 368.051 258.38C366.829 257.548 365.877 256.377 365.311 255.011C367.668 252.271 372.271 246.546 372.271 246.546C372.271 246.546 367.969 242.56 365.202 240.218L367.353 235.191L366.421 234.027L364.202 239.602L353.009 230.767L354.612 225.644L353.598 225.494C353.598 225.494 352.899 228.932 351.666 229.781C349.584 229.397 347.186 227.274 345.474 224.809C343.761 227.918 340.816 233.698 340.816 233.698L337.487 232.438L336.98 233.191L340.432 234.657C330.65 253.737 300.812 284.898 300.812 284.898L297.428 281.295L296.715 282.049C296.715 282.049 299.195 284.528 300.168 285.788C298.506 288.605 296.633 291.293 294.564 293.828L302.784 299.718L300.812 304.073L301.483 304.498L303.579 300.101L317.279 309.908L314.183 312.963L314.758 313.511L317.937 310.264C320.01 311.826 322.356 312.988 324.855 313.689L326.568 304.306L331.5 306.347L331.829 305.333L326.677 302.786C328.212 293.198 351.132 267.571 364.311 255.887C364.837 257.343 365.746 258.63 366.942 259.613ZM322.458 309.799C314.238 306.443 299.168 293.225 299.168 293.225C299.168 293.225 304.182 284.665 307.031 280.898C319.855 263.859 338.172 250.682 345.789 229.206C353.365 234.903 367.065 247.149 367.065 247.149C365.078 255.887 335.966 278.528 325.965 298.184C324.138 301.826 322.952 305.755 322.458 309.799Z" fill="#389686"/>
<path d="M317.471 271.995C319.745 270.762 322.211 269.05 324.102 270.475C327.513 275.406 317.937 274.734 320.307 279.474C322.006 281.953 325.129 282.514 326.376 281.665C335.582 272.584 328.02 255.024 341.871 250.025C343.662 249.793 345.481 250.137 347.064 251.006C348.647 251.875 349.913 253.225 350.68 254.86C353.05 259.613 351.899 265.818 346.501 265.955C342.131 266.229 344.981 262.448 345.556 259.312C345.282 254.956 339.87 255.038 338.254 257.942C334.637 265.9 338.514 274.145 333.856 281.925C329.198 289.705 316.115 290.527 314.745 279.186C314.678 277.864 314.886 276.543 315.355 275.305C315.824 274.068 316.545 272.941 317.471 271.995Z" fill="#389686"/>
<path d="M350.57 247.381C340.624 262.722 323.732 272.557 314.786 289.418" stroke="#389686" stroke-width="1.05" stroke-miterlimit="10"/>
<path d="M352.557 249.285C342.501 264.147 325.623 273.94 317.074 291.198" stroke="#389686" stroke-width="1.05" stroke-miterlimit="10"/>
<path d="M341.46 217.029C337.884 248.217 310.073 264.681 292.249 287.5C289.126 292.581 287.153 295.718 287.153 295.718L290.4 297.718C303.867 304.443 314.854 315.086 328.691 321.92C329.008 314.602 330.656 307.403 333.555 300.676C334.942 297.448 336.573 294.33 338.432 291.349C349.515 272.94 367.846 261.215 380.669 244.149C367.873 237.492 357.078 225.822 344.515 218.946L341.46 217.029Z" stroke="black" stroke-width="3" stroke-miterlimit="10"/>
<path d="M307.114 210.263C316.06 240.396 296.921 266.42 289.468 294.39C288.591 300.279 288.016 303.977 288.016 303.977L291.797 304.553C306.867 305.47 321.088 310.949 336.5 311.826C333.928 304.968 332.624 297.7 332.651 290.376C332.664 286.863 332.939 283.356 333.473 279.884C336.473 258.599 348.721 240.629 353.831 219.919C339.459 218.81 324.951 212.29 310.703 210.893C308.484 210.482 307.114 210.263 307.114 210.263Z" fill="#61DDAE"/>
<path d="M353.571 219.946C352.694 224.507 350.488 229.671 349.351 234.273C341.131 231.767 340.857 225.001 341.624 217.714L353.571 219.946Z" fill="#389686"/>
<path d="M333.404 300.074C334.182 304.054 335.216 307.979 336.5 311.826L324.17 310.251C323.788 308.321 324.065 306.319 324.957 304.565C325.849 302.812 327.304 301.409 329.089 300.581C330.431 299.937 331.949 299.759 333.404 300.074Z" fill="#389686"/>
<path d="M300.277 305.84L287.947 303.977L289.865 291.513C291.079 291.608 292.261 291.944 293.343 292.501C294.426 293.059 295.386 293.826 296.167 294.759C297.865 296.733 299.155 299.023 299.962 301.498C300.309 302.918 300.415 304.385 300.277 305.84Z" fill="#389686"/>
<path d="M318.553 212.386C318.636 218.042 313.594 224.617 309.333 220.138L307.114 210.263L318.553 212.386Z" fill="#389686"/>
<path d="M347.255 239.465C347.328 238.908 347.514 238.371 347.803 237.889C346.33 237.627 344.967 236.936 343.885 235.903C345.008 232.52 346.981 225.37 346.981 225.37C346.981 225.37 341.501 223.398 337.994 222.33V216.851L336.624 216.139L336.761 222.138L322.992 218.399L322.471 213.057L321.485 213.317C321.485 213.317 322.17 216.741 321.375 218.015C319.307 218.481 316.265 217.467 313.731 215.865C313.375 219.385 312.923 225.877 312.923 225.877L309.374 226.014L309.196 226.904H312.964C311.498 248.258 296.25 288.609 296.25 288.609L291.729 286.61L291.359 287.582C291.359 287.582 294.619 288.952 296.003 289.678C295.588 292.921 294.919 296.127 294.003 299.266L303.894 301.443L303.785 306.279L304.565 306.402L304.771 301.539L321.211 305.196L319.567 309.223L320.307 309.511L321.951 305.279C324.472 305.902 327.088 306.05 329.664 305.717L327.568 296.403H332.897L332.801 295.335L327.061 295.006C324.718 285.596 335.76 253.038 343.309 237.122C344.384 238.251 345.749 239.061 347.255 239.465ZM326.061 303.06C317.211 303.183 298.126 296.951 298.126 296.951C298.126 296.951 299.387 287.103 300.524 282.501C305.648 261.791 317.334 242.492 315.923 219.755C325.129 222.028 342.528 227.973 342.528 227.973C344.131 236.78 326.212 269.064 324.718 290.979C324.464 295.053 324.918 299.141 326.061 303.06Z" fill="#389686"/>
<path d="M306.593 270.242C308.196 268.201 309.799 265.667 312.073 266.242C317.142 269.447 308.073 272.57 312.073 276.008C314.608 277.611 317.717 276.912 318.512 275.652C323.43 263.681 309.593 250.491 320.375 240.464C321.934 239.552 323.742 239.157 325.539 239.337C327.336 239.516 329.03 240.261 330.376 241.464C334.418 244.902 335.856 251.052 330.87 253.312C326.965 255.271 328.13 250.669 327.403 247.573C325.444 243.67 320.553 245.861 320.17 249.203C319.964 257.942 326.76 264.01 325.527 272.981C324.293 281.953 312.621 287.856 306.881 278.049C306.287 276.841 305.955 275.521 305.905 274.176C305.856 272.831 306.09 271.49 306.593 270.242Z" fill="#389686"/>
<path d="M327.431 234.63C324.293 252.641 312.607 268.31 310.991 287.322" stroke="#389686" stroke-width="1.05" stroke-miterlimit="10"/>
<path d="M329.965 235.588C326.554 253.23 314.895 268.899 313.758 288.089" stroke="#389686" stroke-width="1.05" stroke-miterlimit="10"/>
<path d="M307.114 210.263C316.06 240.396 296.921 266.42 289.468 294.39C288.591 300.279 288.016 303.977 288.016 303.977L291.797 304.553C306.867 305.47 321.088 310.949 336.5 311.826C333.928 304.968 332.624 297.7 332.651 290.376C332.664 286.863 332.939 283.356 333.473 279.884C336.473 258.599 348.721 240.629 353.831 219.919C339.459 218.81 324.951 212.29 310.703 210.893C308.484 210.482 307.114 210.263 307.114 210.263Z" stroke="black" stroke-width="3" stroke-miterlimit="10"/>
<path d="M352.283 271.981C335.624 250.326 288.057 311.703 325.91 313.415C329.643 312.68 333.285 311.546 336.774 310.031C352.297 301.074 359.242 284.035 352.283 271.981Z" fill="#FFD167"/>
<path d="M312.854 307.1C314.717 310.675 318.814 313.1 325.91 313.415C329.642 312.68 333.285 311.546 336.774 310.032C349.419 302.731 357.091 290.102 353.735 274.091C347.022 290.102 330.609 309.292 312.854 307.1Z" fill="#8B5612"/>
<path d="M352.283 271.981C335.624 250.326 288.057 311.703 325.91 313.415C329.643 312.68 333.285 311.546 336.774 310.031C352.297 301.074 359.242 284.035 352.283 271.981Z" stroke="black" stroke-width="5" stroke-miterlimit="10" stroke-linecap="round"/>
<path d="M16.7826 244.491C15.7198 248.881 15.7999 253.469 17.0155 257.819C18.1911 261.991 20.7094 265.659 24.1806 268.256C27.4673 270.733 31.5065 272.005 35.6202 271.858C39.6198 271.631 43.45 270.166 46.5802 267.667L50.3751 273.365C45.9176 276.076 40.7305 277.344 35.5243 276.994C30.5499 276.562 25.8638 274.476 22.2136 271.07C18.5633 267.664 16.1594 263.134 15.3852 258.202C14.6711 253.588 15.1522 248.867 16.7826 244.491Z" fill="black"/>
<path d="M24.2445 245.801C25.6059 238.914 23.7551 232.748 20.1105 232.027C16.4659 231.307 12.4078 236.306 11.0464 243.193C9.68495 250.08 11.5358 256.247 15.1804 256.967C18.8249 257.687 22.8831 252.688 24.2445 245.801Z" fill="black"/>
<path d="M274.22 303.402L122.588 195.401C142.59 187.69 168.565 191.881 163.113 161.446L302.456 233.123C265.109 249.463 272 276.816 274.22 303.402Z" fill="#FFD167"/>
<path d="M179.868 411.103C243.853 397.202 285.105 337.076 272.005 276.808C258.906 216.54 196.416 178.952 132.431 192.854C68.4451 206.755 27.1936 266.881 40.293 327.149C53.3924 387.417 115.882 425.005 179.868 411.103Z" fill="#FFD167"/>
<path d="M121.423 238.013C119.149 243.012 114.984 246.888 112.231 251.641C109.477 256.394 108.491 263.064 112.381 266.941C117.861 272.42 128.534 268.488 133.699 274.159C140.549 281.583 129.397 294.02 133.548 303.169C135.219 306.84 139.11 309.196 140.549 312.963C142.535 318.126 139.179 323.797 135.343 327.742C131.507 331.686 126.712 335.124 124.739 340.288C123.15 344.397 123.629 349.095 122.698 353.465C120.547 363.463 111.011 370.558 101.052 372.914C91.0916 375.27 80.6522 373.818 70.5141 372.353C64.3902 371.476 58.0882 370.517 52.8 367.299C45.3198 362.751 49.1147 354.67 46.1966 346.424C12.6178 259.517 91.1464 207.756 94.6262 207.592C111.162 206.825 129.863 219.385 121.423 238.013Z" fill="#C1831D"/>
<path d="M179.854 411.102C121.382 423.812 64.1573 393.501 44.7581 342.178C88.0502 376.421 115.204 359.834 136.11 349.164C156.139 338.946 214.556 244.354 266.808 284.966C269.448 287.009 271.905 289.278 274.152 291.746C278.111 346.726 238.545 398.35 179.854 411.102Z" fill="#FFAD83"/>
<path opacity="0.4" d="M274.22 303.402C246.998 388.324 149.865 397.035 143.946 375.777C139.247 371.832 116.546 405.048 114.532 407.499C175.114 426.675 216.392 399.432 236.463 382.242C240.737 378.749 246.299 372.284 249.957 368.162C253.862 363.82 269.178 346.328 274.22 303.402Z" fill="#AD70E8"/>
<path d="M38.0723 297.663C37.3599 309.99 40.6205 336.645 47.95 347.411C54.4849 356.998 66.4999 356.615 75.3501 362.546L76.7201 352.533L76.3776 352.643C69.7057 354.821 72.5553 365.408 79.2957 363.217L79.6382 363.107C84.2277 361.601 87.5157 348.876 83.5427 346.246C46.3197 346.246 38.0723 297.663 38.0723 297.663Z" fill="#8B5612"/>
<path d="M289.646 96.4269C288.97 96.4683 288.298 96.2926 287.729 95.9255C287.16 95.5584 286.723 95.019 286.481 94.386C279.946 75.991 302.593 61.9104 307.936 60.6092C317.087 58.3903 338.076 62.9788 344.926 65.6634C356.941 70.3752 361.982 86.2089 356.187 100.947C350.392 115.685 336.007 123.889 323.978 119.164C305.511 111.904 309.621 95.3996 289.646 96.4269Z" fill="#C1831D"/>
<path d="M356.201 100.947C355.359 103.088 354.313 105.143 353.077 107.083C352.676 106.52 352.314 105.93 351.995 105.316C350.694 102.892 349.652 100.18 347.501 98.4677C345.351 96.7556 342.295 96.1803 340.651 93.9614C337.131 89.1537 343.391 81.8532 340.46 76.6621C338.857 73.8268 335.13 72.8954 333.089 70.3478C332.111 69.2581 331.563 67.8506 331.545 66.3868C331.527 64.923 332.042 63.5027 332.993 62.3898C337.046 63.1932 341.034 64.2919 344.926 65.6771C356.996 70.3752 362.051 86.1815 356.201 100.947Z" fill="#FFD167"/>
<path d="M333.048 114C337.72 118.465 341.843 118.602 347.173 115.37C352.502 112.137 366.079 87.3731 353.447 72.1421C346.159 147.476 334.267 82.4011 321.43 79.1413C317.635 104.22 330.349 111.425 333.048 114Z" fill="#8B5612"/>
<path d="M289.646 96.4269C288.97 96.4683 288.298 96.2926 287.729 95.9255C287.16 95.5584 286.723 95.019 286.481 94.386C279.946 75.991 302.593 61.9104 307.936 60.6092C317.087 58.3903 338.076 62.9788 344.926 65.6634C356.941 70.3752 361.982 86.2089 356.187 100.947C350.392 115.685 336.007 123.889 323.978 119.164C305.511 111.904 309.621 95.3996 289.646 96.4269Z" stroke="black" stroke-width="5" stroke-miterlimit="10" stroke-linecap="round"/>
<path d="M329.911 99.8922C334.308 120.164 380.724 145.092 358.256 191.662C291.345 262.654 278.577 215.741 253.78 221.124C204.966 231.726 162.071 179.472 153.112 138.257C144.152 97.0432 176.402 55.0482 225.297 44.4468C274.193 33.8453 320.951 58.6779 329.911 99.8922Z" fill="#FFD167"/>
<path d="M262.342 68.9233C260.588 71.2792 257.574 72.7721 256.684 75.5663C255.903 77.977 256.985 80.552 257.232 83.0723C257.424 85.5301 256.838 87.9861 255.557 90.0927C254.276 92.1993 252.365 93.8498 250.094 94.8106C240.299 98.7006 227.996 88.5511 219.324 94.5367C217.666 95.6735 216.378 97.2761 214.666 98.3581C209.665 101.371 203.062 98.3581 199.157 93.9751C198.115 92.5525 196.767 91.3823 195.212 90.5508C192.266 89.3729 189.074 91.2768 185.923 91.6192C179.073 92.3862 173.853 86.1404 172.223 80.0863C171.733 78.3644 171.602 76.5601 171.84 74.7856C186.07 59.3385 204.784 48.7381 225.352 44.4742C235.516 42.2455 245.955 41.5346 256.328 42.3648C256.817 43.099 257.17 43.9157 257.369 44.7755C258.164 48.1449 256.533 52.0486 258.41 54.9387C259.389 56.0988 260.482 57.1586 261.671 58.1027C263.003 59.5579 263.796 61.4255 263.918 63.3944C264.04 65.3633 263.484 67.3146 262.342 68.9233Z" fill="#C1831D"/>
<path d="M338.5 112.5C332.871 105.569 329.957 97.0156 326.499 88.7839C312.251 54.3497 269.63 34.8589 225.366 44.4741C176.539 55.0756 144.22 97.0843 153.18 138.285C155 146.592 158.415 154.467 163.236 161.474C168.716 191.909 142.686 187.717 122.711 195.429C64.3901 213.057 27.9754 270.05 40.4013 327.166C53.4985 387.433 115.984 425.032 179.964 411.129C243.189 397.432 284.207 338.535 272.548 279.008C269.48 251.422 282.686 241.916 302.565 233.15C302.456 233.123 408.11 198.873 338.5 112.5Z" stroke="black" stroke-width="5" stroke-miterlimit="10" stroke-linecap="round"/>
<mask id="mask0_87_133" style="mask-type:alpha" maskUnits="userSpaceOnUse" x="140" y="60" width="39" height="33">
<path d="M178.895 77.4291C179.429 84.2776 173.292 91.3316 165.674 92.578C164.995 92.67 164.304 92.5714 163.677 92.2932C163.05 92.0151 162.513 91.5684 162.126 91.0028L140.905 60.7325L176.525 74.2788C177.175 74.5298 177.742 74.958 178.161 75.5149C178.58 76.0718 178.834 76.735 178.895 77.4291Z" fill="#49371F"/>
</mask>
<g mask="url(#mask0_87_133)">
<path d="M178.895 77.4291C179.429 84.2776 173.292 91.3316 165.674 92.578C164.995 92.67 164.304 92.5714 163.677 92.2932C163.05 92.0151 162.513 91.5684 162.126 91.0028L140.905 60.7325L176.525 74.2788C177.175 74.5298 177.742 74.958 178.161 75.5149C178.58 76.0718 178.834 76.735 178.895 77.4291Z" fill="#49371F"/>
<path d="M144.672 55.9385C147.23 61.6624 148.049 68.0112 147.029 74.1966" stroke="#5B462C" stroke-width="2.35" stroke-miterlimit="10"/>
<path d="M151.988 57.6507C155.865 65.2936 155.139 74.9226 153.208 85.0447" stroke="#5B462C" stroke-width="2.35" stroke-miterlimit="10"/>
<path d="M158.496 56.3768C162.606 66.8413 162.428 79.5111 160.496 93.1122" stroke="#5B462C" stroke-width="2.35" stroke-miterlimit="10"/>
<path d="M167.88 65.8962C169.182 74.3747 170.346 87.3457 167.058 94.6599" stroke="#5B462C" stroke-width="2.35" stroke-miterlimit="10"/>
<path d="M174.922 64.2252C177.84 73.2515 179.169 85.7158 175.881 92.9889" stroke="#5B462C" stroke-width="2.35" stroke-miterlimit="10"/>
</g>
<path d="M178.895 77.4291C179.429 84.2776 173.292 91.3316 165.674 92.578C164.995 92.67 164.304 92.5714 163.677 92.2932C163.05 92.0151 162.513 91.5684 162.126 91.0028L140.905 60.7325L176.525 74.2788C177.175 74.5298 177.742 74.958 178.161 75.5149C178.58 76.0718 178.834 76.735 178.895 77.4291V77.4291Z" stroke="black" stroke-width="5" stroke-linecap="round" stroke-linejoin="round"/>
<mask id="mask1_87_133" style="mask-type:alpha" maskUnits="userSpaceOnUse" x="238" y="6" width="24" height="44">
<path d="M259.972 46.5698C254.862 51.1857 245.546 50.6789 239.901 45.3508C239.412 44.8711 239.067 44.2641 238.904 43.5985C238.742 42.9328 238.77 42.235 238.983 41.5841L249.943 6.30063L260.903 42.7346C261.125 43.3968 261.154 44.1079 260.99 44.7863C260.825 45.4646 260.472 46.0828 259.972 46.5698Z" fill="#49371F"/>
</mask>
<g mask="url(#mask1_87_133)">
<path d="M259.972 46.5698C254.862 51.1857 245.546 50.6789 239.901 45.3508C239.412 44.8711 239.067 44.2641 238.904 43.5985C238.742 42.9328 238.77 42.235 238.983 41.5841L249.943 6.30063L260.903 42.7346C261.125 43.3968 261.154 44.1079 260.99 44.7863C260.825 45.4646 260.472 46.0828 259.972 46.5698Z" fill="#49371F"/>
<path d="M256.095 6.28693C253.117 11.7996 248.594 16.3223 243.08 19.2991" stroke="#5B462C" stroke-width="2.35" stroke-miterlimit="10"/>
<path d="M259.205 13.1217C255.519 20.8468 247.45 26.1613 238.23 30.8319" stroke="#5B462C" stroke-width="2.35" stroke-miterlimit="10"/>
<path d="M264.192 17.4911C258.383 27.079 248.272 34.7356 236.312 41.5156" stroke="#5B462C" stroke-width="2.35" stroke-miterlimit="10"/>
<path d="M262.383 30.7361C256.465 36.9545 246.902 45.8027 239.093 47.6655" stroke="#5B462C" stroke-width="2.35" stroke-miterlimit="10"/>
<path d="M268.014 35.2972C262.644 43.1182 253.588 51.7336 245.779 53.6511" stroke="#5B462C" stroke-width="2.35" stroke-miterlimit="10"/>
</g>
<path d="M259.972 46.5698C254.862 51.1857 245.546 50.6789 239.901 45.3508C239.412 44.8711 239.067 44.2641 238.904 43.5985C238.742 42.9328 238.77 42.235 238.983 41.5841L249.943 6.30063L260.903 42.7346C261.125 43.3968 261.154 44.1079 260.99 44.7863C260.825 45.4646 260.472 46.0828 259.972 46.5698Z" stroke="black" stroke-width="5" stroke-linecap="round" stroke-linejoin="round"/>
<path d="M284.961 216.495C261.999 214.769 268.096 192.717 268.096 192.717C281.973 194.493 296.066 193.492 309.552 189.772C309.552 189.772 307.155 218.166 284.961 216.495Z" fill="black"/>
<path d="M284.961 217.317C276.905 216.536 272.247 212.879 270 208.975C266.877 199.62 280.358 199.62 286.235 204.674C292.331 200.127 307.662 202.318 301.305 210.153C297.524 214.207 291.318 217.933 284.961 217.317Z" fill="#F27C79"/>
<path d="M269.028 205.838C271.398 199.456 286.427 200.428 288.331 208.413M303.401 205.838C301.469 200.661 291.194 200.36 286.386 204.66M309.539 189.772C296.052 193.492 281.96 194.493 268.082 192.717C268.082 192.717 261.986 214.769 284.947 216.495C307.155 218.166 309.539 189.772 309.539 189.772Z" stroke="black" stroke-width="3" stroke-linecap="round" stroke-linejoin="round"/>
<path d="M235.024 205.934C246.729 205.934 256.218 196.448 256.218 184.745C256.218 173.043 246.729 163.556 235.024 163.556C223.319 163.556 213.83 173.043 213.83 184.745C213.83 196.448 223.319 205.934 235.024 205.934Z" fill="#FFAD83"/>
<path d="M282.631 161.746C291.78 157.575 296.536 148.358 293.253 141.158C289.969 133.959 279.89 131.503 270.741 135.674C261.591 139.845 256.836 149.062 260.119 156.262C263.403 163.461 273.481 165.917 282.631 161.746Z" fill="#FFAD83"/>
<path d="M326.951 162.885C338.656 162.885 348.145 153.398 348.145 141.695C348.145 129.993 338.656 120.506 326.951 120.506C315.246 120.506 305.757 129.993 305.757 141.695C305.757 153.398 315.246 162.885 326.951 162.885Z" fill="#FFAD83"/>
<path d="M185.964 121.109C186.252 120.494 186.336 119.804 186.203 119.138C186.069 118.473 185.727 117.867 185.225 117.411C170.47 104.618 150.221 121.602 147.056 126.108C141.576 133.806 137.11 154.009 137.11 161.364C137.11 174.281 149.988 184.745 165.88 184.745C181.772 184.745 194.65 174.281 194.65 161.364C194.541 141.476 177.703 139.34 185.964 121.109Z" fill="#FFD167"/>
<path d="M194.54 161.364C194.484 164.372 193.786 167.332 192.493 170.048C191.201 172.765 189.344 175.174 187.047 177.116C185.672 176.916 184.389 176.31 183.361 175.376C182.101 174.226 181.293 172.637 180.142 171.445C177.826 168.98 174.415 167.966 171.428 166.377C168.442 164.789 165.537 162.022 165.825 158.652C166.017 156.392 167.62 154.543 168.839 152.612C170.058 150.681 170.963 148.133 169.73 146.215C169.099 145.243 168.017 144.64 167.305 143.723C166.689 142.805 166.35 141.729 166.328 140.625C166.306 139.52 166.603 138.432 167.181 137.49C168.382 135.625 169.976 134.044 171.853 132.861C174.895 130.642 179.827 126.492 184.622 124.643C179.936 139.709 194.54 142.832 194.54 161.364Z" fill="#C1831D"/>
<path d="M183.759 129.505C171.757 137.052 190.019 159.392 183.252 169.226C170.552 187.841 138.124 170.062 137.343 156.201C133.233 189.21 183.197 192.319 191.8 171.459C201.719 157.515 183.389 138.792 183.759 129.505Z" fill="#8B5612"/>
<path d="M165.949 111.781C158.016 113.425 151.084 119.41 147.056 126.108C142.207 134.176 137.11 154.009 137.11 161.364C137.11 174.281 149.988 184.745 165.88 184.745C181.772 184.745 194.65 174.281 194.65 161.364C194.65 141.476 177.758 139.34 186.019 121.109" stroke="black" stroke-width="5" stroke-miterlimit="10" stroke-linecap="round"/>
<path d="M234.462 151.023C242.286 151.023 248.628 144.682 248.628 136.86C248.628 129.039 242.286 122.698 234.462 122.698C226.639 122.698 220.297 129.039 220.297 136.86C220.297 144.682 226.639 151.023 234.462 151.023Z" fill="black"/>
<path d="M236.97 129.861C238.354 129.861 239.477 128.739 239.477 127.355C239.477 125.97 238.354 124.848 236.97 124.848C235.585 124.848 234.462 125.97 234.462 127.355C234.462 128.739 235.585 129.861 236.97 129.861Z" fill="white"/>
<path d="M234.462 137.285C234.773 137.285 235.024 137.034 235.024 136.723C235.024 136.413 234.773 136.162 234.462 136.162C234.152 136.162 233.901 136.413 233.901 136.723C233.901 137.034 234.152 137.285 234.462 137.285Z" fill="white"/>
<path d="M290.838 125.944C298.662 125.944 305.004 119.603 305.004 111.781C305.004 103.959 298.662 97.6185 290.838 97.6185C283.015 97.6185 276.672 103.959 276.672 111.781C276.672 119.603 283.015 125.944 290.838 125.944Z" fill="black"/>
<path d="M293.345 104.782C294.73 104.782 295.852 103.66 295.852 102.275C295.852 100.891 294.73 99.7689 293.345 99.7689C291.961 99.7689 290.838 100.891 290.838 102.275C290.838 103.66 291.961 104.782 293.345 104.782Z" fill="white"/>
<path d="M290.838 112.206C291.148 112.206 291.4 111.954 291.4 111.644C291.4 111.334 291.148 111.083 290.838 111.083C290.528 111.083 290.276 111.334 290.276 111.644C290.276 111.954 290.528 112.206 290.838 112.206Z" fill="white"/>
<path d="M131.013 335.097C114.697 324.838 91.2833 332.81 78.5834 352.903C77.6244 354.437 76.775 355.985 75.9941 357.56C60.9926 349.629 47.6761 342.261 38.8944 342.261C17.6456 340.891 -14.1796 382.776 17.8785 401.336C23.345 402.291 28.9693 401.713 34.1268 399.665C62.0201 415.841 87.0911 421.347 108.107 411.622C119.273 409.362 130.301 401.774 137.672 390.077C150.331 369.97 147.344 345.37 131.013 335.097Z" fill="#FFD167"/>
<path d="M140.727 345.89C146.7 404.322 65.3766 426.949 38.141 390.529C37.2731 389.69 36.1582 389.154 34.9615 388.998C33.7647 388.843 32.5498 389.077 31.4965 389.666C30.7977 390.036 30.1264 390.364 29.5236 390.652C25.9479 392.337 23.386 392.652 19.1801 389.926C7.60359 381.078 14.0015 353.725 19.1801 348.999C-12.2341 378.078 14.6591 400.815 17.8101 401.336C23.2901 402.226 27.6741 400.678 31.8527 399.021L32.5377 398.733C34.0584 398.131 77.2683 432.085 120.752 406.636C125.711 402.681 130.432 398.437 134.891 393.926C139.535 389.529 152.701 365.902 140.727 345.89Z" fill="#8B5612"/>
<path d="M141.028 345.712C147.878 357.889 147.029 375.202 137.699 390.063C130.329 401.76 119.3 409.348 108.135 411.608C86.7214 421.511 61.116 415.608 32.6336 398.761C26.5645 401.582 20.1529 401.911 14.7414 399.103C12.0836 397.733 -2.76729 385.844 8.76815 361.217C16.632 346.082 33.2775 340.562 41.4975 342.439C50.1971 343.63 62.4038 350.342 76.0079 357.505C76.7888 355.93 77.6382 354.382 78.5972 352.848C81.4411 348.341 84.9675 344.303 89.0504 340.877M78.2684 353.492C76.8984 356.533 73.857 360.067 74.4872 367.189" stroke="black" stroke-width="5" stroke-miterlimit="10" stroke-linecap="round"/>
<path d="M143.343 332.056C122.204 308.771 128.123 277.076 122.67 248.642C120.903 242.944 119.82 239.369 119.82 239.369C119.82 239.369 118.45 239.78 116.163 240.492C102.243 246.19 86.9951 247.464 72.7334 253.367C78.0376 258.42 82.374 264.398 85.5292 271.009C87.0417 274.169 88.3148 277.438 89.3378 280.788C95.9002 301.334 92.6807 322.811 97.0784 343.685C110.504 338.439 126.41 338.001 139.85 333.07L143.343 332.056Z" fill="#61DDAE"/>
<path d="M97.2704 343.534C96.0785 339.042 95.8319 333.426 94.8455 328.783C103.298 327.495 106.532 333.453 109.011 340.357L97.2704 343.534Z" fill="#389686"/>
<path d="M80.6246 262.599C78.1972 259.362 75.5612 256.288 72.7334 253.394L84.5017 249.463C85.6844 251.036 86.3043 252.96 86.2621 254.928C86.2198 256.895 85.5179 258.791 84.2688 260.311C83.3415 261.457 82.0595 262.262 80.6246 262.599Z" fill="#389686"/>
<path d="M107.956 243.012L119.821 239.369L123.506 251.422C122.373 251.865 121.163 252.078 119.946 252.047C118.73 252.017 117.532 251.744 116.423 251.244C114.036 250.197 111.877 248.694 110.066 246.82C109.152 245.679 108.439 244.392 107.956 243.012Z" fill="#389686"/>
<path d="M132.11 335.124C129.575 330.07 131.26 321.962 137.055 324.167L143.344 332.084L132.11 335.124Z" fill="#389686"/>
<path d="M94.5302 323.249C94.7201 323.78 94.7903 324.346 94.7357 324.906C96.1752 324.51 97.699 324.544 99.1197 325.002C99.5855 328.536 100.914 335.823 100.914 335.823C100.914 335.823 106.751 335.207 110.326 334.659L112.696 339.59L114.19 339.658L111.45 334.33L125.479 331.714L128.219 336.302L129 335.631C129 335.631 126.876 332.892 127.054 331.358C128.712 329.988 131.89 329.632 134.863 329.988C133.658 326.66 131.246 320.619 131.246 320.619L134.384 318.948L134.151 318.072L130.767 319.702C122.793 299.841 118.998 256.873 118.998 256.873L123.944 256.709L123.835 255.668C123.835 255.668 120.341 255.901 118.752 255.791C117.733 252.666 116.963 249.464 116.45 246.217L106.573 248.546L104.572 244.149L103.819 244.368L105.751 248.847L89.3105 252.682L89.0502 248.327H88.2693L88.6255 252.86C86.0824 253.392 83.6614 254.396 81.4878 255.819L87.4199 263.284L82.6523 265.722L83.2003 266.639L88.5159 264.448C94.7083 271.913 98.9142 306.032 99.0375 323.646C97.5979 323.112 96.0411 322.975 94.5302 323.249ZM86.0362 256.736C93.9548 252.805 113.847 250.121 113.847 250.121C113.847 250.121 116.998 259.531 117.957 264.174C122.355 285.048 120.204 307.511 131.37 327.372C122.054 329.262 103.819 331.467 103.819 331.467C98.5443 324.222 100.668 287.39 92.4341 266.954C90.8928 263.186 88.7147 259.712 85.9951 256.682L86.0362 256.736Z" fill="#389686"/>
<path d="M117.82 277.816C117.245 280.35 116.903 283.295 114.587 283.815C108.628 283.131 115.437 276.378 110.313 275.022C107.34 274.68 104.833 276.666 104.668 278.159C105.449 291.075 123.643 296.937 118.368 310.648C117.357 312.146 115.899 313.286 114.202 313.906C112.504 314.526 110.654 314.593 108.915 314.1C103.778 312.73 99.8322 307.771 103.326 303.649C105.984 300.17 106.956 304.813 108.943 307.306C112.409 309.963 115.902 305.84 114.752 302.69C111.135 294.732 102.422 292.212 99.5857 283.596C96.7497 274.981 104.792 264.571 114.204 270.981C115.248 271.807 116.109 272.841 116.732 274.018C117.354 275.195 117.725 276.488 117.82 277.816Z" fill="#389686"/>
<path d="M114.491 318.935C109.491 301.334 113.203 282.158 106.395 264.352" stroke="#389686" stroke-width="1.05" stroke-miterlimit="10"/>
<path d="M111.765 319.209C107.162 301.841 110.874 282.651 103.545 264.886" stroke="#389686" stroke-width="1.05" stroke-miterlimit="10"/>
<path d="M143.343 332.056C122.204 308.771 128.123 277.076 122.67 248.642C120.903 242.944 119.82 239.369 119.82 239.369C119.82 239.369 118.45 239.78 116.163 240.492C102.243 246.19 86.9951 247.464 72.7334 253.367C78.0376 258.42 82.374 264.398 85.5292 271.009C87.0417 274.169 88.3148 277.438 89.3378 280.788C95.9002 301.334 92.6807 322.811 97.0784 343.685C110.504 338.439 126.41 338.001 139.85 333.07L143.343 332.056Z" stroke="black" stroke-width="3" stroke-miterlimit="10"/>
<path d="M163.921 314.25C136.397 299.183 131.685 267.174 117.341 242.04C113.82 237.232 111.642 234.191 111.642 234.191L108.545 236.438C97.2291 246.354 83.214 252.49 71.6511 262.708C78.3017 265.773 84.3372 270.024 89.4612 275.255C91.9384 277.764 94.2279 280.451 96.3112 283.295C109.162 300.526 113.08 321.92 124.013 340.247C134.973 330.933 149.919 325.358 161.003 316.332L163.921 314.25Z" fill="#61DDAE"/>
<path d="M124.095 340.028C121.506 336.179 119.437 330.947 117.012 326.865C124.588 322.907 129.575 327.495 134.151 333.221L124.095 340.028Z" fill="#389686"/>
<path d="M82.0632 268.886C78.7185 266.599 75.2265 264.536 71.6101 262.708L81.4604 255.175C83.0889 256.281 84.2992 257.901 84.8978 259.776C85.4964 261.65 85.4487 263.672 84.7621 265.516C84.2546 266.904 83.3067 268.087 82.0632 268.886Z" fill="#389686"/>
<path d="M101.558 241.492L111.6 234.219L118.999 244.423C118.069 245.211 116.992 245.804 115.829 246.169C114.667 246.533 113.443 246.662 112.231 246.546C109.635 246.335 107.107 245.613 104.792 244.423C103.557 243.635 102.464 242.644 101.558 241.492Z" fill="#389686"/>
<path d="M154.303 320.784C150.262 316.825 149.234 308.607 155.413 308.785C155.413 308.785 160.77 312.209 163.921 314.264L154.303 320.784Z" fill="#389686"/>
<path d="M114.847 321.701C115.194 322.146 115.442 322.66 115.574 323.208C116.782 322.364 118.21 321.888 119.684 321.838C121.273 325.03 124.89 331.495 124.89 331.495C124.89 331.495 130.205 329.016 133.425 327.386L137.261 331.276L138.631 330.865L134.315 326.756L146.741 319.743L150.851 323.167L151.358 322.29C151.358 322.29 148.454 320.332 148.139 318.866C149.276 317.085 152.153 315.675 155.084 315.031C152.851 312.292 148.604 307.347 148.604 307.347L151.043 304.744L150.536 303.991L147.96 306.566C134.027 290.376 116.45 250.943 116.45 250.943L121.067 249.189L120.643 248.244C120.643 248.244 117.409 249.614 115.875 250.011C113.886 247.416 112.104 244.668 110.546 241.793L101.969 247.203L98.6403 243.67L97.9964 244.135L101.38 247.751L87.1322 256.668L85.4745 252.655L84.7484 252.97L86.5568 257.079C84.3289 258.413 82.3647 260.145 80.7617 262.188L88.8036 267.338L84.9402 271.201L85.7622 271.885L90.064 268.078C98.2841 273.132 113.354 304.046 119.231 320.66C117.704 320.616 116.192 320.975 114.847 321.701ZM85.2279 261.613C91.434 255.326 109.381 246.327 109.381 246.327C109.381 246.327 115.409 254.216 117.848 258.284C128.808 276.611 134.027 298.553 151.029 313.716C142.891 318.578 126.369 326.619 126.369 326.619C119.026 321.482 109.08 285.952 94.6673 269.297C91.9851 266.213 88.7921 263.614 85.2279 261.613Z" fill="#389686"/>
<path d="M122.122 271.201C122.396 273.776 123.04 276.679 121.013 277.926C115.149 279.2 119.396 270.598 114.163 270.995C111.244 271.639 109.518 274.31 109.847 275.775C114.779 287.747 133.891 287.39 133.274 302.101C132.805 303.845 131.795 305.395 130.389 306.529C128.984 307.664 127.255 308.324 125.451 308.415C120.163 308.812 114.806 305.388 116.779 300.348C118.149 296.239 120.602 300.279 123.273 301.991C127.383 303.361 129.383 298.348 127.273 295.746C121.273 289.39 112.203 289.842 106.723 282.596C101.243 275.351 105.49 262.982 116.45 265.968C117.707 266.4 118.86 267.088 119.836 267.989C120.812 268.89 121.591 269.983 122.122 271.201Z" fill="#389686"/>
<path d="M132.384 311.182C121.93 296.17 119.19 276.816 106.997 262.161" stroke="#389686" stroke-width="1.05" stroke-miterlimit="10"/>
<path d="M129.89 312.292C119.903 297.348 117.19 278.049 104.49 263.571" stroke="#389686" stroke-width="1.05" stroke-miterlimit="10"/>
<path d="M163.921 314.25C136.397 299.183 131.685 267.174 117.341 242.04C113.82 237.232 111.642 234.191 111.642 234.191L108.545 236.438C97.2291 246.354 83.214 252.49 71.6511 262.708C78.3017 265.773 84.3372 270.024 89.4612 275.255C91.9384 277.764 94.2279 280.451 96.3112 283.295C109.162 300.526 113.08 321.92 124.013 340.247C134.973 330.933 149.919 325.358 161.003 316.332L163.921 314.25Z" stroke="black" stroke-width="3" stroke-miterlimit="10"/>
<path d="M183.183 285.021C151.933 281.912 135.069 254.353 111.943 236.862L103.613 231.876L101.654 235.164C95.1194 248.71 84.6526 259.818 77.9944 273.776C85.3183 273.988 92.5422 275.534 99.3116 278.337C102.562 279.682 105.708 281.266 108.724 283.076C127.301 293.896 139.302 312.045 156.537 324.619C163.003 311.73 174.525 300.772 181.197 288.116C182.457 286.267 183.183 285.021 183.183 285.021Z" fill="#61DDAE"/>
<path d="M156.633 324.359C152.742 321.825 148.796 317.811 144.96 315.017C150.44 308.415 156.77 310.675 163.222 314.141L156.633 324.359Z" fill="#389686"/>
<path d="M90.0779 275.31C86.1201 274.536 82.1155 274.023 78.0903 273.776L84.1594 262.982C86.0892 263.363 87.8356 264.38 89.1195 265.869C90.4035 267.359 91.1509 269.236 91.2424 271.201C91.3182 272.661 90.9088 274.106 90.0779 275.31Z" fill="#389686"/>
<path d="M97.2703 242.519L103.641 231.876L114.464 238.328C113.919 239.417 113.162 240.386 112.237 241.178C111.313 241.971 110.239 242.571 109.08 242.944C106.609 243.758 104.003 244.083 101.408 243.902C99.9597 243.68 98.5605 243.213 97.2703 242.519Z" fill="#389686"/>
<path d="M176.881 294.814C171.62 292.746 167.442 285.596 173.21 283.336L183.183 285.021L176.881 294.814Z" fill="#389686"/>
<path d="M140.946 311.114C141.442 311.388 141.872 311.766 142.206 312.223C143.009 310.958 144.167 309.958 145.535 309.347C148.275 311.661 154.098 316.195 154.098 316.195C154.098 316.195 158.03 311.84 160.318 309.032L165.387 311.114L166.538 310.168L160.934 308.032L169.606 296.704L174.758 298.238L174.881 297.225C174.881 297.225 171.442 296.567 170.579 295.348C170.922 293.253 173.018 290.828 175.456 289.089C172.319 287.431 166.496 284.555 166.496 284.555L167.716 281.227L166.949 280.72L165.579 284.199C146.398 274.762 114.765 245.368 114.765 245.368L118.327 241.944L117.56 241.245C117.56 241.245 115.08 243.806 113.833 244.738C110.985 243.129 108.268 241.297 105.709 239.259L99.928 247.587L95.5028 245.656L95.0918 246.327L99.517 248.368L89.9269 262.16L86.8307 259.106L86.2827 259.695L89.5707 262.818C88.0562 264.932 86.9503 267.31 86.3101 269.831L95.722 271.406L93.7492 276.364L94.763 276.679L97.2428 271.488C106.833 272.858 132.863 295.431 144.686 308.47C143.223 308.996 141.93 309.91 140.946 311.114ZM90.1187 267.379C93.3656 259.161 106.353 243.848 106.353 243.848C106.353 243.848 114.998 248.737 118.82 251.532C136.069 264.105 149.495 282.24 171.086 289.527C165.496 297.225 153.44 311.059 153.44 311.059C144.686 309.21 121.615 280.419 101.819 270.735C98.1401 268.953 94.1824 267.818 90.1187 267.379Z" fill="#389686"/>
<path d="M127.862 261.845C129.137 264.105 130.876 266.544 129.479 268.461C124.588 271.94 125.122 262.352 120.41 264.79C117.971 266.516 117.437 269.653 118.314 270.885C127.534 279.953 144.987 272.146 150.193 285.952C150.443 287.741 150.12 289.563 149.271 291.157C148.422 292.751 147.091 294.036 145.467 294.828C140.754 297.252 134.507 296.197 134.315 290.801C133.973 286.445 137.809 289.239 140.946 289.76C145.303 289.417 145.138 284.021 142.179 282.446C134.164 278.953 125.958 282.939 118.122 278.405C110.285 273.871 109.258 260.791 120.547 259.229C121.881 259.131 123.221 259.313 124.481 259.763C125.741 260.214 126.893 260.923 127.862 261.845Z" fill="#389686"/>
<path d="M152.961 294.568C137.466 284.897 127.41 268.105 110.395 259.407" stroke="#389686" stroke-width="1.05" stroke-miterlimit="10"/>
<path d="M151.111 296.595C136.041 286.774 125.986 270.023 108.641 261.722" stroke="#389686" stroke-width="1.05" stroke-miterlimit="10"/>
<path d="M183.183 285.021C151.933 281.912 135.069 254.353 111.943 236.862L103.613 231.876L101.654 235.164C95.1194 248.71 84.6526 259.818 77.9944 273.776C85.3183 273.988 92.5422 275.534 99.3116 278.337C102.562 279.682 105.708 281.266 108.724 283.076C127.301 293.896 139.302 312.045 156.537 324.619C163.003 311.73 174.525 300.772 181.197 288.116C182.457 286.267 183.183 285.021 183.183 285.021Z" stroke="black" stroke-width="3" stroke-miterlimit="10"/>
<path d="M198.007 239.875C196.705 218.084 172.511 217.686 144.946 221.152C119.382 224.37 105.682 238.013 97.8593 249.915C87.9953 264.873 90.1462 283.391 101.969 290.787C113.792 298.184 131.041 291.91 140.576 276.734C141.553 275.169 142.423 273.54 143.179 271.858C145.837 271.748 148.536 271.529 151.276 271.173C178.813 267.68 199.308 261.613 198.007 239.875Z" fill="#FFD167"/>
<path d="M142.371 252.504C133.575 285.459 105.271 288.829 91.6807 271.776C92.1191 278.419 94.3385 285.98 99.613 290.075C106.669 295.554 113.313 295.184 121.355 292.034C128.986 289.007 134.26 283.268 139.74 277.214C141.534 275.34 143.161 273.314 144.604 271.159C145.414 271.48 146.254 271.718 147.111 271.872C149.741 272.365 151.564 271.68 154.084 271.474C160.052 270.723 165.972 269.625 171.812 268.187C174.895 267.16 182.457 263.338 185.512 262.366C165.675 265.818 148.207 262.393 142.371 252.504Z" fill="#8B5612"/>
<path d="M184.635 262.818C176.278 267.187 164.579 269.475 151.235 271.146C148.495 271.502 145.755 271.721 143.138 271.831C142.382 273.513 141.512 275.142 140.535 276.707C130.945 291.883 113.71 298.17 101.928 290.76C90.1463 283.35 87.9954 264.845 97.8184 249.888C105.641 238.013 119.341 224.37 144.905 221.124M142.165 273.83C144.101 270.432 145.05 266.561 144.905 262.654" stroke="black" stroke-width="5" stroke-miterlimit="10" stroke-linecap="round"/>
</svg>
