<svg width="479" height="307" viewBox="0 0 479 307" fill="none" xmlns="http://www.w3.org/2000/svg">
<path d="M330.52 241.616C336.908 251.633 344.64 259.563 353.718 265.405C352.978 255.209 356.888 248.29 365.448 244.649C357.584 239.145 348.463 235.462 338.084 233.599C337.618 237.798 335.097 240.47 330.52 241.616Z" fill="#61DDAE"/>
<path d="M338.084 233.599C339.675 233.886 341.233 234.214 342.758 234.584C342.554 235.154 342.197 235.656 341.725 236.035C341.371 236.324 340.966 236.545 340.531 236.685C340.271 236.769 340.003 236.823 339.731 236.847C339.352 236.88 338.97 236.86 338.597 236.787C338.338 236.735 338.085 236.661 337.839 236.566C337.684 236.506 337.534 236.441 337.391 236.369C337.754 235.484 337.987 234.551 338.084 233.599Z" fill="#389686"/>
<path d="M362.194 242.524C363.305 243.204 364.385 243.908 365.448 244.649C363.491 245.461 361.663 246.555 360.022 247.896C359.723 247.695 359.502 247.398 359.395 247.054C359.301 246.688 359.301 246.304 359.395 245.938C359.408 245.863 359.426 245.79 359.449 245.717C359.601 245.198 359.85 244.712 360.183 244.285C360.732 243.572 361.415 242.974 362.194 242.524Z" fill="#389686"/>
<path d="M353.992 258.54C353.614 260.808 353.518 263.113 353.706 265.405C352.476 264.611 351.276 263.787 350.124 262.921C350.169 261.966 350.4 261.03 350.805 260.163C351.036 259.662 351.365 259.212 351.772 258.838C351.831 258.79 351.885 258.737 351.945 258.695C352.237 258.457 352.591 258.308 352.966 258.265C353.329 258.238 353.691 258.335 353.992 258.54Z" fill="#389686"/>
<path d="M333.499 240.506C333.803 240.842 334.058 241.22 334.257 241.628C334.427 241.991 334.534 242.381 334.574 242.78C334.574 242.852 334.574 242.918 334.574 242.989C334.581 243.425 334.494 243.857 334.317 244.255C334.085 244.802 333.683 245.26 333.171 245.562C332.257 244.285 331.38 242.971 330.508 241.616C331.548 241.373 332.552 241 333.499 240.506Z" fill="#389686"/>
<path d="M343.402 236.566C343.839 236.115 344.191 235.589 344.441 235.014L344.005 234.901C343.765 235.473 343.414 235.992 342.973 236.429L342.847 236.548C341.731 236.184 340.603 235.838 339.451 235.509C339.197 236.273 338.871 237.011 338.478 237.712L338.173 237.629C337.927 237.549 337.686 237.455 337.451 237.348C337.304 237.28 337.16 237.209 337.021 237.133L336.878 237.39C337.009 237.467 337.152 237.539 337.296 237.611C337.526 237.724 337.764 237.824 338.006 237.909L338.304 238.005C337.583 239.201 336.65 240.257 335.552 241.121C335.498 241.026 335.439 240.934 335.373 240.846C335.126 240.496 334.842 240.174 334.526 239.885L334.269 240.058C334.584 240.359 334.862 240.696 335.099 241.061C335.158 241.151 335.212 241.246 335.266 241.342C334.622 241.822 333.939 242.247 333.224 242.613C333.917 243.509 334.615 244.384 335.32 245.24C335.32 245.287 335.272 245.341 335.242 245.389C334.947 245.92 334.539 246.381 334.048 246.738L334.353 247.144C334.838 246.771 335.245 246.304 335.546 245.771L335.63 245.622C339.709 250.565 344.347 255.02 349.45 258.898C349.45 258.97 349.384 259.035 349.354 259.113C348.987 259.974 348.743 260.882 348.632 261.811L349.014 262.104C349.108 261.166 349.346 260.248 349.718 259.382C349.718 259.31 349.784 259.244 349.814 259.173C350.631 259.77 351.449 260.366 352.279 260.922C352.421 259.36 352.708 257.815 353.139 256.307H353.413C353.772 256.334 354.117 256.454 354.416 256.653C354.476 256.439 354.536 256.224 354.601 256.015C354.306 255.818 353.968 255.693 353.616 255.651C353.525 255.644 353.433 255.644 353.342 255.651C354.175 253.035 355.564 250.63 357.413 248.601C357.449 248.684 357.49 248.768 357.532 248.851C357.703 249.155 357.942 249.415 358.231 249.609L358.666 249.144C358.377 248.951 358.142 248.685 357.986 248.374C357.942 248.289 357.904 248.201 357.872 248.111C358.911 247.061 360.058 246.122 361.293 245.311C360.541 244.81 359.771 244.326 358.989 243.849L359.126 243.67C359.707 242.986 360.389 242.396 361.15 241.921L360.78 241.706C360.029 242.19 359.353 242.781 358.774 243.461L358.631 243.64C353.777 240.773 348.625 238.445 343.265 236.697L343.402 236.566ZM359.162 245.783C355.21 248.998 352.557 253.537 351.694 258.558C345.426 254.112 339.741 248.898 334.77 243.037C337.127 241.466 338.99 239.26 340.143 236.673C346.82 238.949 353.204 242.007 359.162 245.783Z" fill="#389686"/>
<path d="M345.94 253.143C345.62 252.82 345.424 252.396 345.384 251.944C345.343 251.492 345.462 251.04 345.719 250.666C346.268 249.675 347.074 249.383 347.51 249.687C347.707 249.835 347.85 250.045 347.916 250.284C348.626 249.679 349.231 248.961 349.706 248.159C350.745 246.541 351.085 245.323 350.303 244.864C349.521 244.404 348.375 245.347 347.163 246.523C344.907 248.696 343.337 250.105 341.683 248.565C340.275 247.21 340.382 244.84 341.982 242.726C343.438 240.739 345.438 239.503 346.71 240.046C347.45 240.38 347.468 241.127 346.954 241.837C346.357 242.715 345.516 242.929 345.05 242.649C344.892 242.568 344.769 242.432 344.704 242.267C344.157 242.63 343.688 243.099 343.325 243.646C342.501 244.786 342.441 245.807 343.08 246.32C343.719 246.834 344.835 246.063 346.065 244.971C348.214 243.007 350.184 241.545 351.999 242.482C353.813 243.419 352.93 245.902 350.96 249.048C349.044 252.063 347.08 254.116 345.94 253.143Z" fill="#389686"/>
<path d="M340.37 242.619C344.214 245.437 347.897 248.057 351.419 250.481" stroke="#389686" stroke-width="0.549196" stroke-miterlimit="10"/>
<path d="M341.104 241.652C345.084 244.207 348.825 246.652 352.327 248.989" stroke="#389686" stroke-width="0.549196" stroke-miterlimit="10"/>
<path d="M330.52 241.616C336.908 251.633 344.64 259.563 353.718 265.405C352.978 255.209 356.888 248.29 365.448 244.649C357.584 239.145 348.463 235.462 338.084 233.599C337.618 237.798 335.097 240.47 330.52 241.616Z" stroke="black" stroke-width="1.06257" stroke-miterlimit="10"/>
<path d="M149.166 116.113C167.994 127.053 187.518 133.845 207.739 136.487C198.47 121.289 199.772 107.869 211.643 96.2286C193.818 93.2916 175.241 94.0219 155.912 98.4194C158.383 105.237 156.135 111.135 149.166 116.113Z" fill="#61DDAE"/>
<path d="M155.882 98.4194C158.835 97.7468 161.772 97.1499 164.693 96.6285C164.789 97.6653 164.566 98.7067 164.054 99.6133C163.661 100.319 163.136 100.943 162.508 101.452C162.125 101.767 161.709 102.04 161.266 102.264C160.633 102.584 159.961 102.821 159.267 102.968C158.779 103.069 158.284 103.133 157.786 103.159C157.476 103.159 157.189 103.159 156.861 103.159C156.787 101.538 156.456 99.9378 155.882 98.4194Z" fill="#389686"/>
<path d="M204.348 95.2376C206.784 95.5003 209.206 95.8306 211.613 96.2286C208.918 98.8153 206.628 101.794 204.82 105.063C204.166 104.973 203.559 104.674 203.089 104.21C202.63 103.74 202.308 103.154 202.158 102.514C202.122 102.389 202.098 102.264 202.074 102.138C201.929 101.227 201.978 100.296 202.217 99.4044C202.626 97.8807 203.352 96.4608 204.348 95.2376Z" fill="#389686"/>
<path d="M202.814 125.706C203.959 129.502 205.605 133.127 207.709 136.487C204.975 136.137 202.259 135.707 199.561 135.198C198.896 133.709 198.558 132.094 198.57 130.464C198.572 129.524 198.776 128.596 199.167 127.742C199.224 127.622 199.287 127.507 199.358 127.395C199.691 126.812 200.181 126.334 200.773 126.017C201.403 125.699 202.118 125.59 202.814 125.706Z" fill="#389686"/>
<path d="M153.416 112.305C154.193 112.602 154.926 113.004 155.595 113.498C156.168 113.927 156.66 114.454 157.046 115.056C157.112 115.158 157.171 115.265 157.231 115.373C157.585 116.028 157.778 116.759 157.792 117.504C157.806 118.525 157.469 119.52 156.837 120.322C154.27 118.996 151.715 117.593 149.172 116.113C150.734 115.018 152.159 113.739 153.416 112.305Z" fill="#389686"/>
<path d="M167.349 99.2611C167.754 98.2706 167.957 97.2091 167.946 96.1391L167.105 96.2704C167.134 97.3265 166.93 98.3761 166.508 99.3447C166.472 99.4402 166.43 99.5297 166.388 99.6193C164.188 99.8461 161.967 100.111 159.726 100.413C159.895 101.766 159.915 103.133 159.786 104.49L159.189 104.574C158.706 104.63 158.219 104.656 157.733 104.652C157.428 104.652 157.136 104.652 156.825 104.622C156.825 104.789 156.825 104.956 156.771 105.117C157.07 105.117 157.368 105.159 157.673 105.171C158.157 105.184 158.641 105.17 159.123 105.129L159.72 105.063C159.403 107.439 158.622 109.729 157.422 111.803C157.255 111.702 157.088 111.606 156.909 111.511C156.2 111.145 155.458 110.845 154.694 110.615L154.39 111.063C155.156 111.31 155.896 111.634 156.598 112.03C156.771 112.131 156.939 112.239 157.106 112.346C156.368 113.551 155.527 114.689 154.593 115.749C156.479 116.644 158.365 117.502 160.252 118.322C160.252 118.417 160.252 118.513 160.252 118.608C160.156 119.651 159.808 120.655 159.237 121.533L160.079 121.951C160.634 121.044 160.981 120.024 161.093 118.966C161.093 118.871 161.093 118.775 161.093 118.68C172.079 123.451 183.535 127.053 195.275 129.425V129.819C195.32 131.414 195.619 132.992 196.158 134.493L197.042 134.678C196.469 133.178 196.156 131.591 196.117 129.986C196.117 129.849 196.117 129.718 196.117 129.586C197.985 129.944 199.853 130.273 201.722 130.559C200.74 128.064 200.021 125.473 199.579 122.829C199.734 122.756 199.894 122.693 200.056 122.638C200.699 122.427 201.382 122.37 202.05 122.471C201.979 122.095 201.919 121.724 201.871 121.354C201.209 121.259 200.533 121.303 199.889 121.486C199.727 121.534 199.568 121.592 199.412 121.659C198.795 117.031 199.298 112.322 200.88 107.929C201.009 108.037 201.145 108.137 201.286 108.227C201.827 108.58 202.438 108.812 203.077 108.908C203.196 108.568 203.328 108.227 203.465 107.887C202.819 107.796 202.205 107.55 201.674 107.171C201.536 107.074 201.405 106.968 201.28 106.854C202.251 104.478 203.486 102.219 204.963 100.121C203.274 99.8819 201.567 99.673 199.853 99.4939C199.883 99.3686 199.919 99.2432 199.955 99.1178C200.421 97.6357 201.132 96.2416 202.056 94.9929L201.256 94.9272C200.356 96.1824 199.658 97.57 199.185 99.0402C199.143 99.1656 199.113 99.291 199.077 99.4163C188.476 98.4094 177.801 98.4434 167.206 99.5178L167.349 99.2611ZM201.692 102.395C197.418 110.14 196.475 118.459 198.863 127.354C184.693 124.924 170.847 120.882 157.595 115.307C160.384 111.325 161.867 106.576 161.84 101.715C175.11 100.529 188.47 100.757 201.692 102.395Z" fill="#389686"/>
<path d="M184.721 123.044C183.187 122.668 182.226 121.163 182.387 119.378C182.56 117.468 183.718 116.447 184.667 116.626C185.111 116.708 185.517 116.929 185.825 117.259C186.556 115.847 187.024 114.314 187.204 112.734C187.717 109.505 187.347 107.392 185.64 107.23C184.028 107.081 182.709 109.332 181.539 112.006C179.36 116.943 177.754 120.202 173.725 119.008C170.227 117.91 168.555 114.185 169.66 109.791C170.603 105.708 173.074 102.389 175.689 102.335C177.217 102.335 177.838 103.47 177.528 104.944C177.151 106.735 175.904 107.636 174.889 107.535C174.556 107.524 174.237 107.402 173.982 107.189C173.337 108.118 172.899 109.174 172.698 110.287C172.179 112.627 172.877 114.239 174.376 114.585C176.059 114.967 177.187 112.955 178.423 110.406C180.578 105.869 182.822 102.228 186.685 102.395C190.702 102.586 190.959 107.016 190.022 113.212C189.234 119.199 187.443 123.742 184.721 123.044Z" fill="#389686"/>
<path d="M166.878 110.729C175.701 112.372 184.092 113.825 192.051 115.086" stroke="#389686" stroke-width="0.98497" stroke-miterlimit="10"/>
<path d="M167.391 108.717C176.206 109.875 184.563 111.017 192.463 112.143" stroke="#389686" stroke-width="0.98497" stroke-miterlimit="10"/>
<path d="M149.166 116.113C167.994 127.053 187.518 133.845 207.739 136.487C198.47 121.289 199.772 107.869 211.643 96.2286C193.818 93.2916 175.241 94.0219 155.912 98.4194C158.383 105.237 156.135 111.135 149.166 116.113Z" stroke="black" stroke-width="1.89831" stroke-miterlimit="10"/>
<path d="M381.631 148.492C396.8 161.523 419.001 163.451 436.909 152.921C433.228 145.782 429.547 138.644 425.865 131.508C415.473 141.591 399.313 143.907 385.631 136.833C384.294 140.725 382.961 144.612 381.631 148.492Z" fill="#61DDAE"/>
<path d="M385.631 136.833C387.683 137.898 389.832 138.765 392.048 139.424C391.987 139.709 391.867 139.978 391.697 140.215C391.526 140.451 391.308 140.649 391.057 140.797C390.592 141.065 390.071 141.22 389.535 141.251C389.154 141.275 388.772 141.261 388.395 141.209C387.792 141.119 387.203 140.957 386.639 140.725C386.215 140.553 385.803 140.354 385.404 140.128C385.153 139.985 384.902 139.824 384.664 139.663L385.631 136.833Z" fill="#389686"/>
<path d="M421.358 135.162C422.966 134.08 424.474 132.857 425.865 131.508L428.552 136.72C428.004 137.187 427.369 137.54 426.683 137.759C426.095 137.952 425.473 138.023 424.857 137.967L424.546 137.926C423.923 137.822 423.333 137.57 422.827 137.191C422.154 136.669 421.644 135.964 421.358 135.162Z" fill="#389686"/>
<path d="M434.217 147.704C435.116 149.443 436.014 151.182 436.909 152.921C434.523 154.32 432.026 155.518 429.441 156.503C429.134 155.626 429.102 154.676 429.352 153.781C429.559 153.005 429.885 152.266 430.319 151.59C430.39 151.471 430.468 151.357 430.545 151.244C431.003 150.572 431.527 149.948 432.109 149.381C432.757 148.756 433.462 148.194 434.217 147.704Z" fill="#389686"/>
<path d="M382.604 145.656C383.321 146.217 384.007 146.79 384.634 147.369C385.217 147.901 385.769 148.465 386.288 149.059L386.538 149.357C387.001 149.909 387.401 150.509 387.732 151.148C388.082 151.75 388.219 152.453 388.12 153.142C385.821 151.779 383.646 150.217 381.619 148.474C381.954 147.549 382.276 146.599 382.604 145.656Z" fill="#389686"/>
<path d="M393.743 141.633C394.126 141.184 394.38 140.639 394.478 140.057L393.839 139.908C393.743 140.487 393.467 141.022 393.051 141.436L392.926 141.555C391.084 141.013 389.288 140.328 387.553 139.508L386.855 141.895L386.335 141.675C385.909 141.477 385.495 141.256 385.094 141.012C384.837 140.863 384.586 140.696 384.341 140.528L384.234 140.839C384.479 141.012 384.729 141.173 384.992 141.334C385.392 141.582 385.805 141.809 386.228 142.015L386.747 142.248C386.335 143.65 385.923 145.059 385.517 146.462L385.01 146.044C384.365 145.513 383.685 144.988 382.986 144.468L382.879 144.773C383.583 145.31 384.264 145.847 384.909 146.384C385.076 146.528 385.249 146.671 385.41 146.82L384.747 149.095C386.396 150.254 388.121 151.301 389.911 152.229C389.911 152.294 389.971 152.366 389.995 152.432C390.259 153.037 390.348 153.706 390.251 154.36L391.021 154.754C391.115 154.104 391.037 153.441 390.794 152.832L390.717 152.635C396.171 155.303 402.098 156.869 408.158 157.241C414.218 157.614 420.293 156.787 426.033 154.807C426.033 154.891 426.003 154.975 425.991 155.052C425.875 155.907 425.955 156.776 426.224 157.595C426.504 157.506 426.821 157.422 427.071 157.327C426.797 156.492 426.731 155.602 426.88 154.736C426.88 154.652 426.916 154.569 426.928 154.485C428.866 153.776 430.756 152.943 432.587 151.99L430.832 148.14L431.327 147.68C431.976 147.095 432.666 146.558 433.393 146.074L433.1 145.507C432.386 145.992 431.702 146.52 431.053 147.089L430.563 147.537L427.232 140.218C427.406 140.158 427.579 140.099 427.752 140.021C428.446 139.734 429.097 139.352 429.686 138.887L429.393 138.29C428.813 138.756 428.167 139.134 427.477 139.412C427.304 139.484 427.131 139.537 426.958 139.591L425.203 135.741C423.952 136.706 422.635 137.584 421.263 138.367L421.102 138.206C420.541 137.592 420.117 136.866 419.86 136.075L419.317 136.397C419.574 137.183 419.98 137.913 420.511 138.547C420.559 138.605 420.611 138.661 420.666 138.714C412.386 143.17 402.701 144.24 393.648 141.698C393.681 141.678 393.713 141.656 393.743 141.633ZM424.433 138.218C426.283 142.66 428.138 147.099 429.996 151.536C423.187 154.82 415.663 156.343 408.113 155.968C400.563 155.593 393.227 153.33 386.777 149.387L388.926 141.113C394.614 143.642 400.845 144.702 407.049 144.196C413.253 143.691 419.23 141.635 424.433 138.218Z" fill="#389686"/>
<path d="M414.702 155.094C413.013 155.267 411.819 154.646 411.718 153.697C411.616 152.748 412.637 151.948 413.717 151.805C414.178 151.729 414.648 151.729 415.108 151.805C415.36 151.415 415.53 150.978 415.608 150.52C415.686 150.062 415.67 149.594 415.562 149.142C415.21 147.399 414.016 146.558 412.261 146.862C410.506 147.167 409.921 148.468 409.276 150.014C408.082 152.832 406.775 154.831 402.471 154.193C398.752 153.56 396.155 150.951 396.501 148.468C396.788 146.152 398.889 144.761 401.277 144.934C402.698 145.047 403.516 145.674 403.522 146.486C403.522 147.477 402.447 147.954 401.39 147.823C401.052 147.791 400.723 147.698 400.417 147.549C400.188 147.759 400.003 148.014 399.876 148.299C399.749 148.583 399.681 148.891 399.677 149.202C399.594 150.498 400.65 151.518 402.28 151.757C404.113 152.014 404.918 150.88 405.647 149.465C406.924 146.892 408.035 144.928 411.616 144.271C415.246 143.513 417.83 145.041 418.726 148.402C419.568 151.626 417.622 154.819 414.702 155.094Z" fill="#389686"/>
<path d="M393.911 148.474C402.807 151.56 412.485 151.543 421.37 148.426" stroke="#389686" stroke-width="0.650677" stroke-miterlimit="10"/>
<path d="M394.083 147.322C402.833 150.212 412.304 150.046 420.946 146.85" stroke="#389686" stroke-width="0.650677" stroke-miterlimit="10"/>
<path d="M381.631 148.492C396.8 161.523 419.001 163.451 436.909 152.921C433.228 145.782 429.547 138.644 425.865 131.508C415.473 141.591 399.313 143.907 385.631 136.833C384.294 140.725 382.961 144.612 381.631 148.492Z" stroke="black" stroke-width="1.2536" stroke-miterlimit="10"/>
<path d="M68.757 175.247C44.0611 177.605 23.2454 195.8 17.2639 220.872L45.9176 229.414C45.846 211.452 57.6656 195.018 75.7652 188.858L68.757 175.247Z" fill="#61DDAE"/>
<path d="M75.7354 188.846C73.0207 189.771 70.3986 190.948 67.9034 192.362C67.7015 192.061 67.5644 191.721 67.5007 191.365C67.437 191.008 67.4481 190.642 67.5332 190.29C67.6893 189.646 67.9962 189.049 68.4287 188.547C68.7331 188.184 69.0753 187.854 69.4495 187.562C70.0465 187.1 70.6981 186.713 71.3896 186.41C71.9115 186.177 72.4479 185.978 72.9954 185.813C73.3476 185.712 73.6998 185.622 74.052 185.55L75.7354 188.846Z" fill="#389686"/>
<path d="M46.5085 222.227C46.1 224.593 45.9002 226.99 45.9116 229.391L38.9272 227.319C38.9865 226.428 39.2176 225.556 39.6078 224.752C39.9475 224.07 40.4181 223.462 40.9927 222.961L41.2971 222.723C41.9256 222.252 42.659 221.94 43.4342 221.815C44.4773 221.659 45.5434 221.802 46.5085 222.227Z" fill="#389686"/>
<path d="M24.2363 222.944L17.2639 220.872C18.0584 217.534 19.1327 214.269 20.4755 211.112C21.5275 211.587 22.4057 212.378 22.9887 213.374C23.4999 214.22 23.8803 215.137 24.1169 216.096C24.1527 216.264 24.1945 216.425 24.2303 216.598C24.4374 217.579 24.5434 218.58 24.5467 219.583C24.5552 220.71 24.4512 221.836 24.2363 222.944Z" fill="#389686"/>
<path d="M70.4402 178.56C69.3179 178.715 68.2136 178.835 67.157 178.9C66.1807 178.954 65.2022 178.954 64.2259 178.9L63.7424 178.865C62.8435 178.808 61.9542 178.647 61.0919 178.387C60.2531 178.179 59.5062 177.701 58.9668 177.026C62.1654 176.144 65.4354 175.545 68.7389 175.235L70.4402 178.56Z" fill="#389686"/>
<path d="M64.4707 191.974C64.536 192.704 64.8049 193.401 65.2467 193.985L65.9213 193.544C65.4899 192.958 65.2502 192.253 65.2348 191.526C65.2348 191.454 65.2348 191.383 65.2348 191.311C67.2997 190.14 69.451 189.128 71.6699 188.285L70.1298 185.604C70.3387 185.509 70.5536 185.413 70.7745 185.33C71.3143 185.116 71.8665 184.934 72.4281 184.786C72.7862 184.691 73.1504 184.607 73.5086 184.536C73.4489 184.41 73.3892 184.291 73.3235 184.172C72.9594 184.243 72.5952 184.327 72.2371 184.422C71.6691 184.568 71.1092 184.743 70.5596 184.948L69.9089 185.216C69.0016 183.624 68.0982 182.048 67.1988 180.488L68.0047 180.399C69.0374 180.273 70.088 180.118 71.1566 179.945L70.9715 179.581C69.889 179.756 68.8285 179.899 67.7898 180.011L66.966 180.088L65.5034 177.539C63.0493 178.017 60.6302 178.659 58.2624 179.462L58.0117 179.36C57.241 179.078 56.5662 178.584 56.0656 177.933L55.0508 178.286C55.5539 178.925 56.2141 179.422 56.967 179.73L57.2058 179.832C50.1325 182.413 43.6382 186.365 38.0953 191.462C32.5524 196.558 28.0699 202.698 24.9047 209.53L24.7197 209.279C24.0643 208.428 23.2231 207.738 22.2603 207.262C22.0931 207.59 21.9319 207.918 21.7708 208.247C22.7527 208.72 23.6034 209.427 24.2481 210.306C24.3138 210.39 24.3735 210.479 24.4332 210.569C23.4015 212.911 22.5222 215.318 21.8006 217.774L26.7493 219.517C26.7493 219.792 26.7493 220.072 26.7493 220.353C26.7113 221.434 26.5976 222.511 26.4091 223.576L27.1672 223.803C27.3488 222.749 27.4644 221.684 27.5134 220.615C27.5134 220.337 27.5134 220.062 27.5134 219.792L36.9214 223.105C36.8259 223.314 36.7304 223.523 36.6468 223.738C36.3114 224.608 36.0946 225.519 36.0021 226.448L36.7662 226.675C36.8457 225.756 37.0631 224.854 37.4109 224C37.4963 223.796 37.5919 223.597 37.6974 223.403L42.6462 225.146C42.8605 223.196 43.2096 221.264 43.6908 219.362H43.9714C45.0063 219.388 46.0238 219.634 46.9561 220.084C47.0099 219.833 47.0755 219.583 47.1352 219.326C46.2129 218.854 45.2069 218.568 44.1743 218.484H43.8998C47.0359 207.249 54.4108 197.67 64.4707 191.765C64.4646 191.834 64.4646 191.904 64.4707 191.974ZM41.118 222.359L24.4033 215.882C27.3278 206.967 32.4407 198.928 39.2746 192.5C46.1084 186.072 54.4449 181.46 63.5216 179.086C65.3681 182.102 67.2167 185.115 69.0672 188.123C61.9159 191.034 55.6099 195.694 50.7276 201.676C45.8454 207.657 42.5432 214.769 41.1239 222.359H41.118Z" fill="#389686"/>
<path d="M34.4142 199.137C35.7156 197.478 37.2975 196.946 38.2407 197.657C39.1839 198.367 39.0108 199.985 38.2407 201.077C37.9106 201.546 37.5075 201.959 37.0468 202.301C37.1793 202.861 37.4236 203.389 37.7652 203.853C38.1068 204.317 38.5386 204.707 39.0346 204.999C40.8971 206.193 42.682 205.841 43.9177 204.014C45.1116 202.283 44.5147 200.534 43.6371 198.642C42.1388 195.167 41.4881 192.266 45.7742 188.983C49.541 186.201 54.0957 186.124 56.0418 188.541C57.8685 190.792 57.3073 193.866 55.1165 195.836C53.7913 197.03 52.5317 197.203 51.7915 196.505C50.908 195.663 51.4094 194.278 52.4362 193.454C52.7413 193.181 53.0931 192.964 53.4749 192.815C53.4834 192.43 53.4126 192.046 53.2668 191.689C53.1209 191.331 52.9033 191.008 52.6272 190.738C51.5408 189.544 49.7201 189.616 48.1023 190.863C46.3115 192.278 46.6219 193.973 47.2606 195.842C48.4545 199.203 49.2664 201.877 46.7652 205.65C44.3177 209.548 40.73 210.545 36.9572 208.456C33.3457 206.48 32.1458 201.985 34.4142 199.137Z" fill="#389686"/>
<path d="M58.2089 186.249C47.7928 191.551 39.4794 200.224 34.6233 210.855" stroke="#389686" stroke-width="0.805885" stroke-miterlimit="10"/>
<path d="M59.0982 187.389C48.9949 192.724 40.9984 201.327 36.4141 211.792" stroke="#389686" stroke-width="0.805885" stroke-miterlimit="10"/>
<path d="M68.757 175.247C44.0611 177.605 23.2454 195.8 17.2639 220.872L45.9176 229.414C45.846 211.452 57.6656 195.018 75.7652 188.858L68.757 175.247Z" stroke="black" stroke-width="1.55804" stroke-miterlimit="10"/>
<path d="M275.523 276.639C281.361 292.936 297.234 303.884 315.215 303.628C315.497 296.679 315.782 289.734 316.068 282.794C303.938 285.94 290.793 280.758 283.552 269.583L275.523 276.639Z" fill="#61DDAE"/>
<path d="M283.552 269.583C284.642 271.262 285.887 272.835 287.271 274.281C287.102 274.467 286.897 274.616 286.668 274.719C286.439 274.822 286.191 274.876 285.94 274.878C285.476 274.882 285.018 274.775 284.603 274.568C284.304 274.426 284.022 274.251 283.761 274.049C283.346 273.724 282.973 273.349 282.651 272.932C282.404 272.623 282.181 272.296 281.982 271.953C281.851 271.732 281.731 271.506 281.624 271.279L283.552 269.583Z" fill="#389686"/>
<path d="M311.113 283.618C312.786 283.488 314.444 283.212 316.068 282.794C315.996 284.483 315.931 286.173 315.859 287.868C315.248 287.985 314.62 287.985 314.009 287.868C313.484 287.758 312.987 287.545 312.546 287.241L312.331 287.074C311.905 286.73 311.569 286.287 311.352 285.785C311.065 285.101 310.982 284.348 311.113 283.618Z" fill="#389686"/>
<path d="M315.423 298.553C315.352 300.245 315.282 301.936 315.214 303.628C312.817 303.66 310.421 303.494 308.051 303.132C308.19 302.338 308.574 301.607 309.149 301.043C309.637 300.549 310.196 300.132 310.809 299.807L311.125 299.646C311.76 299.337 312.424 299.093 313.107 298.918C313.865 298.719 314.641 298.597 315.423 298.553Z" fill="#389686"/>
<path d="M277.469 274.92C277.774 275.654 278.066 276.377 278.263 277.081C278.476 277.729 278.65 278.388 278.783 279.057C278.783 279.17 278.83 279.284 278.848 279.391C278.962 280.009 279.006 280.638 278.98 281.266C278.986 281.87 278.788 282.459 278.418 282.937C277.273 280.926 276.304 278.819 275.523 276.639L277.469 274.92Z" fill="#389686"/>
<path d="M287.57 276.663C288.053 276.492 288.478 276.191 288.799 275.792C288.662 275.666 288.519 275.541 288.387 275.41C288.063 275.803 287.625 276.087 287.134 276.221L286.991 276.257C285.843 275.063 284.789 273.781 283.839 272.425L282.287 273.923C282.191 273.798 282.09 273.672 281.994 273.535C281.758 273.205 281.541 272.863 281.343 272.508C281.218 272.282 281.099 272.055 280.985 271.822L280.77 272.007C280.884 272.246 281.003 272.473 281.129 272.705C281.325 273.063 281.54 273.409 281.773 273.744C281.869 273.881 281.964 274.013 282.066 274.138L279.338 276.789C279.272 276.609 279.2 276.43 279.135 276.257C278.872 275.583 278.591 274.896 278.287 274.204L278.072 274.389C278.377 275.093 278.669 275.786 278.908 276.466C278.979 276.651 279.045 276.83 279.105 277.009L277.63 278.436C278.375 280.013 279.225 281.539 280.173 283.003C280.173 283.068 280.173 283.128 280.173 283.194C280.112 283.761 279.895 284.3 279.547 284.752C279.678 284.961 279.815 285.17 279.953 285.379C280.301 284.929 280.525 284.396 280.603 283.833C280.606 283.773 280.606 283.713 280.603 283.653C283.564 287.995 287.352 291.709 291.75 294.583C296.149 297.458 301.072 299.436 306.236 300.404C306.187 300.457 306.141 300.513 306.099 300.571C305.637 301.162 305.315 301.85 305.156 302.583L305.908 302.744C306.058 301.998 306.39 301.301 306.875 300.714C306.917 300.655 306.971 300.601 307.018 300.541C308.779 300.84 310.558 301.022 312.343 301.084C312.451 299.891 312.564 298.655 312.671 297.437L313.268 297.306C314.006 297.145 314.754 297.038 315.507 296.983V296.428C314.763 296.487 314.023 296.592 313.292 296.745L312.731 296.87L313.328 289.939C313.483 289.969 313.639 289.999 313.806 290.017C314.451 290.096 315.103 290.086 315.746 289.987V289.432C315.111 289.53 314.464 289.53 313.83 289.432C313.671 289.413 313.513 289.385 313.358 289.348C313.471 288.154 313.579 286.919 313.692 285.701C312.337 285.891 310.971 285.987 309.603 285.988C309.603 285.928 309.561 285.862 309.549 285.802C309.397 285.098 309.397 284.37 309.549 283.665H309.006C308.858 284.365 308.845 285.086 308.97 285.791C308.97 285.85 308.97 285.916 309.012 285.976C300.878 285.792 293.133 282.457 287.408 276.675L287.57 276.663ZM312.128 287.235C311.623 291.366 311.117 295.499 310.612 299.634C304.085 299.188 297.774 297.114 292.256 293.601C286.737 290.087 282.187 285.247 279.021 279.523L284.179 274.216C287.375 278.553 291.608 282.018 296.492 284.293C301.375 286.568 306.752 287.579 312.128 287.235Z" fill="#389686"/>
<path d="M297.58 295.76C296.231 295.163 295.599 294.184 295.921 293.426C296.243 292.667 297.36 292.5 298.237 292.829C298.613 292.971 298.964 293.172 299.276 293.426C299.63 293.241 299.943 292.988 300.197 292.68C300.452 292.373 300.642 292.017 300.756 291.635C300.892 291.333 300.96 291.006 300.956 290.675C300.952 290.344 300.875 290.019 300.732 289.721C300.589 289.423 300.382 289.16 300.126 288.95C299.871 288.74 299.572 288.589 299.252 288.507C297.873 287.999 296.804 288.716 295.67 289.611C293.575 291.223 291.724 292.16 288.769 289.832C286.244 287.761 285.409 284.692 286.71 282.961C287.904 281.337 290.089 281.17 291.802 282.334C292.817 283.027 293.169 283.851 292.823 284.465C292.405 285.212 291.384 285.11 290.65 284.555C290.418 284.392 290.216 284.19 290.053 283.958C289.789 284.016 289.541 284.129 289.323 284.288C289.105 284.447 288.923 284.65 288.787 284.883C288.19 285.826 288.531 287.044 289.647 287.922C290.918 288.901 292.035 288.387 293.163 287.635C295.228 286.25 296.9 285.247 299.879 286.286C302.857 287.325 304.224 289.528 303.46 292.435C302.726 295.216 299.891 296.804 297.58 295.76Z" fill="#389686"/>
<path d="M284.746 281.881C290.122 288.016 297.417 292.151 305.442 293.611" stroke="#389686" stroke-width="0.561135" stroke-miterlimit="10"/>
<path d="M285.397 281.093C290.741 287.001 297.929 290.926 305.789 292.226" stroke="#389686" stroke-width="0.561135" stroke-miterlimit="10"/>
<path d="M275.523 276.639C281.361 292.936 297.234 303.884 315.215 303.628C315.497 296.679 315.782 289.734 316.068 282.794C303.938 285.94 290.793 280.758 283.552 269.583L275.523 276.639Z" stroke="black" stroke-width="1.08645" stroke-miterlimit="10"/>
<path d="M304.827 195.8C320.563 178.489 336.466 217.696 352.518 211.995C354.07 201.985 355.568 191.389 357.025 180.124C341.397 197.072 325.936 159.386 310.636 165.953C308.749 175.36 306.833 185.258 304.827 195.8Z" fill="#61DDAE"/>
<path d="M310.636 165.953C312.87 165.019 315.367 164.93 317.662 165.702C317.46 166.673 317.021 167.579 316.385 168.34C315.87 168.946 315.283 169.485 314.635 169.946C314.235 170.239 313.806 170.543 313.364 170.788C312.767 171.158 312.104 171.51 311.442 171.844C311 172.071 310.552 172.292 310.099 172.501L309.293 172.865C309.734 170.521 310.182 168.217 310.636 165.953Z" fill="#389686"/>
<path d="M350.697 184.273C352.805 183.736 354.912 182.446 357.025 180.148C356.667 182.888 356.315 185.592 355.95 188.261C355.366 188.831 354.638 189.234 353.843 189.425C353.286 189.544 352.704 189.448 352.214 189.156L351.975 188.989C351.468 188.569 351.093 188.011 350.894 187.383C350.58 186.377 350.512 185.311 350.697 184.273Z" fill="#389686"/>
<path d="M353.64 204.605C353.27 207.112 352.896 209.584 352.518 212.019C350.42 212.756 348.141 212.798 346.017 212.139C346.21 211.11 346.641 210.141 347.277 209.309C347.786 208.644 348.373 208.043 349.026 207.518L349.354 207.256C349.999 206.761 350.67 206.303 351.366 205.883C352.1 205.441 352.864 205.011 353.64 204.605Z" fill="#389686"/>
<path d="M306.272 188.225C306.849 187.646 307.564 187.223 308.349 186.995C308.879 186.855 309.441 186.919 309.925 187.174C310.004 187.216 310.08 187.264 310.152 187.317C310.631 187.687 310.981 188.199 311.149 188.78C311.423 189.721 311.446 190.717 311.215 191.669C309.084 192.195 306.953 193.496 304.827 195.848C305.313 193.261 305.794 190.72 306.272 188.225Z" fill="#389686"/>
<path d="M319.19 169.224C319.711 168.478 320.079 167.636 320.271 166.746L319.59 166.43C319.394 167.336 319.009 168.19 318.462 168.937C318.414 169.009 318.36 169.075 318.307 169.14C316.493 168.441 314.525 168.235 312.606 168.543C312.248 170.251 311.895 171.97 311.537 173.701L310.976 173.988L309.639 174.662L308.827 175.086C308.773 175.343 308.726 175.605 308.672 175.862L309.49 175.426L310.827 174.734L311.382 174.453C310.749 177.521 310.113 180.642 309.472 183.813C309.3 183.838 309.13 183.876 308.964 183.927C308.191 184.175 307.477 184.582 306.869 185.121C306.815 185.389 306.768 185.658 306.714 185.927C307.318 185.382 308.033 184.974 308.809 184.733C308.973 184.684 309.141 184.648 309.311 184.625C308.964 186.344 308.618 188.076 308.266 189.831C309.757 188.87 311.478 188.324 313.25 188.249L313.304 188.505C313.448 189.481 313.412 190.474 313.197 191.436C313.43 191.436 313.662 191.436 313.895 191.436C314.109 190.475 314.16 189.484 314.044 188.505C314.044 188.422 314.015 188.332 314.003 188.249C324.097 188.631 334.263 204.199 344.489 208.27C344.441 208.342 344.388 208.414 344.346 208.485C343.832 209.286 343.478 210.178 343.301 211.112C343.54 211.225 343.773 211.339 344.011 211.44C344.191 210.488 344.558 209.581 345.092 208.772L345.247 208.551C346.868 209.136 348.602 209.34 350.315 209.148C350.594 207.429 350.872 205.692 351.151 203.937L351.748 203.596L353.998 202.301C354.04 202.026 354.076 201.746 354.118 201.471C353.36 201.919 352.608 202.355 351.873 202.779L351.276 203.113C351.802 199.762 352.323 196.347 352.84 192.869C353.016 192.851 353.189 192.819 353.36 192.774C354.146 192.551 354.874 192.158 355.491 191.621C355.533 191.335 355.574 191.025 355.61 190.756C355 191.311 354.271 191.719 353.479 191.95C353.311 191.992 353.139 192.02 352.966 192.033C353.236 190.195 353.505 188.338 353.772 186.464C352.284 187.413 350.573 187.954 348.811 188.034C348.811 187.944 348.769 187.855 348.751 187.759C348.572 186.72 348.572 185.658 348.751 184.619C348.524 184.619 348.292 184.619 348.065 184.619C347.889 185.656 347.877 186.713 348.029 187.753L348.083 188.028C338.34 187.688 328.664 173.48 319.047 169.481C319.089 169.361 319.142 169.295 319.19 169.224ZM351.718 189.311C350.779 195.52 349.82 201.517 348.841 207.303C335.929 207.041 323.118 182.399 310.415 187.007C311.609 181.211 312.803 175.605 313.949 170.143C326.437 169.779 339.027 193.765 351.718 189.311Z" fill="#389686"/>
<path d="M335.582 199.639C334.12 198.415 333.326 196.803 333.571 195.705C333.815 194.606 335.033 194.648 336.024 195.448C336.473 195.808 336.874 196.223 337.218 196.684C337.887 196.433 338.448 195.639 338.698 194.427C338.915 193.429 338.836 192.389 338.471 191.435C338.107 190.481 337.472 189.654 336.645 189.055C334.979 187.741 333.851 188.535 332.747 189.699C330.651 191.83 328.896 192.875 325.112 189.866C321.852 187.329 319.877 183.772 320.736 180.011C321.53 176.537 324.055 175.086 326.461 177.026C327.9 178.178 328.544 179.671 328.311 180.685C328.031 181.915 326.825 181.73 325.81 180.936C325.463 180.677 325.157 180.367 324.903 180.017C324.455 180.25 324.001 180.811 323.745 181.927C323.564 182.798 323.643 183.704 323.971 184.531C324.299 185.358 324.861 186.072 325.589 186.583C327.255 187.903 328.341 187.097 329.487 185.986C331.505 183.927 333.29 182.763 337.027 185.694C340.859 188.595 342.501 192.338 341.725 196.385C340.979 200.283 338.084 201.77 335.582 199.639Z" fill="#389686"/>
<path d="M318.08 180.082C326.652 183.264 335.272 194.964 343.94 198.588" stroke="#389686" stroke-width="0.847671" stroke-miterlimit="10"/>
<path d="M318.492 178.256C327.046 181.658 335.648 193.311 344.298 196.648" stroke="#389686" stroke-width="0.847671" stroke-miterlimit="10"/>
<path d="M304.827 195.8C320.563 178.489 336.466 217.696 352.518 211.995C354.07 201.985 355.568 191.389 357.025 180.124C341.397 197.072 325.936 159.386 310.636 165.953C308.749 175.36 306.833 185.258 304.827 195.8Z" stroke="black" stroke-width="1.64162" stroke-miterlimit="10"/>
<path d="M124.703 41.0166C128.768 24.5526 155.589 39.9659 165.087 32.122C164.156 26.3494 162.914 19.383 161.249 10.7511C153.536 28.0567 122.047 6.11278 111.033 19.4427C116.029 27.4598 120.536 34.5575 124.703 41.0166Z" fill="#61DDAE"/>
<path d="M111.033 19.4427C112.651 17.5026 115.074 16.4221 117.976 15.9326C118.43 16.7912 118.62 17.7659 118.519 18.7323C118.437 19.4571 118.235 20.1632 117.922 20.8217C117.727 21.2315 117.51 21.63 117.271 22.0156C116.931 22.5767 116.549 23.1319 116.149 23.681C115.88 24.0512 115.6 24.4153 115.319 24.7675L114.8 25.3943C113.574 23.4801 112.318 21.4962 111.033 19.4427Z" fill="#389686"/>
<path d="M157.118 16.3505C158.949 14.8638 160.371 12.9345 161.249 10.7451C161.686 12.9857 162.084 15.1088 162.442 17.1146C162.104 17.7416 161.631 18.286 161.058 18.7085C160.657 18.9904 160.18 19.1425 159.691 19.1442H159.458C158.972 19.0552 158.529 18.8124 158.192 18.4518C157.637 17.8711 157.263 17.1407 157.118 16.3505Z" fill="#389686"/>
<path d="M164.388 27.9254C164.639 29.3859 164.872 30.7788 165.087 32.104C163.805 33.152 162.306 33.9023 160.699 34.3008C160.61 33.6933 160.693 33.0728 160.938 32.51C161.162 31.9915 161.443 31.4991 161.774 31.0415L161.947 30.7967C162.275 30.3371 162.657 29.8655 163.063 29.3939C163.469 28.9223 163.923 28.4149 164.388 27.9254Z" fill="#389686"/>
<path d="M121.778 36.4678C121.973 35.8645 122.343 35.3327 122.841 34.9396C123.256 34.6301 123.751 34.4458 124.267 34.4083H124.536C125.105 34.4187 125.662 34.5683 126.16 34.8441C126.82 35.2033 127.36 35.7494 127.712 36.4141C126.207 37.5502 125.151 39.1795 124.727 41.0166C123.756 39.5401 122.773 38.0238 121.778 36.4678Z" fill="#389686"/>
<path d="M121.903 18.1712C121.907 17.2846 121.703 16.4095 121.307 15.6162L120.405 15.658C120.82 16.4639 121.025 17.3609 121.002 18.2667C121.002 18.3443 121.002 18.4219 121.002 18.5055C118.85 18.7195 116.779 19.4417 114.961 20.6127C115.838 22.1111 116.692 23.5975 117.534 25.0123L117.194 25.4659L116.406 26.5405L115.928 27.1911L116.31 27.7881C116.459 27.5732 116.614 27.3523 116.776 27.1314C117.038 26.7693 117.301 26.4111 117.564 26.0569L117.898 25.6092C119.307 27.997 120.674 30.3212 121.999 32.5816C121.319 33.024 120.801 33.6756 120.525 34.4381L120.865 34.9694C121.083 34.3758 121.446 33.8463 121.921 33.4293C122.039 33.3292 122.165 33.2393 122.297 33.1607L124.315 36.5633C125.152 35.3409 126.288 34.3542 127.616 33.6979L127.789 33.8233C128.375 34.275 128.853 34.8523 129.186 35.5126C129.371 35.4171 129.562 35.3276 129.783 35.244C129.458 34.5882 129.001 34.0069 128.44 33.5367L128.273 33.3994C136.809 29.6446 150.396 34.4441 158.783 32.9517L158.729 33.1129C158.57 33.6391 158.538 34.1954 158.634 34.7366L159.195 34.659C159.1 34.1039 159.143 33.5339 159.32 32.9995C159.32 32.9457 159.356 32.892 159.38 32.8383C160.665 32.5708 161.897 32.0949 163.027 31.4295C162.86 30.4565 162.681 29.4536 162.496 28.4447L162.836 28.0627L164.162 26.5225L164.072 26.0151L162.735 27.5314C162.616 27.6568 162.502 27.7881 162.389 27.9134C162.019 25.856 161.609 23.6552 161.159 21.3112C161.284 21.2336 161.41 21.156 161.535 21.0604C162.083 20.6337 162.55 20.1121 162.914 19.5203C162.878 19.3173 162.842 19.1144 162.801 18.9234C162.443 19.525 161.976 20.0537 161.422 20.4814C161.299 20.5706 161.172 20.6523 161.04 20.7261C160.789 19.4248 160.524 18.0737 160.246 16.6728C159.282 17.9156 158.06 18.9341 156.664 19.6576L156.539 19.4964C156.071 18.8437 155.747 18.099 155.589 17.3116L154.993 17.5862C155.162 18.362 155.476 19.0991 155.918 19.7591L156.043 19.9262C148.032 23.4602 133.359 17.3056 121.868 18.3921C121.898 18.3264 121.903 18.2488 121.903 18.1712ZM159.386 19.4427C160.252 23.7408 160.986 27.5612 161.607 30.9877C152.432 35.2739 133.072 26.1166 124.596 34.1158C122.333 30.1043 119.951 25.8361 117.432 21.2753C129.276 15.3596 150.694 27.018 159.386 19.4427Z" fill="#389686"/>
<path d="M149.942 31.5966C148.45 31.4653 147.304 30.8743 147.119 30.164C146.934 29.4536 147.883 29.0178 148.909 29.1133C149.357 29.1489 149.798 29.2391 150.223 29.3819C150.454 29.1407 150.615 28.8406 150.688 28.5143C150.76 28.188 150.742 27.848 150.635 27.5314C150.294 26.1524 149.071 25.2272 147.178 25.0481C145.286 24.869 144.725 25.8002 144.271 26.9524C143.406 29.0357 142.415 30.3072 138.152 30.0028C134.338 29.7521 130.929 28.3373 129.717 25.5137C128.506 22.6901 130.04 20.5948 133.299 21.0127C135.168 21.2455 136.469 22.0394 136.744 22.8453C137.078 23.8064 135.944 24.1765 134.684 24.0392C134.257 24.0087 133.835 23.9224 133.431 23.7825C133.259 24.0477 133.163 24.3543 133.153 24.6697C133.142 24.9851 133.218 25.2974 133.371 25.5734C133.884 26.9106 135.359 27.6926 137.132 27.8358C139.096 27.997 139.645 27.0658 140.116 25.8958C140.934 23.7408 141.955 22.2364 146.277 22.7259C150.456 23.1319 152.963 24.869 153.59 27.5672C154.151 30.0147 152.449 31.8474 149.942 31.5966Z" fill="#389686"/>
<path d="M127.419 26.6598C136.499 25.2451 148.175 29.1133 155.876 28.003" stroke="#389686" stroke-width="0.632769" stroke-miterlimit="10"/>
<path d="M126.763 25.2391C136.087 24.0094 147.907 28.0089 155.613 26.7673" stroke="#389686" stroke-width="0.632769" stroke-miterlimit="10"/>
<path d="M124.703 41.0165C128.768 24.5526 155.589 39.9659 165.087 32.122C164.156 26.3494 162.914 19.383 161.249 10.7511C153.536 28.0567 122.047 6.11278 111.033 19.4427C116.029 27.4598 120.536 34.5575 124.703 41.0165Z" stroke="black" stroke-width="1.22375" stroke-miterlimit="10"/>
<path d="M116.226 273.941C117.844 253.209 153.387 266.473 163.296 255.083C161.016 248.29 158.121 240.106 154.372 230.011C148.516 252.505 106.019 232.262 95.363 250.594C103.01 259.25 109.893 266.969 116.226 273.941Z" fill="#61DDAE"/>
<path d="M95.363 250.582C96.933 247.914 99.6432 246.123 103.058 244.947C103.772 245.899 104.188 247.042 104.252 248.23C104.293 249.121 104.186 250.013 103.935 250.869C103.783 251.417 103.602 251.957 103.392 252.487C103.094 253.233 102.741 253.979 102.365 254.725C102.115 255.227 101.852 255.722 101.577 256.206C101.41 256.51 101.243 256.803 101.076 257.071L95.363 250.582Z" fill="#389686"/>
<path d="M150.492 237.587C152.169 235.796 153.476 233.36 154.372 229.988C155.343 232.606 156.256 235.093 157.112 237.449C156.831 238.278 156.368 239.033 155.757 239.658C155.33 240.078 154.784 240.356 154.193 240.452C154.097 240.458 154.002 240.458 153.906 240.452C153.29 240.46 152.688 240.265 152.193 239.897C151.416 239.306 150.826 238.504 150.492 237.587Z" fill="#389686"/>
<path d="M161.619 250.123C162.216 251.842 162.771 253.484 163.296 255.06C161.958 256.587 160.296 257.796 158.431 258.599C158.202 257.882 158.179 257.115 158.365 256.385C158.521 255.706 158.754 255.047 159.058 254.421L159.219 254.092C159.529 253.466 159.894 252.821 160.293 252.17C160.693 251.52 161.177 250.827 161.619 250.123Z" fill="#389686"/>
<path d="M111.785 269.028C111.898 268.26 112.237 267.544 112.758 266.969C113.198 266.508 113.762 266.185 114.382 266.037L114.71 265.972C115.4 265.874 116.102 265.946 116.758 266.181C117.627 266.483 118.387 267.036 118.943 267.769C117.343 269.445 116.381 271.629 116.226 273.941C114.778 272.341 113.297 270.704 111.785 269.028Z" fill="#389686"/>
<path d="M108.263 246.869C108.103 245.795 107.694 244.773 107.069 243.885C106.705 243.956 106.341 244.034 105.989 244.117C106.644 245.012 107.065 246.057 107.212 247.156C107.212 247.251 107.212 247.347 107.212 247.448C104.65 248.136 102.29 249.427 100.33 251.215L104.317 256.021L104.001 256.618L103.273 258.098L102.825 258.982L103.422 259.644C103.559 259.352 103.708 259.047 103.852 258.755C104.096 258.265 104.341 257.782 104.592 257.298L104.908 256.701C107.093 259.328 109.212 261.865 111.266 264.312C111.125 264.441 110.994 264.578 110.872 264.724C110.359 265.333 110.004 266.059 109.839 266.837L110.352 267.434C110.501 266.654 110.847 265.925 111.355 265.315C111.478 265.17 111.612 265.034 111.755 264.909C112.812 266.169 113.851 267.41 114.877 268.622C115.642 266.975 116.82 265.554 118.298 264.497L118.537 264.617C119.335 265.045 120.026 265.647 120.56 266.378C120.763 266.223 120.978 266.079 121.193 265.936C120.668 265.211 120 264.601 119.229 264.145L118.996 264.014C128.547 257.764 145.973 260.838 155.816 257.358C155.816 257.423 155.816 257.489 155.786 257.555C155.695 258.225 155.767 258.906 155.995 259.543L156.658 259.334C156.43 258.683 156.369 257.985 156.479 257.304L156.515 257.095C158.015 256.513 159.41 255.691 160.646 254.66C160.248 253.521 159.834 252.345 159.404 251.132C159.511 250.953 159.625 250.773 159.738 250.594C160.168 249.92 160.61 249.221 161.063 248.517L160.855 247.92C160.407 248.642 159.965 249.347 159.535 250.027L159.195 250.559C158.335 248.143 157.398 245.556 156.383 242.798C156.527 242.68 156.663 242.553 156.789 242.416C157.365 241.792 157.826 241.07 158.15 240.285C158.061 240.046 157.977 239.807 157.888 239.563C157.578 240.363 157.118 241.096 156.533 241.724C156.406 241.86 156.268 241.986 156.121 242.1C155.56 240.579 154.963 239 154.33 237.36C153.416 239.055 152.148 240.534 150.611 241.694L150.42 241.521C149.731 240.828 149.192 240.001 148.838 239.091C148.635 239.246 148.42 239.396 148.205 239.539C148.567 240.443 149.095 241.271 149.763 241.98L149.942 242.159C140.958 248.039 121.999 243.532 108.287 247.156C108.281 247.054 108.275 246.959 108.263 246.869ZM153.828 240.9C155.745 245.926 157.41 250.403 158.831 254.427C148.593 261.465 123.33 254.242 114.716 265.643C111.17 261.238 107.433 256.558 103.458 251.549C116.608 241.986 144.862 251.794 153.828 240.888V240.9Z" fill="#389686"/>
<path d="M144.874 257.489C143.036 257.626 141.537 257.137 141.167 256.295C140.797 255.454 141.866 254.755 143.137 254.666C143.686 254.619 144.239 254.637 144.785 254.719C145.015 254.381 145.149 253.987 145.171 253.579C145.193 253.17 145.103 252.764 144.91 252.403C144.223 250.803 142.552 249.932 140.23 250.087C137.908 250.242 137.412 251.49 137.09 252.976C136.463 255.674 135.526 257.412 130.309 257.895C125.634 258.361 121.235 257.328 119.199 254.152C117.164 250.976 118.602 248.141 122.608 247.998C124.912 247.902 126.649 248.595 127.145 249.526C127.742 250.618 126.44 251.317 124.894 251.394C124.37 251.442 123.843 251.422 123.324 251.335C123.056 251.812 123.038 252.528 123.605 253.501C124.5 255.012 126.44 255.668 128.613 255.477C131.001 255.28 131.496 254.045 131.831 252.54C132.392 249.765 133.323 247.765 138.648 247.466C143.782 247.12 147.172 248.72 148.474 251.86C149.65 254.731 147.954 257.286 144.874 257.489Z" fill="#389686"/>
<path d="M116.632 256.033C127.336 252.499 142.236 254.839 151.333 251.949" stroke="#389686" stroke-width="0.782007" stroke-miterlimit="10"/>
<path d="M115.558 254.445C126.59 251.084 141.686 253.555 150.778 250.505" stroke="#389686" stroke-width="0.782007" stroke-miterlimit="10"/>
<path d="M116.226 273.941C117.844 253.209 153.387 266.473 163.296 255.083C161.016 248.29 158.121 240.106 154.372 230.011C148.516 252.505 106.019 232.262 95.363 250.594C103.01 259.25 109.893 266.969 116.226 273.941Z" stroke="black" stroke-width="1.50432" stroke-miterlimit="10"/>
<path d="M428.928 213.947C442.932 215.1 456.937 232.28 470.941 233.432C472.625 224.37 474.306 215.309 475.985 206.247C458.62 207.094 441.249 188.064 423.884 188.935C425.567 197.269 427.248 205.606 428.928 213.947Z" fill="#61DDAE"/>
<path d="M423.884 188.917C426.566 188.813 429.249 189.103 431.847 189.777C431.998 190.69 431.866 191.627 431.471 192.463C431.184 193.041 430.76 193.539 430.235 193.914C429.906 194.155 429.55 194.355 429.173 194.511C428.599 194.74 427.996 194.891 427.382 194.958C426.922 195.013 426.459 195.037 425.997 195.03C425.698 195.03 425.4 195.03 425.107 194.976L423.884 188.917Z" fill="#389686"/>
<path d="M468.947 205.602C471.255 206.127 473.621 206.344 475.985 206.247C475.587 208.456 475.178 210.662 474.756 212.867C473.99 212.886 473.23 212.729 472.535 212.407C471.878 212.101 471.285 211.674 470.786 211.148C470.696 211.052 470.613 210.957 470.529 210.855C469.998 210.229 469.582 209.513 469.3 208.742C468.928 207.74 468.807 206.662 468.947 205.602Z" fill="#389686"/>
<path d="M472.189 226.842C471.791 229.05 471.381 231.257 470.959 233.462C469.02 233.284 467.113 232.858 465.282 232.196C465.408 231.203 465.773 230.255 466.345 229.432C466.767 228.842 467.297 228.337 467.909 227.946C468.004 227.88 468.106 227.821 468.207 227.761C468.791 227.434 469.418 227.191 470.07 227.039C470.764 226.88 471.477 226.813 472.189 226.842Z" fill="#389686"/>
<path d="M427.698 207.853C428.436 207.895 429.157 208.088 429.817 208.42C430.5 208.76 431.128 209.201 431.68 209.727C431.781 209.817 431.877 209.918 431.978 210.02C432.593 210.652 433.119 211.365 433.542 212.139C434.077 213.092 434.437 214.133 434.605 215.213C432.774 214.551 430.866 214.126 428.928 213.947C428.518 211.918 428.108 209.886 427.698 207.853Z" fill="#389686"/>
<path d="M434.581 193.347C434.832 192.464 434.901 191.54 434.784 190.631L434.014 190.386C434.136 191.295 434.058 192.22 433.787 193.096C433.757 193.168 433.727 193.239 433.703 193.317C431.658 192.676 429.551 192.25 427.418 192.045C427.698 193.639 428.014 195.233 428.265 196.821L427.716 196.869C427.274 196.899 426.821 196.905 426.349 196.869C426.056 196.869 425.752 196.869 425.471 196.821C425.519 197.042 425.561 197.269 425.609 197.49C425.895 197.49 426.206 197.525 426.474 197.537C426.946 197.537 427.4 197.537 427.841 197.537L428.385 197.495L429.883 205.948L429.328 205.721C428.641 205.464 427.917 205.321 427.185 205.298L427.322 205.96C428.053 205.99 428.774 206.146 429.453 206.42C429.638 206.492 429.823 206.569 430.008 206.659C430.271 208.175 430.538 209.691 430.808 211.207C432.367 211.511 433.897 211.948 435.381 212.515C435.423 212.616 435.47 212.712 435.506 212.807C435.931 213.788 436.218 214.822 436.36 215.882L436.957 216.144C436.82 215.093 436.554 214.062 436.163 213.076C436.121 212.974 436.079 212.879 436.043 212.783C445.284 216.479 454.549 224.531 463.778 228.227C463.736 228.304 463.694 228.376 463.658 228.453C463.239 229.325 462.971 230.262 462.864 231.223L463.461 231.492C463.568 230.524 463.855 229.584 464.309 228.722L464.44 228.495C465.924 229.062 467.454 229.499 469.013 229.803C469.282 228.191 469.55 226.585 469.813 224.973L470.362 224.878C471.07 224.775 471.785 224.735 472.499 224.758C472.547 224.52 472.589 224.281 472.637 224.036C471.921 224.016 471.204 224.05 470.494 224.137L469.938 224.221L471.461 215.046C471.64 215.129 471.819 215.201 471.998 215.267C472.704 215.513 473.447 215.636 474.195 215.631C474.236 215.392 474.284 215.147 474.326 214.909C473.574 214.92 472.827 214.791 472.123 214.527C471.944 214.461 471.765 214.383 471.586 214.3C471.853 212.708 472.119 211.098 472.386 209.47C470.568 209.295 468.77 208.958 467.013 208.461L466.936 208.169C466.673 207.15 466.602 206.092 466.727 205.047L465.957 204.82C465.843 205.862 465.904 206.915 466.136 207.936L466.207 208.229C455.629 205.047 445.057 197.018 434.479 193.562C434.545 193.496 434.581 193.412 434.581 193.347ZM470.249 211.034C469.401 216.574 468.555 222.112 467.712 227.648C455.85 224.663 443.995 212.819 432.133 209.864C431.286 204.575 430.44 199.288 429.596 194.003C443.159 196.284 456.71 208.748 470.261 211.034H470.249Z" fill="#389686"/>
<path d="M455.397 221.165C454.762 220.82 454.226 220.319 453.839 219.708C453.453 219.098 453.228 218.4 453.188 217.678C453.224 216.323 454.238 216.037 455.211 216.586C455.658 216.836 456.061 217.157 456.405 217.535C456.955 217.075 457.36 216.108 457.444 214.777C457.587 212.545 456.656 210.599 454.841 209.643C453.116 208.712 452.245 209.936 451.516 211.566C450.102 214.55 448.991 216.473 445.439 214.335C443.768 213.27 442.354 211.846 441.302 210.166C440.25 208.486 439.585 206.592 439.356 204.623C439.004 200.844 440.807 198.809 443.416 200.134C444.95 200.916 445.863 202.289 445.893 203.459C445.935 204.88 444.89 205.083 443.852 204.534C443.481 204.348 443.146 204.099 442.861 203.799C442.544 204.175 442.311 204.892 442.395 206.187C442.433 207.098 442.692 207.987 443.151 208.775C443.61 209.564 444.254 210.229 445.027 210.712C446.651 211.643 447.326 210.384 448.048 208.772C449.29 205.871 450.645 203.895 454.65 206.026C456.552 206.951 458.125 208.434 459.16 210.277C460.195 212.121 460.642 214.237 460.441 216.341C460.089 220.359 457.689 222.544 455.397 221.165Z" fill="#389686"/>
<path d="M437.118 204.826C445.66 208.366 454.209 214.861 462.751 218.401" stroke="#389686" stroke-width="0.829763" stroke-miterlimit="10"/>
<path d="M436.909 202.892C445.595 206.402 454.274 212.915 462.96 216.425" stroke="#389686" stroke-width="0.829763" stroke-miterlimit="10"/>
<path d="M428.928 213.947C442.932 215.1 456.937 232.28 470.941 233.432C472.625 224.37 474.306 215.309 475.985 206.247C458.62 207.094 441.249 188.064 423.884 188.935C425.567 197.269 427.248 205.606 428.928 213.947Z" stroke="black" stroke-width="1.6058" stroke-miterlimit="10"/>
<path d="M139.036 202.605C156.401 203.453 173.767 184.428 191.132 185.294C189.456 176.232 187.777 167.17 186.094 158.109C172.089 159.255 158.085 176.441 144.074 177.593C142.399 185.927 140.719 194.264 139.036 202.605Z" fill="#61DDAE"/>
<path d="M139.036 202.605C141.717 202.717 144.4 202.436 146.999 201.77C147.144 200.857 147.013 199.921 146.623 199.083C146.337 198.504 145.91 198.005 145.381 197.633C145.054 197.39 144.697 197.19 144.319 197.036C143.745 196.806 143.142 196.656 142.528 196.588C142.069 196.533 141.606 196.51 141.143 196.517C140.845 196.517 140.546 196.517 140.254 196.57L139.036 202.605Z" fill="#389686"/>
<path d="M184.094 185.921C186.401 185.396 188.768 185.179 191.132 185.276C190.734 183.067 190.326 180.86 189.908 178.656C189.141 178.636 188.379 178.794 187.682 179.115C187.026 179.422 186.435 179.849 185.939 180.375C185.849 180.47 185.76 180.566 185.676 180.667C185.145 181.293 184.73 182.009 184.452 182.781C184.077 183.782 183.954 184.86 184.094 185.921Z" fill="#389686"/>
<path d="M187.318 164.705C186.92 162.5 186.512 160.295 186.094 158.091C184.155 158.269 182.247 158.694 180.417 159.356C180.543 160.35 180.907 161.298 181.479 162.12C181.901 162.711 182.432 163.215 183.043 163.607C183.139 163.672 183.24 163.732 183.342 163.792C183.925 164.12 184.552 164.363 185.204 164.514C185.897 164.674 186.608 164.738 187.318 164.705Z" fill="#389686"/>
<path d="M142.851 183.67C143.586 183.627 144.305 183.434 144.964 183.103C145.648 182.766 146.276 182.325 146.826 181.796C146.928 181.706 147.029 181.605 147.131 181.503C147.74 180.868 148.264 180.155 148.689 179.384C149.224 178.431 149.583 177.39 149.751 176.31C147.921 176.972 146.013 177.397 144.074 177.575C143.668 179.605 143.26 181.636 142.851 183.67Z" fill="#389686"/>
<path d="M149.674 197.955C160.246 194.499 170.824 186.47 181.402 183.288C181.402 183.384 181.348 183.485 181.33 183.581C181.092 184.601 181.032 185.655 181.151 186.697L181.915 186.47C181.796 185.425 181.869 184.367 182.13 183.348C182.13 183.246 182.184 183.151 182.208 183.055C183.965 182.559 185.763 182.221 187.58 182.046C187.312 180.441 187.049 178.829 186.78 177.217C186.955 177.132 187.135 177.056 187.318 176.99C188.021 176.725 188.769 176.596 189.52 176.608C189.479 176.369 189.431 176.125 189.389 175.886C188.641 175.877 187.897 176 187.192 176.25C187.009 176.318 186.83 176.389 186.655 176.465L185.133 167.296C185.312 167.326 185.497 167.355 185.682 167.373C186.392 167.466 187.109 167.502 187.825 167.481C187.783 167.236 187.735 166.997 187.694 166.758C186.979 166.782 186.264 166.742 185.557 166.639L185.007 166.544C184.737 164.952 184.47 163.342 184.207 161.714C182.648 162.016 181.118 162.453 179.635 163.022L179.504 162.795C179.05 161.933 178.762 160.993 178.656 160.025C178.447 160.114 178.238 160.198 178.059 160.293C178.16 161.256 178.428 162.194 178.853 163.063C178.889 163.141 178.93 163.213 178.972 163.284C169.725 166.985 160.467 175.038 151.232 178.733C151.274 178.638 151.315 178.536 151.351 178.441C151.748 177.457 152.015 176.425 152.145 175.372L151.548 175.635C151.404 176.694 151.116 177.728 150.695 178.709C150.653 178.805 150.611 178.9 150.563 178.996C149.069 179.561 147.526 179.99 145.955 180.279C145.692 181.8 145.426 183.318 145.155 184.834C144.976 184.924 144.791 185.001 144.606 185.073C143.925 185.347 143.202 185.503 142.469 185.533L142.337 186.195C143.07 186.17 143.794 186.025 144.48 185.765C144.665 185.7 144.85 185.622 145.03 185.545C144.536 188.354 144.043 191.166 143.549 193.979L143 193.938C142.564 193.938 142.11 193.938 141.639 193.938C141.346 193.938 141.042 193.938 140.767 193.985C140.726 194.206 140.678 194.433 140.636 194.654C140.923 194.654 141.233 194.612 141.508 194.606C141.979 194.606 142.439 194.606 142.881 194.606L143.424 194.654L142.582 199.43C144.713 199.235 146.818 198.819 148.862 198.188C148.862 198.266 148.922 198.337 148.946 198.409C149.222 199.284 149.302 200.209 149.178 201.119L149.942 200.874C150.061 199.965 149.994 199.041 149.745 198.158L149.674 197.955ZM144.755 197.519L147.298 181.658C159.153 178.674 171.015 166.836 182.87 163.875L185.413 180.488C171.863 182.775 158.312 195.233 144.755 197.519Z" fill="#389686"/>
<path d="M175.611 175.211C176.005 179.39 173.946 183.366 169.827 185.527C165.821 187.658 164.454 185.682 163.219 182.781C162.502 181.169 161.828 179.909 160.204 180.841C159.43 181.324 158.785 181.989 158.326 182.777C157.866 183.565 157.605 184.454 157.565 185.365C157.488 186.631 157.715 187.347 158.037 187.753C158.322 187.455 158.655 187.206 159.022 187.019C160.061 186.47 161.111 186.673 161.07 188.094C161.034 189.287 160.126 190.637 158.586 191.419C155.984 192.744 154.181 190.708 154.533 186.929C154.754 184.958 155.412 183.061 156.458 181.376C157.504 179.691 158.912 178.26 160.58 177.187C164.162 175.05 165.248 176.966 166.657 179.957C167.391 181.587 168.263 182.81 169.982 181.879C171.803 180.9 172.734 178.972 172.591 176.745C172.507 175.414 172.101 174.447 171.552 173.988C171.208 174.367 170.805 174.687 170.358 174.937C169.391 175.48 168.37 175.199 168.34 173.844C168.379 173.123 168.601 172.424 168.987 171.814C169.373 171.203 169.909 170.702 170.543 170.358C172.835 168.979 175.235 171.164 175.611 175.211Z" fill="#389686"/>
<path d="M152.264 186.697C160.813 183.157 169.355 176.662 177.892 173.116" stroke="#389686" stroke-width="0.829763" stroke-miterlimit="10"/>
<path d="M152.062 188.637C160.741 185.127 169.427 178.614 178.112 175.098" stroke="#389686" stroke-width="0.829763" stroke-miterlimit="10"/>
<path d="M139.036 202.605C156.401 203.453 173.767 184.428 191.132 185.294C189.456 176.232 187.777 167.17 186.094 158.109C172.089 159.255 158.085 176.441 144.074 177.593C142.399 185.927 140.719 194.264 139.036 202.605Z" stroke="black" stroke-width="1.6058" stroke-miterlimit="10"/>
<path d="M259.513 204.581C245.455 203.507 230.961 218.55 216.902 217.481C218.064 224.86 219.226 232.242 220.389 239.628C231.766 239.002 243.497 225.385 254.874 224.758L259.513 204.581Z" fill="#61DDAE"/>
<path d="M259.513 204.581C257.342 204.437 255.162 204.612 253.042 205.101C252.901 205.837 252.987 206.599 253.286 207.285C253.508 207.756 253.84 208.165 254.254 208.479C254.517 208.676 254.801 208.842 255.101 208.975C255.566 209.17 256.053 209.304 256.552 209.375C256.921 209.431 257.294 209.459 257.668 209.458C257.913 209.458 258.152 209.458 258.39 209.458C258.766 207.829 259.137 206.205 259.513 204.581Z" fill="#389686"/>
<path d="M222.621 217.111C220.74 217.486 218.817 217.611 216.902 217.481C217.183 219.272 217.469 221.063 217.75 222.854C218.363 222.879 218.975 222.769 219.541 222.532C220.08 222.299 220.568 221.965 220.98 221.547C221.057 221.475 221.129 221.397 221.2 221.32C221.643 220.822 221.994 220.25 222.239 219.63C222.569 218.834 222.7 217.97 222.621 217.111Z" fill="#389686"/>
<path d="M219.541 234.232C219.828 236.035 220.11 237.826 220.389 239.604C221.965 239.503 223.522 239.2 225.021 238.703C224.943 237.895 224.668 237.118 224.221 236.441C223.892 235.952 223.473 235.53 222.985 235.199C222.908 235.145 222.83 235.092 222.747 235.044C222.28 234.774 221.778 234.573 221.254 234.447C220.695 234.3 220.119 234.228 219.541 234.232Z" fill="#389686"/>
<path d="M256.003 219.845C255.412 219.871 254.833 220.017 254.301 220.275C253.739 220.533 253.22 220.876 252.761 221.29L252.511 221.523C252.001 222.024 251.56 222.59 251.197 223.206C250.745 223.969 250.431 224.805 250.272 225.678C251.769 225.181 253.324 224.878 254.898 224.776L256.003 219.845Z" fill="#389686"/>
<path d="M250.791 208.115C242.142 210.682 233.39 216.956 224.746 219.308C224.746 219.225 224.794 219.147 224.812 219.069C225.026 218.246 225.099 217.392 225.027 216.544L224.43 216.711C224.503 217.563 224.422 218.42 224.191 219.242L224.12 219.475C222.683 219.841 221.217 220.075 219.738 220.174C219.917 221.487 220.096 222.794 220.281 224.108L219.839 224.281C219.264 224.477 218.657 224.566 218.049 224.543L218.144 225.14C218.751 225.164 219.357 225.081 219.935 224.896C220.084 224.848 220.233 224.788 220.377 224.728C220.723 227.22 221.067 229.711 221.409 232.202L220.962 232.119C220.389 232.03 219.81 231.986 219.231 231.987L219.32 232.584C219.9 232.578 220.48 232.626 221.051 232.728C221.2 232.728 221.344 232.787 221.493 232.817C221.672 234.13 221.857 235.438 222.036 236.751C223.307 236.537 224.557 236.215 225.773 235.79L225.875 235.975C226.22 236.684 226.433 237.451 226.501 238.237L227.009 238.034C226.941 237.252 226.739 236.486 226.412 235.772L226.322 235.587C233.898 232.793 241.568 226.472 249.144 223.678C249.108 223.755 249.072 223.833 249.042 223.911C248.702 224.695 248.463 225.519 248.332 226.364L248.839 226.167C248.976 225.313 249.229 224.481 249.592 223.696L249.705 223.463C250.92 223.035 252.171 222.713 253.442 222.502C253.693 221.276 253.941 220.052 254.188 218.831C254.337 218.765 254.492 218.699 254.642 218.645C255.201 218.442 255.79 218.333 256.385 218.323L256.504 217.786C255.911 217.793 255.322 217.896 254.761 218.09C254.606 218.138 254.457 218.198 254.307 218.257C254.769 215.989 255.233 213.721 255.698 211.452L256.14 211.5C256.492 211.5 256.862 211.536 257.238 211.536C257.477 211.536 257.71 211.536 257.949 211.536C257.991 211.357 258.032 211.178 258.068 210.999C257.835 210.999 257.597 210.999 257.358 210.999C256.976 210.999 256.606 210.999 256.253 210.951C256.104 210.951 255.955 210.915 255.812 210.897L256.6 207.035C254.866 207.157 253.15 207.457 251.478 207.93C251.478 207.87 251.436 207.811 251.418 207.745C251.211 207.032 251.168 206.281 251.293 205.548L250.66 205.727C250.546 206.463 250.581 207.214 250.762 207.936C250.75 207.996 250.768 208.056 250.791 208.115ZM254.761 208.575C253.965 212.845 253.169 217.111 252.373 221.374C242.697 223.511 232.823 232.871 223.123 235.008C222.558 230.503 221.992 225.996 221.427 221.487C232.471 219.935 243.729 210.127 254.761 208.575Z" fill="#389686"/>
<path d="M229.259 225.982C229.143 224.272 229.552 222.566 230.431 221.094C231.31 219.622 232.617 218.453 234.178 217.744C237.473 216.108 238.53 217.744 239.473 220.132C240.016 221.451 240.542 222.49 241.861 221.768C242.5 221.393 243.037 220.868 243.427 220.239C243.817 219.61 244.048 218.895 244.1 218.156C244.233 217.499 244.115 216.815 243.771 216.24C243.532 216.473 243.256 216.665 242.953 216.807C242.1 217.237 241.258 217.046 241.324 215.894C241.413 215.311 241.652 214.761 242.018 214.297C242.383 213.834 242.861 213.473 243.407 213.249C245.544 212.24 246.989 213.93 246.595 216.98C246.371 218.572 245.796 220.094 244.911 221.436C244.026 222.779 242.854 223.907 241.479 224.74C238.548 226.394 237.688 224.812 236.614 222.353C236.053 221.015 235.378 220.001 233.957 220.723C233.224 221.113 232.621 221.71 232.225 222.441C231.829 223.171 231.657 224.002 231.731 224.83C231.69 225.655 231.97 226.464 232.513 227.086C232.799 226.785 233.134 226.532 233.504 226.34C234.298 225.922 235.121 226.173 235.115 227.271C235.068 227.855 234.872 228.416 234.546 228.902C234.22 229.388 233.775 229.782 233.253 230.047C231.372 231.092 229.48 229.265 229.259 225.982Z" fill="#389686"/>
<path d="M248.439 217.183C241.431 219.869 234.363 224.943 227.361 227.618" stroke="#389686" stroke-width="0.674555" stroke-miterlimit="10"/>
<path d="M248.648 215.619C241.533 218.275 234.351 223.379 227.236 226.018" stroke="#389686" stroke-width="0.674555" stroke-miterlimit="10"/>
<path d="M259.513 204.581C245.455 203.507 230.961 218.55 216.902 217.481C218.064 224.86 219.226 232.242 220.389 239.628C231.766 239.002 243.497 225.385 254.874 224.758L259.513 204.581Z" stroke="black" stroke-width="1.30135" stroke-miterlimit="10"/>
<path d="M254.033 81.9555C263.083 96.3898 283.188 101.738 289.253 112.931L301.986 100.724C296.876 92.0858 281.588 87.8832 274.574 77.2575L254.033 81.9555Z" fill="#61DDAE"/>
<path d="M254.033 81.9555C255.517 84.2821 257.268 86.4277 259.25 88.3488C259.97 88.1399 260.586 87.6721 260.981 87.0355C261.242 86.559 261.368 86.0203 261.345 85.4775C261.336 85.1062 261.282 84.7374 261.184 84.3791C261.028 83.7984 260.806 83.2375 260.522 82.7076C260.305 82.2966 260.066 81.898 259.805 81.5137C259.632 81.257 259.453 81.0123 259.262 80.7675L254.033 81.9555Z" fill="#389686"/>
<path d="M286.322 108.902C287.463 110.118 288.447 111.472 289.253 112.931L292.423 109.893C292.172 109.427 291.824 109.019 291.402 108.699C291.009 108.41 290.566 108.197 290.095 108.072L289.838 108.012C289.304 107.911 288.755 107.911 288.22 108.012C287.519 108.134 286.864 108.441 286.322 108.902Z" fill="#389686"/>
<path d="M298.948 103.631L301.986 100.724C301.298 99.5879 300.483 98.5344 299.556 97.5837C299.058 98.0059 298.672 98.5454 298.434 99.1537C298.257 99.6255 298.162 100.124 298.154 100.628V100.885C298.172 101.356 298.246 101.823 298.374 102.276C298.511 102.749 298.703 103.203 298.948 103.631Z" fill="#389686"/>
<path d="M269.822 78.338C270.211 78.9363 270.695 79.4667 271.255 79.908C271.805 80.3378 272.406 80.6968 273.046 80.9765L273.386 81.1198C274.074 81.3878 274.795 81.5644 275.529 81.6451C276.365 81.747 277.213 81.6738 278.018 81.4302C276.728 80.1578 275.57 78.7577 274.562 77.2515L269.822 78.338Z" fill="#389686"/>
<path d="M263.399 89.0891C271.028 95.9122 280.764 100.479 286.799 106.287L286.608 106.341C285.936 106.555 285.309 106.891 284.758 107.332L285.182 107.738C285.729 107.292 286.36 106.961 287.038 106.765L287.235 106.711C288.162 107.631 289.007 108.629 289.76 109.696L292.148 107.535C292.256 107.612 292.357 107.696 292.459 107.786C292.848 108.123 293.173 108.527 293.42 108.979L293.76 108.657C293.516 108.208 293.197 107.805 292.817 107.463C292.721 107.374 292.62 107.29 292.512 107.207L296.918 103.177C296.96 103.297 297.007 103.422 297.055 103.541C297.235 104.005 297.45 104.454 297.7 104.884L298.034 104.568C297.788 104.135 297.577 103.684 297.401 103.219L297.276 102.849L299.556 100.765C298.899 99.8885 298.173 99.066 297.383 98.306C297.413 98.2523 297.437 98.1985 297.461 98.1508C297.757 97.5916 298.163 97.0982 298.655 96.7002L298.315 96.3838C297.825 96.7781 297.411 97.2573 297.091 97.7986L297.007 97.9538C291.76 93.0349 283.457 89.1905 277.147 83.4479H277.386C278.177 83.4174 278.959 83.2706 279.708 83.0121L279.266 82.6181C278.506 82.8721 277.71 83.0031 276.908 83.0061H276.657C275.588 82.0033 274.59 80.9261 273.672 79.7826L270.204 80.7138C270.049 80.5944 269.906 80.475 269.762 80.3437C269.228 79.8673 268.76 79.3211 268.372 78.72L267.834 78.8394C268.228 79.4426 268.693 79.9959 269.219 80.487L269.655 80.8631L262.969 82.6539L262.706 82.1823C262.48 81.8062 262.241 81.4182 261.972 81.0242C261.805 80.7795 261.638 80.5407 261.459 80.3019L260.904 80.4273L261.417 81.1615C261.686 81.5555 261.93 81.9495 262.145 82.3256C262.241 82.4868 262.324 82.6479 262.408 82.8091L258.462 83.8657C259.783 85.5504 261.241 87.1237 262.82 88.5697L262.712 88.7189C262.232 89.2684 261.614 89.6804 260.922 89.9128L261.519 90.4322C262.203 90.1849 262.818 89.7752 263.309 89.2383C263.327 89.1846 263.363 89.1308 263.399 89.0891ZM261.065 84.9104L273.404 81.3108C280.657 89.4651 292.321 93.8468 297.992 100.61L289.874 107.803C283.403 99.876 269.619 94.7482 261.065 84.9283V84.9104Z" fill="#389686"/>
<path d="M289.235 99.7506C286.978 101.458 283.862 101.482 280.925 99.4641C277.988 97.4464 278.537 95.7749 279.833 93.8587C280.519 92.7782 281.027 91.847 279.743 90.9874C279.157 90.5904 278.48 90.3488 277.776 90.2851C277.071 90.2214 276.361 90.3378 275.714 90.6232C274.866 91.0112 274.52 91.441 274.413 91.8171C274.744 91.9282 275.056 92.0892 275.338 92.2947C276.156 92.8916 276.49 93.7035 275.571 94.1811C274.813 94.575 273.511 94.4079 272.281 93.5841C270.174 92.1037 270.658 90.0024 273.326 88.904C276.156 87.7579 279.731 88.4145 282.167 90.0322C284.913 91.8709 284.215 93.3155 282.985 95.3451C282.304 96.4256 281.916 97.4643 283.182 98.3299C283.768 98.7578 284.474 98.9884 285.199 98.9884C285.925 98.9884 286.631 98.7578 287.217 98.3299C287.52 98.1539 287.783 97.9164 287.989 97.6326C288.194 97.3488 288.338 97.0251 288.411 96.6823C288.054 96.5744 287.715 96.4112 287.408 96.1987C286.722 95.7212 286.489 94.9213 287.271 94.4079C287.73 94.1954 288.24 94.1147 288.743 94.1747C289.246 94.2348 289.722 94.4333 290.118 94.7482C291.742 95.7988 291.378 98.1329 289.235 99.7506Z" fill="#389686"/>
<path d="M272.389 87.0355C278.562 92.2409 286.018 96.0435 291.241 100.539" stroke="#389686" stroke-width="0.585013" stroke-miterlimit="10"/>
<path d="M271.016 87.5668C277.314 92.8857 284.919 96.7599 290.232 101.344" stroke="#389686" stroke-width="0.585013" stroke-miterlimit="10"/>
<path d="M254.033 81.9555C263.083 96.3898 283.188 101.738 289.253 112.931L301.986 100.724C296.876 92.0858 281.588 87.8832 274.574 77.2575L254.033 81.9555Z" stroke="black" stroke-width="1.13421" stroke-miterlimit="10"/>
</svg>
