<svg width="498" height="520" viewBox="0 0 498 520" fill="none" xmlns="http://www.w3.org/2000/svg">
<g clip-path="url(#clip0_87_505)">
<path d="M272.152 519.64C342.676 519.64 399.847 512.464 399.847 503.612C399.847 494.759 342.676 487.583 272.152 487.583C201.628 487.583 144.457 494.759 144.457 503.612C144.457 512.464 201.628 519.64 272.152 519.64Z" fill="#55C7A6"/>
<path d="M54.8921 356.606L22.814 353.036C21.2431 352.861 19.828 353.993 19.6532 355.564L19.3273 358.492C19.1525 360.063 20.2842 361.478 21.855 361.653L53.9332 365.223C55.504 365.397 56.9191 364.266 57.0939 362.695L57.4198 359.767C57.5946 358.196 56.4629 356.781 54.8921 356.606Z" fill="#F7C714"/>
<path d="M33.3564 354.207L26.0566 353.395L25.0977 362.012L32.3975 362.824L33.3564 354.207Z" fill="#F8D053"/>
<path d="M53.0814 356.408L38.8533 354.825L37.8944 363.442L52.1225 365.025L53.0814 356.408Z" fill="#F89E1D"/>
<path d="M54.8921 356.606L22.814 353.036C21.2431 352.861 19.828 353.993 19.6532 355.564L19.3273 358.492C19.1525 360.063 20.2842 361.478 21.855 361.653L53.9332 365.223C55.504 365.397 56.9191 364.266 57.0939 362.695L57.4198 359.767C57.5946 358.196 56.4629 356.781 54.8921 356.606Z" stroke="black" stroke-width="2.11462" stroke-linecap="round" stroke-linejoin="round"/>
<path d="M59.542 348.395L27.4639 344.825C25.893 344.65 24.4779 345.782 24.3031 347.353L23.9772 350.281C23.8024 351.852 24.9341 353.267 26.5049 353.442L58.5831 357.011C60.1539 357.186 61.569 356.055 61.7438 354.484L62.0697 351.555C62.2445 349.985 61.1128 348.57 59.542 348.395Z" fill="#F7C714"/>
<path d="M38.0065 346.004L30.7068 345.191L29.7479 353.808L37.0476 354.621L38.0065 346.004Z" fill="#F8D053"/>
<path d="M57.7384 348.205L43.5103 346.622L42.5513 355.239L56.7795 356.822L57.7384 348.205Z" fill="#F89E1D"/>
<path d="M59.542 348.395L27.4639 344.825C25.893 344.65 24.4779 345.782 24.3031 347.353L23.9772 350.281C23.8024 351.852 24.9341 353.267 26.5049 353.442L58.5831 357.011C60.1539 357.186 61.569 356.055 61.7438 354.484L62.0697 351.555C62.2445 349.985 61.1128 348.57 59.542 348.395Z" stroke="black" stroke-width="2.11462" stroke-linecap="round" stroke-linejoin="round"/>
<path d="M55.0078 339.174L22.9297 335.604C21.3589 335.429 19.9437 336.561 19.7689 338.132L19.4431 341.06C19.2682 342.631 20.3999 344.046 21.9708 344.221L54.0489 347.791C55.6197 347.965 57.0348 346.834 57.2096 345.263L57.5355 342.335C57.7103 340.764 56.5786 339.349 55.0078 339.174Z" fill="#F7C714"/>
<path d="M33.4721 336.775L26.1724 335.963L25.2135 344.58L32.5132 345.392L33.4721 336.775Z" fill="#F8D053"/>
<path d="M53.1908 338.969L38.9626 337.386L38.0037 346.003L52.2319 347.586L53.1908 338.969Z" fill="#F89E1D"/>
<path d="M55.0078 339.174L22.9297 335.604C21.3589 335.429 19.9437 336.561 19.7689 338.132L19.4431 341.06C19.2682 342.631 20.3999 344.046 21.9708 344.221L54.0489 347.791C55.6197 347.965 57.0348 346.834 57.2096 345.263L57.5355 342.335C57.7103 340.764 56.5786 339.349 55.0078 339.174Z" stroke="black" stroke-width="2.11462" stroke-linecap="round" stroke-linejoin="round"/>
<path d="M91.995 355.624L59.8093 358.038C58.2332 358.156 57.0514 359.53 57.1696 361.106L57.39 364.044C57.5083 365.62 58.8818 366.802 60.4579 366.684L92.6436 364.269C94.2197 364.151 95.4015 362.777 95.2833 361.201L95.0629 358.263C94.9447 356.687 93.5711 355.505 91.995 355.624Z" fill="#F7C714"/>
<path d="M70.383 357.248L63.0588 357.797L63.7074 366.443L71.0316 365.894L70.383 357.248Z" fill="#F8D053"/>
<path d="M90.1841 355.763L75.9082 356.834L76.5568 365.479L90.8326 364.408L90.1841 355.763Z" fill="#F89E1D"/>
<path d="M91.995 355.624L59.8093 358.038C58.2332 358.156 57.0514 359.53 57.1696 361.106L57.39 364.044C57.5083 365.62 58.8818 366.802 60.4579 366.684L92.6436 364.269C94.2197 364.151 95.4015 362.777 95.2833 361.201L95.0629 358.263C94.9447 356.687 93.5711 355.505 91.995 355.624Z" stroke="black" stroke-width="2.11462" stroke-linecap="round" stroke-linejoin="round"/>
<path d="M101.171 346.251L68.9856 348.666C67.4095 348.784 66.2277 350.157 66.3459 351.733L66.5663 354.672C66.6845 356.248 68.0581 357.429 69.6342 357.311L101.82 354.897C103.396 354.779 104.578 353.405 104.46 351.829L104.239 348.891C104.121 347.315 102.747 346.133 101.171 346.251Z" fill="#F7C714"/>
<path d="M79.5666 347.875L72.2424 348.424L72.891 357.07L80.2152 356.521L79.5666 347.875Z" fill="#F8D053"/>
<path d="M99.3601 346.383L85.0842 347.454L85.7328 356.1L100.009 355.029L99.3601 346.383Z" fill="#F89E1D"/>
<path d="M101.171 346.251L68.9856 348.666C67.4095 348.784 66.2277 350.157 66.3459 351.733L66.5663 354.672C66.6845 356.248 68.0581 357.429 69.6342 357.311L101.82 354.897C103.396 354.779 104.578 353.405 104.46 351.829L104.239 348.891C104.121 347.315 102.747 346.133 101.171 346.251Z" stroke="black" stroke-width="2.11462" stroke-linecap="round" stroke-linejoin="round"/>
<path d="M96.0422 337.7L63.8565 340.114C62.2804 340.233 61.0985 341.606 61.2168 343.182L61.4372 346.12C61.5554 347.696 62.9289 348.878 64.505 348.76L96.6907 346.346C98.2668 346.227 99.4486 344.854 99.3304 343.278L99.11 340.34C98.9918 338.763 97.6183 337.582 96.0422 337.7Z" fill="#F7C714"/>
<path d="M74.4302 339.324L67.106 339.874L67.7545 348.519L75.0787 347.97L74.4302 339.324Z" fill="#F8D053"/>
<path d="M94.2165 337.833L79.9407 338.904L80.5892 347.549L94.8651 346.478L94.2165 337.833Z" fill="#F89E1D"/>
<path d="M96.0422 337.7L63.8565 340.114C62.2804 340.233 61.0985 341.606 61.2168 343.182L61.4372 346.12C61.5554 347.696 62.9289 348.878 64.505 348.76L96.6907 346.346C98.2668 346.227 99.4486 344.854 99.3304 343.278L99.11 340.34C98.9918 338.763 97.6183 337.582 96.0422 337.7Z" stroke="black" stroke-width="2.11462" stroke-linecap="round" stroke-linejoin="round"/>
<path d="M91.1293 329.315L58.9436 331.73C57.3675 331.848 56.1857 333.222 56.3039 334.798L56.5243 337.736C56.6426 339.312 58.0161 340.494 59.5922 340.375L91.7779 337.961C93.354 337.843 94.5358 336.469 94.4176 334.893L94.1972 331.955C94.0789 330.379 92.7054 329.197 91.1293 329.315Z" fill="#F7C714"/>
<path d="M69.5173 330.94L62.1931 331.489L62.8417 340.135L70.1659 339.585L69.5173 330.94Z" fill="#F8D053"/>
<path d="M89.311 329.455L75.0352 330.526L75.6837 339.172L89.9596 338.101L89.311 329.455Z" fill="#F89E1D"/>
<path d="M91.1293 329.315L58.9436 331.73C57.3675 331.848 56.1857 333.222 56.3039 334.798L56.5243 337.736C56.6426 339.312 58.0161 340.494 59.5922 340.375L91.7779 337.961C93.354 337.843 94.5358 336.469 94.4176 334.893L94.1972 331.955C94.0789 330.379 92.7054 329.197 91.1293 329.315Z" stroke="black" stroke-width="2.11462" stroke-linecap="round" stroke-linejoin="round"/>
<path d="M94.0427 320.227L61.8569 322.642C60.2808 322.76 59.099 324.134 59.2172 325.71L59.4377 328.648C59.5559 330.224 60.9294 331.406 62.5055 331.288L94.6912 328.873C96.2673 328.755 97.4491 327.381 97.3309 325.805L97.1105 322.867C96.9923 321.291 95.6188 320.109 94.0427 320.227Z" fill="#F7C714"/>
<path d="M72.4302 321.838L65.106 322.387L65.7545 331.033L73.0787 330.483L72.4302 321.838Z" fill="#F8D053"/>
<path d="M92.2175 320.36L77.9417 321.431L78.5902 330.077L92.8661 329.006L92.2175 320.36Z" fill="#F89E1D"/>
<path d="M94.0427 320.227L61.8569 322.642C60.2808 322.76 59.099 324.134 59.2172 325.71L59.4377 328.648C59.5559 330.224 60.9294 331.406 62.5055 331.288L94.6912 328.873C96.2673 328.755 97.4491 327.381 97.3309 325.805L97.1105 322.867C96.9923 321.291 95.6188 320.109 94.0427 320.227Z" stroke="black" stroke-width="2.11462" stroke-linecap="round" stroke-linejoin="round"/>
<path d="M96.4819 311.372L64.2961 313.786C62.7201 313.904 61.5382 315.278 61.6565 316.854L61.8769 319.792C61.9951 321.368 63.3686 322.55 64.9447 322.432L97.1304 320.017C98.7065 319.899 99.8883 318.526 99.7701 316.95L99.5497 314.011C99.4315 312.435 98.058 311.254 96.4819 311.372Z" fill="#F7C714"/>
<path d="M74.8703 312.996L67.5461 313.546L68.1947 322.191L75.5189 321.642L74.8703 312.996Z" fill="#F8D053"/>
<path d="M94.6636 311.511L80.3877 312.582L81.0362 321.227L95.3121 320.157L94.6636 311.511Z" fill="#F89E1D"/>
<path d="M96.4819 311.372L64.2961 313.786C62.7201 313.904 61.5382 315.278 61.6565 316.854L61.8769 319.792C61.9951 321.368 63.3686 322.55 64.9447 322.432L97.1304 320.017C98.7065 319.899 99.8883 318.526 99.7701 316.95L99.5497 314.011C99.4315 312.435 98.058 311.254 96.4819 311.372Z" stroke="black" stroke-width="2.11462" stroke-linecap="round" stroke-linejoin="round"/>
<path d="M94.236 302.935L62.0503 305.35C60.4742 305.468 59.2924 306.842 59.4106 308.418L59.631 311.356C59.7492 312.932 61.1228 314.114 62.6989 313.995L94.8846 311.581C96.4607 311.463 97.6425 310.089 97.5243 308.513L97.3039 305.575C97.1856 303.999 95.8121 302.817 94.236 302.935Z" fill="#F7C714"/>
<path d="M72.624 304.56L65.2998 305.109L65.9484 313.755L73.2726 313.205L72.624 304.56Z" fill="#F8D053"/>
<path d="M92.4248 303.075L78.1489 304.146L78.7975 312.791L93.0733 311.72L92.4248 303.075Z" fill="#F89E1D"/>
<path d="M94.236 302.935L62.0503 305.35C60.4742 305.468 59.2924 306.842 59.4106 308.418L59.631 311.356C59.7492 312.932 61.1228 314.114 62.6989 313.995L94.8846 311.581C96.4607 311.463 97.6425 310.089 97.5243 308.513L97.3039 305.575C97.1856 303.999 95.8121 302.817 94.236 302.935Z" stroke="black" stroke-width="2.11462" stroke-linecap="round" stroke-linejoin="round"/>
<path d="M145.619 354.562L113.493 351.452C111.92 351.3 110.521 352.452 110.369 354.025L110.085 356.957C109.933 358.531 111.085 359.929 112.658 360.082L144.784 363.192C146.357 363.344 147.756 362.192 147.908 360.619L148.192 357.687C148.344 356.113 147.192 354.715 145.619 354.562Z" fill="#F7C714"/>
<path d="M124.053 352.475L116.743 351.768L115.907 360.397L123.218 361.105L124.053 352.475Z" fill="#F8D053"/>
<path d="M143.806 354.387L129.557 353.008L128.721 361.637L142.971 363.017L143.806 354.387Z" fill="#F89E1D"/>
<path d="M145.619 354.562L113.493 351.452C111.92 351.3 110.521 352.452 110.369 354.025L110.085 356.957C109.933 358.531 111.085 359.929 112.658 360.082L144.784 363.192C146.357 363.344 147.756 362.192 147.908 360.619L148.192 357.687C148.344 356.113 147.192 354.715 145.619 354.562Z" stroke="black" stroke-width="2.11462" stroke-linecap="round" stroke-linejoin="round"/>
<path d="M144.632 345.838L112.506 342.728C110.933 342.575 109.534 343.727 109.382 345.3L109.098 348.233C108.945 349.806 110.097 351.205 111.67 351.357L143.796 354.468C145.37 354.62 146.768 353.468 146.921 351.895L147.205 348.962C147.357 347.389 146.205 345.99 144.632 345.838Z" fill="#F7C714"/>
<path d="M123.043 343.786L115.727 343.141L114.965 351.777L122.282 352.423L123.043 343.786Z" fill="#F8D053"/>
<path d="M142.817 345.526L128.556 344.268L127.794 352.905L142.055 354.162L142.817 345.526Z" fill="#F89E1D"/>
<path d="M144.627 345.691L112.475 342.855C110.901 342.716 109.512 343.88 109.373 345.454L109.115 348.389C108.976 349.964 110.139 351.353 111.714 351.491L143.865 354.327C145.44 354.466 146.828 353.302 146.967 351.728L147.226 348.793C147.365 347.218 146.201 345.829 144.627 345.691Z" stroke="black" stroke-width="2.11462" stroke-linecap="round" stroke-linejoin="round"/>
<path d="M148.447 337.658L116.321 334.548C114.748 334.395 113.349 335.547 113.197 337.12L112.913 340.053C112.761 341.626 113.913 343.025 115.486 343.177L147.612 346.288C149.185 346.44 150.584 345.288 150.736 343.715L151.02 340.782C151.172 339.209 150.02 337.81 148.447 337.658Z" fill="#F7C714"/>
<path d="M126.874 335.571L119.563 334.863L118.728 343.493L126.039 344.201L126.874 335.571Z" fill="#F8D053"/>
<path d="M146.634 337.483L132.385 336.104L131.549 344.733L145.799 346.113L146.634 337.483Z" fill="#F89E1D"/>
<path d="M148.447 337.658L116.321 334.548C114.748 334.395 113.349 335.547 113.197 337.12L112.913 340.053C112.761 341.626 113.913 343.025 115.486 343.177L147.612 346.288C149.185 346.44 150.584 345.288 150.736 343.715L151.02 340.782C151.172 339.209 150.02 337.81 148.447 337.658Z" stroke="black" stroke-width="2.11462" stroke-linecap="round" stroke-linejoin="round"/>
<path d="M133.431 327.087L103.394 315.274C101.924 314.695 100.262 315.419 99.6837 316.89L98.6053 319.631C98.0268 321.102 98.7502 322.764 100.221 323.342L130.258 335.156C131.728 335.734 133.39 335.011 133.968 333.54L135.047 330.798C135.625 329.327 134.902 327.666 133.431 327.087Z" fill="#F7C714"/>
<path d="M113.265 319.157L106.43 316.469L103.256 324.537L110.091 327.226L113.265 319.157Z" fill="#F8D053"/>
<path d="M131.74 326.416L118.417 321.177L115.244 329.245L128.566 334.485L131.74 326.416Z" fill="#F89E1D"/>
<path d="M133.431 327.087L103.394 315.274C101.924 314.695 100.262 315.419 99.6837 316.89L98.6053 319.631C98.0268 321.102 98.7502 322.764 100.221 323.342L130.258 335.156C131.728 335.734 133.39 335.011 133.968 333.54L135.047 330.798C135.625 329.327 134.902 327.666 133.431 327.087Z" stroke="black" stroke-width="2.11462" stroke-linecap="round" stroke-linejoin="round"/>
<path d="M151.886 329.645L126.831 309.298C125.604 308.302 123.802 308.489 122.805 309.716L120.948 312.003C119.952 313.23 120.138 315.032 121.365 316.028L146.42 336.375C147.647 337.372 149.449 337.185 150.446 335.958L152.303 333.671C153.3 332.444 153.113 330.642 151.886 329.645Z" fill="#F7C714"/>
<path d="M135.074 315.975L129.372 311.344L123.906 318.075L129.608 322.705L135.074 315.975Z" fill="#F8D053"/>
<path d="M150.471 328.492L139.358 319.467L133.892 326.198L145.005 335.222L150.471 328.492Z" fill="#F89E1D"/>
<path d="M151.886 329.645L126.831 309.298C125.604 308.302 123.802 308.489 122.805 309.716L120.948 312.003C119.952 313.23 120.138 315.032 121.365 316.028L146.42 336.375C147.647 337.372 149.449 337.185 150.446 335.958L152.303 333.671C153.3 332.444 153.113 330.642 151.886 329.645Z" stroke="black" stroke-width="2.11462" stroke-linecap="round" stroke-linejoin="round"/>
<mask id="mask0_87_505" style="mask-type:alpha" maskUnits="userSpaceOnUse" x="3" y="383" width="161" height="119">
<path d="M17.3332 386.137C19.6099 400.235 5.78733 411.971 3.88417 426.111C1.57923 443.274 17.2133 459.945 12.3426 476.587C11.1937 480.548 8.90992 484.178 8.33897 488.266C8.23585 488.688 8.27807 489.133 8.4588 489.528C8.63486 489.756 8.85865 489.942 9.1144 490.073C9.37016 490.205 9.65165 490.278 9.93903 490.289C15.8388 491.241 21.6893 488.175 27.6666 488.231C34.0105 488.231 39.7552 491.671 45.5281 494.314C62.5036 502.012 81.6498 503.477 99.5989 498.452C106.76 496.415 113.64 493.363 120.942 491.918C131.128 489.902 141.736 491.114 151.781 493.743C153.036 490.375 153.394 486.738 152.821 483.189C152.247 479.64 150.762 476.301 148.51 473.499C165.751 454.094 167.887 422.861 153.444 401.292C150.674 397.154 147.255 393.052 146.832 388.083C146.677 386.335 146.713 384.178 145.176 383.332C144.344 382.86 17.3332 386.137 17.3332 386.137Z" fill="#E67E22"/>
</mask>
<g mask="url(#mask0_87_505)">
<path d="M17.3332 386.137C19.6099 400.235 5.78733 411.971 3.88417 426.111C1.57923 443.274 17.2133 459.945 12.3426 476.587C11.1937 480.548 8.90992 484.178 8.33897 488.266C8.23585 488.688 8.27807 489.133 8.4588 489.528C8.63486 489.756 8.85865 489.942 9.1144 490.073C9.37016 490.205 9.65165 490.278 9.93903 490.289C15.8388 491.241 21.6893 488.175 27.6666 488.231C34.0105 488.231 39.7552 491.671 45.5281 494.314C62.5036 502.012 81.6498 503.477 99.5989 498.452C106.76 496.415 113.64 493.363 120.942 491.918C131.128 489.902 141.736 491.114 151.781 493.743C153.036 490.375 153.394 486.738 152.821 483.189C152.247 479.64 150.762 476.301 148.51 473.499C165.751 454.094 167.887 422.861 153.444 401.292C150.674 397.154 147.255 393.052 146.832 388.083C146.677 386.335 146.713 384.178 145.176 383.332C144.344 382.86 17.3332 386.137 17.3332 386.137Z" fill="#E67E22"/>
<path d="M148.82 474.049C159.627 463.144 165.705 448.421 165.737 433.068C165.629 424.697 163.745 416.444 160.211 408.855C158.411 404.962 156.169 401.289 153.529 397.909C152.351 396.386 151.104 394.955 149.821 393.531C149.248 392.93 148.734 392.277 148.284 391.579C147.579 390.472 148.143 390.874 148.573 389.464C149.278 387.181 148.883 384.629 146.896 383.121C144.598 381.351 141.821 382.077 139.198 382.514L124.72 384.897C118.949 382.561 112.714 381.596 106.506 382.077C96.744 382.733 86.9956 383.917 77.2613 384.897C72.9192 384.615 33.2067 390.74 21.245 386.116C19.0035 385.249 16.4237 387.068 15.8104 389.197C15.1055 391.678 16.6845 393.771 18.8978 394.624C31.4093 399.459 44.7243 396.52 57.7151 396.739C64.2986 396.83 70.1773 398.6 76.493 400.263C82.9352 401.935 89.691 401.988 96.1589 400.418C101.946 399.107 107.493 397.641 113.464 398.642C118.671 399.58 123.606 401.66 127.913 404.732C132.293 407.845 135.979 411.832 138.738 416.443C141.497 421.054 143.269 426.186 143.942 431.517C145.697 444.804 124.77 464.759 134.159 477.242C135.463 478.983 137.112 480.351 138.233 482.141C131.381 482.402 124.283 479.688 117.453 482.141C113.111 483.706 109.396 486.568 105.118 488.302C100.515 490.038 95.7668 491.359 90.9288 492.249C86.5515 493.151 81.279 494.892 76.8313 493.955C74.4488 493.461 72.2496 492.439 69.8249 492.073C67.3578 491.744 64.8699 491.598 62.3814 491.636C57.6738 491.587 53.0221 490.609 48.6928 488.76C44.4463 486.966 39.9959 485.699 35.4411 484.989C24.8294 483.544 14.0361 485.603 4.70161 490.853C-0.232503 493.623 4.1941 501.25 9.16346 498.473C16.8662 494.133 25.7865 492.458 34.5389 493.708C39.177 494.413 43.4132 496.14 47.7482 497.825C77.5573 516.532 122.331 486.92 151.026 496.993C154.121 497.507 157.589 495.054 156.461 491.558C154.497 485.484 151.937 479.62 148.82 474.049Z" fill="#D1731F"/>
<path d="M22.8874 465.147C9.24806 440.427 9.26216 419.527 24.5579 402.906C16.762 421.783 16.473 442.591 22.8874 465.147Z" fill="#EFAC71"/>
</g>
<path d="M64.3835 458.697C64.3835 454.996 66.5898 452.557 69.8181 452.557C73.279 452.557 75.4571 455.151 75.4571 457.675C75.4841 458.765 75.242 459.845 74.7522 460.819C76.6413 462.158 79.5524 463.025 82.9358 463.025C88.5748 463.025 92.226 460.508 92.226 456.018C92.226 451.789 87.8981 449.724 82.7032 447.912C73.1028 444.451 66.329 441.378 66.329 431.778C66.329 423.51 73.0182 417.06 83.4927 417.06C93.1706 417.06 100.649 421.994 100.649 428.232C100.649 431.933 98.3655 434.062 95.3768 434.062C91.7538 434.062 89.7378 431.383 89.7378 428.789C89.6938 427.939 89.884 427.093 90.2876 426.343C88.8779 425.483 86.6646 424.771 83.4363 424.771C78.3259 424.771 75.3302 427.372 75.3302 431.115C75.3302 435.344 79.6581 437.255 84.8531 439.144C94.1433 442.45 101.15 445.671 101.15 455.278C101.15 465.146 93.516 470.701 82.8865 470.701C72.6517 470.736 64.3835 464.991 64.3835 458.697Z" fill="#C4621A"/>
<path d="M80.2712 410.949V476.847" stroke="#C4621A" stroke-width="2.12167" stroke-miterlimit="10"/>
<path d="M85.2549 410.949V476.847" stroke="#C4621A" stroke-width="2.12167" stroke-miterlimit="10"/>
<path d="M17.3332 386.137C19.6099 400.235 5.78733 411.971 3.88417 426.111C1.57923 443.274 17.2133 459.945 12.3426 476.587C11.1937 480.548 8.90992 484.178 8.33897 488.266C8.23585 488.688 8.27807 489.133 8.4588 489.528C8.63486 489.756 8.85865 489.942 9.1144 490.073C9.37016 490.205 9.65165 490.278 9.93903 490.289C15.8388 491.241 21.6893 488.175 27.6666 488.231C34.0105 488.231 39.7552 491.671 45.5281 494.314C62.5036 502.012 81.6498 503.477 99.5989 498.452C106.76 496.415 113.64 493.363 120.942 491.918C131.128 489.902 141.736 491.114 151.781 493.743C153.036 490.375 153.394 486.738 152.821 483.189C152.247 479.64 150.762 476.301 148.51 473.499C165.751 454.094 167.887 422.861 153.444 401.292C150.674 397.154 147.255 393.052 146.832 388.083C146.677 386.335 146.713 384.178 145.176 383.332C144.344 382.86 17.3332 386.137 17.3332 386.137Z" stroke="black" stroke-width="5.63899" stroke-miterlimit="10" stroke-linecap="round"/>
<mask id="mask1_87_505" style="mask-type:alpha" maskUnits="userSpaceOnUse" x="10" y="362" width="146" height="31">
<path d="M14.1751 363.335C11.6939 364.223 9.44538 366.859 10.3335 369.305C11.1371 371.568 14.0905 372.533 14.8236 374.817C15.9514 378.341 11.1441 381.394 11.6516 385.024C12.1239 388.372 16.4095 389.373 19.7859 389.577L39.5576 390.775C44.1573 391.161 48.7781 391.229 53.3872 390.98C56.4181 390.74 59.435 390.233 62.4871 390.176C65.2094 390.197 67.928 390.381 70.6284 390.726C98.2015 393.537 126.045 391.982 153.134 386.116C153.601 386.043 154.052 385.888 154.466 385.658C156.313 384.474 155.1 381.527 153.416 380.125C151.731 378.722 149.497 377.242 149.673 375.05C149.772 373.788 150.702 372.766 151.167 371.589C152.351 368.635 150.357 365.181 147.565 363.659C144.774 362.136 141.454 362.052 138.282 362.066C120.505 362.15 102.778 363.899 85.0853 365.647L68.7252 367.261C64.7888 367.752 60.8203 367.938 56.8552 367.818C53.5383 367.566 50.2417 367.095 46.9869 366.408C36.7804 364.448 24.3253 359.712 14.1751 363.335Z" fill="#C4621A"/>
</mask>
<g mask="url(#mask1_87_505)">
<path d="M14.1751 363.335C11.6939 364.223 9.44538 366.859 10.3335 369.305C11.1371 371.568 14.0905 372.533 14.8236 374.817C15.9514 378.341 11.1441 381.394 11.6516 385.024C12.1239 388.372 16.4095 389.373 19.7859 389.577L39.5576 390.775C44.1573 391.161 48.7781 391.229 53.3872 390.98C56.4181 390.74 59.435 390.233 62.4871 390.176C65.2094 390.197 67.928 390.381 70.6284 390.726C98.2015 393.537 126.045 391.982 153.134 386.116C153.601 386.043 154.052 385.888 154.466 385.658C156.313 384.474 155.1 381.527 153.416 380.125C151.731 378.722 149.497 377.242 149.673 375.05C149.772 373.788 150.702 372.766 151.167 371.589C152.351 368.635 150.357 365.181 147.565 363.659C144.774 362.136 141.454 362.052 138.282 362.066C120.505 362.15 102.778 363.899 85.0853 365.647L68.7252 367.261C64.7888 367.752 60.8203 367.938 56.8552 367.818C53.5383 367.566 50.2417 367.095 46.9869 366.408C36.7804 364.448 24.3253 359.712 14.1751 363.335Z" fill="#C4621A"/>
<path d="M153.592 376.713C152.594 375.906 151.486 375.246 150.3 374.754H150.251C150.864 374.192 151.383 373.535 151.788 372.808C152.682 371.093 152.98 369.129 152.633 367.226C151.929 362.764 148.32 360.177 144.506 358.26C139.438 355.743 134.962 363.356 140.052 365.886C141.313 366.514 143.146 367.183 143.858 368.459C143.517 368.62 143.192 368.811 142.885 369.03C141.675 369.815 140.746 370.966 140.235 372.315C138.536 377.037 142.385 381.083 146.522 382.733L146.346 382.846C144.02 383.931 140.996 384.114 138.48 384.382C132.758 384.874 127.015 385.067 121.274 384.96C109.404 384.96 97.4208 385.503 85.5719 384.713C79.9329 384.333 74.2939 383.388 68.6549 383.043C62.9636 382.761 57.2605 382.817 51.5758 383.212C38 384.002 24.4382 385.073 10.8765 386.032C5.23748 386.426 5.19518 395.258 10.8765 394.864C33.517 393.249 56.3901 390.317 79.0025 392.897C90.2804 394.187 101.713 393.82 113.076 393.792C124.058 393.792 135.378 394.363 146.205 392.023C150.737 391.036 156.207 388.146 156.39 382.86C156.411 381.691 156.17 380.534 155.686 379.47C155.202 378.407 154.486 377.465 153.592 376.713Z" fill="#A54E14"/>
<path d="M57.398 370.553C23.4724 360.748 17.5656 363.955 12.2861 366.894C7.352 369.657 21.0547 367.656 26.0734 369.714C31.4305 371.899 49.3413 376.333 57.398 370.553Z" fill="#EFAC71"/>
<path d="M65.342 370.235C98.1821 370.376 117.686 375.367 133.553 364.723C139.015 363.201 81.9136 368.903 65.342 370.235Z" fill="#EFAC71"/>
</g>
<path d="M14.1751 363.335C11.6939 364.223 9.44538 366.859 10.3335 369.305C11.1371 371.568 14.0905 372.533 14.8236 374.817C15.9514 378.341 11.1441 381.394 11.6516 385.024C12.1239 388.372 16.4095 389.373 19.7859 389.577L39.5576 390.775C44.1573 391.161 48.7781 391.229 53.3872 390.98C56.4181 390.74 59.435 390.233 62.4871 390.176C65.2094 390.197 67.928 390.381 70.6284 390.726C98.2015 393.537 126.045 391.982 153.134 386.116C153.601 386.043 154.052 385.888 154.466 385.658C156.313 384.474 155.1 381.527 153.416 380.125C151.731 378.722 149.497 377.242 149.673 375.05C149.772 373.788 150.702 372.766 151.167 371.589C152.351 368.635 150.357 365.181 147.565 363.659C144.774 362.136 141.454 362.052 138.282 362.066C120.505 362.15 102.778 363.899 85.0853 365.647L68.7252 367.261C64.7888 367.752 60.8203 367.938 56.8552 367.818C53.5383 367.566 50.2417 367.095 46.9869 366.408C36.7804 364.448 24.3253 359.712 14.1751 363.335Z" stroke="black" stroke-width="5.63899" stroke-miterlimit="10" stroke-linecap="round"/>
<path d="M42.624 336.126C52.5665 336.126 60.6265 328.067 60.6265 318.124C60.6265 308.182 52.5665 300.122 42.624 300.122C32.6816 300.122 24.6216 308.182 24.6216 318.124C24.6216 328.067 32.6816 336.126 42.624 336.126Z" fill="#F7C714"/>
<path d="M42.6239 330.784C49.6155 330.784 55.2834 325.116 55.2834 318.124C55.2834 311.132 49.6155 305.465 42.6239 305.465C35.6322 305.465 29.9644 311.132 29.9644 318.124C29.9644 325.116 35.6322 330.784 42.6239 330.784Z" fill="#F89E1D"/>
<path d="M47.389 305.458L29.9645 322.375C29.7023 321.213 29.514 320.036 29.4006 318.85L43.4981 305.176C44.8004 305.169 46.1012 305.263 47.389 305.458Z" fill="#F7C714"/>
<path d="M57.4756 320.14L44.7879 332.828C43.5622 332.828 42.3434 332.645 41.1719 332.285L41.5314 331.926L56.3337 317.123L56.954 316.503C57.3055 317.683 57.4813 318.909 57.4756 320.14Z" fill="#F7C714"/>
<path d="M53.3873 311.266L52.6825 311.971L36.1955 328.458L35.6457 329.014L34.8069 328.183L52.5274 310.462C52.8291 310.713 53.1162 310.982 53.3873 311.266Z" fill="#F7C714"/>
<path d="M51.7027 309.412L34.7857 326.329L34.0244 327.09V327.055C33.1718 325.892 32.5234 324.593 32.1072 323.213L32.7204 322.6L47.5228 307.798L48.2276 307.036C49.5669 307.473 50.5467 308.552 51.7027 309.412Z" fill="#F7C714"/>
<path d="M56.6649 315.446L55.96 316.15L40.7277 331.383L40.3048 331.806L39.5999 332.511L36.6536 329.621L37.3091 328.965L54.4798 311.794C55.4105 312.878 56.1495 314.113 56.6649 315.446Z" fill="#F7C714"/>
<path d="M55.3117 318.047V318.124C55.3086 318.11 55.3086 318.096 55.3117 318.082C54.9828 317.056 54.5992 316.049 54.1627 315.065C54.0429 314.797 53.9231 314.536 53.7891 314.283C53.1823 313.003 52.4378 311.792 51.5688 310.674C51.3714 310.427 51.1741 310.18 50.9626 309.969C50.7511 309.757 50.4269 309.398 50.152 309.123C49.8771 308.848 49.7643 308.763 49.5669 308.594C48.4933 307.664 47.2772 306.912 45.965 306.367L45.3025 306.127C44.4443 305.826 43.5591 305.609 42.6592 305.479C43.6519 305.477 44.6412 305.596 45.6055 305.831C45.8452 305.881 46.0778 305.944 46.3104 306.014C47.7063 306.435 49.0182 307.096 50.1872 307.967C50.3987 308.122 50.6101 308.291 50.8146 308.46C51.1123 308.711 51.397 308.977 51.6675 309.257C51.893 309.482 52.1045 309.715 52.3089 309.962C53.2213 311.046 53.9456 312.275 54.4517 313.599C54.5648 313.88 54.6614 314.167 54.7407 314.459C55.1035 315.632 55.2889 316.854 55.2905 318.082L55.3117 318.047Z" fill="#DD8512"/>
<path d="M42.5465 330.812C42.2012 330.812 41.8417 330.812 41.5174 330.762H41.2284H41.1509L40.6786 330.699C40.4672 330.699 40.2557 330.629 40.0513 330.586C39.8469 330.544 39.7411 330.523 39.5861 330.48L39.3605 330.424C39.2151 330.389 39.0716 330.347 38.9305 330.297C38.8414 330.276 38.7541 330.248 38.6697 330.213C38.5643 330.184 38.4607 330.148 38.3596 330.107C38.2614 330.077 38.1649 330.042 38.0706 330.001C36.8232 329.531 35.6612 328.859 34.6308 328.013C34.4475 327.865 34.2643 327.717 34.0881 327.548L33.9541 327.421C33.8061 327.287 33.6581 327.146 33.5171 326.991C33.4595 326.938 33.4054 326.882 33.355 326.822C33.214 326.674 33.0801 326.526 32.9532 326.371C32.9285 326.351 32.9071 326.327 32.8898 326.301C32.7206 326.096 32.5514 325.892 32.3964 325.673C31.956 325.074 31.5692 324.437 31.2404 323.77C31.1829 323.66 31.1311 323.547 31.0853 323.432L31.0148 323.298C30.9655 323.185 30.9161 323.072 30.8738 322.959C30.7233 322.59 30.5916 322.214 30.4791 321.832C30.4086 321.599 30.3381 321.366 30.2888 321.127V321.056C30.2888 320.894 30.2183 320.739 30.1901 320.577C30.1619 320.415 30.1478 320.351 30.1337 320.246C30.1075 320.111 30.0887 319.974 30.0773 319.837C30.0773 319.766 30.0773 319.696 30.0421 319.625C30.0421 319.435 30.0421 319.238 29.9998 319.047C29.9575 318.857 29.9646 318.476 29.9646 318.188C30.2324 319.026 30.5285 319.83 30.8456 320.591C30.9302 320.81 31.0219 321.021 31.1135 321.226C31.6949 322.535 32.4032 323.783 33.2281 324.954C33.3832 325.173 33.5453 325.391 33.7004 325.596C33.8555 325.8 34.2079 326.209 34.4687 326.498C34.7295 326.787 34.8987 326.956 35.1172 327.203C36.1185 328.185 37.2702 329.001 38.5288 329.621C38.7896 329.754 39.0504 329.867 39.3182 329.98C40.3696 330.407 41.4673 330.71 42.5888 330.882H42.6382L42.5465 330.812Z" fill="#F8D053"/>
<path d="M42.624 336.126C52.5665 336.126 60.6265 328.067 60.6265 318.124C60.6265 308.182 52.5665 300.122 42.624 300.122C32.6816 300.122 24.6216 308.182 24.6216 318.124C24.6216 328.067 32.6816 336.126 42.624 336.126Z" stroke="black" stroke-width="2.11462" stroke-linecap="round" stroke-linejoin="round"/>
<path d="M42.6239 330.784C49.6155 330.784 55.2834 325.116 55.2834 318.124C55.2834 311.132 49.6155 305.465 42.6239 305.465C35.6322 305.465 29.9644 311.132 29.9644 318.124C29.9644 325.116 35.6322 330.784 42.6239 330.784Z" stroke="black" stroke-width="2.11462" stroke-linecap="round" stroke-linejoin="round"/>
<path d="M205.908 475.452H108.022C104.6 475.452 101.826 478.226 101.826 481.648V497.416C101.826 500.838 104.6 503.612 108.022 503.612H205.908C209.33 503.612 212.104 500.838 212.104 497.416V481.648C212.104 478.226 209.33 475.452 205.908 475.452Z" fill="#47AD9F"/>
<path d="M205.908 503.612H108.015C106.374 503.612 104.8 502.96 103.639 501.799C102.478 500.638 101.826 499.064 101.826 497.423C141.081 498.692 205.281 500.566 209.052 476.319C212.252 480.717 213.281 487.731 212.097 497.423C212.097 498.235 211.937 499.04 211.626 499.791C211.315 500.542 210.859 501.224 210.284 501.799C209.709 502.374 209.027 502.829 208.276 503.14C207.525 503.451 206.721 503.612 205.908 503.612Z" fill="#419D91"/>
<path d="M114.852 495.047H124.826M124.819 484.883H191.676H124.819ZM109.037 484.883H120.653H109.037ZM184.191 489.965H203.927H184.191ZM112.456 489.965H180.18H112.456ZM192.445 495.047H199.613H192.445ZM128.421 495.047H189.611H128.421Z" stroke="black" stroke-width="1.40975" stroke-miterlimit="10"/>
<path d="M175.02 475.452H138.529V503.612H175.02V475.452Z" fill="#FFEECC"/>
<path d="M175.013 503.612H138.529L137.979 498.05C165.829 499.411 173.505 495.463 175.013 475.452V503.612Z" fill="#FFDF9F"/>
<path d="M205.908 475.452H108.022C104.6 475.452 101.826 478.226 101.826 481.648V497.416C101.826 500.838 104.6 503.612 108.022 503.612H205.908C209.33 503.612 212.104 500.838 212.104 497.416V481.648C212.104 478.226 209.33 475.452 205.908 475.452Z" stroke="black" stroke-width="5.63899" stroke-miterlimit="10" stroke-linecap="round"/>
<path d="M144.14 475.452V503.612" stroke="black" stroke-width="1.40975" stroke-miterlimit="10"/>
<path d="M168.542 475.452V503.612" stroke="black" stroke-width="1.40975" stroke-miterlimit="10"/>
<path d="M175.02 475.452H138.529V503.612H175.02V475.452Z" stroke="black" stroke-width="5.63899" stroke-miterlimit="10"/>
<path d="M231.467 447.292H133.581C130.159 447.292 127.385 450.066 127.385 453.488V469.256C127.385 472.678 130.159 475.452 133.581 475.452H231.467C234.888 475.452 237.662 472.678 237.662 469.256V453.488C237.662 450.066 234.888 447.292 231.467 447.292Z" fill="#47AD9F"/>
<path d="M231.467 475.452H133.581C131.938 475.452 130.362 474.799 129.2 473.637C128.038 472.475 127.385 470.899 127.385 469.256C166.639 470.532 230.839 472.407 234.617 448.159C237.817 452.558 238.847 459.564 237.662 469.256C237.663 470.07 237.504 470.876 237.193 471.628C236.882 472.38 236.425 473.064 235.85 473.639C235.274 474.215 234.591 474.671 233.839 474.982C233.087 475.293 232.281 475.453 231.467 475.452Z" fill="#419D91"/>
<path d="M140.418 466.888H150.392M150.385 456.723H217.242H150.385ZM134.603 456.723H146.219H134.603ZM209.75 461.806H229.486H209.75ZM138.008 461.806H205.732H138.008ZM218.004 466.888H225.172H218.004ZM153.98 466.888H215.177H153.98Z" stroke="black" stroke-width="1.40975" stroke-miterlimit="10"/>
<path d="M200.579 447.292H164.088V475.452H200.579V447.292Z" fill="#FFEECC"/>
<path d="M200.579 475.452H164.088L163.545 469.89C191.394 471.251 199.071 467.296 200.579 447.292V475.452Z" fill="#FFDF9F"/>
<path d="M231.467 447.292H133.581C130.159 447.292 127.385 450.066 127.385 453.488V469.256C127.385 472.678 130.159 475.452 133.581 475.452H231.467C234.888 475.452 237.662 472.678 237.662 469.256V453.488C237.662 450.066 234.888 447.292 231.467 447.292Z" stroke="black" stroke-width="5.63899" stroke-miterlimit="10" stroke-linecap="round"/>
<path d="M169.705 447.292V475.452" stroke="black" stroke-width="1.40975" stroke-miterlimit="10"/>
<path d="M194.108 447.292V475.452" stroke="black" stroke-width="1.40975" stroke-miterlimit="10"/>
<path d="M200.579 447.292H164.088V475.452H200.579V447.292Z" stroke="black" stroke-width="5.63899" stroke-miterlimit="10"/>
<path d="M220.816 419.125H122.93C119.509 419.125 116.735 421.899 116.735 425.321V441.089C116.735 444.511 119.509 447.285 122.93 447.285H220.816C224.238 447.285 227.012 444.511 227.012 441.089V425.321C227.012 421.899 224.238 419.125 220.816 419.125Z" fill="#47AD9F"/>
<path d="M220.816 447.292H122.93C121.287 447.292 119.711 446.639 118.549 445.477C117.387 444.315 116.735 442.739 116.735 441.096C155.989 442.365 220.189 444.24 223.967 419.992C227.16 424.391 228.196 431.404 227.012 441.096C227.01 442.739 226.357 444.314 225.195 445.475C224.034 446.637 222.459 447.29 220.816 447.292Z" fill="#419D91"/>
<path d="M129.81 438.721H139.777M139.727 428.557H206.585H139.727ZM123.945 428.557H135.569H123.945ZM199.099 433.639H218.835H199.099ZM127.364 433.639H195.088H127.364ZM207.353 438.721H214.529H207.353ZM143.336 438.721H204.526H143.336Z" stroke="black" stroke-width="1.40975" stroke-miterlimit="10"/>
<path d="M189.928 419.125H153.437V447.285H189.928V419.125Z" fill="#FFEECC"/>
<path d="M189.929 447.292H153.437L152.887 441.723C180.744 443.084 188.42 439.137 189.929 419.125V447.292Z" fill="#FFDF9F"/>
<path d="M220.816 419.125H122.93C119.509 419.125 116.735 421.899 116.735 425.321V441.089C116.735 444.511 119.509 447.285 122.93 447.285H220.816C224.238 447.285 227.012 444.511 227.012 441.089V425.321C227.012 421.899 224.238 419.125 220.816 419.125Z" stroke="black" stroke-width="5.63899" stroke-miterlimit="10" stroke-linecap="round"/>
<path d="M159.055 419.125V447.292" stroke="black" stroke-width="1.40975" stroke-miterlimit="10"/>
<path d="M183.451 419.125V447.292" stroke="black" stroke-width="1.40975" stroke-miterlimit="10"/>
<path d="M189.928 419.125H153.437V447.285H189.928V419.125Z" stroke="black" stroke-width="5.63899" stroke-miterlimit="10"/>
<path d="M238.628 388.893H140.742C137.321 388.893 134.547 391.667 134.547 395.089V410.857C134.547 414.279 137.321 417.053 140.742 417.053H238.628C242.05 417.053 244.824 414.279 244.824 410.857V395.089C244.824 391.667 242.05 388.893 238.628 388.893Z" fill="#47AD9F"/>
<path d="M238.628 417.06H140.742C139.1 417.058 137.525 416.405 136.363 415.243C135.202 414.082 134.548 412.507 134.547 410.864C173.801 412.14 238.001 414.008 241.779 389.76C244.979 394.166 246.008 401.172 244.824 410.864C244.824 412.508 244.171 414.083 243.009 415.245C241.847 416.407 240.271 417.06 238.628 417.06Z" fill="#419D91"/>
<path d="M147.558 408.489H157.532M157.547 398.332H224.404H157.547ZM141.764 398.332H153.381H141.764ZM216.911 403.414H236.647H216.911ZM145.169 403.414H212.872H145.169ZM225.144 408.489H232.312H225.144ZM161.12 408.489H222.317H161.12Z" stroke="black" stroke-width="1.40975" stroke-miterlimit="10"/>
<path d="M207.741 388.893H171.249V417.053H207.741V388.893Z" fill="#FFEECC"/>
<path d="M207.74 417.06H171.284L170.742 411.499C198.591 412.852 206.267 408.905 207.776 388.893L207.74 417.06Z" fill="#FFDF9F"/>
<path d="M238.628 388.893H140.742C137.321 388.893 134.547 391.667 134.547 395.089V410.857C134.547 414.279 137.321 417.053 140.742 417.053H238.628C242.05 417.053 244.824 414.279 244.824 410.857V395.089C244.824 391.667 242.05 388.893 238.628 388.893Z" stroke="black" stroke-width="5.63899" stroke-miterlimit="10" stroke-linecap="round"/>
<path d="M176.867 388.893V417.06" stroke="black" stroke-width="1.40975" stroke-miterlimit="10"/>
<path d="M201.27 388.893V417.06" stroke="black" stroke-width="1.40975" stroke-miterlimit="10"/>
<path d="M207.741 388.893H171.249V417.053H207.741V388.893Z" stroke="black" stroke-width="5.63899" stroke-miterlimit="10"/>
<path d="M193.763 492.242C193.925 485.623 207.388 474.19 207.388 474.183C208.093 428.479 218.913 385.002 245.296 369.601L284.466 387.533C274.414 414.91 268.959 485.249 268.317 492.996C267.091 507.256 193.396 506.558 193.763 492.242Z" fill="#FFD167"/>
<path d="M216.932 409.878C217.996 410.16 272.793 440.561 272.152 442.591L266.724 493.525C266.914 495.639 264.8 497.423 262.826 497.423C260.556 497.423 259.119 495.625 258.928 493.525C258.075 484.136 260.338 463.138 261.677 454.848C262.854 447.546 223.804 425.892 221.535 437.283C220.477 442.591 217.616 462.045 216.96 467.452C218.525 467.388 231.488 471.237 233.877 484.658C220.731 470.666 210.863 476.234 210.088 475.91C204.85 459.62 210.842 434.788 216.932 409.878Z" fill="#8B5612"/>
<path d="M193.763 492.242C193.925 485.623 207.388 474.19 207.388 474.183C208.093 428.479 218.913 385.002 245.296 369.601L284.466 387.533C274.414 414.91 268.959 485.249 268.317 492.996C267.091 507.256 193.396 506.558 193.763 492.242Z" stroke="black" stroke-width="7.04873" stroke-linecap="round" stroke-linejoin="round"/>
<path d="M420.154 492.242C419.985 485.623 406.522 474.19 406.522 474.183C405.824 428.493 394.997 385.002 368.649 369.601L329.479 387.533C339.531 414.91 344.986 485.249 345.628 492.996C346.798 507.256 420.514 506.558 420.154 492.242Z" fill="#FFD167"/>
<path d="M369.234 457.456C369.672 458.109 370.142 458.74 370.644 459.346C372.669 461.672 375.386 463.287 378.397 463.955C379.387 464.209 380.422 464.23 381.421 464.019C382.493 463.671 383.49 463.126 384.361 462.412C387.074 460.473 390.267 458.57 393.524 459.219C397.048 459.924 399.304 463.307 402.067 465.633C402.655 466.225 403.429 466.595 404.259 466.683C408.404 466.747 404.259 450.351 403.716 447.941C402.081 440.547 400.023 433.209 399.24 425.653C398.923 422.544 398.395 419.111 395.963 417.152C393.848 415.467 390.972 415.361 388.301 415.481C374.429 416.123 348.955 422.481 343.506 437.48C342.739 439.783 342.437 442.214 342.617 444.634C342.798 447.054 343.457 449.415 344.556 451.578C345.966 454.129 348.68 456.174 351.605 455.913C355.447 455.567 358.372 451.458 362.221 451.74C364.166 451.888 365.858 453.15 367.119 454.665C367.944 455.539 368.564 456.505 369.234 457.456Z" fill="#C1831D"/>
<path d="M399.142 429.001C398.035 429.05 341.991 446.58 342.639 448.61C346.706 461.34 348.187 480.21 346.988 493.525C346.798 495.639 348.913 497.423 350.886 497.423C353.149 497.423 354.594 495.625 354.784 493.525C355.63 484.136 355.856 476.537 354.524 468.248C353.954 464.681 354.555 461.026 356.238 457.83C357.92 454.634 360.593 452.069 363.856 450.521C375.642 444.952 392.594 441.505 394.377 451.31C395.343 456.625 396.09 462.045 396.745 467.452C395.188 467.388 382.218 471.237 379.828 484.658C392.967 470.666 403.167 476.615 403.618 475.91C404.069 475.205 399.346 428.994 399.142 429.001Z" fill="#8B5612"/>
<path d="M420.154 492.242C419.985 485.623 406.522 474.19 406.522 474.183C405.824 428.493 394.997 385.002 368.649 369.601L329.479 387.533C339.531 414.91 344.986 485.249 345.628 492.996C346.798 507.256 420.514 506.558 420.154 492.242Z" stroke="black" stroke-width="7.04873" stroke-miterlimit="10" stroke-linecap="round"/>
<path d="M485.2 323.234C483.165 323.864 481.408 325.173 480.223 326.942C479.131 328.723 478.312 330.657 477.791 332.68C476.607 336.754 475.916 341.138 473.978 345.572C472.972 347.921 471.551 350.07 469.784 351.916C467.857 353.866 465.532 355.379 462.968 356.349C461.719 356.83 460.435 357.211 459.126 357.491L457.202 357.816C456.547 357.942 455.933 357.949 455.292 358.02C454.04 358.13 452.784 358.177 451.528 358.161C450.287 358.161 449.082 358.055 447.848 357.999L449.85 346.897C450.774 347.137 451.711 347.44 452.635 347.644C453.539 347.86 454.454 348.029 455.376 348.152C455.82 348.201 456.3 348.307 456.73 348.314L458.055 348.391C458.904 348.402 459.752 348.348 460.593 348.229C462.226 348.017 463.795 347.452 465.188 346.573C466.703 345.558 468.017 344.273 469.065 342.781C471.405 339.616 473.062 335.527 475.183 331.573C476.226 329.532 477.563 327.656 479.152 326.005C480.795 324.421 482.928 323.444 485.2 323.234Z" fill="black"/>
<path d="M482.789 313.712C477.249 317.786 475.035 324.228 477.897 328.091C480.759 331.954 487.54 331.792 493.087 327.717C498.635 323.643 497.979 313.331 497.979 313.331C497.979 313.331 488.336 309.63 482.789 313.712Z" fill="black"/>
<path d="M132.418 208.721C146.515 201.496 169.677 211.117 179.017 229.261C180.821 232.785 249.356 228.281 249.504 265.259C249.582 290.105 221.641 291.797 190.112 289.26C167.675 287.455 137.5 274.373 124.861 248.158C116.579 232.045 121.838 214.141 132.418 208.721Z" fill="#FFD167"/>
<path d="M166.399 203.625L175.112 203.31C176.065 203.275 176.993 203.621 177.691 204.27C178.389 204.92 178.8 205.82 178.835 206.772L179.679 230.131L163.781 230.705L162.935 207.319C162.908 206.371 163.257 205.45 163.906 204.758C164.555 204.066 165.451 203.659 166.399 203.625Z" fill="#FFD167"/>
<path d="M167.908 263.63C170.657 267.704 172.609 272.568 176.93 274.76C180.123 276.388 183.937 276.17 187.503 275.571C193.072 274.683 198.591 273.09 204.237 273.238C209.883 273.386 214.19 287.011 196.892 289.908C183.743 289.718 170.801 286.603 159.005 280.787C154.212 278.397 145.112 274.478 142.138 269.847C139.487 265.71 147.601 259.112 151.562 257.681C153.659 256.904 155.915 256.659 158.13 256.969C160.344 257.279 162.447 258.134 164.25 259.457C165.68 260.648 166.914 262.057 167.908 263.63Z" fill="#C1831D"/>
<path d="M208.896 277.481C209.538 274.02 204.85 270.038 199.733 275.62C191.634 285.883 142.638 281.224 124.382 231.643C124.382 231.643 121.034 236.013 121.823 240.976C125.862 266.175 182.224 304.527 199.359 283.522C185.128 309.186 207.233 286.292 208.896 277.481Z" fill="#8B5612"/>
<path d="M179.665 229.719L178.996 211.152C178.919 209.045 178.008 207.054 176.464 205.617C174.919 204.181 172.867 203.417 170.759 203.494C168.652 203.571 166.66 204.482 165.224 206.026C163.788 207.571 163.024 209.623 163.101 211.73V212.435C152.958 206.204 140.996 204.336 132.397 208.742C121.823 214.162 116.558 232.066 124.812 248.215C137.451 274.429 167.626 287.511 190.062 289.316C221.591 291.853 249.532 290.162 249.455 265.315C249.363 229.958 186.89 232.454 179.665 229.719Z" stroke="black" stroke-width="7.04873" stroke-linecap="round" stroke-linejoin="round"/>
<path d="M238.184 78.4037C238.9 78.1149 239.505 77.6034 239.909 76.9447C240.312 76.286 240.494 75.5149 240.425 74.7454C238.05 52.6406 207.874 49.37 201.749 50.6669C191.268 52.9014 171.94 67.9927 166.238 74.1322C156.235 84.8956 158.858 103.603 172.095 115.903C185.333 128.203 204.174 129.444 214.183 118.673C229.599 102.08 217.165 87.2076 238.184 78.4037Z" fill="#FFD167"/>
<path d="M183.514 61.9591C183.359 62.4525 183.824 62.8332 184.924 63.7213C186.059 64.5245 187.235 65.2679 188.448 65.9487C190.302 67.1611 192.092 68.8175 192.48 70.9956C193.058 74.2239 190.464 77.0505 188.11 79.3343C185.755 81.618 183.253 84.5926 184.057 87.7927C185.29 92.6705 193.03 93.2484 194.587 98.0345C195.363 100.403 194.27 102.969 192.896 105.083C191.521 107.198 189.808 109.101 189.139 111.505C188.661 113.143 188.61 114.877 188.99 116.541C189.37 118.205 190.168 119.744 191.31 121.013C192.72 122.621 197.252 127.414 199.952 126.074C222.747 114.733 265.075 77.3606 221.401 51.6116C216.86 49.3104 211.698 48.539 206.683 49.4124C201.89 50.2371 197.358 52.2812 193.185 54.7412C190.316 56.4329 187.186 58.3149 184.726 60.5917C184.236 60.9631 183.824 61.4279 183.514 61.9591Z" fill="#C1831D"/>
<path d="M238.184 78.4039C238.9 78.1151 239.505 77.6036 239.909 76.9449C240.312 76.2862 240.494 75.5152 240.425 74.7456C238.05 52.6408 211.251 47.4459 201.749 50.6813C191.599 54.121 171.94 68.007 166.238 74.1465C156.235 84.9099 158.858 103.617 172.095 115.917C185.333 128.217 204.174 129.458 214.183 118.687C229.599 102.081 217.165 87.2078 238.184 78.4039Z" stroke="black" stroke-width="7.04873" stroke-linecap="round" stroke-linejoin="round"/>
<path d="M318.102 448.61C390.907 448.61 449.928 397.6 449.928 334.675C449.928 271.75 390.907 220.739 318.102 220.739C245.297 220.739 186.277 271.75 186.277 334.675C186.277 397.6 245.297 448.61 318.102 448.61Z" fill="#FFD167"/>
<path d="M205.823 117.151C207.099 140.743 157.356 188.568 202.355 226.505C287.278 298.085 397.105 223.72 397.105 223.72C397.105 223.72 414.071 154.001 411.484 106.056C408.897 58.1105 360.733 21.7249 303.97 24.7911C247.206 27.8573 203.236 69.2052 205.823 117.151Z" fill="#FFD167"/>
<path d="M426.449 270.038L214.564 264.857C228.492 244.831 255.672 232.221 231.121 206.987L397.105 223.72C398.085 241.97 407.417 246.375 426.449 270.038Z" fill="#FFD167"/>
<path d="M204.216 273.238C209.855 273.379 215.882 275.705 218.539 280.688C219.732 283.072 220.076 285.792 219.516 288.398C218.956 291.004 217.525 293.341 215.459 295.025C212.781 297.098 209.263 297.908 206.662 300.086C201.679 304.252 202.208 313.282 207.642 316.841C209.263 317.899 211.166 318.498 212.745 319.583C217.771 323.009 218.124 331.453 213.408 335.288C210.349 337.769 205.464 338.897 204.717 342.766C204.097 345.945 206.831 348.687 208.002 351.711C210.631 358.577 208.558 369.044 203.772 374.458C201.89 376.572 199.437 378.433 196.632 378.976C176.769 348.723 188.526 303.843 196.893 289.908L204.216 273.238Z" fill="#C1831D"/>
<path d="M445.48 317.99C422.085 393.954 335.28 482.642 223.318 400.432C219.917 397.934 216.849 395.011 214.19 391.734C189.886 361.939 193.629 326.977 200.325 302.92C202.736 294.299 207.247 286.264 208.897 277.453C209.538 273.992 204.851 270.009 199.733 275.592L199.353 283.494C165.342 357.935 210.757 400.341 210.997 400.362C227.061 420.098 247.39 434.252 272.152 442.591C359.57 466.683 460.17 413.797 445.48 317.99Z" fill="#8B5612"/>
<path d="M400.065 423.904C377.573 439.411 349.082 448.575 318.102 448.575C276.684 448.575 239.699 432.053 215.529 406.212C208.184 361.312 231.079 316.749 272.828 300.551C321.19 281.774 376.529 308.143 396.428 359.437C404.502 379.984 405.777 402.579 400.065 423.904Z" fill="#FFAD83"/>
<path opacity="0.4" d="M272.152 442.591C250.179 435.315 230.435 422.534 214.803 405.465C214.563 400.319 214.169 392.566 214.19 391.734C293.516 455.821 360.803 435.676 403.342 390.374C404.047 400.284 403.054 411.407 401.129 423.171C366.597 447.623 317.722 455.152 272.152 442.591Z" fill="#AD70E8"/>
<path d="M271.109 62.7978C273.745 64.8561 277.502 65.6173 279.321 68.3875C280.907 70.7981 280.491 73.956 280.984 76.7966C281.516 79.5514 282.899 82.0697 284.939 83.9958C286.979 85.922 289.573 87.1589 292.354 87.5318C304.28 88.857 314.726 74.0053 326.054 77.9597C328.218 78.7139 330.121 80.1307 332.32 80.7791C338.713 82.5766 345.043 77.2548 348.025 71.2916C348.927 69.5082 349.73 67.5557 351.323 66.3574C354.199 64.1794 358.28 65.3072 361.84 64.7292C369.594 63.5027 373.421 55.016 373.463 47.925C373.486 45.8865 373.085 43.8654 372.286 41.99C353.621 30.0071 329.888 23.4448 304.407 24.8263C292.579 25.444 280.907 27.8074 269.77 31.8398C269.453 32.7933 269.312 33.7964 269.354 34.8003C269.495 38.7405 272.462 42.5539 271.271 46.2756C270.749 47.925 269.495 49.222 268.663 50.7304C267.635 52.7195 267.316 55.0002 267.761 57.1947C268.206 59.3893 269.387 61.3661 271.109 62.7978Z" fill="#C1831D"/>
<path d="M401.778 194.877C399.015 196.386 395.652 194.99 392.523 194.63C390.043 194.383 387.542 194.808 385.282 195.859C383.023 196.911 381.088 198.551 379.68 200.608C377.241 204.273 376.698 208.918 374.464 212.717C370.319 219.766 361.015 222.861 357.681 230.339C355.066 236.183 357.082 243.394 361.466 248.06C365.85 252.726 372.173 255.137 378.517 256.074C382.316 256.638 386.221 256.737 389.873 257.942C392.692 258.88 395.378 260.473 398.331 260.762C403.907 261.318 409.383 256.307 409.32 250.703C398.958 234.385 396.696 215.706 401.778 194.877Z" fill="#C1831D"/>
<path d="M326.166 250.506C318.103 257.611 281.259 263.482 239.115 248.588L210.624 237.719C266.52 281.802 324.813 270.038 330.114 255.595L326.166 250.506Z" fill="#8B5612"/>
<path d="M202.37 280.103C191.913 296.388 186.329 315.322 186.277 334.675C186.277 397.599 245.296 448.61 318.089 448.61C390.881 448.61 449.9 397.599 449.9 334.675C449.9 307.939 439.214 283.374 421.374 263.941C412.048 252.93 405.218 240.785 401.214 232.75C398.498 227.261 397.734 221.01 399.05 215.029C403.442 194.863 413.486 143.739 411.456 106.056C408.869 58.1246 360.705 21.725 303.942 24.7912C247.178 27.8574 203.208 69.1982 205.795 117.13C207.071 140.722 157.328 188.547 202.327 226.484" stroke="black" stroke-width="7.04873" stroke-linecap="round" stroke-linejoin="round"/>
<path d="M202.355 226.505C243.238 260.98 289.943 261.6 327.343 252.98" stroke="black" stroke-width="7.04873" stroke-linecap="round" stroke-linejoin="round"/>
<path d="M297.95 331.799C333.004 323.016 362.002 346.319 393.813 356.286C400.545 357.59 404.767 358.443 404.767 358.443C404.767 358.443 405.091 356.822 405.613 354.129C407.417 336.902 414.431 320.753 416.186 303.075C408.172 305.696 399.747 306.833 391.325 306.43C387.283 306.246 383.26 305.753 379.293 304.957C354.954 300.46 334.886 285.467 311.329 278.552C309.341 295.032 301.122 311.393 298.796 327.71C298.268 330.234 297.95 331.799 297.95 331.799Z" fill="#61DDAE"/>
<path d="M311.399 278.856C316.594 280.089 322.437 282.895 327.675 284.431C324.383 293.7 316.573 293.736 308.234 292.481L311.399 278.856Z" fill="#389686"/>
<path d="M402.553 306.043C407.642 305.521 416.214 303.075 416.214 303.075L413.761 317.123C408.961 317.99 404.703 315.009 402.885 310.977C402.239 309.412 402.122 307.679 402.553 306.043Z" fill="#389686"/>
<path d="M407.537 344.43L404.774 358.443L390.542 355.623C390.706 354.232 391.148 352.888 391.84 351.67C392.533 350.452 393.462 349.385 394.574 348.532C396.933 346.682 399.632 345.312 402.518 344.5C404.175 344.198 405.872 344.174 407.537 344.43Z" fill="#389686"/>
<path d="M300.981 318.744C307.487 318.935 314.79 325.088 309.44 329.74L297.979 331.799L300.981 318.744Z" fill="#389686"/>
<path d="M333.539 287.096C332.901 286.993 332.292 286.752 331.756 286.391C331.373 288.07 330.506 289.599 329.261 290.789C325.426 289.337 317.32 286.708 317.32 286.708C317.32 286.708 314.761 292.967 313.366 296.893L307.078 296.612L306.197 298.092L313.098 298.219L308.107 313.867L301.933 314.212L302.186 315.361C302.186 315.361 306.169 314.727 307.586 315.714C308.023 318.117 306.698 321.557 304.731 324.391C308.77 324.976 316.206 325.8 316.206 325.8V329.889L317.228 330.142L317.412 325.814C341.864 328.57 387.532 348.138 387.532 348.138L385.009 353.241L386.109 353.706C386.109 353.706 387.779 350.027 388.752 348.476C393.186 349.054 399.684 351.296 399.684 351.296L402.694 340.018L408.249 340.384L408.432 339.496L402.835 338.974L407.875 320.288L412.421 322.403L412.788 321.564L408.002 319.449C408.002 319.449 409.539 314.212 408.89 310.61L398.077 312.556L398.289 306.423L397.062 306.48L396.4 313.063C385.453 315.284 348.553 300.954 330.621 291.487C331.979 290.319 332.988 288.8 333.539 287.096ZM405.619 314.713C405.309 324.884 397.161 346.524 397.161 346.524C397.161 346.524 385.883 344.585 380.667 343.042C357.131 336.155 335.52 321.712 309.299 322.213C312.372 311.738 320.027 292.016 320.027 292.016C330.24 290.606 366.436 312.831 391.649 315.622C396.323 316.124 401.05 315.817 405.619 314.713Z" fill="#389686"/>
<path d="M366.901 335.393C364.639 333.441 361.805 331.467 362.573 328.852C366.513 323.213 369.664 333.786 373.851 329.31C375.825 326.491 375.176 322.868 373.76 321.888C360.233 315.643 344.38 330.896 333.377 317.997C331.524 314.607 331.862 309.588 335.034 306.536C339.186 302.067 346.396 300.77 348.68 306.536C350.745 311.125 345.508 309.588 341.906 310.237C337.318 312.302 339.594 318.096 343.415 318.646C353.459 319.315 360.783 311.801 371.046 313.676C381.309 315.551 387.498 329.31 375.874 335.358C374.465 335.995 372.938 336.327 371.391 336.333C369.845 336.339 368.315 336.019 366.901 335.393Z" fill="#389686"/>
<path d="M326.977 309.694C347.538 314.198 364.977 328.401 386.764 331.221" stroke="#389686" stroke-width="1.65645" stroke-miterlimit="10"/>
<path d="M328.182 306.783C348.307 311.583 365.745 325.814 387.758 328.042" stroke="#389686" stroke-width="1.65645" stroke-miterlimit="10"/>
<path d="M297.95 331.799C333.004 323.016 362.002 346.319 393.813 356.286C400.545 357.59 404.767 358.443 404.767 358.443C404.767 358.443 405.091 356.822 405.613 354.129C407.417 336.902 414.431 320.753 416.186 303.075C408.172 305.696 399.747 306.833 391.325 306.43C387.283 306.246 383.26 305.753 379.293 304.957C354.954 300.46 334.886 285.467 311.329 278.552C309.341 295.032 301.122 311.393 298.796 327.71C298.268 330.234 297.95 331.799 297.95 331.799Z" stroke="black" stroke-width="5.63899" stroke-miterlimit="10"/>
<path d="M304.809 362.376C335.118 342.696 370.101 355.327 403.435 354.439C410.229 353.488 414.494 352.924 414.494 352.924C414.494 352.924 414.275 351.281 413.902 348.568C410.018 331.686 411.414 314.142 407.354 296.837C400.624 301.919 393.023 305.729 384.925 308.08C381.041 309.212 377.078 310.051 373.069 310.589C348.588 314.233 324.75 306.557 300.213 307.664C303.674 323.876 301.214 342.033 304.308 358.224C304.604 360.825 304.809 362.376 304.809 362.376Z" fill="#61DDAE"/>
<path d="M300.354 307.96C305.669 307.445 312.104 308.2 317.553 307.96C317.447 317.828 310.074 320.359 301.778 321.881L300.354 307.96Z" fill="#389686"/>
<path d="M395.434 304.083C400.072 301.933 407.417 296.837 407.417 296.837L409.694 310.934C405.464 313.31 400.446 311.9 397.408 308.644C396.267 307.381 395.574 305.779 395.434 304.083Z" fill="#389686"/>
<path d="M412.563 338.77L414.466 352.924L400.094 354.869C399.797 353.5 399.777 352.086 400.036 350.709C400.295 349.333 400.828 348.022 401.602 346.855C403.236 344.34 405.346 342.168 407.812 340.462C409.289 339.634 410.895 339.062 412.563 338.77Z" fill="#389686"/>
<path d="M303.42 349.054C309.637 347.123 318.532 350.548 314.987 356.716C314.987 356.716 308.587 360.283 304.809 362.355L303.42 349.054Z" fill="#389686"/>
<path d="M323.967 308.545C323.33 308.659 322.675 308.63 322.05 308.46C322.235 310.172 321.911 311.901 321.119 313.43C317.024 313.303 308.502 313.43 308.502 313.43C308.502 313.43 308.114 320.175 308.065 324.348L302.024 326.124L301.665 327.795L308.241 325.68L308.601 342.104L302.87 344.43L303.483 345.431C303.483 345.431 307.043 343.549 308.706 344.021C309.891 346.136 309.757 349.843 308.819 353.184C312.83 352.423 320.132 350.809 320.132 350.809L321.444 354.686L322.494 354.587L321.26 350.435C345.318 345.085 394.842 348.772 394.842 348.772L394.137 354.411L395.328 354.488C395.328 354.488 395.716 350.471 396.132 348.694C400.516 347.799 407.375 347.778 407.375 347.778L406.543 336.155L411.907 334.696L411.794 333.8L406.346 335.147L405.049 315.84L410.032 316.348L410.102 315.438L404.893 315.001C404.893 315.001 404.647 309.546 402.863 306.353L393.27 311.696L391.48 305.845L390.338 306.296L391.846 312.739C382.218 318.378 342.66 316.806 322.628 313.669C323.538 312.117 324.002 310.344 323.967 308.545ZM401.115 311.287C404.118 321.007 403.456 344.106 403.456 344.106C403.456 344.106 392.178 345.924 386.722 346.171C362.192 347.27 337.078 340.645 312.435 349.632C311.942 338.727 312.781 317.588 312.781 317.588C321.986 312.95 363.433 322.219 388.202 316.679C392.784 315.635 397.152 313.811 401.115 311.287Z" fill="#389686"/>
<path d="M371.194 343.408C368.424 342.294 365.104 341.35 364.984 338.622C366.866 331.982 373.28 340.983 375.761 335.407C376.706 332.087 374.922 328.887 373.266 328.422C358.464 326.9 348.398 346.474 333.793 337.839C330.974 335.238 329.634 330.382 331.643 326.463C334.124 320.887 340.518 317.299 344.557 322.057C347.996 325.73 342.548 325.976 339.348 327.76C335.675 331.199 339.714 335.936 343.506 335.217C353.226 332.595 357.716 323.107 368.022 321.55C378.327 319.992 388.66 331.002 379.631 340.497C378.507 341.545 377.175 342.347 375.721 342.848C374.268 343.349 372.725 343.54 371.194 343.408Z" fill="#389686"/>
<path d="M325.088 332.052C346.001 329.642 367.112 337.438 388.639 333.032" stroke="#389686" stroke-width="1.65645" stroke-miterlimit="10"/>
<path d="M325.292 328.909C345.882 326.921 366.993 334.71 388.541 329.691" stroke="#389686" stroke-width="1.65645" stroke-miterlimit="10"/>
<path d="M304.809 362.376C335.118 342.696 370.101 355.327 403.435 354.439C410.229 353.488 414.494 352.924 414.494 352.924C414.494 352.924 414.275 351.281 413.902 348.568C410.018 331.686 411.414 314.142 407.354 296.837C400.624 301.919 393.023 305.729 384.925 308.08C381.041 309.212 377.078 310.051 373.069 310.589C348.588 314.233 324.75 306.557 300.213 307.664C303.674 323.876 301.214 342.033 304.308 358.224C304.604 360.825 304.809 362.376 304.809 362.376Z" stroke="black" stroke-width="5.63899" stroke-miterlimit="10"/>
<path d="M323.953 397.817C344.126 367.832 381.266 365.745 411.583 351.866C417.461 348.342 421.162 346.136 421.162 346.136C421.162 346.136 420.323 344.726 418.906 342.358C408.721 328.352 403.131 311.66 392.622 297.337C388.425 304.646 382.931 311.129 376.41 316.468C373.282 319.032 369.964 321.355 366.485 323.418C345.388 336.366 320.45 338.65 298.31 349.272C307.854 362.855 312.696 380.512 321.888 394.194C323.142 396.442 323.953 397.817 323.953 397.817Z" fill="#61DDAE"/>
<path d="M298.521 349.477C303.209 346.911 309.426 345.093 314.346 342.724C318.103 351.817 312.323 357.068 305.288 361.721L298.521 349.477Z" fill="#389686"/>
<path d="M384.459 308.665C387.885 304.873 392.622 297.316 392.622 297.316L400.242 309.398C397.246 313.253 392.107 313.909 388.04 312.105C386.499 311.385 385.24 310.176 384.459 308.665Z" fill="#389686"/>
<path d="M413.846 333.871L421.162 346.136L408.7 353.558C407.892 352.414 407.32 351.12 407.02 349.752C406.72 348.384 406.697 346.97 406.952 345.593C407.47 342.64 408.559 339.817 410.159 337.283C411.189 335.948 412.435 334.794 413.846 333.871Z" fill="#389686"/>
<path d="M317.461 386.102C322.395 381.873 331.946 381.556 331.1 388.618C331.1 388.618 326.61 394.405 323.953 397.817L317.461 386.102Z" fill="#389686"/>
<path d="M320.492 340.786C319.948 341.136 319.335 341.365 318.694 341.455C319.531 342.959 319.911 344.673 319.787 346.389C315.96 347.877 308.178 351.324 308.178 351.324C308.178 351.324 310.462 357.667 312.055 361.537L307.191 365.534L307.522 367.219L312.738 362.693L319.498 377.658L315.142 382.049L316.101 382.754C316.101 382.754 318.638 379.617 320.33 379.406C322.261 380.9 323.579 384.34 324.009 387.766C327.407 385.496 333.497 381.147 333.497 381.147L336.218 384.199L337.148 383.698L334.385 380.364C354.424 366.013 401.432 349.998 401.432 349.998L402.969 355.482L404.097 355.088C404.097 355.088 402.877 351.239 402.56 349.449C406.24 346.911 412.548 344.204 412.548 344.204L407.248 333.815L411.618 330.368L411.16 329.585L406.67 332.969L397.936 315.713L402.722 314.233L402.426 313.366L397.492 315.001C397.492 315.001 395.131 310.067 392.234 307.84L385.502 316.517L381.555 311.823L380.632 312.668L384.544 318.004C377.918 326.991 340.912 341.018 321.253 346.023C321.481 344.24 321.218 342.43 320.492 340.786ZM392.537 313.07C399.106 320.824 407.558 342.351 407.558 342.351C407.558 342.351 397.887 348.448 392.967 350.809C370.827 361.431 345.127 365.181 326.004 383.099C321.274 373.231 313.767 353.495 313.767 353.495C320.421 345.621 362.185 337.91 382.789 323.115C386.593 320.353 389.891 316.955 392.537 313.07Z" fill="#389686"/>
<path d="M377.601 354.354C374.612 354.411 371.186 354.848 370.009 352.388C369.142 345.536 378.566 351.302 378.665 345.198C378.235 341.78 375.338 339.559 373.632 339.749C359.401 344.155 357.822 366.105 341.018 363.877C337.374 362.601 334.265 358.64 334.582 354.256C334.681 348.152 339.164 342.365 344.74 345.142C349.342 347.172 344.422 349.533 342.181 352.423C340.151 357.033 345.705 359.803 348.927 357.66C356.842 351.443 357.251 340.948 366.132 335.478C375.014 330.008 388.822 336.091 384.227 348.363C383.604 349.77 382.692 351.031 381.55 352.063C380.409 353.095 379.063 353.876 377.601 354.354Z" fill="#389686"/>
<path d="M330.734 361.974C349.06 351.556 371.504 350.457 389.576 337.966" stroke="#389686" stroke-width="1.65645" stroke-miterlimit="10"/>
<path d="M329.684 359C347.848 349.096 370.32 347.997 388.188 334.935" stroke="#389686" stroke-width="1.65645" stroke-miterlimit="10"/>
<path d="M323.953 397.817C344.126 367.832 381.266 365.745 411.583 351.866C417.461 348.342 421.162 346.136 421.162 346.136C421.162 346.136 420.323 344.726 418.906 342.358C408.721 328.352 403.131 311.66 392.622 297.337C388.425 304.646 382.931 311.129 376.41 316.468C373.282 319.032 369.964 321.355 366.485 323.418C345.388 336.366 320.45 338.65 298.31 349.272C307.854 362.855 312.696 380.512 321.888 394.194C323.142 396.442 323.953 397.817 323.953 397.817Z" stroke="black" stroke-width="5.63899" stroke-miterlimit="10"/>
<path d="M421.895 266.126C440.729 288.604 441.582 310.61 438.911 326.576C435.548 346.728 419.4 360.487 403.85 357.541C388.301 354.594 378.736 335.95 382.528 315.904C382.929 313.843 383.465 311.811 384.135 309.821C382.02 307.664 369.516 289.936 367.493 287.519L421.895 266.126Z" fill="#FFD167"/>
<path d="M423.453 266.126C442.287 288.604 443.14 310.61 440.468 326.576C437.106 346.7 420.979 360.487 405.408 357.541C389.837 354.594 380.293 335.95 384.085 315.904C384.486 313.843 385.023 311.811 385.693 309.821C383.578 307.664 381.463 305.387 379.461 302.969C369.636 291.233 361.649 280.28 358.062 270.151M391.367 300.862C388.103 304.309 385.848 308.08 384.945 312.274" stroke="black" stroke-width="7.04873" stroke-linecap="round" stroke-linejoin="round"/>
<path d="M380.054 97.8088C379.456 97.3187 379.031 96.6493 378.841 95.8992C378.652 95.1492 378.709 94.3583 379.004 93.643C387.85 73.2511 416.996 80.7368 422.459 83.8101C431.799 89.0614 446.425 107.578 450.013 115.135C456.356 128.393 448.293 145.444 431.989 153.275C415.685 161.106 397.33 156.652 390.979 143.407C381.203 122.966 397.5 112.47 380.054 97.8088Z" fill="#FFD167"/>
<path d="M386.588 99.0988C386.637 98.9236 386.708 98.7554 386.8 98.5984C388.364 95.941 395.004 95.7014 397.373 96.9631C400.333 98.5702 401.496 102.271 401.602 105.64C401.708 109.009 401.024 112.414 401.545 115.741C402.067 119.068 404.259 122.529 407.607 122.952C413.141 123.657 417.222 115.995 422.727 116.904C427.753 117.729 429.155 124.813 433.779 126.948C435.016 127.497 436.391 127.657 437.721 127.405C439.051 127.153 440.272 126.502 441.223 125.539C442.548 124.129 443.168 122.226 444.042 120.506C444.916 118.786 446.312 117.08 448.229 116.812C452.599 116.185 452.381 124.242 452.543 126.864C449.857 161.001 402.405 161.121 398.536 153.649C389.795 143.471 387.025 131.742 387.455 118.659C387.603 114.07 388.16 109.369 387.54 104.794C387.314 103.187 386.151 100.727 386.588 99.0988Z" fill="#C1831D"/>
<path d="M386.454 105.337C402.476 107.191 394.723 139.115 406.494 145.881C428.69 158.766 453.248 124.566 447.228 109.933C467.62 141.842 417.92 169.565 398.818 152.38C381.802 143.02 391.388 114.691 386.454 105.337Z" fill="#8B5612"/>
<path d="M396.019 78.3896C404.971 76.1763 415.051 78.9042 422.459 83.8101C431.404 89.7099 446.425 107.578 450.012 115.135C456.356 128.393 448.292 145.444 431.989 153.275C415.685 161.107 397.33 156.652 390.979 143.407C381.203 122.966 397.499 112.484 380.054 97.823" stroke="black" stroke-width="7.04873" stroke-linecap="round" stroke-linejoin="round"/>
<path d="M220.689 193.58C234.836 193.58 246.304 182.112 246.304 167.965C246.304 153.818 234.836 142.35 220.689 142.35C206.542 142.35 195.074 153.818 195.074 167.965C195.074 182.112 206.542 193.58 220.689 193.58Z" fill="#FFAD83"/>
<path d="M286.87 167.965C299.023 167.965 308.876 160.208 308.876 150.639C308.876 141.07 299.023 133.313 286.87 133.313C274.716 133.313 264.864 141.07 264.864 150.639C264.864 160.208 274.716 167.965 286.87 167.965Z" fill="#FFAD83"/>
<path d="M359.14 200.001C373.287 200.001 384.755 188.533 384.755 174.386C384.755 160.24 373.287 148.771 359.14 148.771C344.993 148.771 333.525 160.24 333.525 174.386C333.525 188.533 344.993 200.001 359.14 200.001Z" fill="#FFAD83"/>
<path d="M245.818 133.243C254.721 133.243 261.938 126.025 261.938 117.122C261.938 108.219 254.721 101.002 245.818 101.002C236.915 101.002 229.697 108.219 229.697 117.122C229.697 126.025 236.915 133.243 245.818 133.243Z" fill="black"/>
<path d="M253.459 111.801C255.035 111.801 256.313 110.523 256.313 108.946C256.313 107.369 255.035 106.091 253.459 106.091C251.882 106.091 250.604 107.369 250.604 108.946C250.604 110.523 251.882 111.801 253.459 111.801Z" fill="white"/>
<path d="M245.889 117.63C246.243 117.63 246.53 117.343 246.53 116.988C246.53 116.634 246.243 116.347 245.889 116.347C245.534 116.347 245.247 116.634 245.247 116.988C245.247 117.343 245.534 117.63 245.889 117.63Z" fill="white"/>
<path d="M325.877 138.339C334.78 138.339 341.998 131.122 341.998 122.219C341.998 113.316 334.78 106.098 325.877 106.098C316.974 106.098 309.757 113.316 309.757 122.219C309.757 131.122 316.974 138.339 325.877 138.339Z" fill="black"/>
<path d="M333.518 116.89C335.095 116.89 336.373 115.612 336.373 114.035C336.373 112.458 335.095 111.18 333.518 111.18C331.941 111.18 330.663 112.458 330.663 114.035C330.663 115.612 331.941 116.89 333.518 116.89Z" fill="white"/>
<path d="M325.948 122.726C326.302 122.726 326.589 122.439 326.589 122.085C326.589 121.73 326.302 121.443 325.948 121.443C325.594 121.443 325.306 121.73 325.306 122.085C325.306 122.439 325.594 122.726 325.948 122.726Z" fill="white"/>
<mask id="mask2_87_505" style="mask-type:alpha" maskUnits="userSpaceOnUse" x="245" y="4" width="29" height="48">
<path d="M272.842 43.1812C269.396 50.23 259.309 53.5711 251.118 50.378C250.397 50.0807 249.774 49.5867 249.32 48.9523C248.867 48.3178 248.601 47.5686 248.552 46.7902L245.296 4.82202L272.307 38.6982C272.81 39.3186 273.128 40.0689 273.223 40.8623C273.318 41.6557 273.186 42.4597 272.842 43.1812Z" fill="#49371F"/>
</mask>
<g mask="url(#mask2_87_505)">
<path d="M272.842 43.1812C269.396 50.23 259.309 53.5711 251.118 50.378C250.397 50.0807 249.774 49.5867 249.32 48.9523C248.867 48.3178 248.601 47.5686 248.552 46.7902L245.296 4.82202L272.307 38.6982C272.81 39.3186 273.128 40.0689 273.223 40.8623C273.318 41.6557 273.186 42.4597 272.842 43.1812Z" fill="#49371F"/>
<path d="M251.739 2.30566C250.618 10.3906 247.7 16.6357 243.485 21.5699" stroke="#5B462C" stroke-width="3.66534" stroke-miterlimit="10"/>
<path d="M257.914 8.21252C257.293 17.9468 251.006 26.9692 243.245 35.8083" stroke="#5B462C" stroke-width="3.66534" stroke-miterlimit="10"/>
<path d="M265.033 10.7289C262.967 23.3532 255.503 35.6955 245.733 47.9039" stroke="#5B462C" stroke-width="3.66534" stroke-miterlimit="10"/>
<path d="M268.726 25.4961C265.096 34.5749 258.724 47.9604 251.266 53.2329" stroke="#5B462C" stroke-width="3.66534" stroke-miterlimit="10"/>
<path d="M276.6 27.9348C274.238 38.5079 268.325 51.4635 260.867 56.7359" stroke="#5B462C" stroke-width="3.66534" stroke-miterlimit="10"/>
</g>
<path d="M272.842 43.1812C269.396 50.23 259.309 53.5711 251.118 50.378C250.397 50.0807 249.774 49.5867 249.32 48.9523C248.867 48.3178 248.601 47.5686 248.552 46.7902L245.296 4.82202L272.307 38.6982C272.81 39.3186 273.128 40.0689 273.223 40.8623C273.318 41.6557 273.186 42.4597 272.842 43.1812V43.1812Z" stroke="black" stroke-width="7.04873" stroke-linecap="round" stroke-linejoin="round"/>
<mask id="mask3_87_505" style="mask-type:alpha" maskUnits="userSpaceOnUse" x="351" y="14" width="33" height="47">
<path d="M370.235 59.781C362.552 61.3528 353.741 55.4178 351.267 46.9734C351.061 46.2198 351.071 45.4234 351.297 44.6754C351.522 43.9274 351.954 43.2581 352.542 42.7442L383.754 14.507L373.456 56.6161C373.273 57.3941 372.873 58.1043 372.303 58.6645C371.733 59.2246 371.016 59.6117 370.235 59.781Z" fill="#49371F"/>
</mask>
<g mask="url(#mask3_87_505)">
<path d="M370.235 59.781C362.552 61.3528 353.741 55.4178 351.267 46.9734C351.061 46.2198 351.071 45.4234 351.297 44.6754C351.522 43.9274 351.954 43.2581 352.542 42.7442L383.754 14.507L373.456 56.6161C373.273 57.3941 372.873 58.1043 372.303 58.6645C371.733 59.2246 371.016 59.6117 370.235 59.781Z" fill="#49371F"/>
<path d="M389.704 18.1019C382.655 22.1549 375.888 23.6563 369.41 23.3391" stroke="#5B462C" stroke-width="3.66534" stroke-miterlimit="10"/>
<path d="M388.801 26.6027C380.717 32.0584 369.735 32.587 357.991 31.8399" stroke="#5B462C" stroke-width="3.66534" stroke-miterlimit="10"/>
<path d="M391.163 33.764C379.927 39.8541 365.569 41.5176 349.935 41.2005" stroke="#5B462C" stroke-width="3.66534" stroke-miterlimit="10"/>
<path d="M381.717 45.7471C372.321 48.4185 357.829 51.5482 349.096 48.8697" stroke="#5B462C" stroke-width="3.66534" stroke-miterlimit="10"/>
<path d="M384.6 53.4442C374.809 58.0118 360.895 61.2542 352.183 58.5757" stroke="#5B462C" stroke-width="3.66534" stroke-miterlimit="10"/>
</g>
<path d="M370.235 59.781C362.552 61.3528 353.741 55.4178 351.267 46.9734C351.061 46.2198 351.071 45.4234 351.297 44.6754C351.522 43.9274 351.954 43.2581 352.542 42.7442L383.754 14.507L373.456 56.6161C373.273 57.3941 372.873 58.1043 372.303 58.6645C371.733 59.2246 371.016 59.6117 370.235 59.781V59.781Z" stroke="black" stroke-width="7.04873" stroke-linecap="round" stroke-linejoin="round"/>
<path d="M320.788 188.406C325.306 208.812 293.918 223.051 275.592 208.389M313.669 183.902C319.472 186.388 324.031 186.388 327.343 183.902M268.98 212.872C274.722 210.264 277.793 206.897 278.193 202.772L268.98 212.872Z" stroke="black" stroke-width="7.04873" stroke-linecap="round" stroke-linejoin="round"/>
</g>
<defs>
<clipPath id="clip0_87_505">
<rect width="498" height="520" fill="white"/>
</clipPath>
</defs>
</svg>
