<svg width="169" height="160" viewBox="0 0 169 160" fill="none" xmlns="http://www.w3.org/2000/svg">
<path d="M84.1167 37.9421L110.11 -3.05176e-05L108.838 45.9737L152.168 30.5573L124.116 67.0033L168.233 80.0005L124.116 92.9966L152.168 129.443L108.838 114.026L110.11 160L84.1167 122.059L58.1234 160L59.3956 114.026L16.0651 129.443L44.1164 92.9966L0 80.0005L44.1164 67.0033L16.0651 30.5573L59.3956 45.9737L58.1234 -3.05176e-05L84.1167 37.9421Z" fill="#F2BD0C"/>
<path d="M121.157 80.0005L154.57 102.893L114.083 101.772L127.66 139.932L95.5623 115.227L84.1168 154.08L72.6703 115.227L40.5734 139.932L54.1506 101.772L13.6621 102.893L47.0765 80.0005L13.6621 57.1085L54.1506 58.2284L40.5734 20.0683L72.6703 44.7732L84.1168 5.92004L95.5623 44.7732L127.66 20.0683L114.083 58.2284L154.57 57.1085L121.157 80.0005Z" fill="#F6F158"/>
<path d="M121.56 80.0005C121.56 100.68 104.796 117.444 84.1167 117.444C63.4371 117.444 46.6729 100.68 46.6729 80.0005C46.6729 59.3209 63.4371 42.5557 84.1167 42.5557C104.796 42.5557 121.56 59.3209 121.56 80.0005Z" fill="#F2BD0C"/>
<path d="M104.592 48.6493C108.444 54.5339 110.685 61.5677 110.685 69.125C110.685 89.8046 93.9218 106.569 73.2412 106.569C65.6838 106.569 58.6501 104.327 52.7654 100.476C59.4521 110.693 70.9945 117.444 84.1167 117.444C104.796 117.444 121.561 100.68 121.561 80.0005C121.561 66.8783 114.809 55.336 104.592 48.6493Z" fill="#EFAB0E"/>
<path d="M79.0381 74.1592C69.8737 82.1736 58.066 83.6637 52.6655 77.4874C47.2651 71.3122 50.3169 59.8092 59.4824 51.7948C68.6469 43.7804 80.4546 42.2904 85.855 48.4666C91.2554 54.6418 88.2036 66.1458 79.0381 74.1592Z" fill="#F1CC0B"/>
</svg>
