<svg id="Слой_1" data-name="Слой 1" xmlns="http://www.w3.org/2000/svg" xmlns:xlink="http://www.w3.org/1999/xlink" viewBox="0 0 1440 1492"><defs><style>.cls-1{fill:#67f6c0;}.cls-2{fill:#fff;}.cls-3{mask:url(#mask);}.cls-4{fill:url(#Безымянный_градиент);}.cls-5{fill:none;}.cls-6{fill:url(#Безымянный_градиент_5);}.cls-7{mask:url(#mask-2);}.cls-8{fill:#306d39;}.cls-9{mask:url(#mask-6);}.cls-10{fill:url(#Безымянный_градиент_6);}.cls-11{mask:url(#mask-7);}.cls-12{fill:#2e6467;}</style><mask id="mask" x="0" y="0" width="1446.4" height="1492" maskUnits="userSpaceOnUse"><g id="mask0_35_84125" data-name="mask0 35 84125"><path class="cls-1" d="M0,64.59S385.5,0,720,0s720,64.59,720,64.59V1492H0Z"/></g></mask><linearGradient id="Безымянный_градиент" x1="720" y1="-91.67" x2="720" y2="1419.02" gradientTransform="matrix(1, 0, 0, -1, 0, 1492)" gradientUnits="userSpaceOnUse"><stop offset="0" stop-color="#a6dd82"/><stop offset="1" stop-color="#67f6c0"/></linearGradient><linearGradient id="Безымянный_градиент_5" x1="1498.6" y1="1272.47" x2="1242.65" y2="1233.76" gradientTransform="matrix(1, 0, 0, -1, 0, 1492)" gradientUnits="userSpaceOnUse"><stop offset="0" stop-color="#3eb741"/><stop offset="1" stop-color="#6ac755"/></linearGradient><mask id="mask-2" x="1264.61" y="175.78" width="201" height="129" maskUnits="userSpaceOnUse"><g id="path-8-outside-1_35_84125" data-name="path-8-outside-1 35 84125"><rect class="cls-2" x="1264.61" y="175.78" width="201" height="129"/><path d="M1282.58,252c-4,4.26-8.23,8.72-10,14.32s-.4,12.68,4.7,15.61c5.34,3.06,12,.55,17.62-2-2.39,5.23-.15,11.19,4.5,14.57,13.3,9.63,33.55,7.9,45-3.83,2.95,3.91,7.75,5.32,12.65,5.2a15.72,15.72,0,0,0,12.42-6.79c4.82,5.34,12.41,6.39,19.54,5.42a22.61,22.61,0,0,0,16.89-12c5.19,1.75,10.18,3.43,15.53,2.23s10.12-6.61,8.57-11.86c6.34,2.26,13-.4,18.1-4.77s8.31-10.58,10.49-16.94c3.09-9,4.34-19.15.43-27.8s-14.2-14.83-23.15-11.65c-1-8.8-8-16.81-15.61-21.23a28.76,28.76,0,0,0-25.56-1.39A23.8,23.8,0,0,0,1373.3,180a22.93,22.93,0,0,0-17.88,14.12c-4.34-5.8-14.77-7.12-22-7.06a23.58,23.58,0,0,0-18.64,9.59c-.13-.4-.25-.8-.38-1.2-1.75-5.51-11.11-2.85-16.45-.65a15,15,0,0,0-9.07,13.6c-9.51,1.06-17.42,9.52-19,19s4.05,20.58,12.71,24.65"/></g></mask><mask id="mask-6" x="1146.11" y="76.18" width="163" height="128" maskUnits="userSpaceOnUse"><g id="path-11-outside-2_35_84125" data-name="path-11-outside-2 35 84125"><rect class="cls-2" x="1146.11" y="76.18" width="163" height="128"/><path d="M1168.1,87.93a44.64,44.64,0,0,0-18,36c.05,4,.73,8.22,3.08,11.48s6.74,5.33,10.54,4a28.26,28.26,0,0,0,5.61,29.88c7.56,8.05,19,11.91,30,11.41s21.65-5,30.52-11.64c-.21,6.7,3.39,11.94,9.18,15.31a19.14,19.14,0,0,0,19.17-.19c2,7.87,7.09,13.15,15.08,14.65a25.82,25.82,0,0,0,22.33-7.16,31.34,31.34,0,0,0,8.95-22c.22-29.5-27.94-53.76-53.58-68.35s-59.12-30.78-82.93-13.36"/></g></mask><linearGradient id="Безымянный_градиент_6" x1="1578.89" y1="1446.62" x2="1174.52" y2="1382.09" xlink:href="#Безымянный_градиент_5"/><mask id="mask-7" x="1095" y="4.94" width="446" height="184" maskUnits="userSpaceOnUse"><g id="path-13-outside-3_35_84125" data-name="path-13-outside-3 35 84125"><rect class="cls-2" x="1095" y="4.94" width="446" height="184"/><path d="M1536.14,9V123.13c-6.86,8.23-17.35,13.12-28.05,14-11.06,1-20.54,1.39-30.23-4-.24-.74-.48-1.49-.71-2.23a18.27,18.27,0,0,1,.56,4.16,21,21,0,0,1-5.63,14.68,18.48,18.48,0,0,1-3.72,3.09c-7.13,4.47-15.76,6.06-22.19.62a50.21,50.21,0,0,1-10,15.09,52.29,52.29,0,0,1-29.12,15.73,48.83,48.83,0,0,1-17.93-.36h0a49.38,49.38,0,0,1-11.85-4,51.58,51.58,0,0,1-16-12.1A21.6,21.6,0,0,1,1344.9,177c-6.49.33-14.15-1.66-18.35-6.62-6.23,7-15.16,10.76-24.57,11.89a55.56,55.56,0,0,1-16.74-.57c-9.59-1.77-19.1-5.85-25.47-13.25s-7.67-16.89-3.28-25.62a19.91,19.91,0,0,1-20.77-3c-5.59-4.82-8-14-6-21.06a20.1,20.1,0,0,1-18.92,6.33c-6.82-1.45-12.11-5-14.16-11.61a50.47,50.47,0,0,1-45.44.32,46.56,46.56,0,0,1-4.59-2.64c-6-3.89-11.23-9.44-12.87-16.36s1.14-15.92,7.72-18.64a13,13,0,0,1-8.43-9.47c-.83-3.93-.43-8.73,2.09-11.83-5.46,5.38-14.61,6.34-21.54,2.89-7.28-3.64-12-11.36-13.24-19.39s.76-16.32,4.27-23.66a29.27,29.27,0,0,1,3.58-5.7h427.93"/></g></mask></defs><g class="cls-3"><path class="cls-4" d="M1440,64.58C1438.72,64.37,1054,0,720,0,385.5,0,0,64.59,0,64.59V1492H1440V64.58Z"/><rect class="cls-5" x="1431.4" y="77.33" width="1.46" height="1.46"/><path class="cls-6" d="M1442.84,271.65c-.95-9.3-.36-18.66.65-28,1.14-10.56,1.39-21.25,2.91-31.77a15.82,15.82,0,0,0-10.52-.12c-1-8.8-8-16.81-15.61-21.23a28.8,28.8,0,0,0-25.56-1.4A23.82,23.82,0,0,0,1373.3,180a22.93,22.93,0,0,0-17.88,14.12c-4.34-5.8-14.77-7.12-22-7.06a23.58,23.58,0,0,0-18.64,9.59c-.13-.4-.25-.8-.38-1.2-1.75-5.51-11.11-2.85-16.45-.65a15,15,0,0,0-9.07,13.6c-9.51,1.06-17.42,9.52-19,19s4.05,20.58,12.71,24.65c-4,4.26-8.23,8.72-10,14.32s-.4,12.68,4.7,15.61c5.34,3.06,12,.55,17.62-2-2.39,5.23-.15,11.2,4.5,14.57,13.3,9.63,33.55,7.9,45-3.83,2.95,3.91,7.75,5.32,12.65,5.2a15.72,15.72,0,0,0,12.42-6.79c4.82,5.34,12.41,6.39,19.54,5.42a22.61,22.61,0,0,0,16.89-12c5.19,1.75,10.18,3.43,15.53,2.23s10.12-6.61,8.57-11.86C1434.34,274.42,1438.81,273.67,1442.84,271.65Z"/><g class="cls-7"><polygon points="1347.61 288.31 1344.81 284.59 1341.55 287.92 1344.41 290.72 1347.61 288.31"/></g><g class="cls-7"><polygon points="1391.5 191.49 1393.41 194.03 1396.32 192.76 1394.71 189.09 1391.5 191.49"/></g><g class="cls-7"><polygon points="1431.35 269.11 1423.95 266.48 1426.18 274.01 1430.01 272.88 1431.35 269.11"/></g><g class="cls-7"><path d="M1442.5,267.26c-3.75,2.3-7.67,3.09-11.15,1.85l-1.34,3.77-3.83,1.13a4.38,4.38,0,0,1-1,3.87,8.33,8.33,0,0,1-4.59,2.95c-4.07.92-8-.3-13.37-2.11l-3.29-1.11-1.56,3.1a18.64,18.64,0,0,1-13.86,9.88c-6.6.89-12.52-.24-16-4.14l-3.43-3.79-2.86,4.23,3.32,2.24h0l-3.32-2.24a11.69,11.69,0,0,1-9.2,5c-4.18.1-7.47-1.11-9.35-3.61l-3.2,2.41-2.86-2.8c-10.09,10.32-28.12,11.85-39.81,3.39h0c-3.45-2.51-4.64-6.54-3.21-9.67l-3.64-1.66h0l3.64,1.66,4.43-9.71-9.72,4.4a36,36,0,0,1-8,2.81,8.57,8.57,0,0,1-6-.64l-2,3.47,2-3.47c-2.87-1.65-4.34-6.37-2.89-10.93s4.93-8.4,9.1-12.77l-2.9-2.76,1.7-3.62a18.77,18.77,0,0,1-8.33-8.51,19.64,19.64,0,0,1-2.13-11.86h0c1.31-7.92,8-14.81,15.49-15.64l3.57-.4,0-3.6a11,11,0,0,1,6.59-9.88l-1.47-3.59,1.47,3.59a30.1,30.1,0,0,1,8.36-2.28,6,6,0,0,1,2.51.2c.21.08.21.11.24.22h0c.13.4.25.8.38,1.2l3.82-1.19h0l-3.82,1.19,2.38,7.61L1318,199a19.61,19.61,0,0,1,15.44-7.94,44,44,0,0,1,11.07,1.21c3.71,1,6.35,2.42,7.72,4.25l4.33,5.78,2.6-6.73A18.92,18.92,0,0,1,1373.84,184a19.79,19.79,0,0,1,17.66,7.5l3.21-2.4,1.61,3.67a24.83,24.83,0,0,1,22,1.19h0c7,4,12.85,11.11,13.64,18.21l.56,5,4.76-1.69-1.35-3.77h0l1.34,3.77a12.12,12.12,0,0,1,8.64.41c.29-2.54.64-5.08,1.08-7.6,0-.16.06-.31.09-.47A20.68,20.68,0,0,0,1439,207c-2.57-8.6-9.54-15.8-16.7-19.94l-2.69,4.67,2.69-4.67a32.85,32.85,0,0,0-26.36-2.65,27.86,27.86,0,0,0-23.16-8.31h0a27,27,0,0,0-18.49,11.72,27.11,27.11,0,0,0-7.76-3.24,52.53,52.53,0,0,0-13.13-1.46,27.66,27.66,0,0,0-18.07,7.07,8.56,8.56,0,0,0-2-1.12,13.74,13.74,0,0,0-6.14-.77,38,38,0,0,0-10.78,2.86h0a19.07,19.07,0,0,0-11.23,14c-10,2.62-17.6,11.75-19.25,21.66l3.91.65-3.91-.65a27.63,27.63,0,0,0,2.9,16.81,28.26,28.26,0,0,0,7.55,9.29c-3.06,3.43-6.08,7.46-7.62,12.31-2.12,6.64-.81,16.08,6.52,20.29h0a16.53,16.53,0,0,0,11.43,1.57,28.29,28.29,0,0,0,3.32-.84,17.13,17.13,0,0,0,7,11.61l2.35-3.23-2.35,3.24c13.81,10,34.11,9.08,47.25-1.58a20.38,20.38,0,0,0,12.86,3.71,19.76,19.76,0,0,0,12.7-5.17c5.86,4.1,13.32,4.63,19.69,3.77a26.68,26.68,0,0,0,18.14-11.21c4.34,1.37,9.3,2.53,14.62,1.33a16.31,16.31,0,0,0,9.16-5.87,13.59,13.59,0,0,0,2.5-5.1,21.17,21.17,0,0,0,9.4-1.86A84.79,84.79,0,0,1,1442.5,267.26Z"/></g><polygon points="1277.27 281.97 1279.27 278.5 1279.27 278.5 1277.27 281.97"/><polygon points="1299.39 294.55 1297.05 297.79 1297.05 297.79 1299.39 294.55"/><polygon points="1421.44 284.74 1420.56 280.83 1420.56 280.83 1421.44 284.74"/><polygon points="1420.27 190.49 1422.27 187.02 1422.27 187.02 1420.27 190.49"/><polygon points="1373.3 180.03 1373.84 183.99 1373.84 183.99 1373.3 180.03"/><polygon points="1333.4 187.09 1333.43 191.09 1333.43 191.09 1333.4 187.09"/><polygon points="1314.38 195.48 1318.19 194.27 1318.2 194.28 1318.2 194.28 1314.38 195.48"/><polygon points="1297.93 194.83 1299.45 198.53 1299.45 198.53 1297.93 194.83"/><polygon points="1269.87 227.39 1265.93 226.74 1265.93 226.74 1269.87 227.39"/><path class="cls-8" d="M1441.55,132.94c0-3.64-.07-7.24,0-10.83a70.24,70.24,0,0,0-13.24,25.56,19.55,19.55,0,0,0,7,20.27c.29.22.58.42.88.61a18.77,18.77,0,0,0,5.45,2.42C1440.08,158.5,1441.71,145.3,1441.55,132.94Z"/><path class="cls-8" d="M1168.1,87.93a44.64,44.64,0,0,0-18,36c.05,4,.73,8.22,3.08,11.48s6.74,5.33,10.54,4a28.26,28.26,0,0,0,5.61,29.88c7.56,8.05,19,11.91,30,11.41s21.65-5,30.52-11.64c-.21,6.7,3.39,11.94,9.18,15.31a19.14,19.14,0,0,0,19.17-.19c2,7.87,7.09,13.15,15.08,14.65a25.82,25.82,0,0,0,22.33-7.16,31.34,31.34,0,0,0,8.95-22c.22-29.5-27.94-53.76-53.58-68.35s-59.12-30.78-82.93-13.36"/><g class="cls-9"><path d="M1150.11,123.91l4,0h0Zm3.08,11.48,3.25-2.33h0Zm10.54,4-1.33-3.78,8.27-2.91-3.22,8.16ZM1229.9,169l-2.39-3.21,6.64-4.94-.25,8.27Zm28.35,15.12-2.08-3.42,4.61-2.81,1.34,5.23Zm15.08,14.65-.74,3.93h0Zm22.33-7.16-2.8-2.85h0Zm8.95-22-4,0h0ZM1251,101.29l2-3.48h0Zm-80.57-10.14a40.68,40.68,0,0,0-16.35,32.71l-8,.1a48.63,48.63,0,0,1,19.62-39.26Zm-16.35,32.71c.05,3.73.69,6.92,2.33,9.2l-6.49,4.67c-3.07-4.26-3.78-9.45-3.83-13.77Zm2.33,9.2c1.65,2.28,4.32,3.12,6,2.54l2.66,7.55c-6,2.1-12-1.17-15.11-5.42Zm11,7.79a24.26,24.26,0,0,0,4.8,25.67l-5.83,5.47a32.24,32.24,0,0,1-6.41-34.08Zm4.8,25.67c6.64,7.07,16.87,10.61,27,10.16l.36,8c-12,.54-24.65-3.63-33.14-12.68Zm27,10.16c10.07-.46,19.93-4.63,28.31-10.86l4.78,6.42c-9.36,6.95-20.72,11.89-32.73,12.43Zm34.7-7.53c-.15,4.94,2.39,8.94,7.2,11.73l-4,6.92c-6.78-4-11.43-10.43-11.17-18.9Zm7.2,11.73a15.11,15.11,0,0,0,15.07-.15l4.16,6.84a23.14,23.14,0,0,1-23.26.23Zm21,2.27c1.68,6.54,5.65,10.54,12,11.72l-1.48,7.86c-9.68-1.81-15.85-8.38-18.22-17.59Zm11.94,11.72a21.85,21.85,0,0,0,18.8-6.08l5.6,5.7c-6.63,6.52-16.47,10-25.87,8.24Zm18.8-6.09a27.28,27.28,0,0,0,7.75-19.17l8,.06a35.27,35.27,0,0,1-10.15,24.82Zm7.75-19.17c.1-13.42-6.25-25.94-16.09-37.09s-22.89-20.6-35.47-27.76l4-7c13.06,7.43,26.91,17.4,37.51,29.42s18.21,26.35,18.09,42.44Zm-51.56-64.85c-12.78-7.27-27.16-14.73-41.15-18.28s-26.89-3-37.44,4.67l-4.72-6.45c13.25-9.7,29-9.82,44.12-6s30.3,11.77,43.15,19.08Z"/></g><path class="cls-10" d="M1440.28,113.37a3.53,3.53,0,0,1-.17-1.26,3.88,3.88,0,0,1,.43-1.93c0-.07.08-.14.11-.22-.65-3.38-.35-6.89-.32-10.4a5.16,5.16,0,0,1,.41-2c-.07-2.8-.2-5.57-.26-8.36-.07-.18-.14-.36-.19-.54a5.37,5.37,0,0,1,0-2.81,5.16,5.16,0,0,1-.22-1.52c.06-4.38,0-8.92.22-13.4a6.24,6.24,0,0,1-.33-1.71,3.81,3.81,0,0,1,.16-1.24,4.94,4.94,0,0,1,.17-2.16,18.15,18.15,0,0,1-.74-5.06c-.09-4.89-.18-9.81-.12-14.7.13-12.28.94-24.54,1.06-36.82,0-.08,0-.16,0-.24H1108.21a29.27,29.27,0,0,0-3.58,5.7c-3.51,7.34-5.49,15.62-4.27,23.66s6,15.75,13.24,19.39c6.93,3.45,16.08,2.49,21.54-2.89-2.52,3.1-2.92,7.9-2.09,11.83a13,13,0,0,0,8.43,9.47c-6.58,2.72-9.36,11.72-7.72,18.64s6.92,12.47,12.87,16.36a44.63,44.63,0,0,0,4.59,2.64,50.47,50.47,0,0,0,45.44-.32c2,6.66,7.34,10.16,14.16,11.61a20.1,20.1,0,0,0,18.92-6.33c-2,7.1.39,16.24,6,21.06a19.91,19.91,0,0,0,20.77,3c-4.39,8.72-3.08,18.22,3.28,25.62s15.88,11.48,25.47,13.25a55.56,55.56,0,0,0,16.74.57c9.41-1.13,18.34-4.87,24.57-11.89,4.2,5,11.86,7,18.35,6.62a21.6,21.6,0,0,0,16.42-9.23,51.74,51.74,0,0,0,16,12.1,49.38,49.38,0,0,0,11.85,4h0a49,49,0,0,0,17.93.36,53.1,53.1,0,0,0,34-21.62c-.32-9.92.63-20.07.51-29.72a158.21,158.21,0,0,1,.41-16.61A4.86,4.86,0,0,1,1440.28,113.37Z"/><g class="cls-11"><polygon points="1138.24 57.38 1132.33 52.01 1135.14 54.86 1138.24 57.38"/></g><g class="cls-11"><path d="M1441,155a47,47,0,0,1-7.68,10.78l3.36,3.2-3.38-3.19a48.27,48.27,0,0,1-26.87,14.53h0A44.75,44.75,0,0,1,1390,180l-.82,3.94v0L1390,180l-.16,0a45.7,45.7,0,0,1-10.77-3.68l-1.8,3.7,1.8-3.71a47.58,47.58,0,0,1-14.75-11.17l-3.4-3.81-2.89,4.22,3.31,2.26h0l-3.3-2.26a17.57,17.57,0,0,1-13.32,7.49h0c-5.82.3-12-1.57-15.09-5.21l-3,2.59-3-2.66c-5.42,6.1-13.35,9.53-22,10.58l.48,4-.49-4a51.54,51.54,0,0,1-15.53-.54l-1.43,7.72,1.42-7.72c-9.06-1.67-17.59-5.45-23.16-11.92-5.34-6.21-6.38-14-2.74-21.21l5.08-10.09-10.3,4.65,1.65,3.64h0l-1.64-3.64a15.94,15.94,0,0,1-16.51-2.4c-4.32-3.74-6.38-11.22-4.74-16.94l-6.86-3.73a16.1,16.1,0,0,1-15.08,5.05c-5.92-1.26-9.68-4-11.17-8.88l-1.42-4.62-4.27,2.26a46.44,46.44,0,0,1-41.77.29l-3.18,6.32,3.17-6.33a39.3,39.3,0,0,1-4.18-2.4l-2.21,3.36,2.2-3.37c-5.52-3.6-9.86-8.41-11.17-13.93l-3.89.92,3.89-.93a15.08,15.08,0,0,1,.63-8.55,9.1,9.1,0,0,1,4.72-5.46l-1.52-3.69h0l1.52,3.7,9.86-4.08-10.1-3.41a9.07,9.07,0,0,1-5.8-6.52h0c-.7-3.3-.18-6.67,1.28-8.47l-3.08-2.5L1132.33,52c-4.09,4-11.34,4.94-16.94,2.16h0c-5.89-2.94-10-9.39-11.07-16.41h0c-1.07-7,.63-14.47,3.92-21.33h0a24.83,24.83,0,0,1,2-3.43h330.25c0-1.26,0-2.52,0-3.78-.07-1.41-.14-2.82-.17-4.22H1106.29l-1.2,1.49A33.51,33.51,0,0,0,1101,13l3.59,1.74L1101,13c-3.74,7.83-6,16.93-4.61,26l3.95-.6-3.95.6c1.37,9,6.74,18,15.4,22.36l1.78-3.55-1.77,3.56a24.16,24.16,0,0,0,16.84,1.61,22.06,22.06,0,0,0,.47,4.58l4.22-.89-4.21.9a17,17,0,0,0,5.23,9,19.32,19.32,0,0,0-3.57,6,23,23,0,0,0-.93,13.24h0c2,8.31,8.17,14.61,14.56,18.78h0a49,49,0,0,0,5,2.88h0a54.7,54.7,0,0,0,45.22,1.46c3.29,5.74,9,8.82,15.35,10.16a23.93,23.93,0,0,0,15.22-1.92,24.76,24.76,0,0,0,7.88,15.77h0a23.92,23.92,0,0,0,17.3,5.58,26.61,26.61,0,0,0,6.33,22.64c7.18,8.33,17.67,12.7,27.78,14.57h0a59.66,59.66,0,0,0,18,.61h0c8.79-1.06,17.46-4.28,24.19-10.32,5.34,4,12.55,5.37,18.45,5.07l-.2-4,.21,4a25.62,25.62,0,0,0,16.4-7.29,55.33,55.33,0,0,0,14,9.77h0a53.59,53.59,0,0,0,12.8,4.36l.39.08h.06a52.75,52.75,0,0,0,18.93.31,56.3,56.3,0,0,0,31.37-16.92h0c.8-.84,1.56-1.71,2.31-2.61A119.59,119.59,0,0,1,1441,155Z"/></g><rect x="1387.78" y="185.04" width="2.29" transform="translate(933.19 1510.05) rotate(-78.61)"/><g class="cls-11"><polygon points="1329.6 167.8 1326.62 164.28 1323.56 167.73 1326.55 170.39 1329.6 167.8"/></g><polygon points="1436.21 168.55 1433.3 165.81 1433.31 165.8 1433.32 165.8 1436.21 168.55"/><polygon points="1407.09 184.28 1407.74 188.23 1407.74 188.23 1407.09 184.28"/><polygon points="1377.3 179.88 1379.05 176.28 1379.05 176.29 1377.3 179.88"/><polygon points="1344.9 177.01 1345.12 181 1345.11 181 1344.9 177.01"/><polygon points="1301.98 182.28 1301.5 178.31 1301.51 178.31 1301.98 182.28"/><polygon points="1285.24 181.71 1285.96 177.77 1285.97 177.77 1285.24 181.71"/><polygon points="1259.77 168.46 1256.73 171.07 1256.73 171.07 1259.77 168.46"/><polygon points="1235.72 139.82 1238.33 136.8 1238.33 136.8 1235.72 139.82"/><polygon points="1210.82 125.09 1210 129 1210 129 1210.82 125.09"/><polygon points="1151.22 113.8 1153.01 110.22 1153.02 110.23 1151.22 113.8"/><polygon points="1146.63 111.16 1148.82 107.81 1148.83 107.82 1146.63 111.16"/><polygon points="1133.76 94.8 1137.65 93.88 1137.65 93.88 1133.76 94.8"/><polygon points="1133.05 66.69 1129.14 67.53 1129.13 67.52 1133.05 66.69"/><polygon points="1113.6 57.75 1111.82 61.33 1111.81 61.33 1113.6 57.75"/><polygon points="1100.36 38.36 1096.41 38.96 1096.41 38.96 1100.36 38.36"/><polygon points="1104.63 14.7 1101.02 12.97 1101.03 12.96 1104.63 14.7"/><path class="cls-12" d="M1446,214.53l-8.71-3.24-1.59-.6-16.91-6.29-.26-.1h-.22l-61.66,1.26,61.38,1.24,27.44,12.47C1445.67,217.69,1445.84,216.11,1446,214.53Z"/><path class="cls-12" d="M1443.32,245.27l-36,13.64-36.15.91h-.23l-50.67,10.6,51-8,36.48.9h.32l.4-.13,34.28-11.06Q1443,248.7,1443.32,245.27Z"/><path class="cls-12" d="M1440.19,114.6c0-.33,0-.65-.06-1a4.53,4.53,0,0,1,0-.74,3.88,3.88,0,0,1-.06-.77,3.74,3.74,0,0,1,.07-.75c0-.22,0-.44,0-.67,0-.51-.07-1-.07-1.54a7.76,7.76,0,0,1,.14-1.18c0-.19,0-.39,0-.59a3.9,3.9,0,0,1-.06-.76,5.27,5.27,0,0,1-.06-1.37l-26.53-17.48L1378,9h-5l24.19,68L1294,9h-9.73L1403,93.16l0,.11.07,0,14.82,10.5-60.05,4.68-36-27-1-.72-1,.18-50.17,8.93-42.35-14,41.85,16.36.25.1.34-.05,49.65-6.1,34.86,29.21,1,.88,1.55,0,.5,0L1334.09,127l-42.64-1.08,42.9,4.74.34,0,.47-.18,40.53-14.8,57.17-1.37,7.2,5.11a13.88,13.88,0,0,1,.12-2,6.11,6.11,0,0,1-.09-1.21c0-.39.06-.78.06-1.18C1440.16,114.91,1440.17,114.75,1440.19,114.6Z"/><path class="cls-2" d="M1154,29.37a9.38,9.38,0,0,0-3.08-3.18,10.44,10.44,0,0,0-5.19-1,14.93,14.93,0,0,0-8.92,3.55c-2.31,1.88.63,5.26,3.06,4a9.73,9.73,0,0,1,6.16-1c1.83.26,4,.56,5.45.9,1.7.39,3.76-1.61,2.52-3.27"/><path class="cls-2" d="M1155.83,41.88l-1,.06c-2.6-1.56-5.66,0-8.32,1.14-3,1.32-1.48,6.33,1.66,6.11,2.91-.21,6.18-.37,7.73-2.91l1-.47C1158.79,44.92,1157.85,41.77,1155.83,41.88Z"/><path class="cls-2" d="M1311.86,213.84a23.35,23.35,0,0,0-7.57,2.63,2.67,2.67,0,0,0,1.34,4.93,23.7,23.7,0,0,0,8-1.27C1317.64,218.8,1316,213.12,1311.86,213.84Z"/><path class="cls-2" d="M1311.63,229.06c-3.71,1-7.34,4.05-10,6.7a2.72,2.72,0,0,0,2.63,4.52c3.6-1.06,8-2.74,10.7-5.51A3.45,3.45,0,0,0,1311.63,229.06Z"/><path class="cls-2" d="M1311.31,247l-.23.14a2.35,2.35,0,0,0-1.34.26,3.1,3.1,0,0,0-1,.84,3.51,3.51,0,0,0-.68,2.13,1.81,1.81,0,0,0,1.8,1.8,3.51,3.51,0,0,0,2.11-.69,2.86,2.86,0,0,0,.84-1,2.35,2.35,0,0,0,.27-1.36l.13-.22a1.43,1.43,0,0,0-1.94-1.94"/><path class="cls-2" d="M1316.39,258.69c-4.7-.93-9.06,3.2-12.13,6.15a.24.24,0,0,0,.16.41c4.22-.18,10.27-.46,12.81-4.48A1.42,1.42,0,0,0,1316.39,258.69Z"/><path class="cls-2" d="M1159.92,51.82c-2.47,1.06-4.15,3.12-5.88,5.1l-5.37,6.15c-2.43,2.78,1.57,6.86,4.08,4.09l5.78-6.39c1.82-2,3.62-4,4.39-6.64.55-1.88-1.46-3-3-2.31"/><path class="cls-2" d="M1170.47,61.27c-.12-1.72-2.49-2.61-3.42-.92-2,3.69-2.58,7.7-3.36,11.79-.58,3.08,4,4.43,4.76,1.31,1-4,2.3-8,2-12.18"/><path class="cls-2" d="M1177.75,69.92a66.15,66.15,0,0,0-2,8.77,1.89,1.89,0,1,0,3.72.51,65.63,65.63,0,0,0,.56-9,1.18,1.18,0,0,0-2.3-.32"/><path class="cls-2" d="M1193.76,72.8a2.07,2.07,0,1,0-4.08.55,57,57,0,0,0,2,8.75,1.3,1.3,0,0,0,2.54-.34,55.9,55.9,0,0,0-.49-9"/><path class="cls-2" d="M1278.1,138.34a10.41,10.41,0,0,0-4.15-.4,4.73,4.73,0,0,0-3.22,1.77,1.83,1.83,0,0,0,0,1.89,4.73,4.73,0,0,0,3.22,1.77,10.57,10.57,0,0,0,4.15-.39C1280.39,142.48,1280.4,138.84,1278.1,138.34Z"/><path class="cls-2" d="M1289,157.87a2.64,2.64,0,0,0-1.87-1.87,4.4,4.4,0,0,0-.65-.12,2.42,2.42,0,0,0-1.25.06l-.74.31a4.23,4.23,0,0,0-.79.62c-.27.25-.52.52-.78.78a3.26,3.26,0,0,0-.91,2.21,3.19,3.19,0,0,0,.91,2.21,3.14,3.14,0,0,0,2.22.92,3.27,3.27,0,0,0,2.21-.92l.78-.78a3.44,3.44,0,0,0,1-2.35,3.52,3.52,0,0,0-.17-1.07"/><path class="cls-2" d="M1284.76,144.13a14.31,14.31,0,0,0-3,1.28,6.39,6.39,0,0,0-2.31,2.13,2.27,2.27,0,0,0,1.35,3.31,5,5,0,0,0,1.43.33,10.3,10.3,0,0,0,1.62-.26,12.43,12.43,0,0,0,2.53-.74c3.94-.8,2.21-7.29-1.67-6.05"/><path class="cls-2" d="M1310.37,48.4a8.56,8.56,0,0,0-4.12-4.33,25.69,25.69,0,0,0-5.23-2.58,1.94,1.94,0,0,0-2.17,2.83,25.88,25.88,0,0,0,3.94,4.23c1.58,1.45,3.16,2.62,5.36,2.76l0-.13c1.43,0,2.82-1.13,2.2-2.78"/><path class="cls-2" d="M1320.38,45.37a2,2,0,0,0-1.2-1.31,2.06,2.06,0,0,0-1.46-1.49A3.9,3.9,0,0,0,1314,49c2.54,2.64,7.24-.24,6.35-3.66"/><path class="cls-2" d="M1386.87,228.76a5.37,5.37,0,0,0-3.56-.09,25.35,25.35,0,0,0-3.09,1.42c-1.83.87-.9,3.82,1,3.76a20.9,20.9,0,0,0,3.45-.2,5.44,5.44,0,0,0,3-1.73,1.91,1.91,0,0,0-.84-3.16"/><path class="cls-2" d="M1396.55,237.42a5.42,5.42,0,0,0-5.16,3.14c-.71,1.44-1.44,3.9-.22,5.25l0,.23a1.49,1.49,0,0,0,2.85,0V246a13.59,13.59,0,0,0,1.82-2.57c.76-1.07,1.56-2.07,2.27-3.18a1.89,1.89,0,0,0-1.62-2.81"/><path class="cls-2" d="M1421.54,131.48a3,3,0,0,0-1.76-1.36l-.18,0-.8-.11a2.39,2.39,0,0,0-1.17.26,3,3,0,0,0-1.43,1.23,3.43,3.43,0,0,0-.33.76,3.11,3.11,0,0,0,.28,2.18l0,.09c.16.2.32.4.47.61a2.31,2.31,0,0,0,1,.62,1.64,1.64,0,0,0,.77.2,2.34,2.34,0,0,0,1.2,0l.18-.05a3,3,0,0,0,1.53-1.06A2.78,2.78,0,0,0,1422,133a3.43,3.43,0,0,0-.41-1.49"/><path class="cls-2" d="M1411.51,140.4l-.26-.12a1.82,1.82,0,0,0-.56-.47,3.8,3.8,0,0,0-.77-.35,4.92,4.92,0,0,0-2.49.19,2.39,2.39,0,0,0,0,4.58,5,5,0,0,0,2.49.18,3.33,3.33,0,0,0,.77-.35,1.82,1.82,0,0,0,.56-.47l.26-.12a1.79,1.79,0,0,0,0-3.07"/><path class="cls-2" d="M1433.19,46.2a4.86,4.86,0,0,0-1.81-1.79,2.78,2.78,0,0,0-3.72,1,4.7,4.7,0,0,0,.64,5.6,3.27,3.27,0,0,0,5.41-1.43,4.18,4.18,0,0,0-.52-3.36"/><path class="cls-2" d="M1200,142.27a49.39,49.39,0,0,0-8.72,4.45,3.25,3.25,0,0,0-1.14,4.36,3.21,3.21,0,0,0,4.36,1.15,48.78,48.78,0,0,0,7.57-6.39c1.34-1.45,0-4.35-2.07-3.57"/><path class="cls-2" d="M1209.88,150.63a2.2,2.2,0,0,0-2.66-.35l-2.81,2.15a2.74,2.74,0,0,0-1.32,2.31,2.68,2.68,0,0,0,2.67,2.68,2.83,2.83,0,0,0,2.32-1.33l2.14-2.8A2.19,2.19,0,0,0,1209.88,150.63Z"/></g></svg>