<svg width="728" height="415" viewBox="0 0 728 415" fill="none" xmlns="http://www.w3.org/2000/svg">
<g style="mix-blend-mode:screen" opacity="0.7">
<path d="M648.023 612.592C580.096 612.592 525.031 557.525 525.031 489.598C525.031 487.195 525.117 484.812 525.254 482.442C517.116 483.379 508.854 483.913 500.469 483.913C470.824 483.913 442.583 477.898 416.901 467.02C410.207 473.348 402.563 478.677 394.182 482.741C394.187 483.134 394.213 483.521 394.213 483.913C394.213 529.572 357.201 566.587 311.539 566.587C265.883 566.587 228.869 529.572 228.869 483.913C228.869 464.542 235.553 446.737 246.714 432.644C242.149 433.204 237.513 433.525 232.801 433.525C214.328 433.525 196.903 429.076 181.493 421.232C172.538 428.882 160.939 433.525 148.239 433.525C142.008 433.525 136.065 432.358 130.54 430.322C117.025 447.36 96.1564 458.3 72.7206 458.3C56.6757 458.3 41.8283 453.181 29.7205 444.483C-23.2795 406.413 0.220612 320.22 56.0958 312.607C61.4382 311.376 67.006 310.726 72.7206 310.726C90.6013 310.726 106.993 317.088 119.764 327.669C119.605 325.206 119.496 322.727 119.496 320.22C119.496 257.643 170.224 206.916 232.801 206.916C240.65 206.916 248.311 207.716 255.712 209.235C262.227 202.33 271.438 197.995 281.68 197.995C287.195 197.995 292.398 199.282 297.062 201.515C325.485 116.388 405.781 54.9985 500.469 54.9985C561.207 54.9985 616.004 80.2902 655.026 120.865C655.52 120.857 656.009 120.829 656.508 120.829C700.905 120.829 736.897 156.821 736.897 201.219C736.897 204.376 736.694 207.485 736.34 210.549C746.734 208.197 757.537 206.916 768.645 206.916C849.232 206.916 914.561 272.245 914.561 352.832C914.561 428.674 856.694 490.983 782.708 498.062C787.627 506.164 790.509 515.639 790.509 525.81C790.509 555.418 766.506 579.424 736.897 579.424C735.325 579.424 733.78 579.32 732.243 579.186C710.233 599.887 680.619 612.592 648.023 612.592Z" fill="url(#paint0_linear_35_85452)"/>
</g>
<g style="mix-blend-mode:screen" opacity="0.9">
<path d="M798.33 529.175V528.922H798.076V528.669H797.823V528.416H797.57V528.163H797.317V527.909H797.064V527.656H796.557V527.403H796.304V527.15H796.051V526.897H795.798V526.643H795.544V526.39H795.291V526.137H795.038V525.884H794.785V525.631H794.532V525.377H794.025V525.124H793.772V524.871H793.519V524.618H793.266V524.365H793.012V524.111H792.759V523.858H792.506V523.605H792.253V523.352H792V523.099H791.746V522.845H791.493V522.592H791.24V522.339H790.987V522.086H790.734V521.833H790.48V521.579H790.227V521.326H789.974V521.073H789.721V520.82H789.468V520.567H789.214V520.313H788.961V520.06H788.708V519.807H788.455V519.301H788.202V519.047H787.949V518.794H787.695V518.541H787.442V518.288H787.189V518.035H786.936V517.782H786.683V517.528H786.429V517.275H786.176V517.022H785.923V516.516H785.67V516.262H785.417V516.009H785.163V515.756H784.91V515.503H784.657V515.25H784.404V514.996H784.151V514.49H783.897V514.237H783.644V513.984H783.391V513.73H783.138V513.477H782.885V512.971H782.631V512.718H782.378V512.464H782.125V512.211H781.872V511.705H781.619V511.452H781.365V511.198H781.112V510.692H780.859V510.439H780.606V510.186H780.353V509.932H780.099V509.426H779.846V509.173H779.593V508.92H779.34V508.413H779.087V508.16H778.833V507.907H778.58V507.401H778.327V507.147H778.074V506.641H777.821V506.388H777.568V506.135H777.314V505.628H777.061V505.375H776.808V504.869H776.555V504.615H776.302V504.109H776.048V503.856H775.795V503.349H775.542V503.096H775.289V502.59H775.036V502.337H774.782V501.83H774.529V501.577H774.276V501.071H774.023V500.564H773.77V500.311H773.516V499.805H773.263V499.551H773.01V499.045H772.757V498.539H772.504V498.285H772.25V497.779H771.997V497.273H771.744V496.766H771.491V496.513H771.238V496.007H770.984V495.5H770.731V494.994H770.478V494.741H770.225V494.234H769.972V493.728H769.718V493.222H769.465V492.715H769.212V492.209H768.959V491.702H768.706V491.196H768.452V490.69H768.199V490.183H767.946V489.93H767.693V489.424H767.44V488.917H767.187V488.158H766.933V487.651H766.68V487.145H766.427V486.639H766.174V486.132H765.921V485.373H765.667V484.866H765.414V484.36H765.161V483.853H764.908V483.094H764.655V482.587H764.401V481.828H764.148V481.321H763.895V480.562H763.642V480.055H763.389V479.296H763.135V478.789H762.882V478.03H762.629V477.27H762.376V476.511H762.123V476.004H761.869V475.245H761.616V474.485H761.363V473.726H761.11V472.966H760.857V472.206H760.603V471.194H760.35V470.434H760.097V469.421H759.844V468.662H759.591V467.649H759.337V466.889H759.084V465.877H758.831V464.864H758.578V463.598H758.325V462.585H758.071V461.572H757.818V460.306H757.565V459.04H757.312V457.521H757.059V456.255H756.806V454.736H756.552V452.964H756.299V450.938H756.046V448.912H755.793V446.38H755.54V443.089H755.286V428.404H753.514V428.657H750.729V428.91H747.437V429.163H744.399V429.416H739.588V429.67H721.105V429.416H716.801V429.163H713.509V428.91H710.218V428.657H707.686V428.404H705.66V428.15H703.635V427.897H701.609V427.644H699.583V427.391H697.811V427.138H696.292V426.884H695.026V426.631H693.507V426.378H691.988V426.125H690.722V425.872H689.202V425.618H687.936V425.365H686.67V425.112H685.658V424.859H684.392V424.606H683.379V424.353H682.366V424.099H681.1V423.846H680.087V423.593H679.075V423.34H677.809V423.087H676.796V422.833H676.036V422.58H675.024V422.327H674.011V422.074H673.251V421.821H672.238V421.567H671.479V421.314H670.466V421.061H669.706V420.808H668.694V420.555H667.934V420.301H666.921V420.048H666.162V419.795H665.402V419.542H664.643V419.289H663.883V419.035H663.123V418.782H662.364V418.529H661.857V418.276H661.098V418.023H660.338V417.769H659.579V417.516H658.819V417.263H658.059V417.01H657.3V416.757H656.54V416.503H655.781V416.25H655.274V415.997H654.515V415.744H654.008V415.491H653.249V415.237H652.489V414.984H651.983V414.731H651.223V414.478H650.717V414.225H649.957V413.972H649.198V413.718H648.691V413.465H648.185V413.212H647.425V412.959H647.172V413.212H646.919V413.465H646.412V413.718H646.159V413.972H645.906V414.225H645.653V414.478H645.4V414.731H645.146V414.984H644.893V415.237H644.387V415.491H644.134V415.744H643.881V415.997H643.627V416.25H643.374V416.503H643.121V416.757H642.615V417.01H642.361V417.263H642.108V417.516H641.855V417.769H641.349V418.023H641.095V418.276H640.842V418.529H640.589V418.782H640.083V419.035H639.829V419.289H639.576V419.542H639.07V419.795H638.817V420.048H638.563V420.301H638.057V420.555H637.804V420.808H637.551V421.061H637.044V421.314H636.791V421.567H636.285V421.821H636.031V422.074H635.525V422.327H635.272V422.58H634.765V422.833H634.512V423.087H634.006V423.34H633.5V423.593H633.246V423.846H632.74V424.099H632.487V424.353H631.98V424.606H631.727V424.859H631.221V425.112H630.714V425.365H630.461V425.618H629.955V425.872H629.448V426.125H628.942V426.378H628.436V426.631H628.182V426.884H627.676V427.138H627.17V427.391H626.663V427.644H626.157V427.897H625.65V428.15H625.144V428.404H624.638V433.214H624.384V437.012H624.131V439.291H623.878V441.063H623.625V442.583H623.372V444.355H623.119V445.874H622.865V447.14H622.612V448.153H622.359V449.166H622.106V450.178H621.853V450.938H621.599V451.951H621.346V452.964H621.093V453.976H620.84V454.736H620.587V455.496H620.333V456.255H620.08V456.761H619.827V457.521H619.574V458.281H619.321V459.04H619.067V459.547H618.814V460.306H618.561V461.066H618.308V461.825H618.055V462.332H617.801V462.838H617.548V463.345H617.295V463.851H617.042V464.357H616.789V464.864H616.535V465.37H616.282V465.877H616.029V466.636H615.776V467.142H615.523V467.649H615.269V468.155H615.016V468.662H614.763V469.168H614.51V469.674H614.257V469.928H614.003V470.434H613.75V470.687H613.497V471.194H613.244V471.7H612.991V471.953H612.738V472.46H612.484V472.966H612.231V473.219H611.978V473.726H611.725V474.232H611.472V474.485H611.218V474.992H610.965V475.498H610.712V475.751H610.459V476.258H610.206V476.511H609.952V476.764H609.699V477.27H609.446V477.523H609.193V477.777H608.94V478.283H608.686V478.536H608.433V478.789H608.18V479.296H607.927V479.549H607.674V479.802H607.42V480.309H607.167V480.562H606.914V480.815H606.661V481.321H606.408V481.575H606.154V481.828H605.901V482.334H605.648V482.587H605.395V482.841H605.142V483.094H604.888V483.347H604.635V483.6H604.382V483.853H604.129V484.36H603.876V484.613H603.622V484.866H603.369V485.119H603.116V485.373H602.863V485.626H602.61V485.879H602.357V486.132H602.103V486.385H601.85V486.639H601.597V487.145H601.344V487.398H601.091V487.651H600.837V487.904H600.584V488.158H600.331V488.411H600.078V488.664H599.825V488.917H599.571V489.17H599.318V489.424H598.812V489.677H598.559V489.93H598.305V490.183H598.052V490.436H597.799V490.69H597.546V490.943H597.293V491.196H597.039V491.449H596.786V491.702H596.533V491.956H596.027V492.209H595.773V492.462H595.52V492.715H595.267V492.968H595.014V493.222H594.761V493.475H594.507V493.728H594.001V493.981H593.748V494.234H593.495V494.488H592.988V494.741H592.735V494.994H592.482V495.247H591.976V495.5H591.722V495.754H591.469V496.007H590.963V496.26H590.71V496.513H590.456V496.766H589.95V497.02H589.697V497.273H589.444V497.526H588.937V497.779H588.684V498.032H588.431V498.285H587.924V498.539H587.671V498.792H587.165V499.045H586.658V499.298H586.405V499.551H585.899V499.805H585.392V500.058H585.139V500.311H584.633V500.564H584.126V500.817H583.873V501.071H583.367V501.324H583.114V501.577H582.607V501.83H582.101V502.083H581.848V502.337H581.341V502.59H580.835V502.843H580.329V503.096H579.822V503.349H579.316V503.603H578.809V503.856H578.303V504.109H577.543V504.362H577.037V504.615H576.531V504.869H576.024V505.122H575.518V505.375H575.011V505.628H574.505V505.881H573.999V506.135H573.239V506.388H572.479V506.641H571.973V506.894H571.214V507.147H570.454V507.401H569.694V507.654H569.188V507.907H568.428V508.16H567.669V508.413H566.909V508.666H566.15V508.92H565.137V509.173H564.377V509.426H563.364V509.679H562.352V509.932H561.339V510.186H560.326V510.439H559.313V510.692H558.301V510.945H556.528V511.198H555.009V511.452H553.237V511.705H551.464V511.958H549.439V512.211H545.641V512.464H538.045V512.211H534.247V511.958H531.968V511.705H530.449V511.452H528.677V511.198H527.158V510.945H525.385V510.692H524.372V510.439H523.36V510.186H522.347V509.932H521.334V509.679H520.321V509.426H519.309V509.173H518.296V508.92H517.283V508.666H516.523V508.413H516.017V508.16H515.257V507.907H514.498V507.654H513.738V507.401H513.232V507.147H512.472V506.894H511.713V506.641H510.953V506.388H510.447V506.135H509.687V505.881H509.181V505.628H508.674V505.375H508.168V505.122H507.408V504.869H506.902V504.615H506.396V504.362H505.889V504.109H505.383V503.856H504.876V503.603H504.37V503.349H503.864V503.096H503.357V502.843H502.851V502.59H502.344V502.337H501.838V502.083H501.332V501.83H501.078V501.577H500.572V501.324H500.066V501.071H499.813V500.817H499.306V500.564H499.053V500.311H498.547V500.058H498.04V499.805H497.787V499.551H497.281V499.298H496.774V499.045H496.521V498.792H496.015V498.539H495.508V498.285H495.255V498.032H495.002V497.779H494.495V497.526H494.242V497.273H493.989V497.02H493.483V496.766H493.229V496.513H492.976V496.26H492.47V496.007H492.217V495.754H491.963V495.5H491.457V495.247H491.204V494.994H490.951V494.741H490.444V494.488H490.191V494.234H489.938V493.981H489.432V493.728H489.178V493.475H488.925V493.222H488.672V492.968H488.419V492.715H487.912V492.462H487.659V492.209H487.406V491.956H487.153V491.702H486.9V491.449H486.646V491.196H486.393V490.943H486.14V490.69H485.887V490.436H485.634V490.183H485.127V489.93H484.874V489.677H484.621V489.424H484.368V489.17H484.114V488.917H483.861V488.664H483.608V488.411H483.355V488.158H483.102V487.904H482.848V487.651H482.595V487.398H482.342V487.145H482.089V486.892H481.836V486.639H481.582V486.385H481.329V486.132H481.076V485.626H480.823V485.373H480.57V485.119H480.316V484.866H480.063V484.613H479.81V484.36H479.557V484.107H479.304V483.853H479.051V483.6H478.797V483.347H478.544V482.841H478.291V482.587H478.038V482.334H477.785V482.081H477.531V481.828H477.278V481.321H477.025V481.068H476.772V480.815H476.519V480.309H476.265V480.055H476.012V479.802H475.759V479.296H475.506V479.043H475.253V478.789H474.999V478.283H474.746V478.03H474.493V477.777H474.24V477.27H473.987V477.017H473.733V476.511H473.48V476.258H473.227V476.004H472.974V475.498H472.721V475.245H472.467V474.738H472.214V474.232H471.961V473.979H471.708V473.472H471.455V472.966H471.201V472.713H470.948V472.206H470.695V471.7H470.442V471.447H470.189V470.94H469.935V470.434H469.682V470.181H469.429V469.674H469.176V469.168H468.923V468.662H468.67V468.155H468.416V467.649H468.163V467.142H467.91V466.636H467.657V466.13H467.404V465.623H467.15V465.117H466.897V464.611H466.644V464.104H466.391V463.598H466.138V463.091H465.884V462.585H465.631V462.079H465.378V461.319H465.125V460.559H464.872V459.8H464.618V459.293H464.365V458.534H464.112V457.774H463.859V457.015H463.606V456.508H463.352V455.749H463.099V454.989H462.846V454.23H462.593V453.47H462.34V452.457H462.086V451.444H461.833V450.432H461.58V449.419H461.327V448.406H461.074V447.393H460.82V446.38H460.567V444.861H460.314V443.089H460.061V441.57H459.808V439.797H459.554V438.278H459.301V434.48H459.048V424.859H459.301V421.567H459.554V419.542H459.808V417.516H460.061V415.491H460.314V414.225H460.567V413.212H460.82V411.946H461.074V410.933H461.327V409.667H461.58V408.401H461.833V407.642H462.086V406.882H462.34V406.122H462.593V405.11H462.846V404.35H463.099V403.591H463.352V402.831H463.606V401.818H463.859V401.312H464.112V400.552H464.365V400.046H464.618V399.286H464.872V398.78H465.125V398.273H465.378V397.514H465.631V397.007H465.884V396.248H466.138V395.741H466.391V395.235H466.644V394.729H466.897V394.222H467.15V393.716H467.404V393.21H467.657V392.703H467.91V392.197H468.163V391.69H468.416V391.184H468.67V390.678H468.923V390.171H469.176V389.665H469.429V389.158H469.682V388.652H469.935V388.399H470.189V387.892H470.442V387.386H470.695V387.133H470.948V386.626H471.201V386.12H471.455V385.867H471.708V385.36H471.961V385.107H472.214V384.601H472.467V384.094H472.721V383.841H472.974V383.335H473.227V383.082H473.48V382.575H473.733V382.322H473.987V382.069H474.24V381.563H474.493V381.309H474.746V380.803H474.999V380.55H475.253V380.043H475.506V379.79H475.759V379.537H476.012V379.031H476.265V378.777H476.519V378.524H475.759V378.777H472.974V379.031H470.189V379.284H455.757V379.031H452.971V378.777H450.186V378.524H448.161V378.271H446.388V378.018H444.869V377.765H443.097V377.511H441.831V377.258H440.565V377.005H439.552V376.752H438.286V376.499H437.02V376.245H436.007V375.992H434.995V375.739H433.982V375.486H433.222V375.233H432.209V374.979H431.197V374.726H430.437V374.473H429.424V374.22H428.665V373.967H428.158V373.713H427.399V373.46H426.639V373.207H425.88V372.954H425.12V372.701H424.36V372.448H423.601V372.194H422.841V371.941H422.335V371.688H421.575V371.435H421.069V371.182H420.309V370.928H419.803V370.675H419.296V370.422H418.537V370.169H418.031V369.916H417.271V369.662H416.765V369.409H416.258V369.156H415.752V368.903H415.245V368.65H414.486V368.396H413.979V368.143H413.473V367.89H412.967V367.637H412.46V367.384H411.954V367.13H411.701V367.384H411.447V367.637H411.194V367.89H410.688V368.143H410.435V368.396H410.181V368.65H409.675V368.903H409.422V369.156H409.169V369.409H408.662V369.662H408.409V369.916H408.156V370.169H407.65V370.422H407.396V370.675H406.89V370.928H406.384V371.182H406.13V371.435H405.624V371.688H405.371V371.941H404.864V372.194H404.611V372.448H404.105V372.701H403.598V372.954H403.092V373.207H402.586V373.46H402.079V373.713H401.826V373.967H401.32V374.22H400.813V374.473H400.054V374.726H399.547V374.979H399.041V375.233H398.281V375.486H397.775V375.739H397.269V375.992H396.509V376.245H395.749V376.499H394.99V376.752H394.23V377.005H393.471V377.258H392.711V377.511H391.698V377.765H390.685V378.018H389.673V378.271H388.407V378.524H387.141V378.777H385.368V379.031H383.343V379.284H373.721V379.031H371.949V378.777H369.923V378.524H368.657V378.271H367.645V378.018H366.379V377.765H365.366V377.511H364.353V377.258H363.594V377.005H362.834V376.752H361.821V376.499H361.315V376.245H360.808V376.499H360.555V376.752H360.302V377.005H360.049V377.511H359.796V377.765H359.542V378.018H359.289V378.271H359.036V378.524H358.783V378.777H358.53V379.031H358.276V379.537H358.023V379.79H357.77V380.043H357.517V380.297H357.264V380.55H357.01V380.803H356.757V381.056H356.504V381.309H356.251V381.563H355.998V381.816H355.745V382.069H355.491V382.322H355.238V382.575H354.985V382.829H354.732V383.082H354.479V383.335H354.225V383.588H353.972V383.841H353.719V384.094H353.466V384.348H353.213V384.601H352.706V384.854H352.453V385.107H352.2V385.36H351.947V385.614H351.693V385.867H351.44V386.12H351.187V386.373H350.934V386.626H350.681V386.88H350.174V387.133H349.921V387.386H349.668V387.639H349.415V387.892H349.161V388.146H348.655V388.399H348.402V388.652H348.149V388.905H347.642V389.158H347.389V389.412H346.883V389.665H346.629V389.918H346.376V390.171H345.87V390.424H345.617V390.678H345.364V390.931H344.857V391.184H344.604V391.437H344.098V391.69H343.844V391.944H343.591V392.197H343.085V392.45H342.832V392.703H342.325V392.956H341.819V393.21H341.312V393.463H341.059V393.716H340.553V393.969H340.046V394.222H339.54V394.475H339.287V394.729H338.78V394.982H338.274V395.235H337.768V395.488H337.514V395.741H337.008V395.995H336.502V396.248H335.995V396.501H335.489V396.754H334.983V397.007H334.476V397.261H333.717V397.514H333.21V397.767H332.704V398.02H331.944V398.273H331.438V398.527H330.931V398.78H330.172V399.033H329.665V399.286H329.159V399.539H328.399V399.793H327.64V400.046H326.88V400.299H326.121V400.552H325.108V400.805H324.348V401.059H323.589V401.312H322.576V401.565H321.816V401.818H320.804V402.071H320.044V402.325H318.525V402.578H317.259V402.831H315.74V403.084H314.221V403.337H312.955V403.591H310.929V403.844H307.637V404.097H298.269V403.844H294.978V403.591H293.205V403.337H291.686V403.084H289.914V402.831H288.395V402.578H287.129V402.325H286.116V402.071H285.103V401.818H284.343V401.565H283.331V401.312H282.318V401.059H281.305V400.805H280.546V400.552H279.786V400.299H279.026V400.046H278.52V399.793H277.76V399.539H277.001V399.286H276.241V399.033H275.735V398.78H274.975V398.527H274.216V398.273H273.709V398.02H273.203V397.767H272.697V397.514H272.19V397.261H271.684V397.007H271.177V396.754H270.418V396.501H269.911V396.248H269.405V395.995H268.899V395.741H268.392V395.488H267.886V395.235H267.379V394.982H267.126V394.729H266.62V394.475H266.113V394.222H265.86V393.969H265.354V393.716H264.847V393.463H264.594V393.21H264.088V392.956H263.582V392.703H263.328V392.45H262.822V392.197H262.569V391.944H262.062V391.69H261.556V391.437H261.303V391.184H261.05V390.931H260.543V390.678H260.29V390.424H260.037V390.171H259.53V389.918H259.277V389.665H259.024V389.412H258.518V389.158H258.264V388.905H258.011V388.652H257.505V388.399H257.252V388.146H256.998V387.892H256.492V387.639H256.239V387.386H255.986V387.133H255.479V386.88H255.226V386.626H254.973V386.373H254.72V386.12H254.466V385.867H254.213V385.614H253.96V385.36H253.707V385.107H253.454V384.854H253.201V384.601H252.694V384.348H252.441V384.094H252.188V383.841H251.935V383.588H251.681V383.335H251.428V383.082H251.175V382.829H250.922V382.575H250.669V382.322H250.415V382.069H250.162V381.816H249.909V381.563H249.656V381.309H249.403V381.056H249.149V380.803H248.896V380.55H248.643V380.043H248.39V379.79H248.137V379.537H247.883V379.284H247.63V379.031H247.377V378.777H247.124V378.524H246.871V378.271H246.617V378.018H246.364V377.765H246.111V377.258H245.858V377.005H245.605V376.752H245.351V376.499H245.098V375.992H244.845V375.739H244.592V375.486H244.339V374.979H244.085V374.726H243.832V374.473H243.579V373.967H243.326V373.713H243.073V373.207H242.82V372.954H242.566V372.701H242.313V372.194H242.06V371.941H241.807V371.688H241.554V371.182H241.3V370.928H241.047V370.422H240.794V369.916H240.541V369.662H240.288V369.156H240.034V368.65H239.781V368.396H239.528V367.89H239.275V367.384H239.022V367.13H238.768V366.624H238.515V366.118H238.262V365.864H238.009V365.358H237.756V364.852H237.502V364.345H237.249V363.839H236.996V363.332H236.743V362.826H236.49V362.32H236.236V361.56H235.983V361.054H235.73V360.547H235.477V360.041H235.224V359.535H234.97V359.028H234.717V358.269H234.464V357.762H234.211V357.003H233.958V356.243H233.704V355.483H233.451V354.977H233.198V354.217H232.945V353.458H232.692V352.698H232.439V351.939H232.185V350.926H231.932V350.166H231.679V349.154H231.426V348.141H231.173V347.128H230.919V346.115H230.666V345.102H230.413V343.33H230.16V341.811H229.907V340.039H229.653V338.519H229.4V335.228H229.147V325.1H229.4V322.062H229.653V320.289H229.907V318.77H230.16V316.998H230.413V315.479H230.666V314.466H230.919V313.453H231.173V312.44H231.426V311.428H231.679V310.415H231.932V309.402H232.185V308.389H232.439V307.63H232.692V306.87H232.945V306.364H233.198V305.604H233.451V304.844H233.704V304.338H233.958V303.578H234.211V302.819H234.464V302.059H234.717V301.553H234.97V300.793H235.224V300.287H235.477V299.781H235.73V299.274H235.983V298.768H236.236V298.261H236.49V297.755H236.743V297.249H236.996V296.742H237.249V296.236H237.502V295.729H237.756V295.223H238.009V294.717H238.262V294.21H238.515V293.957H238.768V293.451H239.022V292.944H239.275V292.691H239.528V292.185H239.781V291.678H240.034V291.425H240.288V290.919H240.541V290.412H240.794V290.159H241.047V289.653H241.3V289.146H241.554V288.893H241.807V288.387H242.06V288.134H242.313V287.88H242.566V287.374H242.82V287.121H243.073V286.868H243.326V286.361H243.579V286.108H243.832V285.855H244.085V285.348H244.339V285.095H244.592V284.842H244.845V284.336H245.098V284.082H245.351V283.829H245.605V283.323H245.858V283.07H246.111V282.816H246.364V282.563H246.617V282.31H246.871V282.057H247.124V281.804H247.377V281.55H247.63V281.044H247.883V280.791H248.137V280.538H248.39V280.285H248.643V280.031H248.896V279.778H249.149V279.525H249.403V279.272H249.656V279.019H249.909V278.765H250.162V278.259H250.415V278.006H250.669V277.753H250.922V277.499H251.428V277.246H251.681V276.993H251.935V276.74H252.188V276.487H252.441V276.233H252.694V275.98H252.947V275.727H253.201V275.474H253.454V275.221H253.707V274.967H254.213V274.714H254.466V274.461H254.72V274.208H254.973V273.955H255.226V273.701H255.479V273.448H255.732V273.195H255.986V272.942H256.492V272.689H256.745V272.435H256.998V272.182H257.505V271.929H257.758V271.676H258.011V271.423H258.518V271.169H258.771V270.916H259.024V270.663H259.53V270.41H259.784V270.157H260.037V269.904H260.543V269.65H260.796V269.397H261.05V269.144H261.556V268.891H261.809V268.638H262.316V268.384H262.822V268.131H263.075V267.878H263.582V267.625H263.835V267.372H264.341V267.118H264.847V266.865H265.101V266.612H265.607V266.359H266.113V266.106H266.367V265.852H266.873V265.599H267.379V265.346H267.633V265.093H268.139V264.84H268.645V264.586H269.405V264.333H269.911V264.08H270.418V263.827H270.924V263.574H271.431V263.32H271.937V263.067H272.443V262.814H272.95V262.561H273.456V262.308H273.963V262.054H274.722V261.801H275.482V261.548H275.988V261.295H276.748V261.042H277.507V260.788H278.267V260.535H278.773V260.282H279.533V260.029H280.292V259.776H280.799V259.523H281.812V259.269H282.824V259.016H283.837V258.763H284.85V258.51H285.863V258.257H286.875V258.003H287.888V257.75H289.407V257.497H290.927V257.244H292.699V256.991H294.218V256.737H296.75V256.484H300.548V256.231H305.105V256.484H309.41V256.737H311.435V256.991H313.461V257.244H315.233V257.497H316.752V257.75H318.018V258.003H319.031V258.257H320.297V258.51H321.31V258.763H322.323V259.016H323.336V259.269H324.095V259.523H324.855V259.776H325.614V260.029H326.374V260.282H327.133V260.535H327.893V260.788H328.653V261.042H329.412V261.295H329.919V261.548H330.678V261.801H331.185V262.054H331.691V262.308H332.451V262.561H332.957V262.814H333.717V263.067H334.223V263.32H334.729V263.574H335.236V263.827H335.742V264.08H336.248V264.333H336.755V264.586H337.261V264.84H337.514V265.093H338.021V265.346H338.527V265.599H339.034V265.852H339.54V266.106H340.046V266.359H340.553V266.612H340.806V266.865H341.312V267.118H341.566V267.372H342.072V267.625H342.325V267.878H342.832V268.131H343.338V268.384H343.591V268.638H344.098V268.891H344.351V269.144H344.857V269.397H345.11V269.65H345.617V269.904H345.87V270.157H346.123V270.41H346.629V270.663H346.883V270.916H347.389V271.169H347.642V271.423H347.895V271.676H348.402V271.929H348.655V272.182H348.908V272.435H349.415V272.689H349.668V272.942H349.921V271.423H349.668V259.776H349.921V256.484H350.174V253.446H350.427V251.673H350.681V249.648H350.934V247.876H351.187V246.356H351.44V245.09H351.693V243.571H351.947V242.305H352.2V241.292H352.453V240.28H352.706V239.014H352.959V238.001H353.213V236.988H353.466V236.229H353.719V235.216H353.972V234.203H354.225V233.443H354.479V232.431H354.732V231.671H354.985V230.911H355.238V230.152H355.491V229.392H355.745V228.633H355.998V227.873H356.251V227.114H356.504V226.607H356.757V225.848H357.01V225.341H357.264V224.582H357.517V224.075H357.77V223.316H358.023V222.809H358.276V222.05H358.53V221.543H358.783V220.784H359.036V220.277H359.289V219.771H359.542V219.264H359.796V218.758H360.049V217.999H360.302V217.492H360.555V216.986H360.808V216.479H361.062V215.973H361.315V215.467H361.568V214.96H361.821V214.454H362.074V213.947H362.328V213.441H362.581V212.935H362.834V212.428H363.087V211.922H363.34V211.415H363.594V211.162H363.847V210.656H364.1V210.149H364.353V209.896H364.606V209.39H364.86V208.883H365.113V208.377H365.366V208.124H365.619V207.618H365.872V207.111H366.126V206.605H366.379V206.352H366.632V205.845H366.885V205.592H367.138V205.086H367.391V204.832H367.645V204.326H367.898V204.073H368.151V203.566H368.404V203.06H368.657V202.807H368.911V202.3H369.164V202.047H369.417V201.794H369.67V201.288H369.923V201.034H370.177V200.528H370.43V200.275H370.683V200.022H370.936V199.515H371.189V199.262H371.443V198.756H371.696V198.502H371.949V197.996H372.202V197.743H372.455V197.49H372.709V197.237H372.962V196.73H373.215V196.477H373.468V196.224H373.721V195.971H373.975V195.464H374.228V195.211H374.481V194.958H374.734V194.451H374.987V194.198H375.241V193.945H375.494V193.692H375.747V193.439H376V192.932H376.253V192.679H376.507V192.426H376.76V192.173H377.013V191.919H377.266V191.666H377.519V191.16H377.772V190.907H378.026V190.653H378.279V190.4H378.532V190.147H378.785V189.894H379.038V189.641H379.292V189.387H379.545V188.881H379.798V188.628H380.051V188.375H380.304V188.121H380.558V187.868H380.811V187.615H381.064V187.362H381.317V187.109H381.57V186.856H381.824V186.602H382.077V186.349H382.33V186.096H382.583V185.843H382.836V185.59H383.09V185.336H383.343V185.083H383.596V184.83H383.849V184.577H384.102V184.324H384.356V184.07H384.609V183.817H384.862V183.564H385.115V183.311H385.368V183.058H385.622V182.804H385.875V182.551H386.381V182.298H386.634V182.045H386.888V181.792H387.141V181.538H387.394V181.285H387.647V181.032H387.9V180.779H388.153V180.526H388.66V180.272H388.913V180.019H389.166V179.766H389.419V179.513H389.673V179.26H389.926V179.006H390.179V178.753H390.685V178.5H390.939V178.247H391.192V177.994H391.445V177.74H391.951V177.487H392.205V177.234H392.458V176.981H392.711V176.728H393.217V176.475H393.471V176.221H393.724V175.968H394.23V175.715H394.483V175.462H394.737V175.209H394.99V174.955H395.496V174.702H395.749V174.449H396.256V174.196H396.509V173.943H396.762V173.689H397.269V173.436H397.522V173.183H398.028V172.93H398.281V172.677H398.534V172.423H399.041V172.17H399.294V171.917H399.8V171.664H400.054V171.411H400.56V171.157H400.813V170.904H401.32V170.651H401.573V170.398H402.079V170.145H402.586V169.891H402.839V169.638H403.345V169.385H403.598V169.132H404.105V168.879H404.358V168.625H404.864V168.372H405.371V168.119H405.877V167.866H406.13V167.613H406.637V167.359H407.143V167.106H407.65V166.853H407.903V166.6H408.409V166.347H408.915V166.094H409.422V165.84H409.928V165.587H410.435V165.334H410.941V165.081H411.447V164.828H411.954V164.574H412.46V164.321H412.713V164.068H413.22V163.815H413.726V163.562H414.486V163.308H414.992V163.055H415.499V162.802H416.005V162.549H416.511V162.296H417.271V162.042H417.777V161.789H418.284V161.536H418.79V161.283H419.55V161.03H420.056V160.776H420.816V160.523H421.322V160.27H422.082V160.017H422.841V159.764H423.348V159.51H424.107V159.257H424.867V159.004H425.626V158.751H426.133V158.498H426.892V158.244H427.652V157.991H428.411V157.738H429.171V157.485H430.184V157.232H430.943V156.978H431.956V156.725H432.716V156.472H433.729V156.219H434.488V155.966H435.754V155.713H436.767V155.459H437.78V155.206H439.046V154.953H440.058V154.7H441.578V154.447H442.844V154.193H444.363V153.94H445.882V153.687H447.654V153.434H449.68V153.181H451.959V152.927H455.25V152.674H460.567V152.421H466.391V152.674H470.189V152.927H473.987V153.181H476.265V153.434H478.038V153.687H479.81V153.94H481.582V154.193H483.355V154.447H484.874V154.7H486.14V154.447H486.393V154.193H486.646V153.94H486.9V153.687H487.153V153.434H487.406V153.181H487.659V152.927H487.912V152.674H488.166V152.421H488.419V152.168H488.925V151.915H489.178V151.661H489.432V151.408H489.685V151.155H490.191V150.902H490.444V150.649H490.697V150.395H491.204V150.142H491.457V149.889H491.963V149.636H492.217V149.383H492.723V149.129H492.976V148.876H493.483V148.623H493.736V148.37H494.242V148.117H494.749V147.863H495.255V147.61H495.761V147.357H496.268V147.104H496.774V146.851H497.281V146.597H497.787V146.344H498.547V146.091H499.053V145.838H499.813V145.585H500.572V145.332H501.332V145.078H502.344V144.825H503.104V144.572H504.117V144.319H505.636V144.066H507.155V143.812H509.687V143.559H514.245V143.812H516.777V144.066H518.296V144.319H519.562V144.572H520.575V144.825H521.587V145.078H522.347V145.332H523.36V145.585H524.119V145.838H524.626V146.091H525.385V146.344H525.892V146.597H526.651V146.851H527.411V146.091H527.664V145.332H527.917V144.572H528.17V143.812H528.424V143.306H528.677V142.546H528.93V141.787H529.183V141.027H529.436V140.521H529.69V139.761H529.943V139.002H530.196V138.495H530.449V137.736H530.702V137.229H530.956V136.47H531.209V135.963H531.462V135.204H531.715V134.697H531.968V133.938H532.221V133.431H532.475V132.672H532.728V132.165H532.981V131.406H533.234V130.899H533.487V130.393H533.741V129.887H533.994V129.127H534.247V128.621H534.5V128.114H534.753V127.608H535.007V126.848H535.26V126.342H535.513V125.835H535.766V125.329H536.019V124.57H536.273V124.063H536.526V123.557H536.779V123.05H537.032V122.544H537.285V122.038H537.539V121.531H537.792V121.025H538.045V120.518H538.298V120.012H538.551V119.506H538.805V118.999H539.058V118.493H539.311V117.986H539.564V117.48H539.817V116.974H540.071V116.467H540.324V115.961H540.577V115.454H540.83V114.948H541.083V114.442H541.337V114.189H541.59V113.682H541.843V113.176H542.096V112.669H542.349V112.163H542.602V111.657H542.856V111.403H543.109V110.897H543.362V110.391H543.615V109.884H543.868V109.378H544.122V108.871H544.375V108.618H544.628V108.112H544.881V107.605H545.134V107.352H545.388V106.846H545.641V106.339H545.894V106.086H546.147V105.58H546.4V105.073H546.654V104.82H546.907V104.314H547.16V103.808H547.413V103.554H547.666V103.048H547.92V102.542H548.173V102.288H548.426V101.782H548.679V101.276H548.932V101.022H549.186V100.516H549.439V100.263H549.692V99.7564H549.945V99.5032H550.198V98.9968H550.452V98.7436H550.705V98.2372H550.958V97.984H551.211V97.4776H551.464V96.9712H551.718V96.7181H551.971V96.2117H552.224V95.9585H552.477V95.4521H552.73V95.1989H552.983V94.6925H553.237V94.4393H553.49V93.9329H553.743V93.6797H553.996V93.4265H554.249V92.9201H554.503V92.6669H554.756V92.1605H555.009V91.9073H555.262V91.6541H555.515V91.1478H555.769V90.8946H556.022V90.3882H556.275V90.135H556.528V89.6286H556.781V89.3754H557.035V89.1222H557.288V88.6158H557.541V88.3626H557.794V87.8562H558.047V87.603H558.301V87.3498H558.554V86.8434H558.807V86.5902H559.06V86.3371H559.313V86.0839H559.567V85.5775H559.82V85.3243H560.073V85.0711H560.326V84.5647H560.579V84.3115H560.833V84.0583H561.086V83.5519H561.339V83.2987H561.592V83.0455H561.845V82.5391H562.098V82.2859H562.352V82.0327H562.605V81.7795H562.858V81.2731H563.111V81.02H563.364V80.7668H563.618V80.5136H563.871V80.2604H564.124V79.754H564.377V79.5008H564.63V79.2476H564.884V78.9944H565.137V78.488H565.39V78.2348H565.643V77.9816H565.896V77.7284H566.15V77.4752H566.403V76.9688H566.656V76.7156H566.909V76.4624H567.162V76.2092H567.416V75.9561H567.669V75.4497H567.922V75.1965H568.175V74.9433H568.428V74.6901H568.682V74.4369H568.935V74.1837H569.188V73.9305H569.441V73.4241H569.694V73.1709H569.948V72.9177H570.201V72.6645H570.454V72.4113H570.707V72.1581H570.96V71.9049H571.214V71.6517H571.467V71.3985H571.72V70.8921H571.973V70.639H572.226V70.3858H572.479V70.1326H572.733V69.8794H572.986V69.6262H573.239V69.373H573.492V69.1198H573.745V68.8666H573.999V68.6134H574.252V68.107H574.505V67.8538H574.758V67.6006H575.011V67.3474H575.265V67.0942H575.518V66.841H575.771V66.5878H576.024V66.3346H576.277V66.0814H576.531V65.8282H576.784V65.5751H577.037V65.3219H577.29V65.0687H577.543V64.8155H577.797V64.5623H578.05V64.3091H578.303V64.0559H578.556V63.8027H578.809V63.5495H579.063V63.2963H579.316V63.0431H579.569V62.7899H579.822V62.5367H580.075V62.2835H580.329V62.0303H580.582V61.7771H580.835V61.5239H581.088V61.2707H581.341V61.0175H581.595V60.7643H581.848V60.5111H582.101V60.258H582.354V60.0048H582.607V59.7516H582.86V59.4984H583.114V59.2452H583.367V58.992H583.62V58.7388H584.126V58.4856H584.38V58.2324H584.633V57.9792H584.886V57.726H585.139V57.4728H585.392V57.2196H585.646V56.9664H585.899V56.7132H586.152V56.46H586.405V56.2068H586.658V55.9536H587.165V55.7004H587.418V55.4472H587.671V55.1941H587.924V54.9409H588.178V54.6877H588.431V54.4345H588.684V54.1813H588.937V53.9281H589.444V53.6749H589.697V53.4217H589.95V53.1685H590.203V52.9153H590.456V52.6621H590.71V52.4089H590.963V52.1557H591.216V51.9025H591.722V51.6493H591.976V51.3961H592.229V51.1429H592.482V50.8897H592.735V50.6365H593.241V50.3833H593.495V50.1302H593.748V49.877H594.001V49.6238H594.507V49.3706H594.761V49.1174H595.014V48.8642H595.267V48.611H595.52V48.3578H596.027V48.1046H596.28V47.8514H596.533V47.5982H596.786V47.345H597.039V47.0918H597.546V46.8386H597.799V46.5854H598.052V46.3322H598.559V46.079H598.812V45.8258H599.065V45.5726H599.571V45.3194H599.825V45.0662H600.078V44.8131H600.331V44.5599H600.837V44.3067H601.091V44.0535H601.344V43.8003H601.85V43.5471H602.103V43.2939H602.357V43.0407H602.863V42.7875H603.116V42.5343H603.369V42.2811H603.876V42.0279H604.129V41.7747H604.382V41.5215H604.888V41.2683H605.142V41.0151H605.648V40.7619H605.901V40.5087H606.154V40.2555H606.661V40.0023H606.914V39.7492H607.42V39.496H607.674V39.2428H608.18V38.9896H608.433V38.7364H608.686V38.4832H609.193V38.23H609.446V37.9768H609.952V37.7236H610.206V37.4704H610.459V37.2172H610.965V36.964H611.218V36.7108H611.725V36.4576H612.231V36.2044H612.484V35.9512H612.991V35.698H613.244V35.4448H613.75V35.1916H614.003V34.9384H614.51V34.6852H614.763V34.4321H615.269V34.1789H615.523V33.9257H616.029V33.6725H616.535V33.4193H616.789V33.1661H617.295V32.9129H617.548V32.6597H618.055V32.4065H618.561V32.1533H618.814V31.9001H619.321V31.6469H619.827V31.3937H620.08V31.1405H620.587V30.8873H621.093V30.6341H621.346V30.3809H621.853V30.1277H622.359V29.8745H622.612V29.6213H623.119V29.3682H623.625V29.115H623.878V28.8618H624.384V28.6086H624.891V28.3554H625.397V28.1022H625.65V27.849H626.157V27.5958H626.663V27.3426H627.17V27.0894H627.676V26.8362H628.182V26.583H628.436V26.3298H628.942V26.0766H629.448V25.8234H629.955V25.5702H630.461V25.317H630.968V25.0638H631.474V24.8106H631.727V24.5574H632.234V24.3042H632.74V24.0511H633.246V23.7979H633.753V23.5447H634.259V23.2915H634.765V23.0383H635.272V22.7851H635.778V22.5319H636.285V22.2787H636.791V22.0255H637.551V21.7723H638.057V21.5191H638.563V21.2659H639.07V21.0127H639.576V20.7595H640.083V20.5063H640.589V20.2531H641.095V19.9999H641.855V19.7467H642.361V19.4935H642.868V19.2403H643.374V18.9872H644.134V18.734H644.64V18.4808H645.146V18.2276H645.653V17.9744H646.159V17.7212H646.919V17.468H647.425V17.2148H648.185V16.9616H648.691V16.7084H649.451V16.4552H649.957V16.202H650.717V15.9488H651.223V15.6956H651.983V15.4424H652.489V15.1892H653.249V14.936H653.755V14.6828H654.515V14.4296H655.021V14.1764H655.781V13.9233H656.54V13.6701H657.3V13.4169H657.806V13.1637H658.566V12.9105H659.325V12.6573H660.085V12.4041H660.845V12.1509H661.351V11.8977H662.111V11.6445H662.87V11.3913H663.63V11.1381H664.643V10.8849H665.402V10.6317H666.162V10.3785H666.921V10.1253H667.681V9.87213H668.694V9.61893H669.453V9.36574H670.213V9.11254H670.972V8.85935H671.985V8.60615H672.998V8.35296H674.011V8.09976H674.77V7.84657H675.783V7.59337H676.796V7.34018H677.555V7.08698H678.568V6.83379H679.581V6.58059H680.847V6.3274H681.86V6.0742H683.126V5.82101H684.139V5.56781H685.151V5.31462H686.417V5.06142H687.43V4.80823H688.949V4.55503H690.215V4.30184H691.734V4.04864H693V3.79545H694.52V3.54225H695.785V3.28906H697.558V3.03586H699.33V2.78267H701.103V2.52947H702.875V2.27628H704.901V2.02308H707.179V1.76989H709.711V1.51669H712.243V1.26349H716.041V1.0103H720.092V0.757105H727.435V0.50391H734.524V0.757105H741.867V1.0103H745.159V1.26349H748.45V1.51669H751.742V1.76989H754.274V2.02308H756.299V2.27628H758.071V2.52947H760.097V2.78267H762.123V3.03586H763.895V3.28906H765.414V3.54225H766.933V3.79545H768.199V4.04864H769.718V4.30184H770.984V4.55503H772.504V4.80823H773.77V5.06142H775.036V5.31462H776.302V5.56781H777.314V5.82101H778.327V6.0742H779.34V6.3274H780.353V6.58059H781.619V6.83379H782.631V7.08698H783.644V7.34018H784.657V7.59337H785.923V7.84657H786.683V8.09976H787.442V8.35296H788.455V8.60615H789.214V8.85935H790.227V9.11254H790.987V9.36574H791.746V9.61893H792.759V9.87213H793.519V10.1253H794.532V10.3785H795.291V10.6317H796.304V10.8849H796.81V11.1381H797.57V11.3913H798.33V11.6445H799.089V11.8977H799.849V12.1509H800.608V12.4041H801.368V12.6573H802.127V12.9105H802.634V13.1637H803.393V13.4169H804.153V13.6701H804.913V13.9233H805.672V14.1764H806.432V14.4296H806.938V14.6828H807.698V14.936H808.204V15.1892H808.964V15.4424H809.47V15.6956H810.23V15.9488H810.736V16.202H811.496V16.4552H812.002V16.7084H812.508V16.9616H813.268V17.2148H813.774V17.468H814.534V17.7212H815.04V17.9744H815.8V18.2276H816.306V18.4808H816.813V18.734H817.319V18.9872H818.079V19.2403H818.585V19.4935H819.092V19.7467H819.598V19.9999H820.104V20.2531H820.611V20.5063H821.37V20.7595H821.877V21.0127H822.383V21.2659H822.889V21.5191H823.396V21.7723H823.902V22.0255H824.409V22.2787H825.168V22.5319H825.675V22.7851H826.181V23.0383H826.687V23.2915H827.194V23.5447H827.447V23.7979H827.953V24.0511H828.46V24.3042H828.966V24.5574H829.473V24.8106H829.979V25.0638H830.485V25.317H830.992V25.5702H831.498V25.8234H831.751V26.0766H832.258V26.3298H832.764V26.583H833.27V26.8362H833.777V27.0894H834.283V27.3426H834.79V27.5958H835.296V27.849H835.549V28.1022H836.056V28.3554H836.562V28.6086H837.068V28.8618H837.322V29.115H837.828V29.3682H838.334V29.6213H838.588V29.8745H839.094V30.1277H839.6V30.3809H839.853V30.6341H840.36V30.8873H840.866V31.1405H841.119V31.3937H841.626V31.6469H842.132V31.9001H842.385V32.1533H842.892V32.4065H843.398V32.6597H843.905V32.9129H844.158V33.1661H844.664V33.4193H844.917V33.6725H845.424V33.9257H845.677V34.1789H846.183V34.4321H846.437V34.6852H846.943V34.9384H847.196V35.1916H847.703V35.4448H847.956V35.698H848.462V35.9512H848.715V36.2044H849.222V36.4576H849.475V36.7108H849.981V36.964H850.488V37.2172H850.741V37.4704H851.247V37.7236H851.5V37.9768H852.007V38.23H852.26V38.4832H852.766V38.7364H853.02V38.9896H853.526V39.2428H853.779V39.496H854.032V39.7492H854.539V40.0023H854.792V40.2555H855.045V40.5087H855.552V40.7619H855.805V41.0151H856.058V41.2683H856.564V41.5215H856.818V41.7747H857.324V42.0279H857.577V42.2811H857.83V42.5343H858.337V42.7875H858.59V43.0407H858.843V43.2939H859.35V43.5471H859.603V43.8003H859.856V44.0535H860.362V44.3067H860.615V44.5599H861.122V44.8131H861.375V45.0662H861.628V45.3194H862.135V45.5726H862.388V45.8258H862.641V46.079H862.894V46.3322H863.147V46.5854H863.654V46.8386H863.907V47.0918H864.16V47.345H864.413V47.5982H864.92V47.8514H865.173V48.1046H865.426V48.3578H865.679V48.611H865.933V48.8642H866.439V49.1174H866.692V49.3706H866.945V49.6238H867.199V49.877H867.705V50.1302H867.958V50.3833H868.211V50.6365H868.465V50.8897H868.971V51.1429H869.224V51.3961H869.477V51.6493H869.731V51.9025H869.984V52.1557H870.49V52.4089H870.743V52.6621H870.996V52.9153H871.25V53.1685H871.503V53.4217H871.756V53.6749H872.009V53.9281H872.262V54.1813H872.516V54.4345H873.022V54.6877H873.275V54.9409H873.528V55.1941H873.782V55.4472H874.035V55.7004H874.288V55.9536H874.541V56.2068H874.794V56.46H875.301V56.7132H875.554V56.9664H875.807V57.2196H876.06V57.4728H876.314V57.726H876.567V57.9792H876.82V58.2324H877.073V58.4856H877.326V58.7388H877.833V58.992H878.086V59.2452H878.339V59.4984H878.592V59.7516H878.846V60.0048H879.099V60.258H879.352V60.5111H879.605V60.7643H879.858V61.0175H880.112V61.2707H880.365V61.5239H880.618V61.7771H880.871V62.0303H881.124V62.2835H881.377V62.5367H881.631V62.7899H881.884V63.0431H882.137V63.2963H882.39V63.5495H882.643V63.8027H882.897V64.0559H883.15V64.3091H883.403V64.5623H883.656V64.8155H883.909V65.0687H884.163V65.3219H884.416V65.5751H884.669V65.8282H884.922V66.0814H885.175V66.3346H889.48V66.5878H893.024V66.841H895.81V67.0942H897.582V67.3474H899.101V67.6006H900.874V67.8538H902.646V68.107H903.659V68.3602H904.671V68.6134H905.684V68.8666H906.697V69.1198H907.71V69.373H908.723V69.6262H909.735V69.8794H910.748V70.1326H911.255V70.3858H912.014V70.639H912.774V70.8921H913.533V71.1453H914.04V71.3985H914.799V71.6517H915.559V71.9049H916.318V72.1581H916.825V72.4113H917.584V72.6645H918.344V72.9177H918.85V73.1709H919.357V73.4241H919.863V73.6773H920.37V73.9305H920.876V74.1837H921.382V74.4369H921.889V74.6901H922.395V74.9433H922.901V75.1965H923.408V75.4497H924.167V75.7029H924.674V75.9561H925.18V76.2092H925.433V76.4624H925.94V76.7156H926.446V76.9688H926.699V77.222H927.206V77.4752H927.712V77.7284H927.965V77.9816H928.472V78.2348H928.978V78.488H929.231V78.7412H929.738V78.9944H930.244V79.2476H930.497V79.5008H931.004V79.754H931.257V80.0072H931.763V80.2604H932.017V80.5136H932.523V80.7668H932.776V81.02H933.029V81.2731H933.536V81.5263H933.789V81.7795H934.042V82.0327H934.548V82.2859H934.802V82.5391H935.308V82.7923H935.561V83.0455H935.814V83.2987H936.321V83.5519H936.574V83.8051H936.827V84.0583H937.334V84.3115H937.587V84.5647H937.84V84.8179H938.093V85.0711H938.6V85.3243H938.853V85.5775H939.106V85.8307H939.359V86.0839H939.612V86.3371H939.866V86.5902H940.119V86.8434H940.372V87.0966H940.625V87.3498H940.878V87.603H941.385V87.8562H941.638V88.1094H941.891V88.3626H942.144V88.6158H942.398V88.869H942.651V89.1222H942.904V89.3754H943.157V89.6286H943.41V89.8818H943.663V90.135H943.917V90.3882H944.17V90.6414H944.423V90.8946H944.676V91.1478H944.929V91.401H945.183V91.6541H945.436V91.9073H945.689V92.1605H945.942V92.6669H946.195V92.9201H946.449V93.1733H946.702V93.4265H946.955V93.6797H947.208V93.9329H947.461V94.1861H947.715V94.4393H947.968V94.6925H948.221V94.9457H948.474V95.4521H948.727V95.7053H948.981V95.9585H949.234V96.2117H949.487V96.7181H949.74V96.9712H949.993V97.2244H950.247V97.7308H950.5V97.984H950.753V98.2372H951.006V98.7436H951.259V98.9968H951.513V99.25H951.766V99.7564H952.019V100.01H952.272V100.263H952.525V100.769H952.779V101.022H953.032V101.276H953.285V101.782H953.538V102.035H953.791V102.542H954.044V102.795H954.298V103.301H954.551V103.808H954.804V104.061H955.057V104.567H955.31V105.073H955.564V105.327H955.817V105.833H956.07V106.339H956.323V106.593H956.576V107.099H956.83V107.605H957.083V107.859H957.336V108.365H957.589V108.871H957.842V109.378H958.096V109.884H958.349V110.391H958.602V110.897H958.855V111.403H959.108V111.91H959.362V112.416H959.615V112.923H959.868V113.429H960.121V113.935H960.374V114.695H960.628V115.201H960.881V115.708H961.134V116.467H961.387V116.974H961.64V117.733H961.894V118.493H962.147V118.999H962.4V119.759H962.653V120.518H962.906V121.278H963.16V121.784H963.413V122.544H963.666V123.304H963.919V124.316H964.172V125.329H964.425V126.342H964.679V127.355H964.932V128.367H965.185V129.38H965.438V130.393H965.691V131.659H965.945V133.431H966.198V134.951H966.451V136.723H966.704V138.495H966.957V141.787H967.211V151.915H966.957V155.459H966.704V155.966H967.97V155.713H968.983V155.459H970.502V155.206H971.768V154.953H973.034V154.7H974.553V154.447H976.326V154.193H978.098V153.94H979.87V153.687H981.643V153.434H984.175V153.181H986.96V152.927H989.998V152.674H996.075V152.421H1001.65V152.674H1007.72V152.927H1011.01V153.181H1014.3V153.434H1016.33V153.687H1018.1V153.94H1020.13V154.193H1021.9V154.447H1023.42V154.7H1024.69V154.953H1026.21V155.206H1027.47V155.459H1028.99V155.713H1030V155.966H1031.02V156.219H1032.28V156.472H1033.29V156.725H1033.8V440.557H1032.53V440.81H1031.52V441.063H1030.26V441.317H1029.24V441.57H1027.98V441.823H1026.71V442.076H1025.19V442.329H1023.67V442.583H1022.15V442.836H1020.89V443.089H1019.12V443.342H1017.09V443.595H1015.06V443.849H1013.29V444.102H1013.55V444.608H1013.8V445.115H1014.05V445.621H1014.3V446.127H1014.56V446.634H1014.81V447.14H1015.06V447.646H1015.32V448.153H1015.57V448.659H1015.82V449.166H1016.08V449.672H1016.33V450.178H1016.58V450.938H1016.84V451.698H1017.09V452.204H1017.34V452.964H1017.6V453.723H1017.85V454.483H1018.1V454.989H1018.36V455.749H1018.61V456.508H1018.86V457.521H1019.12V458.534H1019.37V459.8H1019.62V461.066H1019.88V462.332H1020.13V463.345H1020.38V465.37H1020.63V468.155H1020.89V474.992H1020.63V477.777H1020.38V479.549H1020.13V481.068H1019.88V482.587H1019.62V483.6H1019.37V484.613H1019.12V485.626H1018.86V486.639H1018.61V487.651H1018.36V488.411H1018.1V488.917H1017.85V489.677H1017.6V490.436H1017.34V491.196H1017.09V491.702H1016.84V492.462H1016.58V492.968H1016.33V493.475H1016.08V493.981H1015.82V494.488H1015.57V494.994H1015.32V495.754H1015.06V496.26H1014.81V496.766H1014.56V497.273H1014.3V497.526H1014.05V498.032H1013.8V498.539H1013.55V498.792H1013.29V499.298H1013.04V499.805H1012.79V500.058H1012.53V500.564H1012.28V501.071H1012.03V501.324H1011.77V501.83H1011.52V502.083H1011.27V502.337H1011.01V502.843H1010.76V503.096H1010.51V503.349H1010.25V503.856H1010V504.109H1009.75V504.362H1009.49V504.869H1009.24V505.122H1008.99V505.375H1008.73V505.881H1008.48V506.135H1008.23V506.388H1007.98V506.641H1007.72V506.894H1007.47V507.147H1007.22V507.401H1006.96V507.654H1006.71V508.16H1006.46V508.413H1006.2V508.666H1005.95V508.92H1005.7V509.173H1005.44V509.426H1005.19V509.679H1004.94V509.932H1004.68V510.186H1004.43V510.439H1004.18V510.692H1003.92V510.945H1003.67V511.198H1003.16V511.452H1002.91V511.705H1002.66V511.958H1002.4V512.211H1002.15V512.464H1001.9V512.718H1001.65V512.971H1001.39V513.224H1000.89V513.477H1000.63V513.73H1000.38V513.984H999.873V514.237H999.62V514.49H999.366V514.743H998.86V514.996H998.607V515.25H998.354V515.503H997.847V515.756H997.594V516.009H997.341V516.262H996.834V516.516H996.328V516.769H996.075V517.022H995.568V517.275H995.062V517.528H994.809V517.782H994.302V518.035H993.796V518.288H993.543V518.541H993.037V518.794H992.53V519.047H992.024V519.301H991.517V519.554H991.011V519.807H990.505V520.06H989.998V520.313H989.492V520.567H988.985V520.82H988.479V521.073H987.719V521.326H987.213V521.579H986.453V521.833H985.694V522.086H984.934V522.339H984.428V522.592H983.668V522.845H982.909V523.099H981.896V523.352H980.883V523.605H979.87V523.858H978.858V524.111H977.845V524.365H976.072V524.618H974.553V524.871H972.781V525.124H968.983V525.377H965.438V525.124H962.4V525.377H962.147V525.631H961.894V525.884H961.64V526.137H961.387V526.39H961.134V526.643H960.881V526.897H960.628V527.15H960.121V527.403H959.868V527.656H959.615V527.909H959.362V528.163H959.108V528.416H958.602V528.669H958.349V528.922H958.096V529.175" fill="url(#paint1_linear_35_85452)"/>
</g>
<g style="mix-blend-mode:screen" opacity="0.6">
<path d="M541.084 529.175V524.871H541.337V520.82H541.59V518.794H541.843V517.022H542.097V514.996H542.35V513.477H542.603V512.211H542.856V511.198H543.109V509.932H543.363V508.92H543.616V507.654H543.869V506.641H544.122V505.881H544.375V505.122H544.629V504.362H544.882V503.603H545.135V502.59H545.388V501.83H545.641V501.071H545.894V500.311H546.148V499.805H546.401V499.045H546.654V498.539H546.907V497.779H547.16V497.273H547.414V496.513H547.667V496.007H547.92V495.247H548.173V494.741H548.426V493.981H548.68V493.728H548.933V493.222H549.186V492.715H549.439V492.209H549.692V491.702H549.946V491.196H550.199V490.69H550.452V490.183H550.705V489.677H550.958V489.17H551.212V488.664H551.465V488.158H551.718V487.651H551.971V487.398H552.224V486.892H552.478V486.385H552.731V486.132H552.984V485.626H553.237V485.119H553.49V484.866H553.744V484.36H553.997V483.853H554.25V483.6H554.503V483.094H554.756V482.587H555.01V482.334H555.263V482.081H555.516V481.575H555.769V481.321H556.022V480.815H556.275V480.562H556.529V480.309H556.782V479.802H557.035V479.549H557.288V479.043H557.541V478.789H557.795V478.283H558.048V478.03H558.301V477.777H558.554V477.523H556.022V477.777H553.237V478.03H548.426V478.283H541.843V478.03H537.033V477.777H534.248V477.523H531.462V477.27H529.69V477.017H527.918V476.764H526.398V476.511H524.626V476.258H523.613V476.004H522.347V475.751H521.081V475.498H519.815V475.245H518.803V474.992H517.79V474.738H516.777V474.485H515.764V474.232H515.005V473.979H513.992V473.726H512.979V473.472H512.22V473.219H511.46V472.966H510.7V472.713H509.941V472.46H509.181V472.206H508.422V471.953H507.662V471.7H506.902V471.447H506.143V471.194H505.383V470.94H504.877V470.687H504.117V470.434H503.611V470.181H502.851V469.928H502.345V469.674H501.585V469.421H501.079V469.168H500.319V468.915H499.813V468.662H499.307V468.408H498.8V468.155H498.041V467.902H497.534V467.649H497.028V467.396H496.521V467.142H496.015V466.889H495.509V466.636H495.002V466.383H494.496V466.13H493.483V466.383H493.23V466.636H492.977V466.889H492.724V467.142H492.217V467.396H491.964V467.649H491.711V467.902H491.458V468.155H490.951V468.408H490.698V468.662H490.192V468.915H489.938V469.168H489.432V469.421H489.179V469.674H488.672V469.928H488.419V470.181H487.913V470.434H487.66V470.687H487.153V470.94H486.9V471.194H486.394V471.447H485.887V471.7H485.381V471.953H484.874V472.206H484.368V472.46H483.862V472.713H483.608V472.966H483.102V473.219H482.596V473.472H481.836V473.726H481.33V473.979H480.823V474.232H480.064V474.485H479.557V474.738H479.051V474.992H478.291V475.245H477.532V475.498H476.772V475.751H476.013V476.004H475.253V476.258H474.24V476.511H473.227V476.764H472.215V477.017H470.949V477.27H469.936V477.523H467.91V477.777H466.138V478.03H462.846V478.283H458.289V478.03H455.251V477.777H453.225V477.523H451.453V477.27H450.44V477.017H449.174V476.764H448.161V476.511H447.148V476.258H446.136V476.004H445.376V475.751H444.616V475.498H443.857V475.245H443.097V474.992H442.844V475.498H442.591V475.751H442.338V476.004H442.084V476.258H441.831V476.764H441.578V477.017H441.325V477.27H441.072V477.523H440.819V477.777H440.565V478.03H440.312V478.283H440.059V478.536H439.806V478.789H439.553V479.043H439.299V479.549H439.046V479.802H438.793V480.055H438.54V480.309H438.287V480.562H438.033V480.815H437.78V481.068H437.527V481.321H437.274V481.575H437.021V481.828H436.767V482.081H436.514V482.334H436.261V482.587H435.755V482.841H435.501V483.094H435.248V483.347H434.995V483.6H434.742V483.853H434.489V484.107H434.235V484.36H433.982V484.613H433.729V484.866H433.223V485.119H432.969V485.373H432.716V485.626H432.463V485.879H432.21V486.132H431.957V486.385H431.703V486.639H431.45V486.892H430.944V487.145H430.691V487.398H430.184V487.651H429.931V487.904H429.678V488.158H429.172V488.411H428.918V488.664H428.412V488.917H428.159V489.17H427.906V489.424H427.399V489.677H427.146V489.93H426.893V490.183H426.386V490.436H426.133V490.69H425.627V490.943H425.374V491.196H425.12V491.449H424.614V491.702H424.108V491.956H423.601V492.209H423.348V492.462H422.842V492.715H422.335V492.968H421.829V493.222H421.576V493.475H421.069V493.728H420.563V493.981H420.057V494.234H419.55V494.488H419.297V494.741H418.791V494.994H418.284V495.247H417.778V495.5H417.271V495.754H416.765V496.007H416.005V496.26H415.499V496.513H414.993V496.766H414.233V497.02H413.727V497.273H413.22V497.526H412.461V497.779H411.954V498.032H411.448V498.285H410.688V498.539H410.182V498.792H409.169V499.045H408.41V499.298H407.65V499.551H406.637V499.805H405.878V500.058H405.118V500.311H404.105V500.564H403.346V500.817H402.586V501.071H401.32V501.324H399.801V501.577H398.282V501.83H397.016V502.083H395.497V502.337H393.977V502.59H390.939V502.843H387.648V503.096H382.837V502.843H379.039V502.59H376.507V502.337H374.735V502.083H373.215V501.83H371.443V501.577H369.924V501.324H368.911V501.071H367.898V500.817H366.886V500.564H365.873V500.311H365.113V500.058H364.1V499.805H363.088V499.551H362.328V499.298H361.568V499.045H361.062V498.792H360.302V498.539H359.543V498.285H358.783V498.032H358.277V497.779H357.517V497.526H356.758V497.273H356.251V497.02H355.745V496.766H354.985V496.513H354.479V496.26H353.973V496.007H353.466V495.754H352.96V495.5H352.453V495.247H351.947V494.994H351.441V494.741H350.934V494.488H350.428V494.234H349.921V493.981H349.415V493.728H348.909V493.475H348.655V493.222H348.149V492.968H347.643V492.715H347.39V492.462H346.883V492.209H346.377V491.956H346.124V491.702H345.617V491.449H345.364V491.196H344.858V490.943H344.351V490.69H344.098V490.436H343.592V490.183H343.338V489.93H342.832V489.677H342.579V489.424H342.326V489.17H341.819V488.917H341.566V488.664H341.313V488.411H340.806V488.158H340.553V487.904H340.3V487.651H339.794V487.398H339.54V487.145H339.287V486.892H338.781V486.639H338.528V486.385H338.274V486.132H337.768V485.879H337.515V485.626H337.262V485.373H337.009V485.119H336.755V484.866H336.502V484.613H336.249V484.36H335.996V484.107H335.743V483.853H335.489V483.6H334.983V483.347H334.73V483.094H334.477V482.841H334.223V482.587H333.97V482.334H333.717V482.081H333.464V481.828H333.211V481.575H332.957V481.321H332.704V481.068H332.451V480.815H332.198V480.562H331.945V480.309H331.691V480.055H331.438V479.802H331.185V479.549H330.932V479.296H330.679V478.789H330.425V478.536H330.172V478.283H329.919V478.03H329.666V477.777H329.413V477.523H329.159V477.27H328.906V477.017H328.653V476.764H328.4V476.511H328.147V476.004H327.893V475.751H327.64V475.498H327.387V474.992H327.134V474.738H326.881V474.485H326.628V473.979H326.374V473.726H326.121V473.472H325.868V472.966H325.615V472.713H325.362V472.46H325.108V471.953H324.855V471.7H324.602V471.447H324.349V470.94H324.096V470.687H323.842V470.434H323.589V469.928H323.336V469.421H323.083V469.168H322.83V468.662H322.576V468.155H322.323V467.902H322.07V467.396H321.817V467.142H321.564V466.636H321.31V466.13H321.057V465.877H320.804V465.37H320.551V464.864H320.298V464.611H320.044V464.104H319.791V463.598H319.538V463.091H319.285V462.332H319.032V461.825H318.778V461.319H318.525V460.813H318.272V460.306H318.019V459.8H317.766V459.293H317.512V458.787H317.259V458.281H317.006V457.774H316.753V457.015H316.5V456.255H316.247V455.496H315.993V454.989H315.74V454.23H315.487V453.47H315.234V452.71H314.981V452.204H314.727V451.444H314.474V450.685H314.221V449.672H313.968V448.659H313.715V447.646H313.461V446.634H313.208V445.621H312.955V444.608H312.702V443.342H312.449V441.823H312.195V440.051H311.942V438.531H311.689V436.759H311.436V432.961H311.183V425.112H311.436V421.314H311.689V419.795H311.942V418.023H312.195V416.503H312.449V414.731H312.702V413.465H312.955V412.452H313.208V411.44H313.461V410.427H313.715V409.667H313.968V408.654H314.221V407.642H314.474V406.629H314.727V406.122H314.981V405.363H315.234V404.603H315.487V403.844H315.74V403.337H315.993V402.578H316.247V401.818H316.5V401.312H316.753V400.552H317.006V399.793H317.259V399.286H317.512V398.78H317.766V398.273H318.019V397.767H318.272V397.261H318.525V396.754H318.778V396.248H319.032V395.741H319.285V395.235H319.538V394.729H319.791V394.222H320.044V393.716H320.298V393.21H320.551V392.703H320.804V392.45H321.057V391.944H321.31V391.437H321.564V391.184H321.817V390.678H322.07V390.424H322.323V389.918H322.576V389.412H322.83V389.158H323.083V388.652H323.336V388.146H323.589V387.892H323.842V387.386H324.096V387.133H324.349V386.88H324.602V386.373H324.855V386.12H325.108V385.867H325.362V385.36H325.615V385.107H325.868V384.854H326.121V384.348H326.374V384.094H326.628V383.841H326.881V383.335H327.134V383.082H327.387V382.829H327.64V382.322H327.893V382.069H328.147V381.816H328.4V381.563H328.653V381.309H328.906V380.803H329.159V380.55H329.413V380.297H329.666V380.043H329.919V379.79H330.172V379.537H330.425V379.284H330.679V379.031H330.932V378.777H331.185V378.524H331.438V378.018H331.691V377.765H331.945V377.511H332.198V377.258H332.451V377.005H332.704V376.752H332.957V376.499H333.211V376.245H333.464V375.992H333.717V375.739H333.97V375.486H334.477V375.233H334.73V374.979H334.983V374.726H335.236V374.473H335.489V374.22H335.743V373.967H335.996V373.713H336.249V373.46H336.502V373.207H336.755V372.954H337.262V372.701H337.515V372.448H337.768V372.194H338.021V371.941H338.274V371.688H338.528V371.435H339.034V371.182H339.287V370.928H339.54V370.675H340.047V370.422H340.3V370.169H340.553V369.916H341.06V369.662H341.313V369.409H341.566V369.156H342.072V368.903H342.326V368.65H342.579V368.396H343.085V368.143H343.338V367.89H343.592V367.637H344.098V367.384H344.604V367.13H344.858V366.877H345.364V366.624H345.87V366.371H346.124V366.118H346.63V365.864H347.136V365.611H347.39V365.358H347.896V365.105H348.402V364.852H348.655V364.598H349.162V364.345H349.668V364.092H349.921V363.839H350.428V363.586H351.187V363.332H351.694V363.079H352.2V362.826H352.707V362.573H353.213V362.32H353.719V362.067H354.226V361.813H354.732V361.56H355.239V361.307H355.745V361.054H356.251V360.801H357.011V360.547H357.771V360.294H358.53V360.041H359.036V359.788H359.796V359.535H360.556V359.281H361.062V359.028H361.822V358.775H362.581V358.522H363.341V358.269H364.354V358.015H365.366V357.762H366.379V357.509H367.392V357.256H368.405V357.003H369.164V356.749H370.43V356.496H371.949V356.243H373.722V355.99H375.241V355.737H377.013V355.483H380.305V355.23H390.179V355.483H392.965V355.737H394.99V355.99H396.763V356.243H398.535V356.496H399.548V356.749H400.814V357.003H401.826V357.256H403.092V357.509H404.105V357.762H405.118V358.015H405.878V358.269H406.637V358.522H407.397V358.775H408.156V359.028H409.169V359.281H409.929V359.535H410.688V359.788H411.195V360.041H411.954V360.294H412.461V360.547H412.967V360.801H413.727V361.054H414.233V361.307H414.993V361.56H415.499V361.813H416.005V362.067H416.765V362.32H417.271V362.573H417.525V362.826H418.031V363.079H418.537V363.332H419.044V363.586H419.55V363.839H420.057V364.092H420.563V364.345H421.069V364.598H421.576V364.852H422.082V365.105H422.335V365.358H422.842V365.611H423.095V365.864H423.601V366.118H424.108V366.371H424.361V366.624H424.867V366.877H425.12V367.13H425.627V367.384H425.88V367.637H426.386V367.89H426.893V368.143H427.146V368.396H427.652V368.65H427.906V368.903H428.159V369.156H428.665V369.409H428.918V369.662H429.172V369.916H429.678V370.169H429.931V370.422H430.184V370.675H430.691V370.928H430.944V371.182H431.197V371.435H431.703V371.688H431.957V368.65H431.703V360.547H431.957V356.243H432.21V352.951H432.463V350.926H432.716V348.9H432.969V347.128H433.223V345.609H433.476V344.343H433.729V342.824H433.982V341.558H434.235V340.545H434.489V339.279H434.742V338.266H434.995V337.253H435.248V335.987H435.501V335.228H435.755V334.215H436.008V333.455H436.261V332.443H436.514V331.683H436.767V330.67H437.021V330.164H437.274V329.404H437.527V328.645H437.78V327.885H438.033V327.126H438.287V326.366H438.54V325.606H438.793V324.847H439.046V324.34H439.299V323.581H439.553V323.074H439.806V322.315H440.059V321.809H440.312V321.049H440.565V320.543H440.819V319.783H441.072V319.277H441.325V318.77H441.578V318.264H441.831V317.757H442.084V316.998H442.338V316.491H442.591V315.985H442.844V315.479H443.097V314.972H443.35V314.466H443.604V313.959H443.857V313.453H444.11V312.947H444.363V312.44H444.616V311.934H444.87V311.428H445.123V310.921H445.376V310.415H445.629V310.162H445.882V309.655H446.136V309.149H446.389V308.642H446.642V308.389H446.895V307.883H447.148V307.376H447.402V306.87H447.655V306.617H447.908V306.11H448.161V305.604H448.414V305.351H448.668V304.844H448.921V304.591H449.174V304.085H449.427V303.832H449.68V303.325H449.934V302.819H450.187V302.566H450.44V302.059H450.693V301.806H450.946V301.3H451.2V301.047H451.453V300.54H451.706V300.287H451.959V300.034H452.212V299.527H452.465V299.274H452.719V298.768H452.972V298.515H453.225V298.008H453.478V297.755H453.731V297.502H453.985V296.995H454.238V296.742H454.491V296.489H454.744V295.983H454.997V295.729H455.251V295.476H455.504V295.223H455.757V294.717H456.01V294.463H456.263V294.21H456.517V293.704H456.77V293.451H457.023V293.197H457.276V292.944H457.529V292.438H457.783V292.185H458.036V291.931H458.289V291.678H458.542V291.425H458.795V291.172H459.049V290.666H459.302V290.412H459.555V290.159H459.808V289.906H460.061V289.653H460.315V289.4H460.568V289.146H460.821V288.64H461.074V288.387H461.327V288.134H461.581V287.88H461.834V287.627H462.087V287.374H462.34V287.121H462.593V286.868H462.846V286.614H463.1V286.361H463.353V286.108H463.606V285.855H463.859V285.602H464.112V285.348H464.366V285.095H464.619V284.842H464.872V284.589H465.125V284.336H465.378V284.082H465.632V283.829H465.885V283.576H466.138V283.323H466.391V283.07H466.644V282.816H466.898V282.563H467.151V282.31H467.404V282.057H467.657V281.804H467.91V281.55H468.164V281.297H468.417V281.044H468.67V280.791H468.923V280.538H469.176V280.285H469.683V280.031H469.936V279.778H470.189V279.525H470.442V279.272H470.696V279.019H470.949V278.765H471.455V278.512H471.708V278.259H471.962V278.006H472.215V277.753H472.468V277.499H472.721V277.246H473.227V276.993H473.481V276.74H473.734V276.487H473.987V276.233H474.493V275.98H474.747V275.727H475V275.474H475.253V275.221H475.759V274.967H476.013V274.714H476.266V274.461H476.772V274.208H477.025V273.955H477.279V273.701H477.785V273.448H478.038V273.195H478.291V272.942H478.798V272.689H479.051V272.435H479.557V272.182H479.811V271.929H480.064V271.676H480.57V271.423H480.823V271.169H481.33V270.916H481.583V270.663H481.836V270.41H482.343V270.157H482.849V269.904H483.102V269.65H483.608V269.397H483.862V269.144H484.368V268.891H484.621V268.638H485.128V268.384H485.634V268.131H485.887V267.878H486.394V267.625H486.647V267.372H487.153V267.118H487.66V266.865H488.166V266.612H488.419V266.359H488.926V266.106H489.432V265.852H489.938V265.599H490.192V265.346H490.698V265.093H491.204V264.84H491.711V264.586H492.217V264.333H492.724V264.08H493.23V263.827H493.736V263.574H494.243V263.32H494.749V263.067H495.002V262.814H495.509V262.561H496.015V262.308H496.775V262.054H497.281V261.801H497.787V261.548H498.294V261.295H499.053V261.042H499.56V260.788H500.066V260.535H500.573V260.282H501.079V260.029H501.839V259.776H502.598V259.523H503.105V259.269H503.864V259.016H504.37V258.763H505.13V258.51H505.636V258.257H506.396V258.003H507.156V257.75H507.915V257.497H508.675V257.244H509.434V256.991H510.194V256.737H510.954V256.484H511.713V256.231H512.473V255.978H513.486V255.725H514.245V255.471H515.258V255.218H516.017V254.965H517.03V254.712H518.296V254.459H519.309V254.205H520.322V253.952H521.588V253.699H522.601V253.446H524.12V253.193H525.639V252.939H526.905V252.686H528.677V252.433H530.45V252.18H532.475V251.927H535.26V251.673H538.552V251.42H550.958V251.673H554.756V251.927H557.795V252.18H559.567V252.433H561.339V252.686H563.112V252.939H564.884V253.193H566.403V253.446H567.669V253.699H568.176V253.193H568.429V252.939H568.682V252.686H569.188V252.433H569.442V252.18H569.695V251.927H569.948V251.673H570.201V251.42H570.454V251.167H570.708V250.914H570.961V250.661H571.467V250.407H571.72V250.154H571.974V249.901H572.227V249.648H572.733V249.395H572.986V249.142H573.24V248.888H573.746V248.635H573.999V248.382H574.506V248.129H575.012V247.876H575.265V247.622H575.772V247.369H576.025V247.116H576.531V246.863H577.037V246.61H577.544V246.356H578.05V246.103H578.557V245.85H579.063V245.597H579.569V245.344H580.076V245.09H580.835V244.837H581.595V244.584H582.101V244.331H582.861V244.078H583.621V243.824H584.633V243.571H585.646V243.318H586.659V243.065H588.178V242.812H589.697V242.558H598.306V242.812H599.825V243.065H601.344V243.318H602.357V243.571H603.37V243.824H604.129V244.078H605.142V244.331H605.902V244.584H606.661V244.837H607.168V245.09H607.927V245.344H608.434V245.597H609.193V245.85H609.446V245.09H609.7V244.331H609.953V243.571H610.206V243.065H610.459V242.305H610.712V241.546H610.966V240.786H611.219V240.28H611.472V239.52H611.725V238.761H611.978V238.001H612.232V237.495H612.485V236.735H612.738V236.229H612.991V235.469H613.244V234.963H613.498V234.203H613.751V233.697H614.004V232.937H614.257V232.431H614.51V231.671H614.764V231.165H615.017V230.405H615.27V229.899H615.523V229.392H615.776V228.886H616.03V228.126H616.283V227.62H616.536V227.114H616.789V226.607H617.042V225.848H617.296V225.341H617.549V224.835H617.802V224.328H618.055V223.822H618.308V223.062H618.561V222.556H618.815V222.05H619.068V221.543H619.321V221.037H619.574V220.53H619.827V220.024H620.081V219.518H620.334V219.011H620.587V218.505H620.84V217.999H621.093V217.492H621.347V216.986H621.6V216.479H621.853V215.973H622.106V215.467H622.359V214.96H622.613V214.454H622.866V213.947H623.119V213.441H623.372V213.188H623.625V212.681H623.879V212.175H624.132V211.669H624.385V211.162H624.638V210.656H624.891V210.149H625.145V209.896H625.398V209.39H625.651V208.883H625.904V208.377H626.157V207.871H626.411V207.618H626.664V207.111H626.917V206.605H627.17V206.352H627.423V205.845H627.677V205.339H627.93V205.086H628.183V204.579H628.436V204.073H628.689V203.566H628.942V203.313H629.196V202.807H629.449V202.3H629.702V202.047H629.955V201.541H630.208V201.034H630.462V200.781H630.715V200.275H630.968V200.022H631.221V199.515H631.474V199.262H631.728V198.756H631.981V198.502H632.234V197.996H632.487V197.49H632.74V197.237H632.994V196.73H633.247V196.477H633.5V195.971H633.753V195.717H634.006V195.211H634.26V194.958H634.513V194.451H634.766V194.198H635.019V193.692H635.272V193.439H635.526V192.932H635.779V192.679H636.032V192.173H636.285V191.919H636.538V191.666H636.792V191.16H637.045V190.907H637.298V190.4H637.551V190.147H637.804V189.641H638.058V189.387H638.311V189.134H638.564V188.628H638.817V188.375H639.07V187.868H639.323V187.615H639.577V187.362H639.83V186.856H640.083V186.602H640.336V186.349H640.589V185.843H640.843V185.59H641.096V185.336H641.349V184.83H641.602V184.577H641.855V184.324H642.109V183.817H642.362V183.564H642.615V183.311H642.868V182.804H643.121V182.551H643.375V182.298H643.628V182.045H643.881V181.538H644.134V181.285H644.387V181.032H644.641V180.526H644.894V180.272H645.147V180.019H645.4V179.766H645.653V179.26H645.907V179.006H646.16V178.753H646.413V178.5H646.666V178.247H646.919V177.74H647.173V177.487H647.426V177.234H647.679V176.981H647.932V176.728H648.185V176.221H648.438V175.968H648.692V175.715H648.945V175.462H649.198V174.955H649.451V174.702H649.704V174.449H649.958V174.196H650.211V173.943H650.464V173.689H650.717V173.436H650.97V172.93H651.224V172.677H651.477V172.423H651.73V172.17H651.983V171.917H652.236V171.664H652.49V171.411H652.743V171.157H652.996V170.651H653.249V170.398H653.502V170.145H653.756V169.891H654.009V169.638H654.262V169.385H654.515V169.132H654.768V168.879H655.022V168.372H655.275V168.119H655.528V167.866H655.781V167.613H656.034V167.359H656.288V167.106H656.541V166.853H656.794V166.6H657.047V166.347H657.3V166.094H657.554V165.84H657.807V165.587H658.06V165.334H658.313V165.081H658.566V164.828H658.819V164.574H659.073V164.321H659.326V164.068H659.579V163.815H659.832V163.562H660.085V163.308H660.339V163.055H660.592V162.802H660.845V162.296H661.098V162.042H661.351V161.789H661.858V161.536H662.111V161.283H662.364V161.03H662.617V160.776H662.871V160.523H663.124V160.27H663.377V160.017H663.63V159.764H663.883V159.51H664.137V159.257H664.39V159.004H664.643V158.751H664.896V158.498H665.149V158.244H665.403V157.991H665.656V157.738H665.909V157.485H666.162V157.232H666.415V156.978H666.669V156.725H666.922V156.472H667.175V156.219H667.681V155.966H667.935V155.713H668.188V155.459H668.441V155.206H668.694V154.953H668.947V154.7H669.2V154.447H669.454V154.193H669.707V153.94H670.213V153.687H670.466V153.434H670.72V153.181H670.973V152.927H671.226V152.674H671.479V152.421H671.732V152.168H671.986V151.915H672.492V151.661H672.745V151.408H672.998V151.155H673.252V150.902H673.505V150.649H673.758V150.395H674.264V150.142H674.518V149.889H674.771V149.636H675.024V149.383H675.277V149.129H675.784V148.876H676.037V148.623H676.29V148.37H676.543V148.117H676.796V147.863H677.303V147.61H677.556V147.357H677.809V147.104H678.062V146.851H678.569V146.597H678.822V146.344H679.075V146.091H679.328V145.838H679.581V145.585H680.088V145.332H680.341V145.078H680.594V144.825H681.101V144.572H681.354V144.319H681.607V144.066H682.113V143.812H682.367V143.559H682.62V143.306H683.126V143.053H683.379V142.8H683.633V142.546H683.886V142.293H684.392V142.04H684.645V141.787H684.899V141.534H685.405V141.28H685.658V141.027H685.911V140.774H686.418V140.521H686.671V140.268H687.177V140.014H687.431V139.761H687.684V139.508H688.19V139.255H688.443V139.002H688.95V138.748H689.203V138.495H689.456V138.242H689.962V137.989H690.216V137.736H690.722V137.482H690.975V137.229H691.482V136.976H691.735V136.723H691.988V136.47H692.494V136.216H692.748V135.963H693.254V135.71H693.507V135.457H694.014V135.204H694.267V134.951H694.773V134.697H695.28V134.444H695.533V134.191H696.039V133.938H696.292V133.685H696.799V133.431H697.052V133.178H697.558V132.925H697.812V132.672H698.318V132.419H698.571V132.165H699.078V131.912H699.331V131.659H699.837V131.406H700.343V131.153H700.597V130.899H701.103V130.646H701.609V130.393H701.863V130.14H702.369V129.887H702.875V129.633H703.382V129.38H703.635V129.127H704.141V128.874H704.648V128.621H704.901V128.367H705.407V128.114H705.914V127.861H706.167V127.608H706.673V127.355H707.18V127.101H707.686V126.848H707.939V126.595H708.446V126.342H708.952V126.089H709.459V125.835H709.965V125.582H710.471V125.329H710.724V125.076H711.231V124.823H711.737V124.57H712.244V124.316H712.75V124.063H713.256V123.81H713.51V123.557H714.016V123.304H714.522V123.05H715.029V122.797H715.535V122.544H716.042V122.291H716.548V122.038H717.054V121.784H717.561V121.531H718.067V121.278H718.574V121.025H719.333V120.772H719.84V120.518H720.346V120.265H720.852V120.012H721.359V119.759H721.865V119.506H722.371V119.252H722.878V118.999H723.384V118.746H724.144V118.493H724.65V118.24H725.157V117.986H725.663V117.733H726.423V117.48H726.929V117.227H727.435V116.974H727.942V116.72H728.701V116.467H729.208V116.214H729.714V115.961H730.474V115.708H730.98V115.454H731.74V115.201H732.246V114.948H733.006V114.695H733.512V114.442H734.272V114.189H734.778V113.935H735.538V113.682H736.044V113.429H736.804V113.176H737.31V112.923H738.07V112.669H738.829V112.416H739.589V112.163H740.348V111.91H740.855V111.657H741.614V111.403H742.374V111.15H743.133V110.897H743.893V110.644H744.653V110.391H745.412V110.137H746.172V109.884H746.931V109.631H747.691V109.378H748.451V109.125H749.463V108.871H750.223V108.618H750.983V108.365H751.742V108.112H752.502V107.859H753.514V107.605H754.527V107.352H755.287V107.099H756.3V106.846H757.312V106.593H758.325V106.339H759.085V106.086H760.098V105.833H761.11V105.58H762.123V105.327H763.389V105.073H764.402V104.82H765.415V104.567H766.681V104.314H767.693V104.061H768.959V103.808H770.225V103.554H771.491V103.301H772.757V103.048H774.276V102.795H775.542V102.542H777.062V102.288H778.581V102.035H780.353V101.782H782.126V101.529H783.898V101.276H785.67V101.022H787.696V100.769H790.228V100.516H792.76V100.263H795.292V100.01H799.596V99.7564H803.647V99.5032H821.371V99.7564H826.181V100.01H829.473V100.263H832.765V100.516H835.803V100.769H837.575V101.022H839.601V101.276H841.626V101.529H843.399V101.782H845.424V102.035H847.197V102.288H848.463V102.542H849.982V102.795H851.248V103.048H852.514V103.301H854.033V103.554H855.299V103.808H856.818V104.061H857.831V104.314H859.097V104.567H860.11V104.82H861.122V105.073H862.135V105.327H863.401V105.58H864.414V105.833H865.427V106.086H866.439V106.339H867.452V106.593H868.465V106.846H869.225V107.099H870.237V107.352H870.997V107.605H872.01V107.859H872.769V108.112H873.782V108.365H874.542V108.618H875.301V108.871H876.314V109.125H877.074V109.378H878.086V109.631H878.846V109.884H879.606V110.137H880.365V110.391H880.872V110.644H881.631V110.897H882.391V111.15H883.15V111.403H883.91V111.657H884.67V111.91H885.429V112.163H885.936V112.416H886.695V112.669H887.455V112.923H888.214V113.176H888.974V113.429H889.48V113.682H890.24V113.935H890.746V114.189H891.506V114.442H892.012V114.695H892.519V114.948H893.278V115.201H893.785V115.454H894.544V115.708H895.051V115.961H895.81V116.214H896.317V116.467H897.076V116.72H897.582V116.974H898.342V117.227H898.848V117.48H899.355V117.733H899.861V117.986H900.368V118.24H900.874V118.493H901.634V118.746H902.14V118.999H902.646V119.252H903.153V119.506H903.659V119.759H904.166V120.012H904.925V120.265H905.432V120.518H905.938V120.772H906.444V121.025H906.951V121.278H907.457V121.531H907.963V121.784H908.47V122.038H908.976V122.291H909.483V122.544H909.989V122.797H910.495V123.05H911.002V123.304H911.508V123.557H912.015V123.81H912.268V124.063H912.774V124.316H913.281V124.57H913.787V124.823H914.293V125.076H914.8V125.329H915.306V125.582H915.813V125.835H916.319V126.089H916.572V126.342H917.079V126.595H917.585V126.848H918.091V127.101H918.598V127.355H918.851V127.608H919.357V127.861H919.864V128.114H920.117V128.367H920.623V128.621H921.13V128.874H921.383V129.127H921.889V129.38H922.396V129.633H922.649V129.887H923.155V130.14H923.662V130.393H924.168V130.646H924.421V130.899H924.928V131.153H925.434V131.406H925.687V131.659H926.194V131.912H926.7V132.165H926.953V132.419H927.46V132.672H927.713V132.925H928.219V133.178H928.472V133.431H928.979V133.685H929.232V133.938H929.738V134.191H929.991V134.444H930.498V134.697H930.751V134.951H931.257V135.204H931.511V135.457H932.017V135.71H932.27V135.963H932.777V136.216H933.03V136.47H933.536V136.723H933.789V136.976H934.296V137.229H934.549V137.482H935.055V137.736H935.309V137.989H935.815V138.242H936.068V138.495H936.321V138.748H936.828V139.002H937.081V139.255H937.587V139.508H937.841V139.761H938.094V140.014H938.6V140.268H938.853V140.521H939.106V140.774H939.613V141.027H939.866V141.28H940.119V141.534H940.626V141.787H940.879V142.04H941.385V142.293H941.638V142.546H941.892V142.8H942.398V143.053H942.651V143.306H942.904V143.559H943.411V143.812H943.664V144.066H943.917V144.319H944.424V144.572H944.677V144.825H944.93V145.078H945.183V145.332H945.69V145.585H945.943V145.838H946.196V146.091H946.449V146.344H946.702V146.597H947.209V146.851H947.462V147.104H947.715V147.357H947.968V147.61H948.475V147.863H948.728V148.117H948.981V148.37H949.234V148.623H949.741V148.876H949.994V149.129H950.247V149.383H950.5V149.636H950.753V149.889H951.26V150.142H951.513V150.395H951.766V150.649H952.019V150.902H952.273V151.155H952.779V151.408H953.032V151.661H953.285V151.915H953.539V152.168H953.792V152.421H954.045V152.674H954.298V152.927H954.551V153.181H955.058V153.434H955.311V153.687H955.564V153.94H955.817V154.193H956.071V154.447H956.324V154.7H956.577V154.953H956.83V155.206H957.083V155.459H957.59V155.713H957.843V155.966H958.096V156.219H958.349V156.472H958.603V156.725H958.856V156.978H959.109V157.232H959.362V157.485H959.615V157.738H960.122V157.991H960.375V158.244H960.628V158.498H960.881V158.751H961.134V159.004H961.388V159.257H961.641V159.51H961.894V159.764H962.147V160.017H962.4V160.27H962.654V160.523H962.907V160.776H963.16V161.03H963.413V161.283H963.666V161.536H963.92V161.789H964.173V162.042H964.426V162.296H964.679V162.549H964.932V162.802H965.186V163.055H965.439V163.308H965.692V163.562H965.945V163.815H966.198V164.068H966.452V164.321H966.705V164.574H966.958V164.828H967.211V165.081H967.464V165.334H974.047V165.587H977.339V165.84H979.111V166.094H980.63V166.347H982.403V166.6H984.175V166.853H985.441V167.106H986.454V167.359H987.467V167.613H988.48V167.866H989.492V168.119H990.505V168.372H991.518V168.625H992.531V168.879H993.29V169.132H994.05V169.385H994.556V169.638H995.316V169.891H996.075V170.145H996.582V170.398H997.341V170.651H998.101V170.904H998.861V171.157H999.367V171.411H1000.13V171.664H1000.63V171.917H1001.14V172.17H1001.9V172.423H1002.41V172.677H1002.91V172.93H1003.42V173.183H1003.92V173.436H1004.43V173.689H1004.94V173.943H1005.44V174.196H1005.95V174.449H1006.46V174.702H1006.96V174.955H1007.47V175.209H1007.98V175.462H1008.23V175.715H1008.74V175.968H1009.24V176.221H1009.49V176.475H1010V176.728H1010.51V176.981H1010.76V177.234H1011.27V177.487H1011.77V177.74H1012.03V177.994H1012.53V178.247H1013.04V178.5H1013.29V178.753H1013.8V179.006H1014.05V179.26H1014.56V179.513H1014.81V179.766H1015.07V180.019H1015.57V180.272H1015.82V180.526H1016.08V180.779H1016.58V181.032H1016.84V181.285H1017.09V181.538H1017.6V181.792H1017.85V182.045H1018.1V182.298H1018.61V182.551H1018.86V182.804H1019.12V183.058H1019.62V183.311H1019.88V183.564H1020.13V183.817H1020.38V184.07H1020.89V184.324H1021.14V184.577H1021.39V184.83H1021.65V185.083H1021.9V185.336H1022.15V185.59H1022.41V185.843H1022.66V186.096H1022.91V186.349H1023.17V186.602H1023.67V186.856H1023.93V187.109H1024.18V187.362H1024.43V187.615H1024.69V187.868H1024.94V188.121H1025.19V188.375H1025.45V188.628H1025.7V188.881H1025.95V189.134H1026.21V189.387H1026.46V189.641H1026.71V189.894H1026.97V190.147H1027.22V190.4H1027.47V190.653H1027.72V190.907H1027.98V191.413H1028.23V191.666H1028.48V191.919H1028.74V192.173H1028.99V192.426H1029.24V192.679H1029.5V192.932H1029.75V193.185H1030V193.439H1030.26V193.692H1030.51V194.198H1030.76V194.451H1031.02V194.705H1031.27V194.958H1031.52V195.464H1031.78V195.717H1032.03V195.971H1032.28V196.477H1032.54V196.73H1032.79V196.983H1033.04V197.49H1033.3V197.743H1033.55V197.996H1033.8V529.175H837.322V527.909H837.575V527.15H836.562V527.403H833.777V527.656H830.739V527.909H827.701V528.163H823.903V528.416H817.573V528.669H807.951V528.416H801.115V528.163H797.824V527.909H794.532V527.656H791.241V527.403H788.962V527.15H786.936V526.897H785.164V526.643H783.138V526.39H781.113V526.137H779.34V525.884H777.821V525.631H776.555V525.377H775.036V525.124H773.77V524.871H772.251V524.618H770.985V524.365H769.466V524.111H768.453V523.858H767.187V523.605H766.174V523.352H765.161V523.099H763.895V522.845H762.883V522.592H761.87V522.339H760.604V522.086H759.591V521.833H758.578V521.579H757.819V521.326H756.806V521.073H756.046V520.82H755.034V520.567H754.021V520.313H753.261V520.06H752.248V519.807H751.489V519.554H750.476V519.301H749.717V519.047H748.704V518.794H747.944V518.541H747.438V518.288H746.678V518.035H745.919V517.782H745.159V517.528H744.399V517.275H743.64V517.022H742.88V516.769H742.121V516.516H741.361V516.262H740.602V516.009H739.842V515.756H739.082V515.503H738.323V515.25H737.816V514.996H737.057V514.743H736.55V514.49H735.791V514.237H735.031V513.984H734.525V513.73H733.765V513.477H733.259V513.224H732.499V512.971H731.74V512.718H731.233V512.464H730.727V512.211H729.967V511.958H729.461V511.705H729.208V511.958H728.955V512.211H728.701V512.464H728.448V512.718H728.195V512.971H727.942V513.224H727.689V513.477H727.435V513.73H726.929V513.984H726.676V514.237H726.423V514.49H726.169V514.743H725.916V514.996H725.663V515.25H725.157V515.503H724.903V515.756H724.65V516.009H724.397V516.262H724.144V516.516H723.637V516.769H723.384V517.022H723.131V517.275H722.625V517.528H722.371V517.782H722.118V518.035H721.612V518.288H721.359V518.541H721.105V518.794H720.599V519.047H720.346V519.301H720.093V519.554H719.586V519.807H719.333V520.06H719.08V520.313H718.574V520.567H718.32V520.82H717.814V521.073H717.561V521.326H717.054V521.579H716.548V521.833H716.295V522.086H715.788V522.339H715.535V522.592H715.029V522.845H714.776V523.099H714.269V523.352H713.763V523.605H713.51V523.858H713.003V524.111H712.75V524.365H712.244V524.618H711.737V524.871H711.231V525.124H710.724V525.377H710.471V525.631H709.965V525.884H709.459V526.137H708.952V526.39H708.446V526.643H707.939V526.897H707.433V527.15H706.927V527.403H706.673V529.175" fill="url(#paint2_linear_35_85452)"/>
</g>
<defs>
<linearGradient id="paint0_linear_35_85452" x1="457.281" y1="612.592" x2="457.281" y2="54.9985" gradientUnits="userSpaceOnUse">
<stop stop-color="#D5FDFF" stop-opacity="0.31"/>
<stop offset="1" stop-color="#C9FDFF"/>
</linearGradient>
<linearGradient id="paint1_linear_35_85452" x1="631.474" y1="529.175" x2="631.474" y2="0.503906" gradientUnits="userSpaceOnUse">
<stop stop-color="#D5FDFF" stop-opacity="0.31"/>
<stop offset="1" stop-color="#C9FDFF"/>
</linearGradient>
<linearGradient id="paint2_linear_35_85452" x1="672.492" y1="529.175" x2="672.492" y2="99.5032" gradientUnits="userSpaceOnUse">
<stop stop-color="#D5FDFF" stop-opacity="0.31"/>
<stop offset="1" stop-color="#C9FDFF"/>
</linearGradient>
</defs>
</svg>
