<svg width="1440" height="840" viewBox="0 0 1440 840" fill="none" xmlns="http://www.w3.org/2000/svg">
<mask id="mask0_34_587" style="mask-type:alpha" maskUnits="userSpaceOnUse" x="0" y="0" width="1440" height="840">
<rect width="1440" height="840" fill="#1B1B4A"/>
</mask>
<g mask="url(#mask0_34_587)">
<rect width="1440" height="840" fill="#67F6C0"/>
<g style="mix-blend-mode:screen" opacity="0.68">
<path d="M-220.205 1288C-232.058 1288 -243.915 1287.91 -255.778 1287.71C-259.513 1287.66 -263.247 1287.57 -267 1287.48V1107.96V962.785V762.053C-250.687 748.187 -233.686 735.114 -216.086 722.886C-205.37 715.448 -194.179 708.266 -182.613 701.802H-182.612C-153.722 685.658 -122.475 673.992 -90.3877 673.992C-89.3465 673.992 -88.3124 674.005 -87.2695 674.029C-82.918 674.135 -78.5666 674.434 -74.1975 674.998C7.65195 685.393 59.3232 771.673 137.455 798.189C155.043 804.162 173.22 806.815 191.528 806.815C235.647 806.815 280.53 791.413 319.811 769.946C375.375 739.571 423.84 697.638 478.489 665.643C490.012 658.891 501.992 652.584 514.301 646.97C516.789 645.837 519.29 644.731 521.802 643.656C552.869 630.364 585.825 621.737 618.669 621.737C632.373 621.737 646.055 623.238 659.576 626.529C724.087 642.234 771.003 694.166 823.969 735.345C833.273 742.579 842.767 749.484 852.572 755.798C902.247 787.789 960.847 803.568 1019.41 803.568C1085.72 803.568 1151.99 783.34 1205.23 743.518C1225 728.736 1243.45 712.435 1261.24 695.367C1310.87 647.763 1355.4 594.223 1409.2 551.296C1458.44 512.024 1521.46 482.336 1582.8 480.134C1585.25 480.046 1587.7 480 1590.13 480C1613.23 480 1635.99 484.008 1657.61 492.992C1661.47 494.599 1665.31 496.366 1669.09 498.299C1722.98 525.767 1756.77 580.315 1801.19 621.402C1852.12 668.55 1918.96 698.009 1988 704.545C1918.96 698.009 1852.12 668.55 1801.19 621.402C1756.77 580.315 1722.98 525.767 1669.09 498.299C1644.13 485.573 1617.35 480 1590.13 480C1587.7 480 1585.25 480.046 1582.8 480.134C1604.7 491.375 1624.84 506.544 1641.28 524.181C1693.86 580.526 1719.69 655.864 1751.4 726.128C1783.13 796.375 1826.56 867.713 1897.04 898.863C1919.87 908.964 1944.1 914.186 1968.81 917.691C1975.17 918.593 1981.59 919.382 1988 920.112V1173.66C1941.17 1186.05 1891.65 1191.51 1843.35 1195.27C1740.5 1203.25 1637.44 1205.84 1534.32 1205.84C1439.99 1205.84 1345.62 1203.68 1251.21 1201.52C1156.81 1199.36 1062.4 1197.2 968.06 1197.2C880.45 1197.2 792.908 1199.06 705.469 1204.52C396.113 1223.81 89.4697 1288 -220.205 1288ZM-267 762.053V873.475C-255.038 858.745 -244.327 842.73 -234.408 826.697C-209.304 786.12 -186.701 742.919 -151.713 710.465C-135.558 695.471 -116.285 683.209 -95.3913 676.003C-92.9602 675.157 -90.1939 674.54 -87.2695 674.029C-87.273 674.029 -87.2695 674.029 -87.273 674.029C-88.3124 674.005 -89.35 673.992 -90.3877 673.992C-135.322 673.992 -178.602 696.867 -216.086 722.886C-233.686 735.114 -250.687 748.187 -267 762.053Z" fill="url(#paint0_radial_34_587)"/>
</g>
</g>
<g clip-path="url(#clip0_34_587)">
<path d="M708.803 93.9128C707.452 94.4277 706.615 95.7794 706.743 97.2599C708.932 117.471 736.481 120.432 742.081 119.274C751.672 117.214 769.309 103.439 774.523 97.8392C783.663 87.9909 781.281 70.9335 769.18 59.6691C757.079 48.4691 739.893 47.3105 730.753 57.1587C716.656 72.2852 727.985 85.8668 708.803 93.9128Z" fill="#FFD167"/>
<path d="M758.752 108.975C758.881 108.524 758.495 108.202 757.465 107.366C756.435 106.658 755.341 105.949 754.247 105.306C752.573 104.212 750.9 102.667 750.578 100.671C750.063 97.7104 752.444 95.1357 754.569 93.0759C756.693 91.0162 759.01 88.2483 758.302 85.3518C757.143 80.9104 750.127 80.3955 748.711 76.0185C748.003 73.8299 749.033 71.5127 750.256 69.5817C751.479 67.6506 753.088 65.9127 753.667 63.7242C754.569 60.6989 753.796 57.4161 751.672 55.0345C750.385 53.5541 746.265 49.1771 743.755 50.4C722.964 60.7633 684.279 94.8782 724.187 118.372C728.307 120.497 733.07 121.205 737.64 120.368C742.017 119.595 746.136 117.729 749.934 115.476C752.573 113.931 755.405 112.193 757.658 110.133C758.109 109.876 758.431 109.425 758.752 108.975Z" fill="#C1831D"/>
<path d="M708.803 93.9128C707.452 94.4278 706.615 95.7795 706.743 97.26C708.932 117.471 733.392 122.17 742.081 119.209C751.35 116.055 769.309 103.375 774.523 97.7749C783.663 87.9266 781.281 70.8692 769.18 59.6048C757.079 48.3404 739.893 47.2462 730.753 57.0945C716.656 72.2853 727.985 85.8669 708.803 93.9128Z" stroke="black" stroke-width="6.43678" stroke-linecap="round" stroke-linejoin="round"/>
<path d="M738.348 58.5747C737.189 37.0114 782.633 -6.62993 741.502 -41.2598C663.939 -106.593 563.654 -38.6851 563.654 -38.6851C563.654 -38.6851 548.141 24.9747 550.523 68.7448C552.904 112.515 596.867 145.729 648.683 142.961C700.564 140.064 740.729 102.345 738.348 58.5747Z" fill="#FFD167"/>
<path d="M678.744 108.202C676.362 106.335 672.886 105.627 671.277 103.117C669.861 100.929 670.183 98.032 669.732 95.4573C668.767 90.3079 664.583 86.3815 659.369 85.6734C648.491 84.4504 638.964 98.032 628.601 94.4274C626.606 93.7194 624.868 92.432 622.872 91.8527C617.015 90.1792 611.286 95.0711 608.518 100.542C607.681 102.152 606.973 103.954 605.493 105.048C602.854 107.044 599.121 106.014 595.902 106.529C588.822 107.623 585.346 115.411 585.281 121.848C585.281 123.715 585.603 125.581 586.376 127.255C603.433 138.198 625.061 144.184 648.362 142.961C659.176 142.381 669.796 140.257 679.967 136.524C680.224 135.623 680.353 134.722 680.353 133.821C680.224 130.216 677.521 126.74 678.615 123.329C679.065 121.848 680.224 120.625 680.996 119.273C682.927 115.476 681.962 110.906 678.744 108.202Z" fill="#C1831D"/>
<path d="M518.66 -164.009C514.927 -150.428 514.283 -136.91 516.858 -122.75C519.433 -112.451 522.008 -102.795 527.801 -93.784C533.594 -84.1288 540.674 -77.692 546.467 -68.6805C554.191 -57.738 564.49 -47.4392 561.916 -33.9219C556.766 0.836695 549.042 33.6643 550.329 67.7792C550.973 79.3654 554.191 90.9516 560.628 101.25C561.916 102.538 563.203 103.825 563.847 105.756C564.49 106.4 565.134 107.044 565.778 107.687C566.421 108.331 566.421 109.618 567.065 110.262C574.145 117.342 581.226 124.423 590.237 128.929C590.881 129.572 591.525 130.216 592.168 130.86C635.939 153.388 691.939 146.308 723.479 105.756C724.122 104.469 725.41 102.538 726.697 101.25C736.352 87.0895 739.571 71.6413 738.283 55.5493C742.145 40.101 750.513 27.2275 755.663 12.4229C757.594 4.69874 760.168 -3.02538 758.881 -10.7495C756.95 -22.9794 751.801 -33.9219 741.566 -41.3242" stroke="black" stroke-width="6.43678" stroke-linecap="round" stroke-linejoin="round"/>
<path d="M579.231 76.2115C580.325 77.1126 580.711 78.6574 580.196 80.0092C572.15 98.6115 545.502 91.7885 540.481 88.9563C531.985 84.1931 518.596 67.2643 515.313 60.377C509.52 48.2758 516.858 32.6988 531.792 25.554C546.66 18.4092 563.46 22.4644 569.254 34.5655C578.201 53.2322 563.332 62.823 579.231 76.2115Z" fill="#FFD167"/>
<path d="M573.309 75.053C573.244 75.1817 573.18 75.3748 573.116 75.5035C571.7 77.9495 565.649 78.1426 563.461 76.984C560.757 75.5035 559.727 72.1564 559.598 69.0667C559.47 65.9771 560.113 62.8874 559.663 59.8622C559.212 56.8369 557.217 53.6828 554.127 53.2966C549.107 52.653 545.373 59.6691 540.288 58.8323C535.718 58.0599 534.431 51.6231 530.182 49.6921C527.865 48.6622 525.162 49.1771 523.359 50.9794C522.136 52.2668 521.557 54.0047 520.785 55.5495C520.012 57.0943 518.725 58.7035 516.987 58.8966C512.996 59.476 513.189 52.138 513.061 49.6921C515.507 18.538 558.826 18.4093 562.366 25.2323C570.348 34.5012 572.858 45.2507 572.472 57.1587C572.343 61.3426 571.828 65.6553 572.408 69.8392C572.601 71.3196 573.695 73.5725 573.309 75.053Z" fill="#C1831D"/>
<path d="M573.438 69.3241C558.826 67.6505 565.906 38.4919 555.157 32.3126C534.881 20.5333 512.481 51.7517 517.952 65.1402C499.35 35.9815 544.729 10.685 562.173 26.3907C577.686 34.9516 568.932 60.7631 573.438 69.3241Z" fill="#8B5612"/>
<path d="M564.684 93.9126C556.509 95.908 547.304 93.4621 540.546 88.9563C532.371 83.5494 518.661 67.2643 515.378 60.377C509.585 48.2758 516.923 32.6988 531.856 25.554C546.725 18.4092 563.525 22.4644 569.318 34.5655C578.265 53.2322 563.396 62.823 579.295 76.2115" stroke="black" stroke-width="6.43678" stroke-linecap="round" stroke-linejoin="round"/>
<path d="M724.766 35.5311C737.671 35.5311 748.132 25.07 748.132 12.1656C748.132 -0.738859 737.671 -11.2 724.766 -11.2C711.862 -11.2 701.401 -0.738859 701.401 12.1656C701.401 25.07 711.862 35.5311 724.766 35.5311Z" fill="#FFAD83"/>
<path d="M664.325 43.77C675.416 43.77 684.407 36.6807 684.407 27.9356C684.407 19.1904 675.416 12.1011 664.325 12.1011C653.233 12.1011 644.242 19.1904 644.242 27.9356C644.242 36.6807 653.233 43.77 664.325 43.77Z" fill="#FFAD83"/>
<path d="M621.453 10.044C623.52 -2.69392 614.87 -14.6959 602.132 -16.7632C589.394 -18.8305 577.392 -10.1802 575.325 2.55772C573.257 15.2957 581.908 27.2977 594.646 29.365C607.384 31.4323 619.386 22.782 621.453 10.044Z" fill="#FFAD83"/>
<path d="M701.851 51.5C693.741 51.5 687.111 58.5747 687.111 58.5747C687.111 58.5747 693.676 43.8345 701.851 43.8345C710.026 43.8345 716.591 58.5747 716.591 58.5747C716.591 58.5747 709.961 51.5 701.851 51.5Z" fill="black"/>
<path d="M628.729 68.6807C636.87 68.6807 643.469 62.0812 643.469 53.9404C643.469 45.7996 636.87 39.2002 628.729 39.2002C620.588 39.2002 613.989 45.7996 613.989 53.9404C613.989 62.0812 620.588 68.6807 628.729 68.6807Z" fill="black"/>
<path d="M621.778 63.9815C623.2 63.9815 624.353 62.8287 624.353 61.4067C624.353 59.9848 623.2 58.832 621.778 58.832C620.356 58.832 619.203 59.9848 619.203 61.4067C619.203 62.8287 620.356 63.9815 621.778 63.9815Z" fill="white"/>
<path d="M628.665 54.6484C628.985 54.6484 629.245 54.389 629.245 54.0691C629.245 53.7491 628.985 53.4897 628.665 53.4897C628.345 53.4897 628.086 53.7491 628.086 54.0691C628.086 54.389 628.345 54.6484 628.665 54.6484Z" fill="white"/>
<mask id="mask1_34_587" style="mask-type:alpha" maskUnits="userSpaceOnUse" x="676" y="118" width="27" height="44">
<path d="M677.134 126.096C680.288 119.66 689.493 116.634 696.96 119.531C698.311 120.11 699.212 121.333 699.277 122.814L702.238 161.113L677.585 130.152C676.748 129.057 676.555 127.448 677.134 126.096Z" fill="#49371F"/>
</mask>
<g mask="url(#mask1_34_587)">
<path d="M677.134 126.096C680.288 119.66 689.493 116.634 696.96 119.531C698.311 120.11 699.212 121.333 699.277 122.814L702.238 161.113L677.585 130.152C676.748 129.057 676.555 127.448 677.134 126.096Z" fill="#49371F"/>
<path d="M696.445 163.43C697.474 156.027 700.114 150.363 703.976 145.857" stroke="#5B462C" stroke-width="3.34713" stroke-miterlimit="10"/>
<path d="M690.78 158.023C691.36 149.14 697.088 140.901 704.169 132.791" stroke="#5B462C" stroke-width="3.34713" stroke-miterlimit="10"/>
<path d="M684.279 155.706C686.146 144.184 692.969 132.919 701.916 121.784" stroke="#5B462C" stroke-width="3.34713" stroke-miterlimit="10"/>
<path d="M680.932 142.253C684.215 133.949 690.073 121.719 696.896 116.892" stroke="#5B462C" stroke-width="3.34713" stroke-miterlimit="10"/>
<path d="M673.723 140C675.911 130.345 681.254 118.501 688.077 113.673" stroke="#5B462C" stroke-width="3.34713" stroke-miterlimit="10"/>
</g>
<path d="M677.134 126.096C680.288 119.66 689.493 116.634 696.96 119.531C698.311 120.11 699.212 121.333 699.277 122.814L702.238 161.113L677.585 130.152C676.748 129.057 676.555 127.448 677.134 126.096Z" stroke="black" stroke-width="6.43678" stroke-linecap="round" stroke-linejoin="round"/>
<mask id="mask2_34_587" style="mask-type:alpha" maskUnits="userSpaceOnUse" x="575" y="110" width="31" height="43">
<path d="M588.242 110.906C595.258 109.49 603.304 114.897 605.557 122.621C605.943 124.037 605.493 125.517 604.398 126.483L575.884 152.294L585.281 113.867C585.603 112.386 586.762 111.228 588.242 110.906Z" fill="#49371F"/>
</mask>
<g mask="url(#mask2_34_587)">
<path d="M588.242 110.906C595.258 109.49 603.304 114.897 605.557 122.621C605.943 124.037 605.493 125.517 604.398 126.483L575.884 152.294L585.281 113.867C585.603 112.386 586.762 111.228 588.242 110.906Z" fill="#49371F"/>
<path d="M570.477 149.011C576.913 145.278 583.093 143.926 589.014 144.248" stroke="#5B462C" stroke-width="3.34713" stroke-miterlimit="10"/>
<path d="M571.249 141.223C578.651 136.267 588.628 135.752 599.378 136.46" stroke="#5B462C" stroke-width="3.34713" stroke-miterlimit="10"/>
<path d="M569.125 134.722C579.359 129.186 592.49 127.641 606.78 127.963" stroke="#5B462C" stroke-width="3.34713" stroke-miterlimit="10"/>
<path d="M577.75 123.779C586.311 121.333 599.571 118.501 607.552 120.947" stroke="#5B462C" stroke-width="3.34713" stroke-miterlimit="10"/>
<path d="M575.111 116.699C584.058 112.515 596.738 109.554 604.72 112" stroke="#5B462C" stroke-width="3.34713" stroke-miterlimit="10"/>
</g>
<path d="M588.242 110.906C595.258 109.49 603.304 114.897 605.557 122.621C605.943 124.037 605.493 125.517 604.398 126.483L575.884 152.294L585.281 113.867C585.603 112.386 586.762 111.228 588.242 110.906Z" stroke="black" stroke-width="6.43678" stroke-linecap="round" stroke-linejoin="round"/>
</g>
<defs>
<radialGradient id="paint0_radial_34_587" cx="0" cy="0" r="1" gradientUnits="userSpaceOnUse" gradientTransform="translate(1052.92 615.184) rotate(72.0249) scale(694.805 694.752)">
<stop stop-color="#A6DD82"/>
<stop offset="0.99928" stop-color="#46BE7E"/>
<stop offset="1" stop-color="#46BE7E"/>
</radialGradient>
<clipPath id="clip0_34_587">
<rect width="300" height="168" fill="white" transform="translate(500)"/>
</clipPath>
</defs>
</svg>
