<svg width="1440" height="920" viewBox="0 0 1440 920" fill="none" xmlns="http://www.w3.org/2000/svg">
<mask id="mask0_88_10" style="mask-type:alpha" maskUnits="userSpaceOnUse" x="0" y="0" width="1440" height="920">
<rect width="1440" height="920" fill="#B6FBFF"/>
</mask>
<g mask="url(#mask0_88_10)">
<rect width="1440" height="920" fill="#B6FBFF"/>
<g style="mix-blend-mode:screen" opacity="0.5">
<path d="M-397 1016V468.846C-359.291 455.387 -319.151 448.412 -279.131 448.412C-249.729 448.412 -220.393 452.176 -192.13 459.902C-170.091 465.923 -148.703 474.375 -128.461 485.309C-53.3768 525.882 15.1382 598.104 97.6201 598.104C103.621 598.104 109.681 597.722 115.836 596.919C178.254 588.767 229.185 537.126 291.92 532.108C295.442 531.826 298.93 531.689 302.385 531.689C331.52 531.689 358.337 541.389 384.301 555.317C371.992 560.927 360.012 567.23 348.489 573.977C293.84 605.952 245.375 647.856 189.811 678.21C150.53 699.663 105.647 715.055 61.5278 715.055C43.22 715.055 25.0426 712.403 7.45538 706.434C-70.6768 679.936 -122.348 593.715 -204.198 583.327C-208.567 582.763 -212.918 582.464 -217.269 582.358C-218.312 582.334 -219.347 582.321 -220.388 582.321C-252.475 582.321 -283.722 593.979 -312.612 610.112C-309.851 582.937 -303.932 556.555 -289.923 532.513C-266.545 492.422 -229.214 478.477 -192.13 459.902C-220.393 452.176 -249.729 448.412 -279.131 448.412C-319.151 448.412 -359.291 455.387 -397 468.846V870.919V1016ZM889.405 711.81C830.848 711.81 772.247 696.041 722.572 664.072C712.766 657.762 703.273 650.862 693.969 643.632C727.373 635.026 760.958 622.923 794.704 610.818C857.474 588.302 920.776 565.785 984.353 565.785C995.374 565.785 1006.39 566.461 1017.43 567.929V567.931C1018.58 568.083 1019.72 568.244 1020.87 568.413C1058.49 573.981 1095.04 588.823 1131.24 603.682C1113.45 620.738 1095 637.028 1075.23 651.8C1021.99 691.595 955.723 711.81 889.405 711.81ZM1858 612.854C1788.96 606.321 1722.12 576.882 1671.19 529.766C1626.77 488.707 1592.98 434.196 1539.09 406.746C1535.31 404.815 1531.47 403.049 1527.61 401.443C1541.37 387.097 1556.39 374.358 1573.31 364.102C1604.15 345.381 1638.98 337 1674.45 337C1739.56 337 1806.87 365.213 1856.15 409.493C1856.77 410.057 1857.38 410.62 1858 411.183V612.854Z" fill="url(#paint0_radial_88_10)"/>
</g>
<g style="mix-blend-mode:screen" opacity="0.68">
<path d="M-350.205 1196C-362.058 1196 -373.915 1195.91 -385.778 1195.71C-389.513 1195.66 -393.247 1195.57 -397 1195.48V1015.96V870.785V670.053C-380.687 656.187 -363.686 643.114 -346.086 630.886C-335.37 623.448 -324.179 616.266 -312.613 609.802H-312.612C-283.722 593.658 -252.475 581.992 -220.388 581.992C-219.347 581.992 -218.312 582.005 -217.269 582.029C-212.918 582.135 -208.567 582.434 -204.198 582.998C-122.348 593.393 -70.6768 679.673 7.45538 706.189C25.0426 712.162 43.22 714.815 61.5278 714.815C105.647 714.815 150.53 699.413 189.811 677.946C245.375 647.571 293.84 605.638 348.489 573.643C360.012 566.891 371.992 560.584 384.301 554.97C386.789 553.837 389.29 552.731 391.802 551.656C422.869 538.364 455.825 529.737 488.669 529.737C502.373 529.737 516.055 531.238 529.576 534.529C594.087 550.234 641.003 602.166 693.969 643.345C703.273 650.579 712.766 657.484 722.572 663.798C772.247 695.789 830.848 711.568 889.405 711.568C955.723 711.568 1021.99 691.34 1075.23 651.518C1095 636.736 1113.45 620.435 1131.24 603.367C1180.87 555.763 1225.4 502.223 1279.2 459.296C1328.44 420.024 1391.46 390.336 1452.8 388.134C1455.25 388.046 1457.7 388 1460.13 388C1483.23 388 1505.99 392.008 1527.61 400.992C1531.47 402.599 1535.31 404.366 1539.09 406.299C1592.98 433.767 1626.77 488.315 1671.19 529.402C1722.12 576.55 1788.96 606.009 1858 612.545C1788.96 606.009 1722.12 576.55 1671.19 529.402C1626.77 488.315 1592.98 433.767 1539.09 406.299C1514.13 393.573 1487.35 388 1460.13 388C1457.7 388 1455.25 388.046 1452.8 388.134C1474.7 399.375 1494.84 414.544 1511.28 432.181C1563.86 488.526 1589.69 563.864 1621.4 634.128C1653.13 704.375 1696.56 775.713 1767.04 806.863C1789.87 816.964 1814.1 822.186 1838.81 825.691C1845.17 826.593 1851.59 827.382 1858 828.112V1081.66C1811.17 1094.05 1761.65 1099.51 1713.35 1103.27C1610.5 1111.25 1507.44 1113.84 1404.32 1113.84C1309.99 1113.84 1215.62 1111.68 1121.21 1109.52C1026.81 1107.36 932.398 1105.2 838.06 1105.2C750.45 1105.2 662.908 1107.06 575.469 1112.52C266.113 1131.81 -40.5303 1196 -350.205 1196ZM-397 670.053V781.475C-385.038 766.745 -374.327 750.73 -364.408 734.697C-339.304 694.12 -316.701 650.919 -281.713 618.465C-265.558 603.471 -246.285 591.209 -225.391 584.003C-222.96 583.157 -220.194 582.54 -217.269 582.029C-217.273 582.029 -217.269 582.029 -217.273 582.029C-218.312 582.005 -219.35 581.992 -220.388 581.992C-265.322 581.992 -308.602 604.867 -346.086 630.886C-363.686 643.114 -380.687 656.187 -397 670.053Z" fill="url(#paint1_radial_88_10)"/>
</g>
</g>
<defs>
<radialGradient id="paint0_radial_88_10" cx="0" cy="0" r="1" gradientUnits="userSpaceOnUse" gradientTransform="translate(968.617 527.064) rotate(91.5703) scale(513.094 513.392)">
<stop stop-color="#A6DD82"/>
<stop offset="1" stop-color="#3DA873"/>
</radialGradient>
<radialGradient id="paint1_radial_88_10" cx="0" cy="0" r="1" gradientUnits="userSpaceOnUse" gradientTransform="translate(922.922 523.184) rotate(72.0249) scale(694.805 694.752)">
<stop stop-color="#A6DD82"/>
<stop offset="0.99928" stop-color="#46BE7E"/>
<stop offset="1" stop-color="#46BE7E"/>
</radialGradient>
</defs>
</svg>
