<svg width="1440" height="61" viewBox="0 0 1440 61" fill="none" xmlns="http://www.w3.org/2000/svg">
<path d="M2.22053 13.248C175.392 36.9281 349.531 51.5808 524.388 57.5863V57.5859C584.676 59.7134 644.83 60.7812 704.943 60.7812C821.341 60.7812 937.61 56.7766 1054.51 48.698L1054.67 48.6868L1054.83 48.6544C1055.3 48.5606 1055.71 48.5158 1056.15 48.4905C1056.6 48.4656 1057.09 48.4639 1057.69 48.4643H1057.79L1057.88 48.4573C1090.83 46.0551 1122.82 43.4134 1155.76 40.5314L1155.77 40.5306L1155.78 40.5301C1209.89 35.4862 1262.09 29.9605 1316.46 22.7522L1316.13 20.2093V22.7742C1316.9 22.7738 1317.59 22.7007 1318.18 22.6418C1318.79 22.5808 1319.3 22.5335 1319.73 22.5343C1320.2 22.5339 1320.59 22.4592 1320.9 22.3828C1321.36 22.2641 1321.67 22.1429 1321.85 22.0894C1321.94 22.0616 1321.99 22.0487 1322 22.0475V22.0471L1321.9 21.4623V22.0541C1321.97 22.0541 1322 22.0471 1322 22.0471L1321.9 21.4623V22.0541H1322L1322.09 22.0467C1323.79 21.9159 1325.37 21.6611 1326.87 21.422C1328.37 21.1813 1329.8 20.9555 1331.23 20.8464L1331.03 18.2881V20.8538C1331.81 20.8534 1332.46 20.777 1333 20.7181C1333.54 20.6571 1333.97 20.6131 1334.4 20.6135H1334.56L1334.72 20.594C1335.78 20.4604 1336.79 20.2691 1337.75 20.0898C1338.72 19.9092 1339.63 19.7403 1340.48 19.6336L1340.17 17.0878V19.6536C1340.94 19.6532 1341.59 19.5768 1342.13 19.5174C1342.68 19.4568 1343.11 19.4129 1343.53 19.4133H1343.73L1343.93 19.3834C1347.07 18.8999 1349.96 18.4197 1353.06 17.9428L1352.67 15.4073V17.9727C1353.44 17.9723 1354.09 17.8963 1354.63 17.837C1355.18 17.7764 1355.61 17.732 1356.03 17.7324H1356.22L1356.41 17.705C1362.92 16.7413 1368.9 15.7871 1375.31 15.0758L1375.42 15.0637L1375.53 15.0417C1376.16 14.9156 1376.73 14.7902 1377.27 14.6703C1377.81 14.5503 1378.33 14.435 1378.9 14.3217L1378.39 11.8061L1378.72 14.3511C1391.95 12.669 1404.5 10.9819 1418.03 8.56927L1417.58 6.04381L1417.94 8.58338C1419.57 8.35013 1421.18 8.17166 1422.83 7.95751C1424.49 7.74376 1426.19 7.4935 1427.97 7.11167L1427.43 4.60324L1427.8 7.1428C1431.28 6.64269 1434.61 5.93381 1437.67 5.65034C1439.08 5.51753 1440.12 4.26662 1439.99 2.85592C1439.86 1.44564 1438.6 0.409314 1437.19 0.541709C1433.72 0.871661 1430.32 1.60336 1427.07 2.06363L1426.98 2.07567L1426.89 2.09476C1425.32 2.43301 1423.77 2.66295 1422.17 2.86922C1420.58 3.07549 1418.95 3.25686 1417.22 3.5038L1417.17 3.51005L1417.12 3.51791C1403.73 5.90684 1391.28 7.58191 1378.07 9.26113L1377.98 9.27236L1377.89 9.29019C1377.25 9.41678 1376.69 9.54171 1376.15 9.66165C1375.61 9.7816 1375.09 9.89695 1374.52 10.0103L1375.03 12.5262L1374.74 9.97625C1368.17 10.7055 1362.13 11.6721 1355.66 12.6295L1356.03 15.167V12.6017C1355.26 12.6022 1354.61 12.6781 1354.07 12.737C1353.52 12.798 1353.1 12.8421 1352.67 12.8416H1352.47L1352.28 12.8715C1349.13 13.3546 1346.25 13.8348 1343.14 14.3121L1343.53 16.8479V14.2822C1342.76 14.2826 1342.1 14.359 1341.56 14.4179C1341.02 14.4789 1340.6 14.5225 1340.17 14.5221H1340.01L1339.85 14.542C1338.78 14.6752 1337.77 14.8666 1336.81 15.0467C1335.85 15.2268 1334.94 15.3961 1334.08 15.5024L1334.4 18.0482V15.4829C1333.62 15.4829 1332.97 15.5593 1332.43 15.6186C1331.89 15.6792 1331.46 15.7232 1331.03 15.7228H1330.93L1330.83 15.7303C1329.13 15.8614 1327.56 16.1158 1326.06 16.3553C1324.56 16.596 1323.13 16.8214 1321.7 16.9305L1321.9 19.4888V16.9235C1321.43 16.9243 1321.04 16.9982 1320.73 17.075C1320.27 17.1937 1319.96 17.3153 1319.78 17.3684C1319.69 17.3962 1319.63 17.4087 1319.63 17.4103V17.4107L1319.73 17.9968V17.4033C1319.66 17.4037 1319.63 17.4103 1319.63 17.4107L1319.73 17.9968V17.4033C1318.96 17.4045 1318.28 17.4771 1317.67 17.5361C1317.07 17.5975 1316.56 17.6444 1316.13 17.6436H1315.96L1315.79 17.666C1261.5 24.8626 1209.37 30.3813 1155.3 35.4215L1155.31 35.4198C1122.39 38.3002 1090.42 40.9402 1057.51 43.3399L1057.69 45.8986V43.3333C1057.09 43.3337 1056.51 43.332 1055.87 43.3669C1055.23 43.4022 1054.55 43.4769 1053.83 43.623L1054.33 46.1385L1054.15 43.5794C937.373 51.6497 821.224 55.6506 704.943 55.6506C644.888 55.6506 584.8 54.5831 524.567 52.4582V52.4578C349.878 46.4589 175.913 31.8207 2.91775 8.16421C1.51211 7.97205 0.216524 8.95403 0.0239963 10.3581C-0.168206 11.7617 0.815212 13.0554 2.22053 13.248Z" fill="#231F20"/>
</svg>
