<svg width="1440" height="394" viewBox="0 0 1440 394" fill="none" xmlns="http://www.w3.org/2000/svg">
<path d="M2.22053 13.248C175.392 36.9281 349.531 51.5808 524.388 57.5863V57.5859C584.676 59.7134 644.83 60.7812 704.943 60.7812C821.341 60.7812 937.61 56.7766 1054.51 48.698L1054.67 48.6868L1054.83 48.6544C1055.3 48.5606 1055.71 48.5158 1056.15 48.4905C1056.6 48.4656 1057.09 48.4639 1057.69 48.4643H1057.79L1057.88 48.4573C1090.83 46.0551 1122.82 43.4134 1155.76 40.5314L1155.77 40.5306L1155.78 40.5301C1209.89 35.4862 1262.09 29.9605 1316.46 22.7522L1316.13 20.2093V22.7742C1316.9 22.7738 1317.59 22.7007 1318.18 22.6418C1318.79 22.5808 1319.3 22.5335 1319.73 22.5343C1320.2 22.5339 1320.59 22.4592 1320.9 22.3828C1321.36 22.2641 1321.67 22.1429 1321.85 22.0894C1321.94 22.0616 1321.99 22.0487 1322 22.0475V22.0471L1321.9 21.4623V22.0541C1321.97 22.0541 1322 22.0471 1322 22.0471L1321.9 21.4623V22.0541H1322L1322.09 22.0467C1323.79 21.9159 1325.37 21.6611 1326.87 21.422C1328.37 21.1813 1329.8 20.9555 1331.23 20.8464L1331.03 18.2881V20.8538C1331.81 20.8534 1332.46 20.777 1333 20.7181C1333.54 20.6571 1333.97 20.6131 1334.4 20.6135H1334.56L1334.72 20.594C1335.78 20.4604 1336.79 20.2691 1337.75 20.0898C1338.72 19.9092 1339.63 19.7403 1340.48 19.6336L1340.17 17.0878V19.6536C1340.94 19.6532 1341.59 19.5768 1342.13 19.5174C1342.68 19.4568 1343.11 19.4128 1343.53 19.4133H1343.73L1343.93 19.3834C1347.07 18.8999 1349.96 18.4197 1353.06 17.9428L1352.67 15.4073V17.9727C1353.44 17.9723 1354.09 17.8963 1354.63 17.837C1355.18 17.7764 1355.61 17.732 1356.03 17.7324H1356.22L1356.41 17.705C1362.92 16.7413 1368.9 15.7871 1375.31 15.0758L1375.42 15.0637L1375.53 15.0417C1376.16 14.9156 1376.73 14.7902 1377.27 14.6703C1377.81 14.5503 1378.33 14.435 1378.9 14.3217L1378.39 11.8061L1378.72 14.3511C1391.95 12.669 1404.5 10.9819 1418.03 8.56927L1417.58 6.04382L1417.94 8.58338C1419.57 8.35013 1421.18 8.17166 1422.83 7.9575C1424.49 7.74376 1426.19 7.4935 1427.97 7.11167L1427.43 4.60324L1427.8 7.1428C1431.28 6.64268 1434.61 5.93381 1437.67 5.65034C1439.08 5.51753 1440.12 4.26662 1439.99 2.85592C1439.86 1.44564 1438.6 0.409313 1437.19 0.54171C1433.72 0.871662 1430.32 1.60336 1427.07 2.06363L1426.98 2.07567L1426.89 2.09476C1425.32 2.43301 1423.77 2.66294 1422.17 2.86922C1420.58 3.07549 1418.95 3.25686 1417.22 3.5038L1417.17 3.51005L1417.12 3.51791C1403.73 5.90684 1391.28 7.58191 1378.07 9.26113L1377.98 9.27236L1377.89 9.29019C1377.25 9.41677 1376.69 9.54171 1376.15 9.66165C1375.61 9.7816 1375.09 9.89695 1374.52 10.0103L1375.03 12.5262L1374.74 9.97625C1368.17 10.7055 1362.13 11.6721 1355.66 12.6295L1356.03 15.167V12.6017C1355.26 12.6022 1354.61 12.6781 1354.07 12.737C1353.52 12.798 1353.1 12.8421 1352.67 12.8416H1352.47L1352.28 12.8715C1349.13 13.3546 1346.25 13.8348 1343.14 14.3121L1343.53 16.8479V14.2822C1342.76 14.2826 1342.1 14.359 1341.56 14.4179C1341.02 14.4789 1340.6 14.5225 1340.17 14.5221H1340.01L1339.85 14.542C1338.78 14.6752 1337.77 14.8666 1336.81 15.0467C1335.85 15.2268 1334.94 15.3961 1334.08 15.5024L1334.4 18.0482V15.4829C1333.62 15.4829 1332.97 15.5593 1332.43 15.6186C1331.89 15.6792 1331.46 15.7232 1331.03 15.7228H1330.93L1330.83 15.7303C1329.13 15.8614 1327.56 16.1158 1326.06 16.3553C1324.56 16.596 1323.13 16.8214 1321.7 16.9305L1321.9 19.4888V16.9235C1321.43 16.9243 1321.04 16.9982 1320.73 17.075C1320.27 17.1937 1319.96 17.3153 1319.78 17.3684C1319.69 17.3962 1319.63 17.4087 1319.63 17.4103V17.4107L1319.73 17.9968V17.4033C1319.66 17.4037 1319.63 17.4103 1319.63 17.4107L1319.73 17.9968V17.4033C1318.96 17.4045 1318.28 17.4771 1317.67 17.5361C1317.07 17.5975 1316.56 17.6444 1316.13 17.6436H1315.96L1315.79 17.666C1261.5 24.8626 1209.37 30.3813 1155.3 35.4215L1155.31 35.4198C1122.39 38.3002 1090.42 40.9402 1057.51 43.3399L1057.69 45.8986V43.3333C1057.09 43.3337 1056.51 43.332 1055.87 43.3669C1055.23 43.4022 1054.55 43.4769 1053.83 43.623L1054.33 46.1385L1054.15 43.5794C937.373 51.6497 821.224 55.6506 704.943 55.6506C644.888 55.6506 584.8 54.5831 524.567 52.4582V52.4578C349.878 46.4589 175.913 31.8207 2.91775 8.16421C1.51211 7.97205 0.216524 8.95403 0.0239963 10.3581C-0.168206 11.7617 0.815212 13.0554 2.22053 13.248Z" fill="#231F20"/>
<path d="M978.035 365.811C977.677 374.661 970.196 381.536 961.346 381.148L800.93 374.104C792.123 373.717 785.288 366.28 785.645 357.472L795.618 111.185C795.977 102.335 803.458 95.4594 812.307 95.848L972.728 102.892C981.535 103.279 988.37 110.716 988.013 119.524L978.035 365.811Z" fill="white"/>
<path d="M798.871 321.989L805.217 322.263L805.123 324.418L803.032 324.327L802.628 333.654L800.411 333.559L800.815 324.232L798.778 324.144L798.871 321.989ZM807.338 321.847C807.713 321.863 808.027 322.012 808.281 322.294C808.54 322.576 808.661 322.91 808.644 323.295C808.628 323.675 808.481 323.994 808.204 324.253C807.927 324.507 807.604 324.626 807.234 324.61C806.854 324.594 806.535 324.445 806.276 324.162C806.023 323.875 805.904 323.536 805.921 323.146C805.938 322.771 806.084 322.457 806.361 322.203C806.638 321.949 806.964 321.83 807.338 321.847ZM806.118 325.297L808.256 325.39L807.889 333.882L805.75 333.789L806.118 325.297ZM816.467 325.744L818.59 325.836L818.223 334.328L816.1 334.236L816.139 333.338C815.705 333.716 815.274 333.984 814.845 334.143C814.421 334.297 813.965 334.363 813.476 334.342C812.378 334.294 811.446 333.829 810.682 332.946C809.917 332.059 809.562 330.982 809.617 329.718C809.674 328.407 810.108 327.349 810.92 326.545C811.731 325.74 812.691 325.362 813.8 325.41C814.31 325.432 814.784 325.549 815.223 325.761C815.662 325.973 816.064 326.279 816.427 326.681L816.467 325.744ZM814.152 327.396C813.491 327.367 812.932 327.578 812.474 328.027C812.017 328.471 811.773 329.058 811.741 329.786C811.71 330.52 811.905 331.133 812.326 331.626C812.753 332.118 813.292 332.379 813.942 332.407C814.614 332.436 815.181 332.228 815.643 331.784C816.105 331.335 816.353 330.733 816.386 329.979C816.418 329.24 816.222 328.632 815.8 328.155C815.377 327.678 814.828 327.425 814.152 327.396ZM820.745 325.929L822.868 326.02L822.83 326.887C823.332 326.502 823.781 326.24 824.178 326.1C824.58 325.956 824.987 325.893 825.398 325.911C826.241 325.947 826.944 326.272 827.506 326.885C827.979 327.406 828.194 328.156 828.152 329.134L827.909 334.746L825.802 334.655L825.963 330.932C826.007 329.917 825.989 329.241 825.91 328.904C825.836 328.567 825.688 328.308 825.467 328.127C825.25 327.94 824.976 327.84 824.643 327.825C824.211 327.806 823.833 327.936 823.508 328.214C823.188 328.487 822.958 328.876 822.816 329.381C822.742 329.643 822.686 330.217 822.648 331.102L822.5 334.512L820.377 334.421L820.745 325.929ZM836.62 326.614L838.744 326.706L838.376 335.198L836.253 335.106L836.292 334.209C835.858 334.586 835.427 334.854 834.998 335.013C834.574 335.167 834.118 335.233 833.629 335.212C832.531 335.164 831.599 334.699 830.835 333.817C830.07 332.929 829.716 331.852 829.77 330.588C829.827 329.277 830.261 328.219 831.073 327.415C831.884 326.61 832.844 326.232 833.953 326.28C834.463 326.302 834.937 326.419 835.376 326.631C835.816 326.843 836.217 327.149 836.58 327.551L836.62 326.614ZM834.305 328.266C833.644 328.237 833.085 328.448 832.627 328.897C832.17 329.341 831.926 329.928 831.894 330.656C831.863 331.39 832.058 332.003 832.479 332.496C832.906 332.988 833.445 333.249 834.096 333.277C834.767 333.306 835.334 333.098 835.796 332.654C836.259 332.205 836.506 331.603 836.539 330.849C836.571 330.11 836.376 329.502 835.953 329.025C835.531 328.548 834.981 328.295 834.305 328.266ZM845.749 324.013L848.341 324.125C850.011 324.197 851.243 324.459 852.037 324.91C852.831 325.356 853.47 326.056 853.956 327.011C854.441 327.965 854.656 329.064 854.603 330.307C854.564 331.192 854.381 332 854.052 332.731C853.729 333.457 853.296 334.054 852.755 334.52C852.218 334.987 851.644 335.301 851.033 335.463C850.421 335.624 849.371 335.672 847.883 335.608L845.252 335.495L845.749 324.013ZM847.836 326.215L847.523 333.45L848.537 333.494C849.536 333.537 850.265 333.454 850.722 333.244C851.185 333.035 851.571 332.666 851.88 332.137C852.19 331.608 852.362 330.948 852.396 330.157C852.449 328.94 852.149 327.98 851.496 327.28C850.908 326.65 849.935 326.305 848.577 326.247L847.836 326.215ZM860.569 327.429C861.37 327.464 862.113 327.696 862.798 328.127C863.489 328.559 864.017 329.126 864.382 329.83C864.748 330.534 864.914 331.284 864.879 332.08C864.845 332.882 864.612 333.622 864.181 334.302C863.755 334.982 863.191 335.505 862.487 335.871C861.783 336.232 861.017 336.394 860.19 336.358C858.972 336.306 857.95 335.829 857.124 334.928C856.303 334.022 855.919 332.95 855.973 331.711C856.03 330.384 856.565 329.3 857.576 328.457C858.463 327.724 859.46 327.381 860.569 327.429ZM860.513 329.436C859.852 329.408 859.291 329.616 858.828 330.06C858.371 330.499 858.127 331.077 858.096 331.795C858.064 332.534 858.254 333.142 858.666 333.618C859.084 334.095 859.625 334.348 860.291 334.377C860.957 334.405 861.522 334.198 861.984 333.754C862.446 333.31 862.693 332.724 862.725 331.995C862.756 331.267 862.563 330.667 862.146 330.195C861.734 329.718 861.189 329.466 860.513 329.436ZM866.312 327.896L868.138 327.975L868.092 329.044C868.308 328.631 868.584 328.322 868.922 328.118C869.259 327.914 869.623 327.82 870.013 327.837C870.289 327.849 870.574 327.934 870.87 328.093L870.127 329.898C869.883 329.763 869.68 329.691 869.519 329.684C869.191 329.67 868.904 329.861 868.657 330.257C868.416 330.653 868.269 331.445 868.218 332.631L868.208 333.045L868.059 336.479L865.944 336.388L866.312 327.896ZM870.987 328.098L873.071 328.188L874.571 333.093L876.622 328.341L877.895 328.396L879.491 333.251L881.407 328.548L883.507 328.638L880.04 336.997L878.69 336.938L877.089 332.021L875.014 336.78L873.679 336.722L870.987 328.098ZM890.992 328.961L893.115 329.053L892.747 337.545L890.624 337.453L890.663 336.556C890.23 336.933 889.798 337.201 889.369 337.36C888.946 337.514 888.489 337.58 888 337.559C886.902 337.512 885.971 337.047 885.206 336.164C884.442 335.276 884.087 334.2 884.142 332.935C884.198 331.624 884.633 330.566 885.444 329.762C886.256 328.958 887.216 328.579 888.324 328.627C888.834 328.649 889.309 328.766 889.748 328.978C890.187 329.19 890.588 329.497 890.951 329.898L890.992 328.961ZM888.676 330.613C888.015 330.585 887.456 330.795 886.999 331.244C886.542 331.689 886.297 332.275 886.266 333.004C886.234 333.737 886.429 334.35 886.851 334.843C887.278 335.336 887.816 335.596 888.467 335.624C889.138 335.653 889.705 335.446 890.167 335.002C890.63 334.553 890.877 333.951 890.91 333.196C890.942 332.457 890.747 331.849 890.324 331.372C889.902 330.895 889.352 330.642 888.676 330.613ZM894.77 329.125L896.596 329.203L896.55 330.273C896.766 329.86 897.042 329.551 897.38 329.347C897.717 329.142 898.081 329.049 898.471 329.065C898.747 329.077 899.032 329.163 899.328 329.321L898.585 331.127C898.341 330.991 898.138 330.92 897.976 330.913C897.649 330.899 897.361 331.09 897.115 331.486C896.874 331.882 896.727 332.673 896.676 333.86L896.666 334.274L896.517 337.708L894.402 337.617L894.77 329.125ZM900.782 326.248L902.905 326.34L902.77 329.47L904.034 329.525L903.955 331.359L902.691 331.304L902.402 337.962L900.279 337.87L900.567 331.212L899.475 331.165L899.554 329.331L900.647 329.378L900.782 326.248Z" fill="#0D0D3D"/>
<path opacity="0.5" d="M796.945 354.934L798.807 344.95L798.971 344.957L802.698 353.377L807.098 345.308L807.262 345.315L808.268 355.423L807.278 355.381L806.606 348.153L802.743 355.185L802.49 355.174L799.205 347.779L797.915 354.976L796.945 354.934ZM817.824 348.391L817.502 355.822L816.559 355.781L816.615 354.504C816.193 354.974 815.726 355.321 815.215 355.545C814.708 355.77 814.159 355.869 813.567 355.844C812.515 355.798 811.632 355.379 810.918 354.587C810.209 353.79 809.878 352.845 809.926 351.752C809.972 350.682 810.387 349.783 811.171 349.055C811.956 348.327 812.876 347.986 813.932 348.032C814.542 348.058 815.088 348.212 815.568 348.493C816.053 348.773 816.471 349.182 816.822 349.717L816.881 348.351L817.824 348.391ZM813.967 348.957C813.435 348.934 812.937 349.045 812.475 349.29C812.013 349.53 811.637 349.881 811.348 350.343C811.064 350.805 810.91 351.3 810.887 351.828C810.865 352.351 810.977 352.858 811.225 353.348C811.473 353.837 811.817 354.226 812.256 354.514C812.7 354.798 813.181 354.951 813.7 354.974C814.224 354.996 814.726 354.886 815.206 354.642C815.686 354.398 816.062 354.056 816.332 353.616C816.606 353.176 816.755 352.674 816.78 352.11C816.817 351.249 816.564 350.517 816.02 349.915C815.48 349.312 814.796 348.993 813.967 348.957ZM819.62 348.469L820.596 348.511L820.549 349.597C820.859 349.182 821.18 348.876 821.513 348.681C821.845 348.481 822.187 348.388 822.537 348.403C822.801 348.415 823.08 348.511 823.373 348.693L822.84 349.477C822.643 349.382 822.477 349.331 822.34 349.325C822.021 349.312 821.708 349.43 821.401 349.682C821.094 349.928 820.851 350.324 820.672 350.868C820.536 351.287 820.439 352.14 820.384 353.428L820.275 355.942L819.298 355.9L819.62 348.469ZM824.306 345.798L825.269 345.839L825.015 351.699L828.58 348.856L829.987 348.917L825.756 352.285L829.904 356.357L828.552 356.299L824.968 352.798L824.823 356.138L823.86 356.097L824.306 345.798ZM837.251 354.205L838.038 354.663C837.752 355.17 837.428 355.576 837.069 355.88C836.709 356.184 836.309 356.41 835.869 356.56C835.429 356.705 834.936 356.766 834.39 356.743C833.179 356.69 832.249 356.253 831.6 355.432C830.952 354.605 830.649 353.691 830.693 352.69C830.733 351.747 831.059 350.92 831.669 350.207C832.443 349.301 833.444 348.874 834.674 348.927C835.939 348.982 836.929 349.506 837.644 350.499C838.151 351.201 838.388 352.06 838.353 353.075L831.674 352.787C831.655 353.653 831.899 354.375 832.408 354.953C832.917 355.527 833.563 355.831 834.346 355.865C834.724 355.881 835.093 355.831 835.454 355.714C835.819 355.598 836.132 355.436 836.392 355.228C836.652 355.02 836.938 354.679 837.251 354.205ZM837.337 352.203C837.232 351.688 837.063 351.272 836.83 350.957C836.602 350.641 836.292 350.382 835.899 350.178C835.506 349.974 835.089 349.862 834.648 349.843C833.919 349.812 833.283 350.019 832.739 350.465C832.342 350.79 832.031 351.29 831.805 351.965L837.337 352.203ZM841.259 346.639L842.222 346.681L842.103 349.44L843.619 349.505L843.583 350.325L842.067 350.259L841.781 356.87L840.818 356.829L841.104 350.218L839.8 350.161L839.835 349.342L841.14 349.398L841.259 346.639ZM845.513 346.522C845.732 346.531 845.915 346.616 846.063 346.778C846.211 346.939 846.281 347.129 846.271 347.348C846.262 347.562 846.177 347.743 846.015 347.891C845.854 348.039 845.664 348.109 845.445 348.099C845.231 348.09 845.05 348.005 844.902 347.843C844.754 347.682 844.684 347.494 844.694 347.28C844.703 347.061 844.789 346.878 844.95 346.73C845.112 346.582 845.299 346.512 845.513 346.522ZM844.903 349.561L845.866 349.602L845.544 357.033L844.581 356.991L844.903 349.561ZM847.846 349.688L848.803 349.729L848.745 351.061C849.149 350.567 849.589 350.205 850.065 349.975C850.54 349.74 851.051 349.634 851.597 349.658C852.153 349.682 852.638 349.844 853.054 350.145C853.474 350.446 853.777 350.84 853.961 351.327C854.145 351.814 854.215 352.563 854.172 353.573L854.006 357.398L853.057 357.357L853.21 353.812C853.247 352.957 853.236 352.384 853.175 352.094C853.083 351.597 852.885 351.219 852.581 350.959C852.278 350.695 851.873 350.553 851.368 350.531C850.79 350.506 850.262 350.675 849.786 351.037C849.314 351.4 848.993 351.861 848.823 352.419C848.716 352.784 848.641 353.456 848.599 354.434L848.481 357.159L847.525 357.118L847.846 349.688ZM862.783 350.332L863.746 350.374L863.489 356.295C863.444 357.338 863.32 358.097 863.117 358.571C862.837 359.243 862.38 359.751 861.744 360.093C861.109 360.435 860.357 360.587 859.487 360.549C858.85 360.522 858.28 360.406 857.778 360.202C857.28 360.003 856.879 359.743 856.573 359.425C856.267 359.11 855.993 358.656 855.749 358.062L856.788 358.107C857.049 358.61 857.397 358.99 857.833 359.246C858.269 359.502 858.817 359.645 859.477 359.673C860.128 359.701 860.682 359.602 861.139 359.375C861.6 359.154 861.935 358.862 862.142 358.502C862.349 358.141 862.47 357.551 862.506 356.732L862.522 356.349C862.143 356.789 861.688 357.121 861.159 357.344C860.629 357.563 860.073 357.66 859.49 357.635C858.807 357.605 858.173 357.409 857.586 357.046C857 356.679 856.555 356.201 856.252 355.613C855.949 355.025 855.813 354.388 855.842 353.7C855.872 353.013 856.071 352.38 856.438 351.803C856.805 351.222 857.297 350.771 857.913 350.451C858.533 350.131 859.178 349.985 859.847 350.014C860.403 350.038 860.915 350.177 861.383 350.429C861.855 350.678 862.303 351.076 862.727 351.623L862.783 350.332ZM859.93 350.941C859.389 350.918 858.88 351.028 858.404 351.272C857.928 351.512 857.548 351.858 857.264 352.311C856.98 352.76 856.827 353.252 856.803 353.79C856.768 354.605 857.012 355.29 857.535 355.847C858.059 356.403 858.755 356.7 859.625 356.737C860.504 356.775 861.221 356.542 861.776 356.037C862.336 355.532 862.635 354.849 862.672 353.988C862.697 353.428 862.595 352.924 862.368 352.477C862.142 352.024 861.808 351.661 861.369 351.387C860.929 351.112 860.45 350.964 859.93 350.941ZM869.052 358.048L870.914 348.063L871.078 348.07L874.805 356.49L879.205 348.421L879.369 348.428L880.375 358.536L879.385 358.494L878.712 351.267L874.85 358.298L874.597 358.287L871.311 350.892L870.021 358.089L869.052 358.048ZM889.93 351.505L889.609 358.935L888.666 358.894L888.721 357.617C888.3 358.087 887.833 358.434 887.322 358.658C886.815 358.883 886.265 358.982 885.673 358.957C884.622 358.911 883.739 358.492 883.025 357.7C882.316 356.903 881.985 355.958 882.032 354.865C882.079 353.795 882.494 352.896 883.278 352.168C884.062 351.44 884.983 351.099 886.039 351.145C886.649 351.171 887.194 351.325 887.675 351.606C888.16 351.887 888.578 352.295 888.929 352.83L888.988 351.464L889.93 351.505ZM886.074 352.07C885.541 352.047 885.044 352.158 884.582 352.403C884.12 352.643 883.744 352.994 883.455 353.456C883.171 353.918 883.017 354.413 882.994 354.941C882.971 355.465 883.084 355.971 883.332 356.461C883.58 356.951 883.923 357.339 884.362 357.627C884.806 357.911 885.288 358.064 885.807 358.087C886.33 358.109 886.832 357.999 887.313 357.755C887.793 357.511 888.168 357.169 888.438 356.729C888.713 356.289 888.862 355.787 888.887 355.223C888.924 354.362 888.671 353.631 888.126 353.028C887.587 352.425 886.903 352.106 886.074 352.07ZM892.088 351.598L893.045 351.639L892.987 352.971C893.391 352.477 893.831 352.115 894.307 351.885C894.782 351.65 895.293 351.544 895.839 351.568C896.395 351.592 896.88 351.754 897.296 352.055C897.717 352.356 898.019 352.75 898.203 353.237C898.387 353.724 898.457 354.473 898.414 355.483L898.248 359.308L897.299 359.267L897.452 355.723C897.489 354.867 897.478 354.294 897.417 354.004C897.325 353.507 897.127 353.129 896.823 352.869C896.52 352.606 896.115 352.463 895.61 352.441C895.032 352.416 894.504 352.585 894.028 352.947C893.556 353.31 893.235 353.771 893.065 354.329C892.958 354.694 892.883 355.366 892.841 356.345L892.723 359.069L891.767 359.028L892.088 351.598ZM908.029 352.286L907.707 359.716L906.765 359.676L906.82 358.399C906.398 358.868 905.931 359.216 905.42 359.44C904.913 359.664 904.364 359.764 903.772 359.738C902.72 359.693 901.837 359.274 901.123 358.481C900.414 357.684 900.084 356.739 900.131 355.647C900.177 354.577 900.592 353.678 901.377 352.95C902.161 352.222 903.081 351.881 904.137 351.926C904.747 351.953 905.293 352.106 905.773 352.387C906.258 352.668 906.676 353.076 907.027 353.611L907.086 352.245L908.029 352.286ZM904.173 352.852C903.64 352.829 903.142 352.939 902.68 353.184C902.218 353.424 901.843 353.775 901.554 354.237C901.269 354.699 901.115 355.194 901.092 355.722C901.07 356.246 901.182 356.753 901.43 357.242C901.678 357.732 902.022 358.121 902.461 358.409C902.905 358.693 903.386 358.846 903.905 358.868C904.429 358.891 904.931 358.78 905.411 358.536C905.892 358.292 906.267 357.95 906.537 357.511C906.811 357.071 906.961 356.569 906.985 356.004C907.022 355.144 906.769 354.412 906.225 353.809C905.685 353.206 905.001 352.887 904.173 352.852ZM916.586 352.655L917.549 352.697L917.293 358.618C917.248 359.661 917.124 360.419 916.921 360.894C916.641 361.566 916.183 362.073 915.548 362.416C914.913 362.758 914.16 362.91 913.291 362.872C912.653 362.845 912.084 362.729 911.581 362.525C911.084 362.325 910.682 362.066 910.377 361.747C910.071 361.433 909.796 360.979 909.553 360.385L910.591 360.429C910.852 360.933 911.201 361.313 911.636 361.569C912.072 361.825 912.621 361.968 913.281 361.996C913.932 362.024 914.486 361.925 914.943 361.698C915.404 361.476 915.738 361.185 915.945 360.825C916.152 360.464 916.274 359.874 916.309 359.055L916.326 358.672C915.946 359.112 915.492 359.444 914.962 359.667C914.433 359.886 913.876 359.983 913.294 359.958C912.611 359.928 911.976 359.732 911.39 359.369C910.803 359.002 910.359 358.524 910.056 357.936C909.753 357.348 909.616 356.711 909.646 356.023C909.676 355.336 909.874 354.703 910.241 354.126C910.609 353.544 911.1 353.094 911.716 352.773C912.337 352.454 912.982 352.308 913.651 352.337C914.206 352.361 914.718 352.499 915.186 352.752C915.659 353.001 916.107 353.399 916.53 353.946L916.586 352.655ZM913.734 353.264C913.192 353.241 912.683 353.351 912.207 353.595C911.732 353.835 911.352 354.181 911.068 354.634C910.784 355.082 910.63 355.575 910.607 356.113C910.572 356.928 910.816 357.613 911.339 358.169C911.862 358.726 912.559 359.023 913.428 359.06C914.307 359.098 915.024 358.865 915.58 358.359C916.14 357.854 916.439 357.172 916.476 356.311C916.5 355.751 916.399 355.247 916.172 354.8C915.945 354.347 915.612 353.984 915.172 353.71C914.732 353.435 914.253 353.287 913.734 353.264ZM925.639 358.021L926.427 358.479C926.14 358.986 925.817 359.392 925.457 359.696C925.097 360 924.697 360.226 924.258 360.376C923.818 360.521 923.325 360.582 922.779 360.559C921.567 360.506 920.638 360.069 919.989 359.248C919.34 358.421 919.038 357.507 919.081 356.506C919.122 355.563 919.447 354.736 920.058 354.023C920.831 353.117 921.833 352.69 923.062 352.743C924.328 352.798 925.318 353.322 926.032 354.315C926.54 355.017 926.776 355.876 926.742 356.891L920.062 356.603C920.043 357.469 920.288 358.191 920.796 358.769C921.305 359.343 921.951 359.647 922.734 359.681C923.112 359.697 923.482 359.647 923.843 359.53C924.208 359.414 924.521 359.252 924.78 359.044C925.04 358.836 925.327 358.495 925.639 358.021ZM925.726 356.019C925.62 355.504 925.451 355.088 925.219 354.773C924.99 354.457 924.68 354.198 924.287 353.994C923.895 353.79 923.478 353.678 923.036 353.659C922.308 353.628 921.671 353.835 921.128 354.281C920.73 354.606 920.419 355.106 920.194 355.781L925.726 356.019ZM928.333 353.162L929.31 353.205L929.263 354.291C929.573 353.875 929.894 353.57 930.226 353.374C930.559 353.174 930.9 353.082 931.251 353.097C931.515 353.108 931.793 353.205 932.087 353.386L931.553 354.17C931.357 354.075 931.19 354.025 931.053 354.019C930.735 354.005 930.422 354.124 930.114 354.375C929.807 354.622 929.564 355.017 929.386 355.562C929.249 355.98 929.153 356.833 929.097 358.122L928.988 360.635L928.011 360.593L928.333 353.162Z" fill="#0D0D3D"/>
<path d="M967.206 310.723L800.813 303.417L809.361 109.247L975.753 116.553L967.206 310.723Z" fill="white"/>
<path d="M967.206 310.724L967.284 308.878L802.744 301.653L811.13 111.174L973.823 118.318L965.353 310.643L967.206 310.724L967.284 308.878L967.206 310.724L969.053 310.805L977.679 114.789L807.592 107.321L798.882 305.182L968.969 312.651L969.053 310.805L967.206 310.724Z" fill="#231F20"/>
<path d="M901.761 124.995L878.857 124.859L879.437 28.1783L902.335 28.3149L901.761 124.995Z" fill="#C49A6C"/>
<path d="M323.279 350.58C321.746 359.313 313.405 365.134 304.679 363.56L146.663 335.053C137.996 333.489 132.222 325.216 133.745 316.541L176.265 74.2673C177.798 65.5345 186.14 59.7132 194.865 61.2874L352.881 89.7952C361.548 91.3588 367.322 99.6326 365.799 108.307L323.279 350.58Z" fill="white"/>
<path d="M151.063 291.373L153.07 280.058L154.847 280.372C155.878 280.555 156.62 280.755 157.073 280.972C157.718 281.272 158.198 281.7 158.511 282.258C158.825 282.816 158.923 283.426 158.806 284.087C158.729 284.518 158.567 284.894 158.32 285.215C158.079 285.532 157.725 285.808 157.261 286.044C157.891 286.488 158.321 286.982 158.553 287.526C158.785 288.064 158.843 288.664 158.726 289.326C158.613 289.961 158.346 290.512 157.925 290.977C157.504 291.442 157.011 291.759 156.447 291.929C155.883 292.094 155.145 292.096 154.232 291.934L151.063 291.373ZM154.86 282.493L154.437 284.877L154.906 284.96C155.429 285.053 155.836 285.011 156.126 284.835C156.422 284.66 156.603 284.383 156.67 284.003C156.733 283.649 156.662 283.349 156.458 283.101C156.254 282.848 155.906 282.678 155.413 282.591L154.86 282.493ZM154.095 286.801L153.581 289.701L154.119 289.796C155.012 289.954 155.632 289.947 155.98 289.776C156.333 289.606 156.547 289.305 156.624 288.874C156.71 288.387 156.596 287.97 156.282 287.624C155.968 287.277 155.388 287.029 154.542 286.879L154.095 286.801ZM160.963 284.493L162.764 284.812L162.577 285.865C162.845 285.484 163.16 285.215 163.521 285.057C163.883 284.898 164.256 284.853 164.64 284.921C164.912 284.97 165.184 285.092 165.456 285.288L164.481 286.98C164.257 286.813 164.065 286.716 163.906 286.688C163.583 286.631 163.274 286.782 162.977 287.142C162.685 287.503 162.436 288.268 162.229 289.438L162.164 289.847L161.564 293.231L159.479 292.862L160.963 284.493ZM172.688 286.567L174.78 286.938L173.295 295.307L171.203 294.937L171.36 294.052C170.88 294.369 170.418 294.578 169.971 294.679C169.531 294.776 169.07 294.781 168.588 294.696C167.505 294.505 166.644 293.921 166.002 292.945C165.361 291.965 165.152 290.851 165.373 289.605C165.602 288.313 166.172 287.321 167.082 286.631C167.993 285.94 168.995 285.692 170.087 285.885C170.59 285.974 171.045 286.152 171.452 286.42C171.859 286.688 172.217 287.045 172.524 287.49L172.688 286.567ZM170.174 287.9C169.523 287.785 168.941 287.92 168.428 288.305C167.916 288.685 167.597 289.234 167.469 289.952C167.341 290.675 167.453 291.309 167.807 291.852C168.165 292.397 168.665 292.726 169.306 292.84C169.967 292.957 170.556 292.826 171.073 292.446C171.591 292.062 171.916 291.498 172.048 290.754C172.177 290.026 172.064 289.398 171.708 288.869C171.352 288.341 170.841 288.018 170.174 287.9ZM176.903 287.313L178.996 287.683L178.844 288.537C179.392 288.222 179.872 288.021 180.284 287.935C180.702 287.845 181.114 287.836 181.519 287.908C182.35 288.055 183.003 288.469 183.48 289.151C183.88 289.73 183.995 290.501 183.824 291.465L182.842 296.996L180.765 296.629L181.416 292.959C181.594 291.959 181.665 291.287 181.631 290.942C181.602 290.599 181.49 290.322 181.294 290.113C181.105 289.9 180.846 289.764 180.517 289.706C180.092 289.631 179.7 289.709 179.341 289.942C178.988 290.171 178.708 290.526 178.501 291.007C178.393 291.258 178.262 291.819 178.107 292.691L177.511 296.053L175.419 295.683L176.903 287.313ZM193.124 286.851L195.217 287.221L193.159 298.821L191.066 298.451L191.223 297.566C190.744 297.884 190.281 298.093 189.835 298.193C189.394 298.29 188.933 298.296 188.451 298.21C187.369 298.019 186.507 297.435 185.865 296.46C185.225 295.479 185.015 294.366 185.236 293.119C185.465 291.827 186.035 290.836 186.946 290.145C187.856 289.455 188.858 289.206 189.95 289.399C190.453 289.488 190.908 289.667 191.315 289.934C191.723 290.202 192.08 290.559 192.387 291.005L193.124 286.851ZM190.037 291.414C189.386 291.299 188.804 291.434 188.291 291.819C187.78 292.199 187.46 292.749 187.333 293.466C187.204 294.19 187.317 294.823 187.67 295.367C188.028 295.912 188.528 296.241 189.169 296.354C189.831 296.471 190.42 296.34 190.937 295.961C191.455 295.576 191.779 295.012 191.911 294.269C192.041 293.54 191.927 292.912 191.571 292.384C191.215 291.855 190.704 291.532 190.037 291.414ZM200.736 291.308C201.526 291.447 202.232 291.776 202.854 292.293C203.482 292.812 203.93 293.444 204.2 294.19C204.47 294.935 204.535 295.701 204.396 296.485C204.256 297.275 203.927 297.979 203.41 298.596C202.899 299.214 202.27 299.658 201.524 299.928C200.778 300.193 199.998 300.253 199.183 300.109C197.983 299.897 197.032 299.29 196.332 298.288C195.638 297.282 195.399 296.168 195.615 294.948C195.847 293.64 196.52 292.635 197.634 291.933C198.61 291.323 199.644 291.114 200.736 291.308ZM200.416 293.29C199.765 293.175 199.181 293.307 198.664 293.686C198.153 294.061 197.835 294.603 197.709 295.31C197.58 296.038 197.688 296.666 198.034 297.193C198.385 297.72 198.888 298.042 199.545 298.158C200.201 298.274 200.788 298.143 201.305 297.763C201.822 297.384 202.144 296.835 202.271 296.117C202.398 295.399 202.286 294.779 201.935 294.257C201.589 293.73 201.083 293.408 200.416 293.29ZM206.86 292.613L208.952 292.983L208.801 293.837C209.349 293.522 209.829 293.321 210.241 293.235C210.659 293.145 211.07 293.136 211.475 293.208C212.306 293.355 212.96 293.769 213.437 294.451C213.837 295.03 213.951 295.801 213.78 296.765L212.799 302.296L210.722 301.929L211.373 298.259C211.55 297.259 211.622 296.587 211.588 296.242C211.559 295.899 211.447 295.622 211.251 295.413C211.061 295.2 210.802 295.064 210.474 295.006C210.048 294.931 209.656 295.009 209.298 295.242C208.945 295.471 208.665 295.826 208.458 296.308C208.35 296.558 208.219 297.119 208.064 297.991L207.468 301.353L205.375 300.983L206.86 292.613ZM220.63 292.011L222.753 292.387L223.103 299.898L226.407 293.033L228.2 293.35L228.965 300.935L231.862 293.998L233.985 294.374L229.431 305.239L227.362 304.873L226.575 297.188L223.231 304.142L221.184 303.78L220.63 292.011ZM238.893 298.059C239.683 298.198 240.389 298.527 241.012 299.044C241.639 299.563 242.088 300.195 242.357 300.941C242.627 301.686 242.692 302.452 242.553 303.236C242.413 304.026 242.085 304.73 241.568 305.347C241.056 305.965 240.427 306.409 239.681 306.679C238.936 306.944 238.156 307.004 237.34 306.86C236.14 306.648 235.19 306.041 234.489 305.039C233.795 304.033 233.556 302.919 233.773 301.699C234.005 300.391 234.677 299.386 235.791 298.684C236.767 298.074 237.801 297.865 238.893 298.059ZM238.573 300.041C237.922 299.926 237.338 300.058 236.821 300.437C236.31 300.812 235.992 301.354 235.867 302.061C235.737 302.789 235.846 303.417 236.191 303.943C236.542 304.471 237.046 304.793 237.702 304.909C238.359 305.025 238.945 304.894 239.462 304.514C239.979 304.135 240.301 303.586 240.428 302.868C240.556 302.15 240.444 301.53 240.092 301.008C239.746 300.481 239.24 300.159 238.573 300.041ZM244.525 299.277L246.325 299.596L246.138 300.65C246.407 300.269 246.722 299.999 247.083 299.841C247.444 299.683 247.817 299.638 248.202 299.706C248.474 299.754 248.746 299.876 249.018 300.072L248.043 301.764C247.819 301.597 247.627 301.5 247.468 301.472C247.145 301.415 246.835 301.566 246.539 301.926C246.247 302.287 245.998 303.052 245.79 304.222L245.726 304.631L245.125 308.015L243.04 307.646L244.525 299.277ZM250.652 297.029L252.753 297.401L251.567 304.085L255.272 301.179L257.903 301.644L253.591 305.023L256.857 310.091L254.249 309.63L251.379 305.147L250.695 309.001L248.595 308.629L250.652 297.029ZM259.188 301.871L261.296 302.244L261.125 303.206C261.554 302.875 262.004 302.65 262.475 302.532C262.95 302.415 263.447 302.403 263.965 302.494C264.488 302.587 264.937 302.799 265.312 303.129C265.687 303.46 265.959 303.895 266.129 304.432C266.549 303.999 267.023 303.697 267.551 303.526C268.084 303.355 268.637 303.321 269.212 303.423C269.807 303.528 270.305 303.759 270.707 304.116C271.11 304.473 271.368 304.891 271.484 305.372C271.605 305.853 271.576 306.597 271.398 307.602L270.528 312.51L268.412 312.135L269.165 307.889C269.333 306.94 269.329 306.279 269.152 305.903C268.977 305.523 268.653 305.291 268.181 305.208C267.822 305.144 267.481 305.19 267.157 305.344C266.838 305.499 266.578 305.747 266.375 306.086C266.172 306.421 266 306.988 265.859 307.788L265.189 311.565L263.073 311.191L263.792 307.137C263.925 306.388 263.964 305.837 263.911 305.484C263.863 305.126 263.744 304.846 263.552 304.643C263.361 304.44 263.109 304.31 262.796 304.255C262.447 304.193 262.11 304.242 261.786 304.402C261.467 304.557 261.203 304.809 260.993 305.158C260.788 305.508 260.614 306.085 260.472 306.891L259.811 310.614L257.703 310.241L259.188 301.871ZM280.205 305.59L282.298 305.96L280.813 314.329L278.721 313.959L278.878 313.075C278.398 313.392 277.935 313.601 277.489 313.702C277.049 313.798 276.587 313.804 276.105 313.719C275.023 313.527 274.161 312.944 273.52 311.968C272.879 310.987 272.669 309.874 272.89 308.628C273.12 307.335 273.69 306.344 274.6 305.653C275.511 304.963 276.512 304.714 277.605 304.908C278.107 304.997 278.562 305.175 278.97 305.443C279.377 305.71 279.734 306.067 280.041 306.513L280.205 305.59ZM277.692 306.922C277.04 306.807 276.458 306.942 275.946 307.327C275.434 307.708 275.114 308.257 274.987 308.975C274.859 309.698 274.971 310.331 275.324 310.875C275.683 311.42 276.182 311.749 276.823 311.862C277.485 311.979 278.074 311.848 278.591 311.469C279.109 311.084 279.434 310.52 279.566 309.777C279.695 309.049 279.581 308.42 279.226 307.892C278.87 307.363 278.358 307.04 277.692 306.922ZM284.421 306.336L286.513 306.706L286.362 307.56C286.91 307.244 287.39 307.043 287.802 306.958C288.22 306.868 288.631 306.859 289.037 306.93C289.867 307.077 290.521 307.492 290.998 308.174C291.398 308.752 291.512 309.524 291.341 310.488L290.36 316.019L288.283 315.651L288.934 311.982C289.111 310.982 289.183 310.309 289.149 309.965C289.12 309.621 289.008 309.345 288.812 309.136C288.622 308.922 288.363 308.787 288.035 308.729C287.609 308.653 287.217 308.732 286.859 308.965C286.506 309.193 286.226 309.548 286.019 310.03C285.911 310.281 285.78 310.842 285.625 311.714L285.029 315.075L282.936 314.705L284.421 306.336Z" fill="#0D0D3D"/>
<path opacity="0.5" d="M156.802 305.912L155.915 306.373C155.584 305.736 155.141 305.22 154.586 304.826C154.036 304.428 153.4 304.165 152.678 304.037C151.888 303.898 151.122 303.959 150.382 304.221C149.642 304.479 149.028 304.896 148.542 305.472C148.061 306.044 147.75 306.729 147.608 307.528C147.394 308.735 147.628 309.815 148.311 310.769C148.998 311.724 149.972 312.313 151.233 312.536C152.619 312.781 153.876 312.443 155.002 311.522L155.677 312.253C155.072 312.794 154.369 313.172 153.567 313.386C152.771 313.597 151.917 313.622 151.006 313.46C149.274 313.154 148.01 312.336 147.213 311.005C146.547 309.883 146.336 308.633 146.58 307.256C146.837 305.806 147.561 304.678 148.75 303.87C149.945 303.059 151.307 302.788 152.837 303.059C153.762 303.222 154.564 303.554 155.243 304.054C155.924 304.549 156.443 305.169 156.802 305.912ZM159.127 304.429L164.802 305.433L164.629 306.409L159.944 305.58L159.394 308.676L164.039 309.498L163.867 310.467L159.223 309.645L158.534 313.529L163.178 314.351L163.005 315.327L157.371 314.33L159.127 304.429ZM171.275 306.321C172.773 306.586 173.939 307.308 174.771 308.488C175.603 309.667 175.89 310.988 175.63 312.451C175.373 313.9 174.65 315.04 173.461 315.871C172.277 316.703 170.96 316.991 169.511 316.734C168.043 316.475 166.894 315.753 166.062 314.569C165.231 313.386 164.942 312.08 165.195 310.653C165.364 309.702 165.749 308.861 166.351 308.129C166.957 307.399 167.698 306.875 168.573 306.558C169.45 306.236 170.35 306.157 171.275 306.321ZM171.15 307.299C170.418 307.169 169.691 307.237 168.968 307.503C168.245 307.768 167.643 308.191 167.16 308.772C166.677 309.354 166.366 310.041 166.225 310.835C166.016 312.011 166.246 313.077 166.914 314.033C167.588 314.985 168.499 315.563 169.648 315.766C170.415 315.902 171.157 315.841 171.874 315.584C172.595 315.327 173.195 314.908 173.673 314.326C174.156 313.745 174.467 313.06 174.607 312.27C174.746 311.485 174.688 310.743 174.432 310.045C174.182 309.344 173.758 308.744 173.162 308.245C172.565 307.746 171.895 307.43 171.15 307.299Z" fill="#0D0D3D"/>
<path d="M320.528 288.886L156.63 259.318L190.12 74.1661L354.018 103.734L320.528 288.886Z" fill="white"/>
<path d="M320.528 288.885L320.851 287.097L158.744 257.852L191.586 76.277L351.903 105.2L318.737 288.562L320.528 288.885L320.851 287.097L320.528 288.885L322.319 289.208L356.133 102.268L188.652 72.0535L154.515 260.783L321.996 290.997L322.319 289.208L320.528 288.885Z" fill="#231F20"/>
<path d="M279.859 106.653L257.242 103.067L272.421 7.58095L295.039 11.1675L279.859 106.653Z" fill="#C49A6C"/>
<path d="M706.766 352.009C707.999 360.783 701.867 368.887 693.089 370.087L533.998 391.84C525.265 393.034 517.212 386.941 515.986 378.213L481.695 134.063C480.463 125.29 486.594 117.185 495.372 115.985L654.46 94.2322C663.193 93.0381 671.247 99.1311 672.473 107.859L706.766 352.009Z" fill="white"/>
<path d="M523.758 339.302L530.648 338.368L527.848 348.224L531.649 347.709L531.932 349.791L524.973 350.734L527.766 340.942L524.05 341.446L523.758 339.302ZM538.685 340.298L540.79 340.013L541.935 348.436L539.829 348.721L539.708 347.831C539.348 348.279 538.971 348.619 538.577 348.851C538.188 349.077 537.75 349.223 537.265 349.289C536.176 349.437 535.177 349.144 534.268 348.41C533.358 347.672 532.818 346.675 532.647 345.421C532.471 344.121 532.71 343.003 533.367 342.068C534.023 341.132 534.9 340.59 536 340.441C536.506 340.373 536.993 340.404 537.463 340.535C537.933 340.666 538.382 340.896 538.811 341.227L538.685 340.298ZM536.698 342.334C536.043 342.422 535.53 342.728 535.159 343.252C534.788 343.77 534.652 344.39 534.75 345.113C534.849 345.84 535.15 346.409 535.652 346.819C536.16 347.229 536.736 347.39 537.381 347.302C538.047 347.212 538.568 346.908 538.944 346.389C539.32 345.865 539.457 345.229 539.355 344.481C539.256 343.748 538.956 343.184 538.455 342.789C537.955 342.394 537.369 342.243 536.698 342.334ZM543.284 336.143C543.656 336.093 543.991 336.184 544.291 336.417C544.596 336.649 544.774 336.956 544.826 337.337C544.877 337.714 544.79 338.055 544.563 338.359C544.335 338.657 544.038 338.832 543.672 338.881C543.295 338.932 542.954 338.842 542.65 338.61C542.349 338.372 542.173 338.06 542.12 337.673C542.07 337.301 542.158 336.966 542.386 336.667C542.613 336.368 542.913 336.193 543.284 336.143ZM542.695 339.755L544.816 339.467L545.96 347.89L543.839 348.178L542.695 339.755ZM546.736 339.207L548.842 338.922L548.958 339.781C549.384 339.314 549.779 338.976 550.146 338.769C550.516 338.556 550.905 338.422 551.313 338.366C552.149 338.253 552.898 338.448 553.561 338.953C554.118 339.382 554.463 340.081 554.595 341.051L555.351 346.618L553.261 346.901L552.759 343.208C552.622 342.202 552.485 341.54 552.347 341.222C552.215 340.904 552.023 340.675 551.773 340.535C551.527 340.39 551.239 340.339 550.909 340.384C550.481 340.442 550.131 340.637 549.861 340.968C549.595 341.293 549.437 341.716 549.387 342.238C549.361 342.51 549.407 343.084 549.526 343.962L549.986 347.345L547.88 347.63L546.736 339.207ZM560.531 334.318L562.699 334.025L563.966 343.345L567.124 342.917L567.405 344.984L562.079 345.706L560.531 334.318ZM576.779 340.048L569.989 340.968C570.169 341.553 570.494 341.995 570.966 342.294C571.442 342.587 572.01 342.689 572.671 342.599C573.461 342.492 574.102 342.124 574.594 341.495L576.489 342.09C576.13 342.779 575.662 343.318 575.084 343.707C574.506 344.09 573.79 344.339 572.939 344.455C571.618 344.634 570.485 344.364 569.541 343.646C568.597 342.923 568.039 341.934 567.869 340.68C567.694 339.395 567.962 338.273 568.673 337.315C569.388 336.35 570.37 335.784 571.619 335.614C572.946 335.435 574.082 335.714 575.029 336.453C575.975 337.187 576.543 338.251 576.732 339.644L576.779 340.048ZM574.432 338.671C574.228 338.22 573.9 337.876 573.447 337.637C573 337.398 572.505 337.316 571.963 337.389C571.375 337.469 570.881 337.704 570.482 338.094C570.231 338.339 570.023 338.737 569.856 339.291L574.432 338.671ZM576.937 335.115L579.089 334.823L581.893 339.505L583.339 334.247L585.483 333.956L583.043 342.865L581.673 343.051L576.937 335.115ZM587.087 330.207C587.459 330.157 587.794 330.248 588.094 330.481C588.399 330.713 588.577 331.02 588.629 331.402C588.68 331.778 588.592 332.119 588.366 332.423C588.138 332.722 587.841 332.896 587.475 332.946C587.098 332.997 586.757 332.906 586.452 332.674C586.152 332.436 585.976 332.124 585.923 331.737C585.872 331.365 585.961 331.03 586.188 330.731C586.416 330.432 586.715 330.258 587.087 330.207ZM586.498 333.819L588.619 333.532L589.763 341.954L587.642 342.242L586.498 333.819ZM590.539 333.271L592.644 332.986L592.761 333.845C593.187 333.378 593.582 333.04 593.948 332.833C594.319 332.62 594.708 332.486 595.116 332.43C595.952 332.317 596.701 332.513 597.363 333.017C597.921 333.446 598.266 334.145 598.398 335.116L599.154 340.682L597.064 340.965L596.562 337.272C596.425 336.266 596.288 335.604 596.15 335.286C596.018 334.968 595.826 334.739 595.576 334.599C595.33 334.454 595.042 334.404 594.712 334.448C594.283 334.506 593.934 334.701 593.664 335.032C593.398 335.357 593.24 335.78 593.19 336.302C593.163 336.574 593.21 337.148 593.329 338.026L593.789 341.409L591.683 341.694L590.539 333.271Z" fill="#0D0D3D"/>
<path opacity="0.5" d="M535.819 362.703L535.115 363.412C534.604 362.907 534.025 362.551 533.376 362.344C532.731 362.133 532.045 362.076 531.318 362.175C530.523 362.282 529.813 362.574 529.188 363.05C528.562 363.521 528.105 364.105 527.818 364.801C527.535 365.493 527.448 366.24 527.557 367.044C527.722 368.259 528.276 369.216 529.217 369.917C530.163 370.616 531.27 370.88 532.539 370.708C533.935 370.519 535.028 369.814 535.819 368.594L536.686 369.084C536.275 369.783 535.72 370.358 535.022 370.806C534.328 371.25 533.523 371.534 532.606 371.658C530.863 371.894 529.409 371.5 528.244 370.476C527.267 369.611 526.684 368.485 526.495 367.098C526.297 365.64 526.641 364.345 527.527 363.213C528.416 362.076 529.631 361.403 531.171 361.194C532.101 361.068 532.966 361.14 533.766 361.408C534.566 361.673 535.25 362.104 535.819 362.703ZM536.715 361.685L536.583 360.716L542.05 359.975L542.182 360.944L539.96 361.245L541.182 370.241L540.166 370.378L538.944 361.383L536.715 361.685ZM548.194 358.888C549.702 358.683 551.033 359.016 552.186 359.885C553.339 360.754 554.015 361.925 554.215 363.397C554.413 364.856 554.073 366.162 553.195 367.316C552.322 368.469 551.156 369.144 549.697 369.342C548.22 369.542 546.905 369.205 545.752 368.331C544.598 367.457 543.924 366.303 543.729 364.866C543.599 363.909 543.708 362.991 544.058 362.111C544.412 361.23 544.957 360.506 545.694 359.937C546.43 359.363 547.264 359.014 548.194 358.888ZM548.374 359.857C547.638 359.956 546.966 360.243 546.359 360.716C545.752 361.189 545.307 361.776 545.025 362.476C544.743 363.177 544.657 363.927 544.765 364.726C544.926 365.909 545.47 366.854 546.399 367.561C547.331 368.262 548.376 368.535 549.532 368.378C550.304 368.273 550.992 367.989 551.596 367.526C552.204 367.061 552.647 366.479 552.925 365.78C553.207 365.079 553.294 364.331 553.186 363.537C553.078 362.746 552.796 362.058 552.339 361.471C551.886 360.88 551.3 360.437 550.579 360.144C549.859 359.851 549.124 359.755 548.374 359.857Z" fill="#0D0D3D"/>
<path d="M685.706 295.519L520.696 318.082L494.869 129.694L659.881 107.131L685.706 295.519Z" fill="white"/>
<path d="M685.707 295.519L685.462 293.709L522.261 316.023L496.931 131.257L658.316 109.19L683.896 295.767L685.707 295.519L685.462 293.709L685.707 295.519L687.523 295.272L661.447 105.073L492.809 128.132L519.131 320.141L687.768 297.082L687.523 295.272L685.707 295.519Z" fill="#231F20"/>
<path d="M586.968 129.314L564.409 133.274L547.647 38.0528L570.201 34.0926L586.968 129.314Z" fill="#C49A6C"/>
<path d="M1303.73 349.327C1304.15 358.195 1297.28 365.714 1288.41 366.08L1127.97 372.71C1119.18 373.073 1111.75 366.276 1111.33 357.491L1099.24 105.685C1098.81 96.8168 1105.69 89.2979 1114.56 88.9314L1275 82.3014C1283.79 81.9383 1291.22 88.7358 1291.64 97.5207L1303.73 349.327Z" fill="white"/>
<path d="M1123.17 315.667L1125.26 315.581L1130.5 322.934L1130.19 315.378L1132.37 315.287L1132.85 326.77L1130.75 326.856L1125.52 319.527L1125.83 327.059L1123.65 327.149L1123.17 315.667ZM1138.87 317.796C1139.67 317.763 1140.43 317.932 1141.15 318.304C1141.87 318.675 1142.45 319.196 1142.87 319.867C1143.29 320.537 1143.52 321.271 1143.55 322.067C1143.59 322.868 1143.42 323.626 1143.05 324.34C1142.68 325.054 1142.16 325.622 1141.49 326.046C1140.82 326.465 1140.07 326.691 1139.24 326.725C1138.03 326.775 1136.97 326.386 1136.07 325.558C1135.17 324.724 1134.7 323.688 1134.65 322.45C1134.59 321.123 1135.03 319.997 1135.97 319.072C1136.79 318.267 1137.76 317.841 1138.87 317.796ZM1138.98 319.8C1138.32 319.828 1137.78 320.082 1137.35 320.563C1136.94 321.039 1136.74 321.636 1136.77 322.355C1136.8 323.093 1137.04 323.683 1137.49 324.123C1137.95 324.563 1138.51 324.769 1139.18 324.742C1139.84 324.714 1140.39 324.46 1140.81 323.979C1141.23 323.497 1141.43 322.892 1141.4 322.164C1141.37 321.435 1141.13 320.854 1140.67 320.419C1140.22 319.979 1139.66 319.773 1138.98 319.8ZM1144.77 314.487L1146.9 314.399L1147.38 326.171L1145.25 326.259L1144.77 314.487ZM1155.24 317.339L1157.37 317.252L1157.72 325.745L1155.6 325.832L1155.56 324.934C1155.16 325.347 1154.75 325.651 1154.34 325.845C1153.93 326.034 1153.48 326.138 1152.99 326.158C1151.89 326.204 1150.92 325.819 1150.09 325.004C1149.25 324.183 1148.81 323.141 1148.75 321.876C1148.7 320.565 1149.04 319.474 1149.78 318.604C1150.52 317.735 1151.45 317.277 1152.56 317.231C1153.07 317.21 1153.55 317.287 1154.01 317.461C1154.46 317.635 1154.89 317.907 1155.28 318.276L1155.24 317.339ZM1153.08 319.18C1152.42 319.207 1151.88 319.464 1151.46 319.951C1151.04 320.432 1150.85 321.037 1150.88 321.765C1150.91 322.499 1151.15 323.094 1151.61 323.549C1152.08 324.004 1152.64 324.218 1153.29 324.191C1153.96 324.164 1154.51 323.909 1154.93 323.428C1155.36 322.941 1155.55 322.321 1155.52 321.566C1155.49 320.827 1155.24 320.238 1154.78 319.798C1154.32 319.358 1153.75 319.152 1153.08 319.18ZM1159.52 317.163L1161.65 317.075L1161.68 317.942C1162.15 317.516 1162.57 317.217 1162.96 317.045C1163.35 316.867 1163.75 316.77 1164.16 316.753C1165 316.718 1165.73 316.983 1166.34 317.547C1166.86 318.026 1167.13 318.754 1167.17 319.733L1167.41 325.345L1165.3 325.432L1165.14 321.709C1165.1 320.694 1165.03 320.022 1164.92 319.693C1164.82 319.363 1164.65 319.118 1164.41 318.955C1164.18 318.788 1163.9 318.711 1163.57 318.724C1163.13 318.742 1162.77 318.903 1162.47 319.207C1162.17 319.506 1161.98 319.913 1161.88 320.428C1161.83 320.696 1161.82 321.272 1161.86 322.157L1162 325.568L1159.87 325.656L1159.52 317.163ZM1184.39 315.02L1182.92 316.605C1181.9 315.615 1180.75 315.146 1179.45 315.2C1178.32 315.246 1177.39 315.66 1176.66 316.441C1175.93 317.222 1175.58 318.148 1175.63 319.22C1175.67 320.329 1176.11 321.251 1176.93 321.989C1177.75 322.727 1178.75 323.071 1179.91 323.024C1180.66 322.993 1181.29 322.808 1181.79 322.469C1182.3 322.13 1182.7 321.616 1182.99 320.926L1179.66 321.063L1179.58 319.01L1185.35 318.772L1185.39 319.256C1185.43 320.26 1185.21 321.223 1184.73 322.145C1184.24 323.066 1183.6 323.781 1182.79 324.289C1181.98 324.796 1181.02 325.073 1179.91 325.119C1178.72 325.168 1177.64 324.955 1176.68 324.478C1175.73 323.996 1174.96 323.288 1174.37 322.353C1173.79 321.417 1173.48 320.396 1173.43 319.287C1173.37 317.768 1173.82 316.425 1174.78 315.26C1175.91 313.873 1177.44 313.14 1179.35 313.062C1180.35 313.021 1181.29 313.167 1182.17 313.5C1182.92 313.782 1183.66 314.289 1184.39 315.02ZM1195.74 320.541L1188.89 320.823C1189.02 321.423 1189.3 321.894 1189.74 322.235C1190.19 322.571 1190.74 322.725 1191.41 322.698C1192.21 322.665 1192.88 322.359 1193.43 321.778L1195.26 322.547C1194.84 323.2 1194.32 323.693 1193.71 324.026C1193.1 324.354 1192.36 324.535 1191.5 324.571C1190.17 324.626 1189.07 324.251 1188.2 323.448C1187.32 322.64 1186.86 321.603 1186.81 320.339C1186.76 319.043 1187.13 317.951 1187.92 317.063C1188.73 316.17 1189.76 315.698 1191.02 315.646C1192.35 315.591 1193.46 315.975 1194.33 316.799C1195.21 317.618 1195.67 318.73 1195.73 320.135L1195.74 320.541ZM1193.53 318.951C1193.37 318.483 1193.08 318.11 1192.65 317.83C1192.22 317.551 1191.74 317.422 1191.19 317.445C1190.6 317.469 1190.09 317.657 1189.65 318.009C1189.38 318.228 1189.14 318.606 1188.92 319.141L1193.53 318.951ZM1197.96 312.075C1198.34 312.06 1198.66 312.182 1198.94 312.442C1199.22 312.701 1199.37 313.023 1199.39 313.408C1199.4 313.788 1199.28 314.119 1199.03 314.401C1198.77 314.677 1198.46 314.823 1198.09 314.838C1197.71 314.854 1197.38 314.732 1197.1 314.472C1196.82 314.207 1196.68 313.88 1196.66 313.49C1196.64 313.115 1196.76 312.789 1197.02 312.513C1197.27 312.237 1197.59 312.091 1197.96 312.075ZM1197.04 315.616L1199.18 315.528L1199.53 324.021L1197.39 324.109L1197.04 315.616ZM1207.25 311.911L1209.38 311.824L1209.86 323.595L1207.74 323.682L1207.7 322.785C1207.3 323.197 1206.89 323.501 1206.48 323.695C1206.07 323.884 1205.62 323.989 1205.13 324.009C1204.03 324.054 1203.07 323.669 1202.23 322.854C1201.39 322.034 1200.95 320.991 1200.9 319.727C1200.84 318.415 1201.19 317.325 1201.93 316.455C1202.67 315.585 1203.59 315.127 1204.7 315.082C1205.21 315.061 1205.69 315.137 1206.15 315.311C1206.6 315.485 1207.03 315.757 1207.43 316.126L1207.25 311.911ZM1205.22 317.031C1204.56 317.058 1204.02 317.315 1203.6 317.801C1203.18 318.282 1202.99 318.887 1203.02 319.616C1203.05 320.349 1203.3 320.944 1203.76 321.399C1204.23 321.854 1204.78 322.068 1205.43 322.042C1206.11 322.014 1206.65 321.759 1207.08 321.278C1207.5 320.791 1207.7 320.171 1207.66 319.416C1207.63 318.677 1207.39 318.088 1206.93 317.648C1206.46 317.209 1205.9 317.003 1205.22 317.031ZM1211.79 311.873L1213.92 311.785L1214.05 314.915L1215.31 314.863L1215.39 316.697L1214.12 316.75L1214.4 323.408L1212.27 323.496L1212 316.837L1210.91 316.882L1210.83 315.048L1211.92 315.003L1211.79 311.873Z" fill="#0D0D3D"/>
<path opacity="0.5" d="M1122.93 338.639L1124.93 338.557C1126.08 338.509 1126.86 338.527 1127.26 338.611C1127.84 338.729 1128.32 339.001 1128.7 339.427C1129.09 339.849 1129.29 340.393 1129.32 341.058C1129.35 341.727 1129.19 342.288 1128.85 342.739C1128.52 343.187 1128.04 343.498 1127.42 343.674C1126.97 343.802 1126.12 343.892 1124.87 343.943L1124.16 343.973L1124.35 348.645L1123.35 348.686L1122.93 338.639ZM1123.97 339.574L1124.12 342.989L1125.82 342.94C1126.51 342.911 1127.01 342.829 1127.32 342.693C1127.63 342.552 1127.87 342.34 1128.05 342.054C1128.22 341.764 1128.29 341.447 1128.28 341.1C1128.27 340.764 1128.16 340.46 1127.97 340.19C1127.77 339.915 1127.53 339.724 1127.22 339.618C1126.92 339.512 1126.43 339.473 1125.75 339.501L1123.97 339.574ZM1130.8 340.935L1131.78 340.895L1131.83 341.981C1132.1 341.54 1132.39 341.209 1132.71 340.986C1133.02 340.759 1133.36 340.638 1133.71 340.624C1133.97 340.613 1134.26 340.685 1134.56 340.841L1134.1 341.668C1133.89 341.59 1133.72 341.553 1133.59 341.559C1133.27 341.572 1132.97 341.717 1132.68 341.993C1132.4 342.265 1132.19 342.679 1132.06 343.237C1131.95 343.665 1131.93 344.524 1131.98 345.812L1132.09 348.326L1131.11 348.366L1130.8 340.935ZM1138.88 340.41C1140.03 340.363 1140.99 340.738 1141.78 341.536C1142.49 342.264 1142.87 343.144 1142.91 344.178C1142.95 345.216 1142.63 346.14 1141.94 346.948C1141.25 347.752 1140.34 348.177 1139.21 348.224C1138.07 348.271 1137.12 347.922 1136.36 347.178C1135.61 346.429 1135.22 345.535 1135.17 344.497C1135.13 343.468 1135.44 342.562 1136.09 341.777C1136.8 340.913 1137.74 340.457 1138.88 340.41ZM1138.92 341.346C1138.13 341.379 1137.46 341.7 1136.92 342.311C1136.37 342.922 1136.12 343.644 1136.15 344.477C1136.17 345.015 1136.32 345.51 1136.6 345.964C1136.88 346.418 1137.25 346.763 1137.7 347C1138.15 347.232 1138.64 347.337 1139.17 347.315C1139.7 347.294 1140.18 347.148 1140.61 346.88C1141.04 346.607 1141.38 346.232 1141.62 345.757C1141.86 345.282 1141.96 344.776 1141.94 344.239C1141.91 343.405 1141.59 342.707 1140.99 342.143C1140.4 341.579 1139.71 341.313 1138.92 341.346ZM1144.77 337.294C1144.99 337.285 1145.17 337.355 1145.33 337.503C1145.49 337.652 1145.58 337.835 1145.59 338.054C1145.6 338.268 1145.53 338.456 1145.38 338.617C1145.23 338.778 1145.05 338.863 1144.83 338.872C1144.62 338.881 1144.43 338.811 1144.26 338.663C1144.11 338.514 1144.02 338.333 1144.02 338.119C1144.01 337.9 1144.07 337.71 1144.22 337.549C1144.37 337.388 1144.55 337.303 1144.77 337.294ZM1144.42 340.373L1145.39 340.333L1145.75 348.885C1145.77 349.508 1145.68 349.966 1145.46 350.258C1145.25 350.554 1144.95 350.71 1144.56 350.726C1144.23 350.74 1143.87 350.677 1143.46 350.539L1143.42 349.678C1143.68 349.8 1143.91 349.857 1144.12 349.848C1144.38 349.837 1144.57 349.722 1144.68 349.503C1144.76 349.363 1144.78 349.077 1144.77 348.645L1144.42 340.373ZM1153.84 344.959L1154.67 345.349C1154.42 345.879 1154.14 346.311 1153.8 346.644C1153.47 346.977 1153.09 347.236 1152.67 347.423C1152.24 347.604 1151.75 347.707 1151.21 347.729C1150 347.779 1149.03 347.422 1148.32 346.658C1147.6 345.889 1147.22 345.004 1147.18 344.002C1147.14 343.06 1147.4 342.208 1147.94 341.446C1148.64 340.478 1149.6 339.968 1150.83 339.918C1152.1 339.866 1153.13 340.304 1153.92 341.234C1154.49 341.89 1154.8 342.726 1154.85 343.741L1148.17 344.016C1148.22 344.881 1148.53 345.58 1149.08 346.113C1149.64 346.642 1150.31 346.89 1151.09 346.858C1151.47 346.843 1151.83 346.761 1152.18 346.615C1152.53 346.468 1152.83 346.28 1153.07 346.051C1153.32 345.822 1153.57 345.458 1153.84 344.959ZM1153.76 342.958C1153.61 342.453 1153.41 342.053 1153.15 341.758C1152.9 341.463 1152.56 341.23 1152.16 341.06C1151.75 340.89 1151.32 340.814 1150.88 340.832C1150.15 340.862 1149.54 341.123 1149.03 341.613C1148.66 341.971 1148.4 342.495 1148.23 343.186L1153.76 342.958ZM1163.76 341.123L1163.02 341.625C1162.33 340.782 1161.41 340.385 1160.28 340.431C1159.37 340.469 1158.63 340.791 1158.05 341.399C1157.48 342.006 1157.21 342.726 1157.25 343.56C1157.27 344.102 1157.43 344.606 1157.72 345.073C1158.02 345.539 1158.41 345.895 1158.9 346.139C1159.39 346.384 1159.94 346.493 1160.53 346.469C1161.63 346.424 1162.5 345.952 1163.16 345.054L1163.94 345.521C1163.6 346.069 1163.14 346.503 1162.55 346.823C1161.97 347.139 1161.3 347.313 1160.53 347.345C1159.36 347.393 1158.37 347.06 1157.56 346.345C1156.76 345.63 1156.33 344.738 1156.29 343.668C1156.26 342.948 1156.41 342.274 1156.74 341.644C1157.08 341.01 1157.56 340.507 1158.18 340.135C1158.8 339.762 1159.5 339.56 1160.28 339.528C1160.77 339.508 1161.25 339.563 1161.71 339.695C1162.18 339.826 1162.58 340.006 1162.9 340.234C1163.23 340.462 1163.52 340.758 1163.76 341.123ZM1166.25 336.709L1167.22 336.67L1167.33 339.429L1168.85 339.366L1168.88 340.186L1167.37 340.249L1167.64 346.86L1166.68 346.9L1166.4 340.288L1165.1 340.342L1165.06 339.522L1166.37 339.469L1166.25 336.709ZM1174.16 346.591L1175.17 336.485L1175.34 336.478L1179.76 344.554L1183.47 336.143L1183.63 336.137L1185.49 346.124L1184.5 346.165L1183.22 339.02L1179.96 346.352L1179.71 346.363L1175.81 339.271L1175.13 346.551L1174.16 346.591ZM1194.41 338.312L1194.72 345.744L1193.78 345.782L1193.73 344.505C1193.34 345.009 1192.91 345.394 1192.42 345.661C1191.93 345.927 1191.39 346.072 1190.8 346.097C1189.75 346.14 1188.83 345.797 1188.06 345.067C1187.28 344.333 1186.87 343.419 1186.83 342.327C1186.78 341.257 1187.12 340.326 1187.84 339.534C1188.56 338.743 1189.45 338.326 1190.51 338.282C1191.12 338.257 1191.67 338.364 1192.17 338.603C1192.68 338.842 1193.13 339.214 1193.53 339.717L1193.47 338.351L1194.41 338.312ZM1190.62 339.201C1190.09 339.223 1189.6 339.375 1189.16 339.658C1188.72 339.936 1188.38 340.317 1188.13 340.802C1187.88 341.287 1187.77 341.793 1187.79 342.321C1187.81 342.845 1187.97 343.34 1188.26 343.807C1188.55 344.274 1188.92 344.633 1189.38 344.883C1189.85 345.128 1190.34 345.24 1190.86 345.219C1191.38 345.197 1191.88 345.044 1192.33 344.761C1192.79 344.478 1193.14 344.105 1193.37 343.644C1193.6 343.183 1193.71 342.67 1193.69 342.105C1193.65 341.245 1193.34 340.537 1192.74 339.982C1192.16 339.427 1191.45 339.167 1190.62 339.201ZM1196.57 338.223L1197.53 338.184L1197.58 339.516C1197.94 338.99 1198.35 338.593 1198.81 338.323C1199.26 338.049 1199.76 337.9 1200.31 337.878C1200.86 337.855 1201.36 337.976 1201.8 338.241C1202.24 338.505 1202.58 338.872 1202.8 339.342C1203.03 339.811 1203.16 340.552 1203.2 341.563L1203.36 345.387L1202.41 345.427L1202.26 341.882C1202.23 341.026 1202.17 340.456 1202.08 340.172C1201.95 339.685 1201.72 339.325 1201.4 339.092C1201.07 338.854 1200.66 338.746 1200.15 338.767C1199.57 338.791 1199.06 339.003 1198.62 339.405C1198.18 339.806 1197.9 340.292 1197.78 340.863C1197.7 341.235 1197.68 341.911 1197.72 342.89L1197.84 345.615L1196.88 345.655L1196.57 338.223ZM1212.51 337.566L1212.82 344.997L1211.88 345.036L1211.83 343.759C1211.44 344.263 1211.01 344.648 1210.52 344.914C1210.03 345.181 1209.49 345.326 1208.9 345.351C1207.85 345.394 1206.93 345.051 1206.16 344.321C1205.38 343.587 1204.97 342.673 1204.93 341.58C1204.88 340.51 1205.22 339.58 1205.94 338.788C1206.66 337.997 1207.55 337.579 1208.61 337.536C1209.22 337.511 1209.77 337.618 1210.27 337.857C1210.78 338.096 1211.23 338.467 1211.63 338.971L1211.57 337.605L1212.51 337.566ZM1208.72 338.455C1208.19 338.477 1207.7 338.629 1207.26 338.912C1206.82 339.19 1206.48 339.571 1206.23 340.056C1205.98 340.54 1205.87 341.047 1205.89 341.575C1205.91 342.098 1206.07 342.594 1206.36 343.061C1206.65 343.528 1207.02 343.886 1207.48 344.137C1207.95 344.382 1208.44 344.494 1208.96 344.472C1209.48 344.451 1209.98 344.298 1210.43 344.015C1210.89 343.731 1211.24 343.359 1211.47 342.898C1211.7 342.437 1211.81 341.924 1211.79 341.359C1211.75 340.499 1211.44 339.791 1210.84 339.236C1210.26 338.681 1209.55 338.421 1208.72 338.455ZM1221.07 337.213L1222.03 337.174L1222.28 343.095C1222.32 344.138 1222.26 344.905 1222.1 345.395C1221.88 346.088 1221.47 346.632 1220.86 347.026C1220.26 347.421 1219.52 347.636 1218.65 347.672C1218.01 347.698 1217.44 347.631 1216.92 347.469C1216.41 347.313 1215.98 347.088 1215.65 346.796C1215.32 346.509 1215.01 346.079 1214.72 345.508L1215.75 345.465C1216.06 345.945 1216.44 346.294 1216.89 346.513C1217.35 346.731 1217.91 346.827 1218.57 346.799C1219.22 346.773 1219.76 346.627 1220.2 346.363C1220.64 346.103 1220.95 345.784 1221.12 345.408C1221.3 345.031 1221.37 344.433 1221.34 343.613L1221.32 343.231C1220.98 343.701 1220.55 344.07 1220.05 344.337C1219.54 344.6 1218.99 344.743 1218.41 344.767C1217.72 344.795 1217.08 344.653 1216.46 344.341C1215.85 344.024 1215.36 343.586 1215.01 343.026C1214.66 342.465 1214.47 341.842 1214.44 341.154C1214.41 340.466 1214.56 339.82 1214.87 339.214C1215.19 338.603 1215.64 338.112 1216.23 337.742C1216.82 337.37 1217.45 337.171 1218.12 337.144C1218.68 337.121 1219.2 337.215 1219.68 337.428C1220.18 337.636 1220.66 337.995 1221.12 338.504L1221.07 337.213ZM1218.28 338.061C1217.74 338.083 1217.24 338.236 1216.79 338.519C1216.33 338.798 1215.98 339.175 1215.74 339.65C1215.49 340.121 1215.38 340.625 1215.41 341.162C1215.44 341.977 1215.74 342.64 1216.31 343.15C1216.88 343.66 1217.6 343.897 1218.47 343.862C1219.34 343.825 1220.04 343.532 1220.55 342.982C1221.07 342.432 1221.31 341.726 1221.27 340.866C1221.25 340.306 1221.1 339.812 1220.84 339.385C1220.58 338.953 1220.21 338.62 1219.75 338.383C1219.29 338.147 1218.8 338.039 1218.28 338.061ZM1230.55 341.797L1231.37 342.187C1231.13 342.717 1230.84 343.149 1230.51 343.482C1230.17 343.815 1229.79 344.074 1229.37 344.261C1228.94 344.442 1228.46 344.544 1227.91 344.567C1226.7 344.617 1225.73 344.26 1225.02 343.496C1224.3 342.727 1223.92 341.842 1223.88 340.84C1223.84 339.897 1224.1 339.045 1224.65 338.284C1225.34 337.316 1226.3 336.806 1227.53 336.756C1228.8 336.703 1229.83 337.142 1230.62 338.072C1231.19 338.728 1231.5 339.564 1231.55 340.579L1224.87 340.854C1224.92 341.718 1225.23 342.417 1225.78 342.951C1226.34 343.48 1227.01 343.728 1227.79 343.696C1228.17 343.681 1228.53 343.599 1228.88 343.453C1229.24 343.306 1229.53 343.118 1229.78 342.889C1230.02 342.66 1230.27 342.296 1230.55 341.797ZM1230.46 339.796C1230.31 339.291 1230.11 338.891 1229.85 338.596C1229.6 338.301 1229.27 338.068 1228.86 337.898C1228.45 337.728 1228.02 337.652 1227.58 337.67C1226.85 337.7 1226.24 337.961 1225.73 338.451C1225.37 338.808 1225.1 339.333 1224.93 340.024L1230.46 339.796ZM1232.82 336.729L1233.8 336.689L1233.84 337.775C1234.11 337.335 1234.41 337.003 1234.72 336.781C1235.04 336.553 1235.37 336.432 1235.72 336.418C1235.99 336.407 1236.27 336.48 1236.58 336.636L1236.11 337.462C1235.91 337.384 1235.74 337.348 1235.6 337.353C1235.28 337.366 1234.98 337.511 1234.7 337.787C1234.41 338.059 1234.2 338.474 1234.07 339.031C1233.97 339.459 1233.95 340.318 1234 341.607L1234.1 344.12L1233.13 344.16L1232.82 336.729Z" fill="#0D0D3D"/>
<path d="M1287 285.871L1120.59 292.748L1112.71 102.532L1279.12 95.6555L1287 285.871Z" fill="white"/>
<path d="M1287 285.872L1286.93 284.045L1122.35 290.846L1114.62 104.284L1277.37 97.5589L1285.18 285.948L1287 285.872L1286.93 284.045L1287 285.872L1288.83 285.797L1280.88 93.7534L1110.81 100.782L1118.84 294.651L1288.91 287.624L1288.83 285.797L1287 285.872Z" fill="#231F20"/>
<path d="M1210.36 108.464L1187.53 110.277L1179.86 13.8989L1202.69 12.0863L1210.36 108.464Z" fill="#C49A6C"/>
<path d="M177.73 126.184C177.608 126.184 177.486 126.137 177.394 126.017C177.326 125.904 177.28 125.793 177.26 125.686C177.505 125.635 177.697 125.614 177.843 125.614C178.223 125.614 178.302 125.756 178.232 125.899C178.162 126.041 177.945 126.184 177.73 126.184Z" fill="#C5C6C7"/>
</svg>
